<?xml version="1.0" standalone="no"?>
<!DOCTYPE svg PUBLIC "-//W3C//DTD SVG 1.1//EN" "http://www.w3.org/Graphics/SVG/1.1/DTD/svg11.dtd" >
<svg xmlns="http://www.w3.org/2000/svg">
<metadata>Generated by IcoMoon</metadata>
<defs>
<font id="icomoon" horiz-adv-x="1024">
<font-face units-per-em="1024" ascent="960" descent="-64" />
<missing-glyph horiz-adv-x="1024" />
<glyph unicode="&#x20;" horiz-adv-x="512" d="" />
<glyph unicode="&#xe900;" glyph-name="mobile_add" d="M992 576h-352v352c0 17.664-14.304 32-32 32h-192c-17.696 0-32-14.336-32-32v-352h-352c-17.696 0-32-14.336-32-32v-192c0-17.696 14.304-32 32-32h352v-352c0-17.696 14.304-32 32-32h192c17.696 0 32 14.304 32 32v352h352c17.696 0 32 14.304 32 32v192c0 17.664-14.304 32-32 32z" />
<glyph unicode="&#xe901;" glyph-name="mobile_contact" d="M645.568 342.784c0 0-275.232 0-378.432-240.864 0 0 172.352-68.8 378.432-68.8s378.432 68.8 378.432 68.8c-103.2 240.864-378.432 240.864-378.432 240.864zM645.568 377.12c103.2 0 172 103.2 172 275.264s-172 172.032-172 172.032-172 0-172-172.032 68.8-275.264 172-275.264zM311.648 494.528c33.92 0 63.040 14.080 86.144 39.392-8.544 34.592-13.28 74.144-13.28 118.464 0 66.112 25.408 106.688 56.736 131.68-34.112 78.592-129.6 78.752-129.6 78.752s-141.664 0-141.664-141.664c0-141.664 56.672-226.656 141.664-226.656zM445.216 383.488l-4.8 56c-69.376 26.528-128.768 26.72-128.768 26.72s-226.656 0-311.648-198.336c0 0 109.568-43.68 251.328-54.304 123.456 129.248 193.888 169.952 193.888 169.952z" />
<glyph unicode="&#xe902;" glyph-name="mobile_data" d="M0 128h1024v-128h-1024zM128 384h128v-192h-128zM320 640h128v-448h-128zM512 448h128v-256h-128zM704 832h128v-640h-128z" />
<glyph unicode="&#xe903;" glyph-name="mobile_equalizer" d="M82.528 601.28h858.944c45.568 0 82.528 41.984 82.528 93.824s-36.928 93.824-82.528 93.824h-858.944c-45.568 0-82.528-41.984-82.528-93.824s36.928-93.824 82.528-93.824zM73.056 736.928c11.584 11.584 25.28 17.408 41.056 17.408s29.696-5.792 41.76-17.408c12.064-11.584 18.112-25.28 18.112-41.056s-6.048-29.696-18.112-41.76c-12.064-12.064-25.984-18.112-41.76-18.112s-29.472 6.016-41.056 18.112-17.408 25.984-17.408 41.76c0 15.776 5.792 29.472 17.408 41.056zM941.664 552.384h-857.088c-45.472 0-82.336-41.92-82.336-93.632s36.864-93.632 82.336-93.632h857.088c45.472 0 82.336 41.92 82.336 93.632s-36.864 93.632-82.336 93.632zM794.080 417.728c-12.032-12.032-25.92-18.048-41.664-18.048s-29.408 6.016-40.96 18.048c-11.584 12.032-17.376 25.92-17.376 41.664s5.792 29.408 17.376 40.96c11.584 11.584 25.248 17.376 40.96 17.376s29.632-5.792 41.664-17.376c12.032-11.584 18.048-25.248 18.048-40.96s-6.016-29.632-18.048-41.664zM941.664 294.336h-857.088c-45.472 0-82.336-41.92-82.336-93.632s36.864-93.632 82.336-93.632h857.088c45.472 0 82.336 41.92 82.336 93.632s-36.864 93.632-82.336 93.632zM521.696 159.712c-12.032-12.032-25.92-18.048-41.664-18.048s-29.408 6.016-40.96 18.048c-11.584 12.032-17.376 25.92-17.376 41.664s5.792 29.408 17.376 40.96c11.584 11.584 25.248 17.376 40.96 17.376s29.632-5.792 41.664-17.376c12.032-11.584 18.048-25.248 18.048-40.96s-6.016-29.632-18.048-41.664z" />
<glyph unicode="&#xe904;" glyph-name="mobile_goback" d="M659.52 237.824c16.48-16.672 16.48-43.584 0-60.128-16.48-16.608-43.104-16.704-59.552 0l-235.488 240.288c-16.48 16.608-16.48 43.456 0 60.192l235.488 240.288c16.416 16.608 43.104 16.608 59.552 0 16.48-16.672 16.48-43.584 0-60.128l-193.12-210.336 193.12-210.144z" />
<glyph unicode="&#xe905;" glyph-name="mobile_heart" d="M512 91.744l-1.632-2.016-370.72 474.624c-16.896 21.312-46.56 47.072-46.56 105.568 0 102.688 83.552 186.176 186.176 186.176 102.688 0 232.736-83.488 232.736-186.176v154.208c-50.048 75.296-135.68 125.056-232.736 125.056-154.016 0-279.264-125.248-279.264-279.264 0-95.712 46.56-139.648 58.56-170.784l453.44-550.272v142.848zM512 91.744l1.632-2.016 370.72 474.624c16.896 21.312 46.56 47.072 46.56 105.568 0 102.688-83.552 186.176-186.176 186.176s-232.736-83.488-232.736-186.176v154.208c50.080 75.296 135.712 125.056 232.736 125.056 154.016 0 279.264-125.248 279.264-279.264 0-95.712-46.56-139.648-58.56-170.784l-453.44-550.272v142.848z" />
<glyph unicode="&#xe906;" glyph-name="mobile_home" d="M1024 369.568l-512 397.44-512-397.44v162.048l512 397.44 512-397.44zM896 384v-384h-256v256h-256v-256h-256v384l384 288z" />
<glyph unicode="&#xe907;" glyph-name="mobile_mail" d="M21.056 76.8l378.688 389.504 476.16-389.504zM992.32 76.8l-378.688 389.504-476.16-389.504zM999.52 858.752l-487.904-389.504-495.168 389.504zM1024.032 794.976l-353.024-288.928 353.024-372.992zM-0.064 792.032l353.024-288.928-353.024-372.992z" />
<glyph unicode="&#xe908;" glyph-name="mobile_maildraft" d="M383.68 333.056l-329.664-389.44h919.264l-332.64 387.232-256.992 2.208zM694.592 337.792l330.080-393.76v673.28zM0.224 617.312v-673.28l330.080 393.76-330.080 279.52zM167.488 815.296c0 30.336 24.608 54.944 54.944 54.944h560.32c30.336 0 54.944-24.608 54.944-54.944v-310.432l86.016 72.832v305.92c0 38.112-30.912 69.024-69.024 69.024h-704.128c-38.112 0-69.024-30.912-69.024-69.024v-287.296l86.016-72.832v291.84zM746.816 762.080c0-30.048-24.352-54.4-54.4-54.4h-379.68c-30.048 0-54.4 24.352-54.4 54.4v0c0 30.048 24.352 54.4 54.4 54.4h379.68c30.048 0 54.4-24.352 54.4-54.4v0zM741.248 617.312c0-30.048-24.352-54.4-54.4-54.4h-379.68c-30.048 0-54.4 24.352-54.4 54.4v0c0 30.048 24.352 54.4 54.4 54.4h379.68c30.048 0 54.4-24.352 54.4-54.4v0zM741.248 450.464c0-30.048-24.352-54.4-54.4-54.4h-379.68c-30.048 0-54.4 24.352-54.4 54.4v0c0 30.048 24.352 54.4 54.4 54.4h379.68c30.048 0 54.4-24.352 54.4-54.4v0z" />
<glyph unicode="&#xe909;" glyph-name="mobile_mailforward" d="M619.52 928h372.544v-372.544h-107.52v190.016l-522.528-522.528-75.008 75.008 522.528 522.528h-190.016v107.52zM884.544 75.456v372.544h107.52v-372.544q0-42.528-32.512-75.008t-75.008-32.512h-745.024q-44.992 0-76.256 32.512t-31.232 75.008v745.024q0 42.528 31.232 75.008t76.256 32.512h372.544v-107.52h-372.544v-745.024h745.024z" />
<glyph unicode="&#xe90a;" glyph-name="mobile_mailhavesend" d="M814.944 492.8h-84.416l-192.576-192.576c-6.912-7.296-15.552-10.944-25.92-10.944s-19.008 3.648-25.92 10.944l-192.576 192.576h-84.384c-38.624 0-69.92-31.296-69.92-69.92v-419.456c0-38.592 31.296-69.92 69.92-69.92h605.888c38.624 0 69.92 31.328 69.92 69.92v419.456c0 38.624-31.296 69.92-69.92 69.92zM203.008-19.648l-17.024 17.056 192.224 192.224 17.024-17.056-192.224-192.224zM820.992-19.648l-192.224 192.224 17.024 17.056 192.224-192.224-17.024-17.056zM535.296 135.68v-15.744h-46.624v15.744l-302.88 280.8 29.664 29.664 296.512-274.912 296.512 274.912 29.664-29.664-302.88-280.8zM804.224 644.896c6.528-15.776 3.84-29.216-8.064-40.32l-258.24-258.24c-6.912-7.296-15.552-10.944-25.92-10.944s-19.008 3.648-25.92 10.944l-258.24 258.24c-11.904 11.168-14.592 24.608-8.096 40.352 6.528 14.976 17.888 22.496 34.016 22.496h147.584v258.24c0 9.984 3.648 18.624 10.944 25.92s15.936 10.944 25.92 10.944h147.584c9.984 0 18.624-3.648 25.92-10.944s10.944-15.936 10.944-25.92v-258.24h147.584c16.128 0 27.456-7.52 34.016-22.496z" />
<glyph unicode="&#xe90b;" glyph-name="mobile_mailreply" d="M159.040 762.336l388.416-284.832c3.648-2.656 8.608-2.656 12.288 0l388.416 284.832v-457.952h-340.608c0.608-3.52 1.088-7.040 1.088-10.72v-72.32h412.192c5.728 0 10.368 4.64 10.368 10.4v643.712c0 5.728-4.64 10.4-10.368 10.4h-934.432c-5.728 0-10.368-4.64-10.368-10.4v-506.88l83.072 63.872v329.952zM244.384 802.752h618.4l-309.216-226.752-309.184 226.752zM-3.104 229.76l260.928 200.608c3.776 2.912 9.088 2.912 12.896 0.032s5.248-7.968 3.488-12.384l-52.448-132.832h307.456c5.888 0 10.624-4.768 10.624-10.624v-106.432c0-5.888-4.768-10.624-10.624-10.624h-307.456l52.448-132.832c1.76-4.48 0.352-9.536-3.488-12.416-1.888-1.472-4.16-2.208-6.4-2.208s-4.576 0.736-6.496 2.208l-260.928 200.544c-2.592 2.016-4.128 5.152-4.128 8.416s1.536 6.4 4.128 8.416z" />
<glyph unicode="&#xe90c;" glyph-name="mobile_mailrevoke" d="M86.4 626.688l340-327.040v198.144c102.976 0 365.12-2.272 365.12-271.872 0-141.12-100.096-258.912-233.184-286.144 213.888 28.992 379.264 210.4 379.264 432.224 0 412.096-440.288 415.616-511.2 415.616v168.64l-340-329.536z" />
<glyph unicode="&#xe90d;" glyph-name="mobile_pencil" d="M114.528 267.552c-2.912-2.912-5.312-6.112-7.68-9.312l215.52-215.52c3.2 2.368 6.4 4.768 9.312 7.68l497.728 497.728-217.152 217.152-497.728-497.728zM596.736 661.056c6.816 6.816 18.944 5.728 27.072-2.4s9.216-20.256 2.4-27.072l-15.168-15.168c-6.816-6.816-18.944-5.728-27.072 2.4s-9.216 20.256-2.4 27.072l15.168 15.168zM520.96 585.28c9.824 9.824 24.384 11.2 32.544 3.040s6.784-22.72-3.040-32.544l-293.824-293.824c-9.824-9.824-24.384-11.2-32.544-3.040s-6.784 22.72 3.040 32.544l293.824 293.824zM851.968 570.688l-217.152 217.152 56.352 56.352 217.152-217.152-56.352-56.352zM1003.040 825.984l-112.928 112.928c-28.768 28.768-76.48 27.744-106.56-2.304l-69.888-69.888 217.152-217.152 69.888 69.888c30.048 30.048 31.104 77.76 2.304 106.56zM925.6 733.056l-128.416 128.416 40.384 40.384 128.416-128.416-40.384-40.384zM86.048 239.072l-80.192-268.8 34.272-34.304 263.104 85.92-217.152 217.152zM78.912 66.88l28.96 97.088 125.44-125.44-95.328-30.72-59.072 59.072zM39.68-63.552c-18.72 0-33.856 15.168-33.856 33.856l33.856-33.856z" />
<glyph unicode="&#xe90e;" glyph-name="mobile_point" d="M879.776 448c0-203.104-164.672-367.776-367.776-367.776s-367.776 164.672-367.776 367.776c0 203.104 164.672 367.776 367.776 367.776s367.776-164.672 367.776-367.776z" />
<glyph unicode="&#xe90f;" glyph-name="mobile_search" d="M1014.88 33.504c12.192-12.192 12.192-31.968 0-44.192l-44.192-44.192c-12.224-12.192-32-12.192-44.192 0l-309.376 309.376c-3.36 3.36-5.6 7.328-7.104 11.552-63.456-46.368-141.376-74.048-226.016-74.048-212.064 0-384 171.936-384 384s171.936 384 384 384c212.064 0 384-171.936 384-384 0-84.64-27.68-162.56-74.048-226.016 4.224-1.504 8.192-3.712 11.552-7.104l309.376-309.376zM384 832c-141.376 0-256-114.624-256-256s114.624-256 256-256 256 114.624 256 256c0 141.376-114.624 256-256 256z" />
<glyph unicode="&#xe910;" glyph-name="mobile_star" d="M685.792 344.64l-0.256 0.16-1.728-1.376 2.464-0.384c0 0 106.272-267.648 84-306.432-43.776-33.184-231.904 146.752-256.352 170.528l0.16-0.928c0 0-211.36-211.072-260.32-173.344-29.312 21.312 77.28 315.52 77.28 315.52l0.512 0.064c-39.168 22.368-254.24 174.304-238.336 228.992 0.48 32.928 299.36 30.624 308.896 29.344 1.152 6.688 52.384 260.832 109.92 260.832 57.824 0 107.52-260.128 108.128-263.744h0.16l0.064-0.256 0.64 1.376c0 0 309.312 4.736 309.792-27.552 17.504-60.128-245.024-232.832-245.024-232.832z" />
<glyph unicode="&#xe911;" glyph-name="mobile_trash" d="M672 64c17.696 0 32 14.304 32 32v448c0 17.696-14.304 32-32 32s-32-14.304-32-32v-448c0-17.696 14.304-32 32-32zM352 64c17.664 0 32 14.304 32 32v448c0 17.696-14.336 32-32 32s-32-14.304-32-32v-448c0-17.696 14.336-32 32-32zM928 768h-128v64c0 70.688-57.312 128-128 128h-320c-70.688 0-128-57.312-128-128v-64h-128l-96-96c0-17.696 14.336-32 32-32h96v-640c0-35.328 28.672-64 64-64h640c35.328 0 64 28.672 64 64v640h96c17.696 0 32 14.304 32 32l-96 96zM320 832c0 35.328 28.672 64 64 64h256c35.328 0 64-28.672 64-64v-64h-384v64zM832 32c0-17.696-14.304-32-32-32h-576c-17.664 0-32 14.304-32 32v608h640v-608zM512 64c17.696 0 32 14.304 32 32v448c0 17.696-14.304 32-32 32s-32-14.304-32-32v-448c0-17.696 14.304-32 32-32z" />
<glyph unicode="&#xe912;" glyph-name="mobile_user" d="M512 959.68c-282.688 0-511.84-229.088-511.84-511.68s229.152-511.68 511.84-511.68 511.84 229.088 511.84 511.68-229.152 511.68-511.84 511.68zM512 33.856c-228.8 0-414.272 185.408-414.272 414.144s185.472 414.144 414.272 414.144 414.272-185.408 414.272-414.144-185.472-414.144-414.272-414.144zM556 316.192v36.288c48.48 27.328 88 95.392 88 163.52 0 109.344 0 198.016-132 198.016s-132-88.64-132-198.016c0-68.096 39.52-136.192 88-163.52v-36.288c-149.248-12.192-264-85.536-264-174.208l127.2-116.16 344.992-32.992 143.84 149.152c0 88.672-114.752 162.016-264 174.208v0z" />
<glyph unicode="&#xe913;" glyph-name="mobile_writemail" d="M977.152 766.4l-8.032-8.064-146.496 146.976 8 8.032c0 0 35.072 46.528 84.96 46.528 21.984 0 46.88-9.056 72.896-35.136 85.824-86.048-11.328-158.336-11.328-158.336zM780.992 850.624l-6.432 6.496-498.848-500.544-70.528-217.696 216.96 70.752 498.88 500.48-140.032 140.512zM275.808 209.728l34.368 110.336 74.048-79.072-108.416-31.264zM865.152 599.136v-552.608h-754.784v756.896h551.040l110.336 110.656h-703.968c-37.408 0-67.744-30.4-67.744-67.936v-842.336c0-37.504 30.336-67.936 67.744-67.936h839.968c37.408 0 67.744 30.4 67.744 67.936v705.984l-110.336-110.656z" />
</font>
</defs>
</svg>
