<?xml version="1.0" encoding="utf-8"?>
<!-- Generator: Adobe Illustrator 16.0.0, SVG Export Plug-In . SVG Version: 6.00 Build 0)  -->
<!DOCTYPE svg PUBLIC "-//W3C//DTD SVG 1.1//EN" "http://www.w3.org/Graphics/SVG/1.1/DTD/svg11.dtd">
<svg version="1.1" id="图层_1" xmlns="http://www.w3.org/2000/svg" xmlns:xlink="http://www.w3.org/1999/xlink" x="0px" y="0px"
	 width="42.52px" height="42.52px" viewBox="0 0 42.52 42.52" enable-background="new 0 0 42.52 42.52" xml:space="preserve">
<path d="M21.26,0.123C9.586,0.123,0.123,9.586,0.123,21.26c0,11.674,9.463,21.137,21.137,21.137
	c11.674,0,21.137-9.463,21.137-21.137C42.396,9.586,32.934,0.123,21.26,0.123z M22.505,34.84l-2.447,0.707l0.705-2.451l0.062-0.203
	l1.886,1.885L22.505,34.84z M33.755,25.684l-3.326,3.325v2.782c0,0.584-0.476,1.057-1.058,1.057h-2.782l-1.18,1.18l-1.181-1.18
	h-0.002l-2.116-2.111h0.005l-0.519-0.518l4.259-4.258H14.059c-0.437,0-0.792-0.357-0.792-0.793c0-0.438,0.355-0.791,0.792-0.791
	h12.673c0.197,0,0.372,0.079,0.511,0.197l1.072-1.072V9.087H16.634v3.541c0,0.449-0.365,0.813-0.815,0.813h-3.875v17.297h9.499
	l-0.611,2.111h-9.943c-0.584,0-1.057-0.473-1.057-1.057V12.606c0-0.289,0.117-0.563,0.324-0.762l4.753-4.575
	c0.195-0.189,0.458-0.297,0.731-0.297h13.73c0.582,0,1.058,0.473,1.059,1.056v13.614c0.265-0.041,0.543,0.027,0.747,0.232
	l2.579,2.574C34.094,24.789,34.094,25.344,33.755,25.684z M14.059,17.688h12.673c0.438,0,0.792,0.354,0.792,0.791
	c0,0.438-0.354,0.793-0.792,0.793H14.059c-0.437,0-0.792-0.355-0.792-0.793C13.267,18.043,13.622,17.688,14.059,17.688z
	 M13.267,15.139c0-0.438,0.355-0.794,0.792-0.794h12.673c0.438,0,0.792,0.356,0.792,0.794s-0.354,0.792-0.792,0.792H14.059
	C13.622,15.931,13.268,15.575,13.267,15.139z M14.059,21.033h12.673c0.438,0,0.792,0.354,0.792,0.791s-0.354,0.793-0.792,0.793
	H14.059c-0.437,0-0.791-0.355-0.792-0.793C13.267,21.387,13.622,21.033,14.059,21.033z M35.504,23.934
	c-0.341,0.34-0.896,0.34-1.236,0l-2.577-2.572c-0.34-0.346-0.34-0.896,0-1.236l1.032-1.032c0.34-0.34,0.894-0.34,1.235,0
	l2.576,2.577c0.342,0.34,0.342,0.893,0,1.232L35.504,23.934z"/>
</svg>
