<?xml version="1.0" encoding="utf-8"?>
<!-- Generator: Adobe Illustrator 16.0.0, SVG Export Plug-In . SVG Version: 6.00 Build 0)  -->
<!DOCTYPE svg PUBLIC "-//W3C//DTD SVG 1.1//EN" "http://www.w3.org/Graphics/SVG/1.1/DTD/svg11.dtd">
<svg version="1.1" id="图层_1" xmlns="http://www.w3.org/2000/svg" xmlns:xlink="http://www.w3.org/1999/xlink" x="0px" y="0px"
	 width="42.52px" height="42.52px" viewBox="0 0 42.52 42.52" enable-background="new 0 0 42.52 42.52" xml:space="preserve">
<g>
	<path fill="#030000" d="M11.589,10.307h2.919V2.997h-2.919V10.307"/>
	<path fill="#030000" d="M14.508,2.997h-2.919v7.311h2.919V2.997"/>
	<path fill="#030000" d="M27.657,10.307h2.918V2.997h-2.918V10.307"/>
	<path fill="#030000" d="M30.575,2.997h-2.918v7.311h2.918V2.997"/>
	<path fill-rule="evenodd" clip-rule="evenodd" fill="#030000" d="M36.424,7.379h-5.845v2.924h-2.922V7.379H14.509v2.924h-2.922
		V7.379H5.744c-0.807,0-1.461,0.656-1.461,1.462v2.922h33.602V8.841C37.885,8.035,37.232,7.379,36.424,7.379"/>
	<path fill-rule="evenodd" clip-rule="evenodd" fill="#030000" d="M4.282,38.061c0,0.807,0.654,1.463,1.461,1.463h30.681
		c0.808,0,1.461-0.656,1.461-1.463V13.223H4.282V38.061z M29.119,16.147h5.845v5.844h-5.845V16.147z M29.119,23.453h5.845v5.844
		h-5.845V23.453z M29.119,30.758h5.845V36.6h-5.845V30.758z M21.814,16.147h5.843v5.844h-5.843V16.147z M21.814,23.453h5.843v5.844
		h-5.843V23.453z M21.814,30.758h5.843V36.6h-5.843V30.758z M14.508,16.147h5.844v5.844h-5.844V16.147z M14.508,23.453h5.844v5.844
		h-5.844V23.453z M14.508,30.758h5.844V36.6h-5.844V30.758z M7.204,16.147h5.844v5.844H7.204V16.147z M7.204,23.453h5.844v5.844
		H7.204V23.453z M7.204,30.758h5.844V36.6H7.204V30.758z"/>
</g>
</svg>
