<?xml version="1.0" encoding="utf-8"?>
<!-- Generator: Adobe Illustrator 16.0.0, SVG Export Plug-In . SVG Version: 6.00 Build 0)  -->
<!DOCTYPE svg PUBLIC "-//W3C//DTD SVG 1.1//EN" "http://www.w3.org/Graphics/SVG/1.1/DTD/svg11.dtd">
<svg version="1.1" id="图层_1" xmlns="http://www.w3.org/2000/svg" xmlns:xlink="http://www.w3.org/1999/xlink" x="0px" y="0px"
	 width="42.52px" height="42.52px" viewBox="0 0 42.52 42.52" enable-background="new 0 0 42.52 42.52" xml:space="preserve">
<g id="XMLID_23_">
	<g>
		<path fill="#231815" d="M37.896,9.017c0,0.468-0.119,0.904-0.33,1.287H4.954C4.743,9.921,4.623,9.485,4.623,9.017
			c0-1.467,1.189-2.656,2.654-2.656h10.462h7.039H35.24C36.707,6.36,37.896,7.549,37.896,9.017z"/>
		<path fill="#231815" d="M37.008,12.965v25.091c0,1.889-1.531,3.42-3.422,3.42H8.934c-1.891,0-3.422-1.531-3.422-3.42V12.965h2.224
			v23.185c0,1.608,1.314,2.911,2.934,2.911h21.129c1.619,0,2.935-1.303,2.935-2.911V12.965H37.008z"/>
		<rect x="20.251" y="32.986" fill="#231815" width="10.015" height="0.933"/>
		<rect x="20.251" y="24.476" fill="#231815" width="10.015" height="0.933"/>
		<rect x="20.251" y="16.372" fill="#231815" width="10.015" height="0.933"/>
		<path fill="#231815" d="M24.903,4.687c0,0.322-0.046,0.636-0.125,0.932H22.87c0.159-0.273,0.252-0.593,0.252-0.932
			c0-1.029-0.833-1.861-1.862-1.861s-1.861,0.832-1.861,1.861c0,0.339,0.09,0.659,0.25,0.932h-1.91
			c-0.077-0.296-0.123-0.61-0.123-0.932c0-2.013,1.63-3.643,3.643-3.643C23.272,1.044,24.903,2.674,24.903,4.687z"/>
		<path fill="#231815" d="M17.382,30.526v6.223h-6.226v-6.223H17.382z M16.45,35.816v-4.358h-4.361v4.358H16.45z"/>
		<path fill="#231815" d="M17.382,22.481v6.226h-6.226v-6.226H17.382z M16.45,27.775v-4.362h-4.361v4.362H16.45z"/>
		<path fill="#231815" d="M17.382,14.376V20.6h-6.226v-6.223H17.382z M16.45,19.67v-4.361h-4.361v4.361H16.45z"/>
		<path fill="#231815" d="M14.27,16.526c0.534,0,0.964,0.431,0.964,0.963c0,0.53-0.431,0.961-0.964,0.961
			c-0.529,0-0.963-0.431-0.963-0.961C13.307,16.957,13.74,16.526,14.27,16.526z"/>
		<path fill="#231815" d="M14.27,24.63c0.534,0,0.964,0.434,0.964,0.965c0,0.533-0.431,0.963-0.964,0.963
			c-0.529,0-0.963-0.43-0.963-0.963C13.307,25.063,13.74,24.63,14.27,24.63z"/>
		<path fill="#231815" d="M14.27,32.675c0.534,0,0.964,0.431,0.964,0.964c0,0.53-0.431,0.961-0.964,0.961
			c-0.529,0-0.963-0.431-0.963-0.961C13.307,33.105,13.74,32.675,14.27,32.675z"/>
	</g>
</g>
</svg>
