<?xml version="1.0" encoding="utf-8"?>
<!-- Generator: Adobe Illustrator 16.0.0, SVG Export Plug-In . SVG Version: 6.00 Build 0)  -->
<!DOCTYPE svg PUBLIC "-//W3C//DTD SVG 1.1//EN" "http://www.w3.org/Graphics/SVG/1.1/DTD/svg11.dtd">
<svg version="1.1" id="图层_1" xmlns="http://www.w3.org/2000/svg" xmlns:xlink="http://www.w3.org/1999/xlink" x="0px" y="0px"
	 width="42.52px" height="42.52px" viewBox="0 0 42.52 42.52" enable-background="new 0 0 42.52 42.52" xml:space="preserve">
<g>
	<path fill="#231815" d="M38.215,35.25c-0.021-5.445-2.928-7.579-7.039-8.438c-3.736-0.771-7.064-0.908-5.729-5.897
		c1.797-1.314,2.199-4.023,4.416-4.916c0.16-1.371,0.094-2.206,0-3.605c-0.131-0.521-1.025-0.289-1.154-0.819
		c-0.123-2.785,0.926-6.878-0.975-8.196c-0.305-0.206-0.627-0.265-0.949-0.265c-0.348,0-0.709,0.064-1.068,0.064
		c-0.258,0-0.521-0.032-0.768-0.127c-1.076-0.402-1.115-1.831-2.299-1.96c-0.328,0-0.653,0-0.985,0
		c-1.649,1.114-3.607,0.92-5.296,1.397c-0.088,0.021-0.186,0.044-0.263,0.073c-0.99,0.328-1.603,0.913-1.993,1.687
		c-0.543,1.069-0.652,2.508-0.657,4.134c-0.01,0.951,0.02,1.972,0.015,3.026c-0.841,0.453-1.18,1.386-1.204,2.35
		c-0.02,0.565,0.063,1.145,0.219,1.639c0.289,0.889,1.121,1.128,1.802,1.97c0.818,0.986,1.361,2.326,2.081,3.072
		c0.264,0.265,0.548,0.46,0.881,0.524c0,1.082,0,2.155,0,3.229c-0.255,0.372-0.553,0.672-0.881,0.947
		c-3.049,2.568-9.271,1.449-11.258,5.28c-0.606,1.183-0.445,2.718-0.813,4.59c0,0.022,0,0.039,0,0.057c0,0.145,0,0.29,0,0.438
		c0,0.016,0,0.032,0,0.044c0,0,0,0,0.009,0c0.177,2.251,3.725,4.192,8.889,5.206c0.034-0.015,0.059-0.035,0.089-0.04
		c2.383,0.456,5.09,0.715,7.973,0.715c8.301,0,15.178-2.146,16.655-4.988c0.16-0.3,0.271-0.616,0.295-0.939c0,0,0.006,0,0.012,0
		c0-0.043-0.006-0.09-0.006-0.137c0-0.008,0.006-0.017,0.006-0.034C38.221,35.3,38.215,35.282,38.215,35.25z"/>
</g>
</svg>
