<?xml version="1.0" encoding="utf-8"?>
<!-- Generator: Adobe Illustrator 16.0.0, SVG Export Plug-In . SVG Version: 6.00 Build 0)  -->
<!DOCTYPE svg PUBLIC "-//W3C//DTD SVG 1.1//EN" "http://www.w3.org/Graphics/SVG/1.1/DTD/svg11.dtd">
<svg version="1.1" id="图层_1" xmlns="http://www.w3.org/2000/svg" xmlns:xlink="http://www.w3.org/1999/xlink" x="0px" y="0px"
	 width="42.52px" height="42.52px" viewBox="0 0 42.52 42.52" enable-background="new 0 0 42.52 42.52" xml:space="preserve">
<g>
	<g>
		<g>
			<g>
				<path fill="#231815" d="M31.814,6.964v2.749h-4.581V6.964H14.868v2.749h-4.581V6.964H4.346v4.135v28.014h20.843L37.935,27.27
					v-16.17V6.964H31.814z M35.434,26.631H24.715v10.408H6.968V13.173h28.466V26.631z"/>
			</g>
		</g>
	</g>
	<g>
		<g>
			<path fill="#231815" d="M14.212,4.751c0-0.885-0.717-1.601-1.601-1.601c-0.887,0-1.604,0.716-1.604,1.601v4.352h3.205V4.751z"/>
		</g>
	</g>
	<g>
		<g>
			<path fill="#231815" d="M31.11,4.751c0-0.885-0.72-1.601-1.604-1.601c-0.885,0-1.603,0.716-1.603,1.601v4.352h3.206V4.751z"/>
		</g>
	</g>
	<rect x="10.274" y="16.939" fill="#231815" width="4.672" height="4.072"/>
	<rect x="16.413" y="16.939" fill="#231815" width="4.676" height="4.072"/>
	<rect x="22.556" y="16.939" fill="#231815" width="4.672" height="4.072"/>
	<rect x="28.696" y="16.939" fill="#231815" width="4.674" height="4.072"/>
	<rect x="10.274" y="24.166" fill="#231815" width="4.672" height="4.072"/>
	<rect x="16.413" y="24.166" fill="#231815" width="4.676" height="4.072"/>
</g>
</svg>
