<?xml version="1.0" standalone="no"?><!DOCTYPE svg PUBLIC "-//W3C//DTD SVG 1.1//EN" "http://www.w3.org/Graphics/SVG/1.1/DTD/svg11.dtd"><svg t="1578272341367" class="icon" viewBox="0 0 1067 1024" version="1.1" xmlns="http://www.w3.org/2000/svg" p-id="1376" width="50.015625" height="48" xmlns:xlink="http://www.w3.org/1999/xlink"><defs><style type="text/css"></style></defs><path d="M595.581 590.078c-13.133 12.508-22.327 20.326-28.456 25.267 3.002-16.198 10.82-48.344 29.645-111.636 18.762-62.728 20.388-73.672 20.388-79.051 0-9.381-3.94-17.699-10.757-23.453-15.323-12.633-42.34-10.131-74.986 8.318-18.2 10.194-37.525 26.83-59.101 50.47l-11.258 12.509 37.337 28.768 9.569-9.443c10.381-10.07 17.449-16.636 22.14-21.014-28.52 93.686-42.403 151.911-42.403 177.99 0 11.821 3.44 21.64 10.381 29.082 7.005 7.63 16.824 11.633 28.081 11.633 11.007 0 23.64-4.253 38.963-12.946 13.821-7.818 34.585-24.954 63.604-52.221l11.758-11.258-33.96-33.021-10.945 10.006z m355.357-253.665c-22.64-53.535-55.224-101.691-96.438-142.843-41.277-41.277-89.433-73.735-142.843-96.438-111.01-46.843-239.218-46.843-350.29 0-53.473 22.703-101.504 55.161-142.844 96.438-41.277 41.214-73.86 89.433-96.437 142.843C98.696 392.012 86.75 450.8 86.75 511.59c0 60.727 11.883 119.515 35.273 175.051 22.577 53.472 55.16 101.566 96.438 142.968 41.214 41.214 89.308 73.736 142.843 96.375 55.598 23.516 114.45 35.273 175.114 35.273 60.727 0 119.578-11.757 175.176-35.335 53.535-22.64 101.629-55.099 142.843-96.313 41.277-41.34 73.798-89.496 96.438-142.968 23.453-55.536 35.273-114.324 35.273-175.051 0.063-60.79-11.758-119.578-35.21-175.177zM928.923 511.59c0 216.39-175.99 392.38-392.443 392.38-216.39 0-392.38-175.99-392.38-392.38 0-216.454 175.99-392.443 392.38-392.443 216.454 0 392.443 175.99 392.443 392.443zM583.886 279.063c-8.505 9.319-12.883 20.639-12.883 33.71 0 10.757 3.502 20.138 10.382 27.392 7.004 7.38 16.072 11.195 26.392 11.195 8.38 0 20.826-2.564 32.208-15.197 8.881-9.569 13.384-21.076 13.384-33.897 0-10.507-3.627-19.7-10.57-26.83-15.134-15.573-42.652-13.884-58.913 3.627z" p-id="1377"></path></svg>