<?xml version="1.0" standalone="no"?><!DOCTYPE svg PUBLIC "-//W3C//DTD SVG 1.1//EN" "http://www.w3.org/Graphics/SVG/1.1/DTD/svg11.dtd"><svg t="1578272370253" class="icon" viewBox="0 0 1024 1024" version="1.1" xmlns="http://www.w3.org/2000/svg" p-id="1649" xmlns:xlink="http://www.w3.org/1999/xlink" width="48" height="48"><defs><style type="text/css"></style></defs><path d="M288 96a192 192 0 0 0 0 384h192V288A192 192 0 0 0 288 96z m128 320H288a128 128 0 1 1 128-128z m512-128a192 192 0 0 0-384 0v192h192a192 192 0 0 0 192-192z m-320 0a128 128 0 1 1 128 128H608z m128 256H544v192a192 192 0 1 0 192-192z m0 320a128 128 0 0 1-128-128V608h128a128 128 0 0 1 0 256zM96 736a192 192 0 0 0 384 0V544H288A192 192 0 0 0 96 736z m320 0a128 128 0 1 1-128-128h128z" p-id="1650"></path></svg>