<?xml version="1.0" standalone="no"?><!DOCTYPE svg PUBLIC "-//W3C//DTD SVG 1.1//EN" "http://www.w3.org/Graphics/SVG/1.1/DTD/svg11.dtd"><svg t="1578272383641" class="icon" viewBox="0 0 1024 1024" version="1.1" xmlns="http://www.w3.org/2000/svg" p-id="1889" xmlns:xlink="http://www.w3.org/1999/xlink" width="48" height="48"><defs><style type="text/css"></style></defs><path d="M592.1 859.76c14.16 0 25.32 12.6 25.32 26.82a26.34 26.34 0 0 1-26.04 25.98H221.3A69.6 69.6 0 0 1 152 843.38V161.18A69.6 69.6 0 0 1 221.3 92h599.4a69.6 69.6 0 0 1 69.24 69.24v347.04a26.4 26.4 0 0 1-26.04 26.04 26.4 26.4 0 0 1-26.04-26.04V161.24a17.34 17.34 0 0 0-17.16-17.1h-599.4a17.28 17.28 0 0 0-17.16 17.1V842.6c0 8.88 7.38 17.1 17.16 17.1h370.8z m180.18-495.96a26.4 26.4 0 0 1-26.04 26.04H288.26a26.4 26.4 0 0 1-26.1-26.04c0-14.16 12-26.1 26.1-26.1h457.98c14.16 0 26.04 12 26.04 26.1z m-26.04-152.64c14.16 0 26.04 11.88 26.04 26.04a26.34 26.34 0 0 1-26.04 26.04H288.26a26.4 26.4 0 0 1-26.1-26.04c0-14.16 12-26.04 26.1-26.04h457.98zM263.72 497.06a28.2 28.2 0 1 1 56.58 0 28.32 28.32 0 0 1-56.58 0z m99 0a28.2 28.2 0 1 1 56.64 0v0.06a28.26 28.26 0 1 1-56.64 0z m99.06 0a28.2 28.2 0 1 1 56.58 0v0.06a28.26 28.26 0 1 1-56.58 0z m464.7 287.46a26.4 26.4 0 0 1 26.04 26.1 26.4 26.4 0 0 1-26.04 26.04h-90.18v69.3a26.4 26.4 0 0 1-26.04 26.04 26.46 26.46 0 0 1-26.1-26.04V836.6h-90a26.4 26.4 0 0 1-26.16-26.04c0-14.22 12-26.1 26.16-26.1h90v-61.8h-90a26.4 26.4 0 0 1-26.16-26.1c0-14.1 12-26.04 26.16-26.04h43.14l-15.6-34.98c-6-13.38 0-28.32 13.38-34.26a25.62 25.62 0 0 1 34.2 13.44l24.6 55.8h44.64l24.6-55.8c6-13.44 20.94-19.38 34.26-13.44 13.44 6 19.44 20.88 13.44 34.26l-15.72 34.98h31.38c14.1 0 26.04 12 26.04 26.04a26.4 26.4 0 0 1-26.04 26.1h-90.18v61.8h90.18z" p-id="1890"></path></svg>