<?xml version="1.0" standalone="no"?><!DOCTYPE svg PUBLIC "-//W3C//DTD SVG 1.1//EN" "http://www.w3.org/Graphics/SVG/1.1/DTD/svg11.dtd"><svg t="1578272377099" class="icon" viewBox="0 0 1024 1024" version="1.1" xmlns="http://www.w3.org/2000/svg" p-id="1769" xmlns:xlink="http://www.w3.org/1999/xlink" width="48" height="48"><defs><style type="text/css"></style></defs><path d="M513.47911111 148.82133333l364.20266667 332.91377778c-18.54577778 2.27555555-35.95377778 9.89866667-49.83466667 22.07288889l-0.22755556 0.22755555-0.22755555 0.22755556c-13.42577778 11.94666667-29.35466667 32.99555555-29.35466667 66.10488889v310.04444445H664.68977778V748.65777778c0-49.49333333-40.96-89.65688889-91.36355556-89.65688889H453.17688889c-50.40355555 0-91.36355555 40.27733333-91.36355556 89.65688889v131.64088889H230.05866667v-310.61333334c0-45.51111111-34.70222222-83.28533333-79.53066667-88.97422222l362.95111111-331.88977778m0-73.728c-12.74311111 0-25.48622222 4.32355555-34.58844444 12.85688889L59.84711111 471.04c-15.01866667 12.85688889-19.34222222 32.19911111-11.264 49.83466667 8.07822222 17.18044445 25.25866667 27.30666667 45.056 27.30666666h45.056c12.85688889 0 23.09688889 9.67111111 23.09688889 21.39022222V903.39555555c0 24.68977778 21.95911111 45.056 48.81066667 45.056h170.66666666c26.85155555 0 48.81066667-20.36622222 48.81066667-45.056V748.65777778c0-11.83288889 10.24-21.39022222 23.09688889-21.39022223h120.14933333c12.85688889 0 23.09688889 9.67111111 23.09688889 21.39022223v154.85155555c0 24.68977778 21.95911111 45.056 49.37955556 45.056h170.66666666c27.42044445 0 49.94844445-20.36622222 49.94844445-45.056v-333.36888888c0-6.37155555 1.59288889-10.69511111 6.48533333-15.01866667 4.32355555-3.75466667 10.24-5.91644445 16.61155556-5.91644445H931.84c19.91111111 0 36.97777778-10.69511111 45.056-27.30666666 9.10222222-17.63555555 4.77866667-37.54666667-9.10222222-50.40355556L548.18133333 87.95022222c-9.10222222-8.53333333-21.95911111-12.85688889-34.70222222-12.85688889z" p-id="1770"></path></svg>