<?xml version="1.0" standalone="no"?><!DOCTYPE svg PUBLIC "-//W3C//DTD SVG 1.1//EN" "http://www.w3.org/Graphics/SVG/1.1/DTD/svg11.dtd"><svg t="1578272358787" class="icon" viewBox="0 0 1024 1024" version="1.1" xmlns="http://www.w3.org/2000/svg" p-id="1528" xmlns:xlink="http://www.w3.org/1999/xlink" width="48" height="48"><defs><style type="text/css"></style></defs><path d="M510.89301231 296.02188565c-116.80518692 0-211.49762256 94.69063565-211.49762257 211.49762255 0 116.80608691 94.69243565 211.49762256 211.49762256 211.49762256 116.80698692 0 211.49762256-94.69153565 211.49762257-211.49762256C722.39063487 390.71252129 627.69999922 296.02188565 510.89301231 296.02188565zM510.89301231 665.01773808c-86.98222266 0-157.49822988-70.51510722-157.49822989-157.49822988 0-86.98402266 70.51600722-157.49822988 157.49822989-157.49822988 86.98402266 0 157.49822988 70.51420723 157.49822988 157.49822988C668.39124219 594.50353086 597.87703496 665.01773808 510.89301231 665.01773808z" p-id="1529"></path><path d="M881.52864628 555.85076504c-7.25031826-8.81000068-6.30442881-13.02735323-6.3449288-14.92543213-0.14039824-6.30532881-0.11969825-48.79205156 0-54.15599091 0.04049912-1.89717891-0.90538945-6.11543144 6.34492881-14.92453213 16.14311895-19.16618467 59.60363027-70.76620459 77.94272373-92.53696026 4.58364815-5.9264332 1.5218833-14.65003565 1.52188331-14.65003565l-19.78087765-32.68223261-48.07925946-79.45290703-19.14458468-31.62564492c0 0-4.66284727-9.11689717-13.87244443-6.6509253-27.43439151 5.9273332-114.73251065 24.4482249-130.44903398 27.78178799-15.40782685-9.73699013-53.23710146-33.64342207-67.93213623-42.92411748-7.89111123-5.23884112-10.05378662-12.09946377-10.05378663-12.09946377s-29.97956338-87.42861739-39.97125087-116.57118956c-2.64057012-9.13669717-12.87885498-8.40860508-12.87885499-8.40860507l-37.05078339-0.0063-93.0724541 0-38.28736934 0c0 0-9.07459805 1.89357891-11.79346729 8.86760069-9.22579628 26.90249766-31.0892502 90.65778135-39.20985966 114.34011503-3.82045693 10.74047959-7.93071123 12.11116377-9.53989278 13.12725235-15.5653251 9.83508926-56.68856279 35.82139747-70.89310283 44.79519638-15.87852158-3.41186133-105.77221084-22.73914424-133.26150234-28.67637743-9.20959628-2.46687188-13.87154443 6.64912529-13.87154443 6.64912529l-87.00472179 143.76258369c0 0-3.06086573 8.72360156 1.52188331 14.64823564 18.33819346 21.77165567 61.80050567 73.37257558 77.94272372 92.53786025 7.24851826 8.81000068 6.30262881 13.02735323 6.34492882 14.92543213 0.13499825 6.16403057 0.62639297 63.74358369-4.16425343 67.93483623-16.14311895 19.16528467-61.82390479 71.68599404-80.16119911 93.45854971-4.58454815 5.9246332-1.5227833 14.64913565-1.52278331 14.64913565l87.00562179 143.76168368c0 0 4.66104727 9.11689717 13.87064443 6.6491253 30.19286075-6.52222705 120.76424297-26.09610644 120.76424297-26.09610645s7.00912089-1.69918066 15.5851251 2.33277364c12.89055498 6.41872793 66.40485381 33.26182646 67.84483711 34.17441592 1.60918154 1.01518857 5.71853584 2.38587276 9.53989277 13.12635234 8.12060859 23.68143369 29.98406338 87.43761738 39.20985966 114.34011503 2.71886924 6.97402178 11.79346729 8.86760068 11.79346729 8.86760069l38.28736934 0 93.0724541 0 37.0507834-0.0063c0 0 10.23828487 0.72899209 12.87885498-8.40860507 9.9925875-29.14347217 39.97125088-116.57118955 39.97125088-116.57118956s2.16267539-6.86062266 10.05378662-12.09946377c5.62223672-3.55046045 55.21257949-30.0245625 62.03450302-33.42202471 8.57510333-4.0310543 15.5851251-2.33277363 15.5851251-2.33277363s90.57138223 19.57388027 120.76244297 26.09610644c9.20959628 2.46777187 13.87244443-6.64912529 13.87244443-6.64912529l19.14458467-31.62654492 48.07925947-79.45200703 19.78087764-32.68313261c0 0 3.06086573-8.72450156-1.52188331-14.64913565C941.13227656 626.61606963 897.67176523 575.01604971 881.52864628 555.85076504zM893.33111357 670.6318748c-9.20779628 15.21252862-31.76244316 52.48651026-43.47041133 71.83449229-4.4405499 7.33761738-10.66848047 11.38307168-16.20521806 10.20408574-21.15966182-4.50804903-74.30856503-15.82632246-94.86883389-20.20477324-14.56813653-2.87276748-22.10915127 0.78389121-24.69392227 2.06457715-12.66195761 6.27382969-87.54831563 47.26926826-94.72753563 51.82501729-2.43447276 1.54528242-9.47239365 6.09383145-14.53123653 20.014875-6.86062266 19.81147763-24.59492315 71.03170195-31.65624404 91.42367255-1.84677891 5.33514023-8.5373042 8.5616042-17.13310752 8.5616042-22.66444512 0-66.32745469 0-84.1490543 0-10.65048047 0.04949912-15.00103125-9.72889102-15.00103125-9.72889101s-24.92071963-71.80209317-33.22582646-95.73552422c-2.87726748-6.44032793-2.17617539-8.59580332-10.16988575-12.9472541-6.05693232-3.84565693-86.0120332-45.5943876-101.79335566-53.41439971-2.58387099-1.28068594-10.12758575-4.93734463-24.69392226-2.06457715-20.56026885 4.37845078-73.71097119 15.69672334-94.8688339 20.20477324-5.5385376 1.17988682-11.76466817-2.86646748-16.20431806-10.20408574-11.70886816-19.34798291-34.26441504-56.62196367-43.47131133-71.83449228-5.5439376-9.06469805 0.60479297-17.83059961 0.60479297-17.83059961s48.79025156-58.36794434 65.05396875-77.82122549c4.0472543-5.78153497 6.25942969-6.29632881 5.86883408-15.36912685 0.15389825-6.42142793 0.25199737-82.42917363 0.0378-91.30397344 0.3923956-9.07189805-1.81977979-9.5875919-5.86793408-15.36822686-16.26371719-19.45418115-65.05396875-77.82212549-65.05396875-77.82212548s-6.14873057-8.76500156-0.60479297-17.82969961c9.20599628-15.21252862 31.76244316-52.48651026 43.47041133-71.83539229 4.4405499-7.33671739 10.66668047-11.38307168 16.20521806-10.20408575 21.15786182 4.50804903 74.30856503 15.82722247 94.8688339 20.20567325 21.00036357 6.91912266 32.08553964-0.62009297 35.90329657-3.76195781l0.0207 0.0333c0 0 67.89253711-43.09421572 90.52458223-57.46075401 7.99371035-4.35145078 7.29261826-6.50602705 10.16988575-12.9472541 8.30510683-23.93433106 33.22582646-95.73552422 33.22582646-95.73552422s4.35055078-9.77749013 15.00103125-9.72889101c17.82159961 0 61.48460918 0 84.1490543 0 8.59580332 0 15.28632862 3.22646396 17.13310752 8.5616042 7.0613209 20.3919706 24.79562138 71.61219492 31.65624404 91.42367255 5.05794287 13.92104356 12.09586377 18.46959258 14.53123652 20.014875 20.3811706 12.93285498 78.49891758 49.79464013 87.02272178 55.2017795 0.86489033 0.71729209 15.65802422 8.46800508 32.39783613 4.17325341 18.24729521-3.88525605 62.17130127-13.24065146 86.61142617-18.44709257 3.09416484-0.65789297 18.14649609-4.17685342 24.4626249 8.44640507 11.70796816 19.34798291 34.26171504 56.62286367 43.47041133 71.83449229 5.5439376 9.06559805-0.60479297 17.83149961-0.60479297 17.83149961s-48.79205156 58.36704434-65.05576875 77.82032548c-4.0472543 5.78153497-6.25942969 6.29722881-5.86703407 15.36822686-0.25379737 10.54248135-0.21509737 82.61817099 0 91.5289708-0.3932956 9.07279805 1.81887979 9.5875919 5.86703407 15.36912686 16.26371719 19.45328115 65.05576875 77.82122549 65.05576875 77.82122548S898.87505117 661.56717675 893.33111357 670.6318748z" p-id="1530"></path></svg>