<?xml version="1.0" standalone="no"?><!DOCTYPE svg PUBLIC "-//W3C//DTD SVG 1.1//EN" "http://www.w3.org/Graphics/SVG/1.1/DTD/svg11.dtd"><svg t="1578272404833" class="icon" viewBox="0 0 1024 1024" version="1.1" xmlns="http://www.w3.org/2000/svg" p-id="2250" xmlns:xlink="http://www.w3.org/1999/xlink" width="48" height="48"><defs><style type="text/css"></style></defs><path d="M914.2 811.8H575.5c-12.1 0-22-9.9-22-22V598c0-12.1 9.9-22 22-22h338.6c12.1 0 22 9.9 22 22v191.8c0.1 12.1-9.8 22-21.9 22z m-320.7-40h302.6V616H593.5v155.8zM279.4 420.2h-22.1c-6.1 0-11.9-2.8-15.7-7.6-3.8-4.8-5.2-11.1-3.8-17 2.6-11 7.5-20.7 14.5-28.9L491.2 87.8c24.7-28.8 68.3-32.2 97.1-7.5l55.9 47.8c11.3 9.7 19 22.6 22.3 37.3 1.9 8.4-1.9 17.1-9.3 21.5L309.6 394c-6.6 4-10.1 9.7-11.8 13.8-3 7.6-10.3 12.4-18.4 12.4z m18.7-45.4l1.2 2.1-1.2-2.1z m245.4-271c-8.2 0-16.3 3.4-22 10.1L333.9 333l287.5-171.2c-0.9-1.1-2-2.2-3.2-3.2l-55.9-47.8c-5.5-4.8-12.2-7-18.8-7z" p-id="2251"></path><path d="M856.2 958.6H168.6c-44.1 0-80-35.9-80-80V460.3c0-44.1 35.9-80 80-80h687.6c44.1 0 80 35.9 80 80v418.4c0 44-35.9 79.9-80 79.9zM168.6 420.2c-22.1 0-40 17.9-40 40v418.4c0 22.1 17.9 40 40 40h687.6c22.1 0 40-17.9 40-40V460.3c0-22.1-17.9-40-40-40H168.6z" p-id="2252"></path><path d="M679.4 420.2h-400c-6.7 0-12.9-3.3-16.6-8.9s-4.4-12.6-1.9-18.7c5.8-14 15.5-25.4 28.3-33l416.4-248.1c32.6-19.4 75-8.7 94.4 23.9l59.8 100.4c19.4 32.6 8.7 75-23.9 94.4l-146.2 87.1c-3.2 2-6.7 2.9-10.3 2.9z m-346.7-40h341.1L815.4 296c13.7-8.1 18.2-25.9 10-39.6L765.6 156c-8.1-13.7-25.9-18.2-39.6-10L332.7 380.2zM671.4 738.4c-24.5 0-44.5-20-44.5-44.5s20-44.5 44.5-44.5 44.5 20 44.5 44.5-19.9 44.5-44.5 44.5z m0-49c-2.5 0-4.5 2-4.5 4.5s2 4.5 4.5 4.5 4.5-2 4.5-4.5-2-4.5-4.5-4.5z" p-id="2253"></path></svg>