<?xml version="1.0" standalone="no"?><!DOCTYPE svg PUBLIC "-//W3C//DTD SVG 1.1//EN" "http://www.w3.org/Graphics/SVG/1.1/DTD/svg11.dtd"><svg t="1578272394066" class="icon" viewBox="0 0 1024 1024" version="1.1" xmlns="http://www.w3.org/2000/svg" p-id="2009" xmlns:xlink="http://www.w3.org/1999/xlink" width="48" height="48"><defs><style type="text/css"></style></defs><path d="M369.87394156 587.40921875C292.65851375 534.23894656 241.97177844 439.07431812 241.97177844 331.94355594 241.97177844 167.91721531 360.95578531 32 512 32s270.02822156 135.91721531 270.02822156 299.94355594c0 107.13076219-50.68673531 202.1825025-127.90216312 255.35277562 117.74223937 27.20602031 212.79397969 90.8748825 285.15522093 190.78080844 14.788335 20.4327375 22.80338625 45.04233281 22.80338626 70.32925687v53.50893751c0 49.67074313-40.30103438 89.97177844-89.97177751 89.97177749H152c-23.81937938 0-46.73565375-9.48259688-63.66886125-26.30291624-16.9332075-16.9332075-26.41580438-39.73659469-26.41580438-63.66886126v-53.5089375c0-25.28692406 8.01505219-49.89651938 22.80338625-70.32925687 72.36124219-99.90592688 167.52587063-163.4619 285.15522094-190.66792125zM121.97177844 848.519285v53.50893656c0 16.59454406 13.43367844 30.02822156 30.02822156 30.0282225h720c16.59454406 0 30.02822156-13.43367844 30.02822156-30.0282225v-53.50893656c0-12.64346156-3.95108156-24.94825969-11.40169312-35.10818438-87.826905-121.46754469-212.00376281-181.2982125-378.62652844-181.2982125-31.38287906 0-61.2982125 2.14487344-89.74600219 6.43461938C299.88334906 656.72248344 204.71872063 714.74694219 133.37347156 813.2982125c-7.33772344 10.15992469-11.40169312 22.57761094-11.40169312 35.2210725z m390.02822156-276.57572906c115.93603031 0 209.97177844-107.35653844 209.97177844-240s-94.03574812-240-209.97177844-240-209.97177844 107.35653844-209.97177844 240 94.03574812 240 209.97177844 240z m0 0" p-id="2010"></path></svg>