<?xml version="1.0" standalone="no"?>
<!DOCTYPE svg PUBLIC "-//W3C//DTD SVG 1.1//EN" "http://www.w3.org/Graphics/SVG/1.1/DTD/svg11.dtd" >
<!--
2013-9-30: Created.
-->
<svg>
<metadata>
Created by iconfont
</metadata>
<defs>

<font id="iconfont" horiz-adv-x="1024" >
  <font-face
    font-family="iconfont"
    font-weight="500"
    font-stretch="normal"
    units-per-em="1024"
    ascent="896"
    descent="-128"
  />
    <missing-glyph />
    
    <glyph glyph-name="mp_crm_notice" unicode="&#59280;" d="M25.6 582.4h115.2V320H25.6V582.4z m185.6 32s403.2 12.8 614.4 268.8c0 0 179.2 44.8 166.4-435.2 0 0 19.2-326.4-166.4-371.2 0 0-140.8 179.2-620.8 204.8 6.4 0 6.4 332.8 6.4 332.8z m76.8-416s19.2-153.6 140.8-313.6c0 0 108.8-6.4 128 38.4 0 0 12.8 32-25.6 70.4-12.8 19.2-108.8 102.4-128 204.8H288z"  horiz-adv-x="1024" />

    
    <glyph glyph-name="mp_crm_ques_info" unicode="&#59281;" d="M896 864H128c-32 0-57.6-25.6-57.6-57.6v-851.2c0-32 25.6-57.6 57.6-57.6h768c32 0 57.6 25.6 57.6 57.6V806.4c0 32-25.6 57.6-57.6 57.6z m-448-576l-147.2-147.2c-12.8-12.8-38.4-12.8-57.6 0l-70.4 70.4c-12.8 12.8-12.8 38.4 0 57.6 12.8 12.8 38.4 12.8 57.6 0l38.4-38.4 121.6 121.6c12.8 12.8 38.4 12.8 57.6 0 12.8-25.6 12.8-51.2 0-64zM448 576L300.8 428.8c-12.8-12.8-38.4-12.8-57.6 0l-64 64c-19.2 19.2-19.2 38.4 0 57.6s38.4 12.8 57.6 0l38.4-38.4 121.6 121.6c12.8 12.8 38.4 12.8 57.6 0 6.4-19.2 6.4-44.8-6.4-57.6z m371.2-403.2H588.8c-19.2 0-38.4 19.2-38.4 38.4s19.2 38.4 38.4 38.4h230.4c19.2 0 38.4-19.2 38.4-38.4s-12.8-38.4-38.4-38.4z m0 288H588.8c-19.2 0-38.4 19.2-38.4 38.4s19.2 38.4 38.4 38.4h230.4c19.2 0 38.4-19.2 38.4-38.4s-12.8-38.4-38.4-38.4z"  horiz-adv-x="1024" />

    
    <glyph glyph-name="mp_crm_location" unicode="&#59282;" d="M512 896C294.208 896 117.035 718.848 117.056 501.077c0-80.896 24.299-158.677 69.781-224.149 2.283-3.925 4.587-7.723 7.296-11.413l288.278-379.99c7.829-8.725 18.346-13.525 29.61-13.525 11.115 0 21.696 4.843 30.848 15.104l286.955 378.475c2.837 3.754 5.248 7.872 6.57 10.282 46.145 66.39 70.571 144.256 70.571 225.174C906.965 718.848 729.792 896 512 896z m0-536.17c-77.781 0-141.077 63.295-141.077 141.098 0 77.781 63.296 141.056 141.077 141.056s141.077-63.296 141.077-141.056c0-77.803-63.296-141.099-141.077-141.099z"  horiz-adv-x="1024" />

    
    <glyph glyph-name="mp_crm_req_coll" unicode="&#59283;" d="M736 524.8v-409.6h-448V524.8H64v-633.6h896V524.8h-224zM307.2 294.4l108.8 192 192-108.8-108.8-192-192 108.8z m102.4 460.8l185.6 128 128-185.6-185.6-128-128 185.6z"  horiz-adv-x="1024" />

    
    <glyph glyph-name="mp_crm_routine" unicode="&#59284;" d="M268.8 601.6L448 736c51.2 38.4 115.2 44.8 166.4 25.6L896 652.8c19.2-6.4 38.4-12.8 57.6-12.8h44.8c12.8 0 25.6-12.8 25.6-25.6v-339.2c0-12.8-12.8-25.6-25.6-25.6h-57.6c-6.4 0-19.2 0-25.6-6.4l-19.2-6.4h-12.8L556.8 633.6c-6.4 6.4-19.2 6.4-32 0L377.6 556.8c-32-19.2-64-19.2-96-6.4-19.2 6.4-32 25.6-19.2 44.8 0 0 0 6.4 6.4 6.4zM38.4 256h51.2l38.4 44.8c32 38.4 89.6 44.8 128 12.8 12.8-12.8 25.6-25.6 32-44.8 32-6.4 57.6-32 64-64 25.6-6.4 44.8-19.2 57.6-44.8 19.2 0 38.4-12.8 51.2-25.6 32-32 38.4-76.8 12.8-115.2l-6.4-6.4c25.6-19.2 57.6-12.8 76.8 12.8 6.4 12.8 12.8 25.6 6.4 38.4l6.4-6.4c19.2-19.2 51.2-19.2 70.4-6.4 19.2 12.8 25.6 32 19.2 51.2l6.4-6.4c19.2-19.2 44.8-19.2 70.4-6.4 19.2 12.8 25.6 32 25.6 51.2l6.4-6.4c19.2-19.2 44.8-19.2 64-6.4 25.6 12.8 32 44.8 19.2 70.4l-6.4 6.4-32 51.2-268.8 320s-6.4 6.4-12.8 0l-128-64c-38.4-25.6-89.6-25.6-128-12.8-25.6 12.8-44.8 32-57.6 51.2-6.4 25.6 0 51.2 12.8 76.8 0 6.4 0 12.8-6.4 19.2H32c-12.8-6.4-25.6-12.8-25.6-25.6v-339.2c6.4-12.8 19.2-25.6 32-25.6z m185.6 25.6c-25.6 12.8-51.2 6.4-64-12.8l-32-44.8c-12.8-19.2-12.8-44.8 6.4-64l6.4-6.4c12.8-12.8 32-12.8 51.2-6.4 0-19.2 0-32 19.2-44.8h6.4c12.8-12.8 32-12.8 51.2-6.4 0-12.8 6.4-32 19.2-38.4 12.8-12.8 32-12.8 51.2-6.4 0-12.8 6.4-19.2 19.2-25.6 19.2-12.8 51.2-12.8 64 6.4 0 0 0 6.4 6.4 6.4l6.4 12.8c12.8 19.2 6.4 44.8-6.4 57.6-12.8 12.8-32 12.8-51.2 6.4 0 25.6-19.2 44.8-44.8 44.8h-19.2c-6.4 0-6.4 6.4-6.4 6.4 6.4 25.6 0 51.2-25.6 57.6-12.8 6.4-25.6 6.4-38.4 0-6.4 0-6.4 6.4-6.4 6.4 12.8 12.8 6.4 38.4-12.8 51.2z"  horiz-adv-x="1024" />

    
    <glyph glyph-name="mp_crm_shop_face" unicode="&#59285;" d="M147.2 742.4c-25.6 0-44.8 19.2-44.8 44.8 0 25.6 19.2 44.8 44.8 44.8h729.6c25.6 0 44.8-19.2 44.8-44.8 0-25.6-19.2-44.8-44.8-44.8H147.2zM768 352c19.2-51.2 70.4-83.2 128-83.2 12.8 0 25.6 0 38.4 6.4V0c0-25.6-32-57.6-57.6-57.6H140.8c-25.6 0-57.6 32-57.6 57.6V275.2c19.2-6.4 32-6.4 44.8-6.4 57.6 0 108.8 32 128 83.2 19.2-51.2 70.4-83.2 128-83.2 57.6 0 108.8 32 128 83.2 19.2-51.2 70.4-83.2 128-83.2 51.2 0 102.4 32 128 83.2zM934.4 704L1024 480c0-70.4-57.6-121.6-128-121.6s-128 57.6-128 121.6c0-70.4-57.6-121.6-128-121.6s-128 57.6-128 121.6c0-70.4-57.6-121.6-128-121.6s-128 57.6-128 121.6c0-70.4-57.6-121.6-128-121.6s-128 57.6-128 121.6L89.6 704h844.8z"  horiz-adv-x="1024" />

    
    <glyph glyph-name="mp_crm_tel" unicode="&#59286;" d="M729.6 281.6c-51.2 0-89.6-44.8-134.4-44.8-44.8 0-243.2 192-243.2 243.2 0 51.2 44.8 70.4 44.8 121.6 0 38.4-134.4 256-185.6 256C153.6 857.6 25.6 761.6 25.6 672c0-262.4 480-761.6 780.8-761.6 83.2 0 185.6 89.6 185.6 185.6 6.4 38.4-211.2 185.6-262.4 185.6z"  horiz-adv-x="1024" />

    
    <glyph glyph-name="mp_crm_stock" unicode="&#59287;" d="M998.4 160V332.8c0 12.8-6.4 19.2-12.8 25.6L774.4 448H768V710.4c0 6.4 0 12.8-6.4 12.8l-6.4 6.4s-6.4 0-6.4 6.4L524.8 832h-25.6L275.2 736s-6.4 0-6.4-6.4c-12.8 0-12.8-6.4-12.8-19.2V448h-6.4L38.4 358.4s-6.4 0-6.4-6.4c-6.4 0-6.4-12.8-6.4-19.2v-275.2c0-12.8 6.4-19.2 19.2-25.6L268.8-64h25.6L512 25.6l217.6-96H748.8l179.2 76.8c12.8 6.4 19.2 12.8 19.2 25.6s-12.8 25.6-25.6 25.6h-12.8l-134.4-57.6H768v230.4h6.4l83.2 32 89.6 32h6.4v-140.8c0-12.8 12.8-25.6 25.6-25.6 6.4 0 19.2 12.8 19.2 32z m-281.6 512v-217.6h-6.4L544 377.6l-6.4-6.4V601.6h6.4l172.8 70.4c-6.4 0 0 0 0 0zM281.6 275.2L128 332.8h-6.4l6.4 6.4 147.2 64 147.2-64 12.8-6.4h-6.4l-25.6-12.8-121.6-44.8z m204.8 12.8v-211.2h-6.4L313.6 0h-6.4v230.4h6.4l76.8 25.6 96 32v6.4-6.4zM512 652.8h-12.8l-134.4 57.6h-12.8l12.8 6.4 147.2 64 147.2-64 12.8-6.4-12.8-6.4-147.2-51.2c6.4 0 0 0 0 0z m384-320l-140.8-57.6h-12.8l-147.2 57.6-12.8 6.4 12.8 6.4 147.2 64 147.2-64 12.8-6.4c6.4 0-6.4-6.4-6.4-6.4zM140.8 185.6V288l51.2-25.6v-76.8c0-12.8-12.8-25.6-25.6-25.6-19.2 0-25.6 12.8-25.6 25.6z m96-102.4c-6.4 12.8-19.2 19.2-38.4 12.8l-96-38.4 76.8-32 44.8 19.2c12.8 6.4 19.2 19.2 12.8 38.4z"  horiz-adv-x="1024" />

    
    <glyph glyph-name="mp_crm_suggest" unicode="&#59288;" d="M729.6-115.2c-121.6 0-224 102.4-224 224s102.4 224 224 224 224-102.4 224-224c0-128-96-224-224-224z m76.8 364.8l-198.4-198.4v-57.6h57.6l192 204.8-51.2 51.2z m-249.6 51.2H204.8v-57.6H512c-12.8-25.6-25.6-51.2-32-83.2H204.8v-57.6h262.4c0-51.2 12.8-96 38.4-140.8H147.2c-32 0-57.6 25.6-57.6 57.6V806.4c0 32 25.6 57.6 57.6 57.6h569.6l128-128v-390.4c-32 12.8-70.4 25.6-108.8 25.6-70.4 0-134.4-25.6-179.2-70.4zM204.8 384h531.2v57.6H204.8V384z m0 140.8h531.2v57.6H204.8v-57.6z m416 198.4H204.8v-57.6h416v57.6zM691.2 832v-128h128l-128 128z"  horiz-adv-x="1024" />

    
    <glyph glyph-name="mp_index_circledeal" unicode="&#59289;" d="M512 893.037817C230.857573 893.037817 2.962183 665.142427 2.962183 384c0-281.142427 227.89539-509.037817 509.037817-509.037817 281.142427 0 509.037817 227.89539 509.037817 509.037817C1021.013735 665.142427 793.142427 893.037817 512 893.037817z m29.983067-836.082031l-58.930574-17.026529 16.978363 59.026905 1.493133 4.888805 45.420131-45.396049-4.961053-1.493132z m270.931326 220.501975l-80.099341-80.075259v-66.998306c0-14.064346-11.463405-25.455503-25.479586-25.455504h-66.998307l-28.417686-28.417685-28.441768 28.417685h-0.048166l-50.959172 50.838759h0.120414l-12.498965 12.474882 102.568579 102.544497H338.579868a19.049483 19.049483 0 1 0 0 38.14713h305.201129c4.744309 0 8.958796-1.90254 12.306303-4.744308l25.816745 25.816745V677.159737H400.593039v-85.277141a19.603387 19.603387 0 0 0-19.62747-19.579303h-93.32079v-416.559925h228.762371l-14.714582-50.838758h-239.455127a25.455503 25.455503 0 0 0-25.455503 25.455503V592.412418c0 6.959925 2.817686 13.558608 7.802822 18.351082l114.465475 110.178739c4.696143 4.551646 11.029915 7.152587 17.604516 7.152587h330.656632a25.527752 25.527752 0 0 0 25.503669-25.431421v-327.863029a20.542615 20.542615 0 0 0 17.98984-5.587206l62.109501-61.989087a21.144685 21.144685 0 0 0 0-29.766322z m-474.334525 192.565945h305.201129a19.049483 19.049483 0 1 0 0-38.14713H338.579868a19.097648 19.097648 0 0 0 0 38.14713z m-19.073565 61.387018c0 10.54826 8.549389 19.121731 19.073565 19.121731h305.201129a19.097648 19.097648 0 0 0 0-38.195296H338.579868a19.121731 19.121731 0 0 0-19.073565 19.073565z m19.073565-141.943932h305.201129a19.049483 19.049483 0 1 0 0-38.147131H338.579868a19.073565 19.073565 0 1 0 0 38.147131z m516.455315-69.864158a21.096519 21.096519 0 0 0-29.766321 0l-62.061336 61.940922a21.096519 21.096519 0 0 0 0 29.766322l24.853434 24.853433a21.072437 21.072437 0 0 0 29.742238 0l62.037254-62.061335a20.903857 20.903857 0 0 0 0-29.669991l-24.805269-24.829351z"  horiz-adv-x="1024" />

    
    <glyph glyph-name="mp_crm_warn" unicode="&#59290;" d="M1050.783764-39.428596h-86.891854V477.302799a411.508627 411.508627 0 0 1-33.313027 162.58337A423.054943 423.054943 0 0 1 706.24817 862.830965 411.162647 411.162647 0 0 1 544.067776 895.942003 422.622969 422.622969 0 0 1 156.030759 639.886169a412.80755 412.80755 0 0 1-33.313027-162.843355l0.894947-516.529407H42.781466a44.283377 44.283377 0 0 1 1.645903-88.507757h1007.915302a44.283377 44.283377 0 1 1-1.645902 88.507757zM520.339181 3.69985V315.817363H363.530469l215.382243 401.520219v-327.070628h151.43903z"  horiz-adv-x="1097" />

    
    <glyph glyph-name="mp_index_circleannounce" unicode="&#59291;" d="M512 889.85889C232.615616 889.85889 6.14111 663.384384 6.14111 384S232.615616-121.85889 512-121.85889 1017.85889 104.639699 1017.85889 384 791.360301 889.85889 512 889.85889z m-161.956726-664.588523H190.759737V534.372907h159.259454v-309.10254z m247.426528-124.604327l-214.601693 146.808654V509.928881l214.601693 157.429162v-566.692003z m69.984572 123.014863a17.845343 17.845343 0 0 0-12.137723 31.090875c28.995673 26.46698 46.335278 79.015616 45.251552 137.199624-1.131891 59.364064-21.385513 112.827846-52.885795 139.535654a17.869426 17.869426 0 1 0 23.143556 27.309877c39.712512-33.691816 64.228786-95.801317 65.55334-166.195296 1.252305-69.117592-20.012794-130.552775-56.883537-164.220508a17.724929 17.724929 0 0 0-12.041393-4.720226z m81.80922-70.562559a17.797178 17.797178 0 0 0-25.262841 1.011477 17.821261 17.821261 0 0 0 1.059642 25.286924c43.445343 40.121919 71.212794 121.569897 72.320602 212.386077 1.252305 95.8254-27.093133 183.510818-73.910066 228.93095a17.869426 17.869426 0 1 0 24.877517 25.696331c54.499341-52.813547 86.168203-148.157291 84.819567-255.012605-1.204139-101.942427-32.632173-191.000564-83.904421-238.299154z"  horiz-adv-x="1024" />

    
    <glyph glyph-name="mp_index_circlemessage" unicode="&#59292;" d="M512 889.85889C232.615616 889.85889 6.14111 663.384384 6.14111 384S232.615616-121.85889 512-121.85889 1017.85889 104.639699 1017.85889 384 791.360301 889.85889 512 889.85889z m322.444403-478.982502c0-88.672813-72.585513-161.21016-161.234243-161.21016h-111.334713l-184.233302-161.234243v161.234243h-26.876388c-88.696896 0-161.21016 72.537347-161.21016 161.21016v107.481467c0 88.672813 72.537347 161.234243 161.21016 161.234243h322.468486c88.672813 0 161.234243-72.56143 161.234242-161.234243v-107.481467z"  horiz-adv-x="1024" />

    
    <glyph glyph-name="mp_index_circlesynergy" unicode="&#59293;" d="M512 384m-508.652493 0a508.652493 508.652493 0 1 1 1017.304986 0 508.652493 508.652493 0 1 1-1017.304986 0ZM652.956538 67.142803v92.285231c0 19.097648 15.48523 34.67921 34.703293 34.67921l71.501787 2.047036-106.20508-129.011477zM724.506491 700.857197H299.541675a34.67921 34.67921 0 0 1-34.727376-34.67921v-564.380057c0-19.169897 15.509313-34.655127 34.727376-34.655127H618.445908v123.038947c0 19.121731 15.557479 34.655127 34.727375 34.655127h105.964252V666.177987a34.606961 34.606961 0 0 1-34.631044 34.67921z m-23.336218-97.366698c0-5.442709-5.972531-9.898024-13.414111-9.898025H329.332079c-7.44158 0-13.438194 4.479398-13.438194 9.898025v16.448541c0 5.514958 5.996613 9.922107 13.438194 9.922108h358.448166c7.44158 0 13.414111-4.40715 13.414111-9.922108v-16.448541z m0-71.09238c0-5.514958-5.972531-9.94619-13.414111-9.94619H329.332079c-7.44158 0-13.438194 4.455315-13.438194 9.94619v16.496707c0 5.394544 5.996613 9.873942 13.438194 9.873942h358.448166c7.44158 0 13.414111-4.503481 13.414111-9.873942v-16.496707z m0-72.585513c0-5.418627-5.972531-9.873942-13.414111-9.873942H329.332079c-7.44158 0-13.438194 4.479398-13.438194 9.873942v16.544873c0 5.466792 5.996613 9.873942 13.438194 9.873942h358.448166c7.44158 0 13.414111-4.431232 13.414111-9.873942v-16.544873z m-182.306679-71.863029c0-5.418627-3.154845-9.825776-7.056256-9.825776h-188.809031c-3.925494 0-7.080339 4.431232-7.080339 9.825776v16.544873c0 5.442709 3.154845 9.849859 7.080339 9.849859h188.809031c3.925494 0 7.056256-4.431232 7.056256-9.849859v-16.544873z"  horiz-adv-x="1024" />

    
    <glyph glyph-name="mp_index_circlenews" unicode="&#59294;" d="M298.819191 509.760301l-1.950706 13.052869h0.650236l6.526434-13.052869 31.30762-44.119661h11.920979v83.928504h-15.461148v-43.734337l1.878457-12.763876h-0.60207l-6.261524 12.763876-31.57253 44.384572h-11.920979v-83.952587h15.485231zM411.574788 480.788711h-33.764064v20.349953h30.151647v14.521919h-30.151647v19.410725h33.113829v14.497836h-49.393791v-83.302352h50.044026zM450.974224 465.64064l14.762747 46.238946 1.974788 12.836124h0.577987l1.998871-12.691627 14.955409-46.383443h10.957667l22.974977 83.928504h-16.568956l-10.138852-46.263029-1.733961-15.051741h-0.505738l-1.685795 14.78683-14.281091 46.52794h-10.668674l-14.546002-46.263029-1.661712-15.051741h-0.481656l-1.541298 14.78683-11.078081 46.52794h-17.749012l22.878645-83.928504zM547.281279 478.765757c-2.071119 0-4.045908 0.168579-6.020696 0.481656a47.346754 47.346754 0 0 0-13.630856 4.286736l-5.250047-13.943933c2.191533-1.083725 5.514958-2.167451 9.970273-3.299341 4.599812-1.083725 9.777611-1.661712 15.750141-1.661712 4.551646 0 8.693885 0.457573 12.474882 1.493132s7.00809 2.673189 9.633114 4.816557a22.035748 22.035748 0 0 1 6.213359 8.019568 28.176858 28.176858 0 0 1 2.215616 11.511571 20.711195 20.711195 0 0 1-2.76952 11.07808 27.06905 27.06905 0 0 1-7.056256 7.537912 47.370837 47.370837 0 0 1-9.175541 5.201882 191.21731 191.21731 0 0 0-9.223707 4.166321 29.910818 29.910818 0 0 0-7.00809 4.40715 7.658325 7.658325 0 0 0-2.817686 5.948448c0 2.552775 1.03556 4.575729 3.058514 6.068861 2.071119 1.493133 4.985136 2.239699 8.790216 2.239699 4.045908 0 7.802822-0.457573 11.294826-1.324553 3.516087-0.987394 6.117027-1.974788 7.850988-3.058513l5.129633 13.703104c-2.76952 1.565381-6.261524 2.841769-10.572342 3.6365s-8.838382 1.228222-13.679022 1.228222c-4.190405 0-7.995484-0.481656-11.439323-1.444967a24.010536 24.010536 0 0 1-8.886547-4.383066 19.218062 19.218062 0 0 1-5.731703-7.489746 24.010536 24.010536 0 0 1-2.071119-10.524177c0-4.67206 0.963311-8.525306 2.817685-11.535654 1.878457-3.010348 4.166322-5.490875 6.959925-7.513829 2.865851-2.022954 5.924365-3.756914 9.223707-5.153716s6.357855-2.721355 9.175541-4.045908c2.817686-1.324553 5.225964-2.793603 7.00809-4.334901a7.875071 7.875071 0 0 0 2.817686-6.189275 8.332643 8.332643 0 0 0-3.853246-7.441581c-2.649106-1.685795-6.406021-2.480527-11.198495-2.480527zM628.127187 611.89539H236.517027v-380.411665c0-33.499153 27.309878-66.540734 59.628975-72.272436 25.792662-4.551646 206.293133-3.347507 357.388523-1.03556-15.798307 20.903857-25.407338 46.576105-25.407338 73.307996V611.89539z m-213.638382-377.521731H257.444967v69.478834h157.043838v-69.478834z m0 94.428599H257.444967v22.180244h157.043838v-22.180244z m0 47.154092H257.444967v22.22841h157.043838v-22.22841z m181.367451-141.582691h-157.019756v22.252493h157.019756v-22.252493z m0 47.226341h-157.019756v22.252493h157.019756v-22.252493z m0 47.202258h-157.019756v22.180244h157.019756v-22.180244z m0 47.154092h-157.019756v22.22841h157.019756v-22.22841z m2.697272 64.710442H257.46905V582.201317h341.084478v-141.534525zM512 889.85889C232.615616 889.85889 6.14111 663.384384 6.14111 384S232.615616-121.85889 512-121.85889 1017.85889 104.639699 1017.85889 384 791.360301 889.85889 512 889.85889z m232.206209-272.713453a12.161806 12.161806 0 0 0 24.275447 0v-405.216933a12.137723 12.137723 0 0 0-24.275447 0V617.145437z m-48.526811 10.11477a12.161806 12.161806 0 0 0 24.275447 0v-405.168768a12.137723 12.137723 0 0 0-24.275447 0V627.260207z m140.354468-423.857009c0-29.477328-11.559737-55.43857-32.463593-72.922671a88.961806 88.961806 0 0 0-57.798683-20.687112c-4.479398 0-8.982879 0.650235-13.510442 1.228222-29.597742-0.553904-182.595673-3.443838-301.998119-3.443838-68.75635 0-126.290122 0.963311-142.570085 3.780997-55.920226 9.873942-99.726811 62.639323-99.72681 120.100847V631.185701c0 0.891063 0.216745 1.637629 0.313076 2.504609-0.096331 0.818815-0.313076 1.613547-0.313076 2.432362 0 13.390028 10.885419 24.323612 24.275446 24.323612h436.211477c8.742051 0 16.328128-4.696143 20.590781-11.656068 4.647977-4.40715 7.561994-10.644591 7.561995-17.580432v-399.726059c0-33.330574 27.189464-66.299906 59.315898-72.152022 0.650235-0.120414 1.372719-0.120414 2.022954-0.264911 13.221449-1.926623 25.407338 1.011477 34.342051 8.573471 9.825776 8.139981 15.099906 20.855691 15.099906 35.762935l0.048165 399.701976a24.323612 24.323612 0 0 0 48.599059 0v-399.701976z"  horiz-adv-x="1024" />

    
    <glyph glyph-name="mp_index_map" unicode="&#59295;" d="M547.883349 849.568391c-135.273001 0-244.897836-109.600753-244.897836-244.921919 0-135.345249 244.897836-373.88523 244.897836-373.88523s244.970085 238.539981 244.970085 373.88523c0 135.321167-109.648918 244.921919-244.970085 244.921919z m0-373.861147a128.987394 128.987394 0 0 0-128.939229 128.939228 128.915146 128.915146 0 1 0 257.878458 0 128.915146 128.915146 0 0 0-128.939229-128.939228zM805.01524-81.568391c-4.696143 0-9.488617 1.252305-13.823518 3.684666l-164.822578 95.993979-215.083349-86.360865a27.285795 27.285795 0 0 0-27.647037 4.23857l-137.633114 113.237253-170.289369-64.493697a27.454374 27.454374 0 0 0-22.011665 50.284854l364.878269 182.956914c7.778739 3.949577 17.098777 3.853246 24.877516-0.192662l101.292192-52.66905 228.039887 83.759925c7.056256 2.552775 14.883161 2.167451 21.578175-1.131891l175.82841-87.011101a27.358043 27.358043 0 0 0 9.175541-41.759548l-152.99793-190.302164a27.598871 27.598871 0 0 0-21.36143-10.235183z m-176.478645 157.621825c4.864722 0 9.560865-1.252305 13.871683-3.684666l155.984196-90.840264 116.801505 145.219191-134.598683 66.5889-228.280715-83.832174a27.454374 27.454374 0 0 0-22.107996 1.420885l-99.510066 51.777987-146.640075-73.621073 121.907056-100.256632 212.410159 85.301223c3.251176 1.348636 6.719097 1.926623 10.162936 1.926623zM628.536595 21.168768a27.454374 27.454374 0 0 0-20.566698 45.588711l153.648165 174.552022a27.454374 27.454374 0 0 0 41.229727-36.24459l-153.696331-174.552023a27.285795 27.285795 0 0 0-20.614863-9.34412zM396.739793-58.593415c-6.478269 0-12.908373 2.167451-18.134337 6.526435a25.768579 25.768579 0 0 0-2.504609 37.304233l153.648165 168.025588a28.225024 28.225024 0 0 0 38.725118 2.360113 25.768579 25.768579 0 0 0 2.480527-37.304233l-153.624083-167.929257a27.695202 27.695202 0 0 0-20.590781-8.982879z"  horiz-adv-x="1024" />

    
    <glyph glyph-name="mp_index_month" unicode="&#59296;" d="M279.09539 647.778739h70.297649v176.045156h-70.297649v-176.045156M349.393039 823.823895h-70.297649v-176.069238h70.297649V823.823895M666.057573 647.778739h70.273565v176.045156h-70.273565v-176.045156M736.331138 823.823895h-70.273565v-176.069238h70.273565V823.823895M877.191345 718.293133h-140.763876v-70.418062h-70.369896V718.293133H349.417121v-70.418062h-70.369896V718.293133H138.331515c-19.434807 0-35.184948-15.798307-35.184949-35.209031v-70.369897h809.229728V683.084102c0 19.410724-15.726058 35.209031-35.184949 35.209031M103.122484-20.614864c0-19.434807 15.750141-35.233114 35.184948-35.233113h738.883913c19.45889 0 35.184948 15.798307 35.184949 35.233113V577.55334H103.122484v-598.168204z m598.14412 527.750142h140.763876v-140.739794h-140.763876v140.739794z m0-175.948825h140.763876v-140.739793h-140.763876v140.739793z m0-175.924741h140.763876V14.570085h-140.763876v140.691627z m-175.924741 351.873566h140.71571v-140.739794h-140.71571v140.739794z m0-175.948825h140.71571v-140.739793h-140.71571v140.739793z m0-175.924741h140.71571V14.570085h-140.71571v140.691627z m-175.948824 351.873566h140.739793v-140.739794h-140.739793v140.739794z m0-175.948825h140.739793v-140.739793h-140.739793v140.739793z m0-175.924741h140.739793V14.570085h-140.739793v140.691627zM173.49238 507.135278h140.739793v-140.739794H173.49238v140.739794z m0-175.948825h140.739793v-140.739793H173.49238v140.739793z m0-175.924741h140.739793V14.570085H173.49238v140.691627z"  horiz-adv-x="1024" />

    
    <glyph glyph-name="mp_index_today" unicode="&#59297;" d="M912.641204 678.845532c0-11.270743-2.865851-21.770837-7.947319-30.994544H119.306115a63.939793 63.939793 0 0 0 55.944308 94.958419H848.677328a63.939793 63.939793 0 0 0 63.963876-63.963875zM891.255691 583.766698v-604.261148a82.363123 82.363123 0 0 0-82.411288-82.363123H215.155597a82.363123 82.363123 0 0 0-82.411288 82.363123V583.766698h53.560112V25.407338c0-38.725118 31.644779-70.104986 70.65889-70.104986h508.845156c38.990028 0 70.682973 31.379868 70.682972 70.104986V583.766698h54.764252zM487.70047 101.605268h241.189088v-22.469238H487.70047zM487.70047 306.549765h241.189088v-22.469238H487.70047zM487.70047 501.716651h241.189088v-22.469238H487.70047zM599.733584 783.123989c0-7.754657-1.107808-15.316651-3.010348-22.445156H550.773283a44.793979 44.793979 0 0 1-38.773283 67.263218 44.793979 44.793979 0 0 1-38.797366-67.263218h-45.998118a87.709501 87.709501 0 0 0 84.771401 110.17874 87.733584 87.733584 0 0 0 87.757667-87.733584zM418.606961 160.848918v-149.867168h-149.939416v149.867168h149.939416z m-22.445155-127.39793v104.952775h-105.025023v-104.952775h105.025023zM418.606961 354.59492v-149.939417h-149.939416v149.939417h149.939416z m-22.445155-127.494261v105.049106h-105.025023v-105.049106h105.025023zM418.606961 549.785889V399.894638h-149.939416v149.867168h149.939416z m-22.445155-127.494262v105.025024h-105.025023v-105.025024h105.025023zM343.661336 498.007902a23.167639 23.167639 0 1 0 0.072248-46.35936 23.167639 23.167639 0 0 0-0.072248 46.35936zM343.661336 302.841016a23.239887 23.239887 0 1 0-0.024083-46.479774 23.239887 23.239887 0 0 0 0.024083 46.479774zM343.661336 109.095014a23.191722 23.191722 0 1 0 0.072248-46.35936 23.191722 23.191722 0 0 0-0.072248 46.35936z"  horiz-adv-x="1024" />

    
    <glyph glyph-name="mp_index_userimage" unicode="&#59298;" d="M920.323612 47.081844c-0.505738 131.130762-70.514393 182.523424-169.51872 203.210536-89.973283 18.567827-170.12079 21.867168-137.970273 142.016181 43.276764 31.644779 52.958043 96.885042 106.349577 118.390969 3.853246 33.017498 2.263782 53.126623 0 86.818438-3.154845 12.547131-24.684854 6.959925-27.791534 19.723801-2.962183 67.070555 22.300659 165.641392-23.480715 197.382502-7.345249 4.961054-15.099906 6.381938-22.854562 6.381938-8.380809 0-17.074694-1.541298-25.720414-1.541298-6.213358 0-12.547131 0.770649-18.495579 3.058513-25.913076 9.681279-26.852305 44.095579-55.366321 47.202258h-23.721543c-39.712512-26.828222-86.866604-22.156162-127.542427-33.64365-2.119285-0.505738-4.479398-1.059643-6.333773-1.758043-23.841957-7.899153-38.604704-21.987582-47.996989-40.627658-13.076952-25.744497-15.701976-60.399624-15.82239-99.558231-0.240828-22.902728 0.481656-47.491251 0.361242-72.874506-20.253622-10.909501-28.417686-33.378739-28.995673-56.594544a120.173095 120.173095 0 0 1 5.27413-39.471684c6.959925-21.409595 26.996802-27.165381 43.397178-47.443086 19.699718-23.745626 32.77667-56.016557 50.116275-73.982314 6.357855-6.381938 13.197366-11.078081 21.216933-12.619379v-77.763311a112.900094 112.900094 0 0 0-21.216933-22.806397c-73.42841-61.844591-223.271496-34.895955-271.123989-127.157103-14.594167-28.489934-10.716839-65.457008-19.579304-110.539981v-12.980621h0.216745c4.262653-54.210348 89.708373-100.955033 214.071872-125.374976 0.818815 0.361242 1.420884 0.842897 2.143368 0.963311 57.389276-10.98175 122.581373-17.219191 192.012041-17.219191 199.911195 0 365.528504 51.681656 401.098777 120.124929 3.853246 7.224835 6.526435 14.834995 7.104422 22.613735h0.288993c0 1.03556-0.144497 2.167451-0.144496 3.299342 0 0.192662 0.144497 0.409407 0.144496 0.818814 0.024083 0.746566-0.120414 1.180056-0.120414 1.950706z"  horiz-adv-x="1024" />

    
    <glyph glyph-name="mp_index_week" unicode="&#59299;" d="M766.169708 728.287488v-66.203575h-110.323236V728.287488H358.062841v-66.203575h-110.323236V728.287488H104.663782v-774.237441h501.957479L913.580433 239.262465V728.287488h-147.410725z m87.179681-473.636124H595.206021v-250.653622H167.808843V578.757479h685.540546v-324.106115zM342.264534 781.58269a38.532455 38.532455 0 0 1-38.556538 38.556539c-21.36143 0-38.628786-17.243274-38.628786-38.556539v-104.808278h77.185324V781.58269zM749.215428 781.58269a38.604704 38.604704 0 0 1-77.23349 0v-104.808278h77.209407V781.58269zM247.426529 488.061712h112.514769v-98.065099h-112.514769zM395.270743 488.061712h112.611101v-98.065099h-112.611101zM543.211289 488.061712h112.514769v-98.065099h-112.514769zM691.079586 488.061712h112.562935v-98.065099h-112.562935zM247.426529 314.015428h112.514769v-98.065099h-112.514769zM395.270743 314.015428h112.611101v-98.065099h-112.611101z"  horiz-adv-x="1024" />

    
    <glyph glyph-name="mp_me_advice" unicode="&#59300;" d="M326.49031 296.796237l-66.901975 66.877893L624.659266 722.820696 660.614864 631.08937zM409.816745 212.891816l-66.829727 66.85381 334.244967 334.148636 66.901975-66.637065zM498.056068 130.095202l-68.876764 68.997178 334.076387 334.148636 88.094826-49.73095zM54.427093-60.760865l193.481091 400.617121 218.936595-218.960677L54.427093-60.760865z m197.165757 378.822201l-170.771025-353.29445 363.914958 160.078269-193.143933 193.216181zM41.446472-73.356162l204.679586 423.832926 231.60414-231.724553-436.283726-192.108373z m211.928504 380.917404L93.874694-22.710066l339.952587 149.650423-180.452305 180.620885zM126.434619 63.939793s19.796049 3.829163 19.579304-10.138852c-0.409407-13.895767 5.514958-10.765005 15.629727-11.053998 10.066604-0.505738 11.872813-8.139981 7.682408-14.666416-4.23857-6.5746-2.841769-16.568956 23.215805-13.221449 26.081656 3.034431-106.879398-43.830668-106.879398-43.830668L126.434619 63.939793zM883.501035 515.227093l-226.739417 226.787582 88.142992 88.167075 226.739416-226.667169zM967.188711 609.99285c-22.782314-22.613735-90.045532 7.248918-150.22841 67.046473C756.897836 736.69238 726.818438 803.522107 749.552587 826.159925c22.685983 22.613735 90.069614-7.393415 150.059831-67.118721 60.206961-59.725306 90.38269-126.338288 67.576293-149.048354M945.610536 594.748448c-34.414299 0-87.107432 30.199812-134.020696 76.968579-65.143932 64.469614-94.18777 133.322295-67.479962 159.861524 6.502352 6.550517 15.677893 9.801693 27.044967 9.801694 34.462465 0 86.962935-30.175729 133.924365-76.872249 65.288429-64.686359 94.35635-133.418627 67.576293-159.885607-6.5746-6.550517-15.701976-9.873942-27.044967-9.873941m-174.455691 231.146566c-7.17667 0-12.547131-1.709878-16.135466-5.370461-17.002446-16.713452 6.598683-77.570649 67.383631-138.018438 43.686171-43.324929 93.031797-72.465099 123.207526-72.465099 7.080339 0 12.523048 1.758043 16.111383 5.370461 16.882032 16.882032-6.526435 77.715146-67.576293 138.138852-43.517592 43.349012-92.935466 72.344685-122.990781 72.344685M883.501035 515.227093c-19.434807-19.579304-86.047789 15.412982-148.831609 78.052305-62.567074 62.567074-97.463029 129.180056-77.83556 148.735277 19.362559 19.410724 85.951458-15.412982 148.638947-78.10047 62.639323-62.422578 97.463029-129.180056 78.028222-148.687112"  horiz-adv-x="1024" />

    
    <glyph glyph-name="mp_me_arrow_left" unicode="&#59301;" d="M775.802822 5.27413L397.269614 383.807338 780.763876 767.301599l-0.024083 0.048166a72.248354 72.248354 0 0 1-102.135089 102.111006l-0.024083 0.024083-433.490122-433.490122 0.024082-0.024083a72.079774 72.079774 0 0 1-22.107996-51.970649v-0.337159c0-20.446284 8.501223-38.869614 22.107996-51.994732l-0.024082-0.024083 433.490122-433.490122 0.192662 0.216745a72.248354 72.248354 0 1 1 97.029539 106.903481"  horiz-adv-x="1024" />

    
    <glyph glyph-name="mp_me_arrow_right" unicode="&#59302;" d="M248.197178 762.72587l378.533208-378.533208L243.236124 0.698401l0.024083-0.048166a72.248354 72.248354 0 0 1 102.135089-102.111006l0.024083-0.024083 433.490122 433.490122-0.024082 0.024083a72.12794 72.12794 0 0 1 22.107996 51.970649v0.192662 0.144497c0 20.470367-8.501223 38.869614-22.107996 51.994732l0.024082 0.024083-433.490122 433.490122-0.192662-0.216745a72.248354 72.248354 0 1 1-97.029539-106.903481"  horiz-adv-x="1024" />

    
    <glyph glyph-name="mp_me_head" unicode="&#59303;" d="M512 384zM512 384zM512 384zM512 384m-508.989652 0a508.989652 508.989652 0 1 1 1017.979304 0 508.989652 508.989652 0 1 1-1017.979304 0ZM294.556538 450.131326c-2.745437 27.117215 12.01731 51.392662 32.969332 54.210349 20.976105 2.841769 40.194167-16.857949 42.963688-43.951082 2.76952-27.117215-12.01731-51.368579-32.945249-54.234431-21.000188-2.817686-40.21825 16.857949-42.987771 43.975164zM684.504986 406.059831c-20.879774 2.33603-34.992286 26.274318-31.452117 53.439699 3.516087 27.213547 23.312135 47.370837 44.167827 45.082972 20.903857-2.33603 34.968203-26.226152 31.4762-53.415616-3.516087-27.237629-23.288053-47.39492-44.19191-45.107055zM513.685795 668.80301s-172.480903-21.578175-172.480903-113.550329v-160.680339c0-36.220508 58.569332-139.752399 111.382878-143.990969 26.394732-2.167451 61.098024-5.177799 61.098025-5.177798s34.703293 3.010348 61.122107 5.177798c52.789464 4.262653 111.334713 107.794544 111.334713 143.990969v160.680339c0 91.996237-172.45682 113.550329-172.45682 113.550329zM685.588711 555.276764v-160.680339c0-36.220508-58.569332-139.752399-111.334713-143.990969-26.442897-2.167451-61.14619-5.177799-61.14619-5.177798V668.80301s172.480903-21.554092 172.480903-113.526246zM512 303.491251c24.058702 0 43.565757 17.195108 43.565757 38.363876h-87.107432c-0.024083-21.168768 19.482973-38.363876 43.541675-38.363876zM599.733584 444.664534m-15.003575 0a15.003575 15.003575 0 1 1 30.00715 0 15.003575 15.003575 0 1 1-30.00715 0ZM425.759548 450.637065m-14.979492 0a14.979492 14.979492 0 1 1 29.958984 0 14.979492 14.979492 0 1 1-29.958984 0ZM880.803763-124.989652S854.938852 72.368768 817.586453 124.098589c-47.419003 57.50969-223.271496 24.949765-223.271495 99.317403V291.931515h-162.414299v-68.732268c-1.276388-73.356162-178.212606-41.807714-225.511195-99.124741-37.328316-51.681656-63.21731-249.064158-63.21731-249.064158h737.631609zM512.337159 291.955597v-416.945249h368.466604S854.938852 72.368768 817.586453 124.098589c-47.419003 57.50969-223.271496 24.949765-223.271495 99.317403V291.931515h-81.977799zM817.586453 124.098589c-46.214864 55.992474-214.023706 26.611477-222.838005 93.730197-22.950894-10.957667-51.151834-17.38777-81.64064-17.38777-30.536971 0-58.761994 6.502352-81.736971 17.38777-9.777611-66.372154-178.886924-37.930386-224.95729-93.730197-37.352399-51.705738-63.241392-249.088241-63.241393-249.088241h737.631609s-25.864911 197.382502-63.21731 249.088241zM594.748448 217.828786c-22.950894-10.957667-51.151834-17.38777-81.64064-17.38777l-0.770649 0.024083v-325.454751h368.466604S854.938852 72.368768 817.586453 124.098589c-46.214864 55.992474-213.999624 26.63556-222.838005 93.730197zM657.532267 485.96651V585.572907s-69.719661 36.509501-144.424459 34.847789V763.183443s192.228786-23.239887 192.228787-114.537723c0-91.297836-14.594167-146.062088-14.594168-146.062089s-23.26397 0-33.21016-16.617121zM368.707432 485.96651V585.572907s69.719661 36.509501 144.424459 34.847789V763.183443s-187.002822-23.239887-187.002822-114.537723c0-91.297836 9.392286-146.062088 9.392286-146.062089s23.215804 0 33.186077-16.617121zM456.079774 479.078833a2.986265 2.986265 0 0 0-2.384195 1.228223c-5.346378 7.17667-16.063217 11.656068-27.960113 11.656067-11.872813 0-22.589652-4.479398-27.93603-11.656067-0.987394-1.324553-2.865851-1.613547-4.190405-0.626153s-1.613547 2.865851-0.60207 4.190405c6.430103 8.693885 18.977234 14.064346 32.728505 14.064346 13.775353 0 26.322484-5.394544 32.752587-14.064346a2.986265 2.986265 0 0 0-2.408279-4.792475zM630.439135 479.078833a3.130762 3.130762 0 0 0-2.432362 1.228223c-5.322295 7.17667-16.039135 11.656068-27.911947 11.656067-11.896896 0-22.613735-4.479398-27.93603-11.656067a3.010348 3.010348 0 0 0-4.816557 3.564252c6.454186 8.693885 19.001317 14.064346 32.752587 14.064346s26.322484-5.394544 32.728504-14.064346a3.010348 3.010348 0 0 0-0.626152-4.190405 2.817686 2.817686 0 0 0-1.758043-0.60207z"  horiz-adv-x="1024" />

    
    <glyph glyph-name="mp_me_warning" unicode="&#59304;" d="M511.927752 869.219944c-267.993227 0-485.171778-217.2508-485.171778-485.244027 0-267.969144 217.178551-485.195861 485.171778-485.195861 267.969144 0 485.292192 217.226717 485.292192 485.195861 0 267.993227-217.298965 485.244026-485.292192 485.244027z m73.452493-783.942804H470.095955V456.368768h115.28429v-371.091628z m-58.424836 416.535842c-36.340922 0-59.797554 25.864911-59.797554 57.750518 0 32.60809 24.275447 57.606021 61.266604 57.60602 37.256068 0 60.086548-25.022013 60.857197-57.60602 0-31.861524-23.625212-57.750517-62.326247-57.750518z"  horiz-adv-x="1024" />

    
    <glyph glyph-name="mp_me_setting" unicode="&#59305;" d="M512 384zM512 384zM512 384zM949.222954 456.898589h-43.734337c-20.036877 0-41.301976 15.65381-47.274506 34.823706l-25.070179 60.977611c-9.464534 17.652681-5.587206 43.686171 8.525306 57.895014l31.042709 30.946378c14.208843 14.232926 14.208843 37.424647 0 51.609408l-51.609407 51.537159a36.653998 36.653998 0 0 1-51.561242 0l-31.042709-31.018627c-14.112512-14.160677-40.170085-18.038006-57.895014-8.549389l-60.905362 25.094262c-19.097648 5.924365-34.847789 27.213547-34.84779 47.250423V821.198871a36.605833 36.605833 0 0 1-36.41317 36.461336h-72.82634a36.605833 36.605833 0 0 1-36.485419-36.461336v-43.734337c0-20.036877-15.629727-41.326058-34.799624-47.250423l-60.97761-25.094262c-17.676764-9.488617-43.686171-5.611289-57.798683 8.549389l-31.139041 31.018627a36.557667 36.557667 0 0 1-51.488993 0l-51.537159-51.537159a36.605833 36.605833 0 0 1 0-51.561242l30.922295-30.994544c14.257008-14.208843 18.110254-40.242333 8.597554-57.895014L165.809972 491.650047c-5.948448-19.121731-27.189464-34.799624-47.274506-34.799624l-43.686172 0.048166a36.605833 36.605833 0 0 1-36.485418-36.437253v-72.826341a36.605833 36.605833 0 0 1 36.485418-36.509501h43.686172c20.085042 0 41.277893-15.65381 47.202257-34.799624l25.16651-61.001693c9.440452-17.676764 5.587206-43.734337-8.597554-57.895014l-30.994544-30.994544a36.726246 36.726246 0 0 1 0-51.561242l51.609408-51.609407c14.160677-14.160677 37.328316-14.160677 51.488993 0l31.066792 31.042709c14.112512 14.160677 40.146002 17.965757 57.726435 8.428975l61.122107-25.070179c19.169897-5.972531 34.799624-27.189464 34.799624-47.22634v-43.662089c0-19.988711 16.376294-36.41317 36.485419-36.41317h72.82634c19.988711 0 36.41317 16.424459 36.41317 36.41317v43.662089c0 20.036877 15.750141 41.25381 34.84779 47.22634l61.049858 25.070179c17.628598 9.536783 43.734337 5.731703 57.895015-8.428975l30.898212-31.042709a36.605833 36.605833 0 0 1 51.561242 0l51.609407 51.609407c14.208843 14.208843 14.208843 37.352399 0 51.561242l-31.042709 30.994544c-14.112512 14.160677-17.965757 40.21825-8.525306 57.895014l25.070179 61.001693c5.972531 19.145814 27.285795 34.799624 47.274506 34.799624h43.734337c20.036877 0 36.41317 16.376294 36.41317 36.461336v72.874506c0 20.036877-16.376294 36.437253-36.41317 36.437253m-254.988523-72.850423a182.1381 182.1381 0 0 0-182.1381-182.114017 182.1381 182.1381 0 1 0 182.1381 182.114017"  horiz-adv-x="1024" />

    
    <glyph glyph-name="mp_me_success" unicode="&#59306;" d="M512 853.614299c-259.37159 0-469.614299-210.242709-469.614299-469.614299s210.242709-469.614299 469.614299-469.614299 469.614299 210.242709 469.614299 469.614299-210.266792 469.614299-469.614299 469.614299z m299.975165-345.925117l-329.693321-330.46397c-9.488617-9.5127-28.249106-17.315522-41.6873-17.315522h-28.489934c-13.438194 0-32.198683 7.802822-41.663218 17.315522l-155.261712 156.008278a24.588523 24.588523 0 0 0 0.024083 34.606962l61.098024 61.098024a24.492192 24.492192 0 0 0 34.582879 0.024083l99.19699-98.980245a24.468109 24.468109 0 0 1 34.582878 0.048166l271.870555 272.472624a24.588523 24.588523 0 0 0 34.606962 0.096332l60.760865-60.351459c9.5127-9.488617 9.536783-25.022013 0.072249-34.558795z"  horiz-adv-x="1024" />

    
    <glyph glyph-name="mp_me_worktogether" unicode="&#59307;" d="M512 384zM512 384zM512 384zM950.1381 603.081091h-146.038006v-584.200188h146.038006a36.605833 36.605833 0 0 1 36.509501 36.509502V566.547507c0 20.085042-16.424459 36.533584-36.509501 36.533584M731.081091 603.105174V639.590593c0 71.164628-56.498213 109.552587-109.552587 109.552587h-219.129257c-71.044214 0-109.528504-56.47413-109.528504-109.552587v-36.509502H219.85174v-584.248353h547.690687v584.248353h-36.461336z m-73.043085 0H365.889746v36.509501s0 36.533584 36.509501 36.533585h219.129257s36.509501 0 36.509502-36.533585v-36.509501zM183.390405 603.081091H73.837817A36.605833 36.605833 0 0 1 37.328316 566.547507v-511.181185a36.605833 36.605833 0 0 1 36.509501-36.509502h109.528505V603.081091z"  horiz-adv-x="1024" />

    
    <glyph glyph-name="mp_nav_navapplication" unicode="&#59308;" d="M523.463405 732.983631c116.58476 0 226.739417 0.674318 336.942239-1.107808 10.668674-0.120414 26.370649-13.775353 30.657385-24.781185 38.990028-101.79793 75.908937-204.246096 113.333584-306.525682 7.778739-21.530009 0.481656-33.667733-22.878645-33.667733-101.942427-0.240828-203.812606-1.083725-305.514205 1.204139-13.028786 0.288993-32.439511 15.05174-37.280151 27.574789-38.893697 100.593791-74.945626 201.982314-111.455127 303.322671-3.178928 8.64572-2.311947 18.712324-3.80508 33.980809M501.307244 730.816181c-4.623895-19.121731-6.767262-34.534713-12.01731-48.86397-32.656256-90.98476-67.022389-181.295202-98.643085-272.665287-10.933584-31.933772-28.610348-43.854751-62.085419-43.228599-92.044403 1.661712-184.112888 0.288993-276.205456 0.722484C14.112512 366.925306 9.103293 374.366886 22.421072 410.948636c34.390216 95.608655 69.79191 190.880151 103.459643 286.777799 9.151458 25.624083 22.541486 36.557667 51.079586 36.051928 94.452681-1.661712 189.049859-0.60207 283.550706-0.722483 11.945061-0.024083 23.721543-1.252305 40.796237-2.239699M538.63556 554.265287c24.010536-59.364064 45.949953-110.708561 65.143932-163.064534 11.270743-30.296143 27.117215-43.951082 62.085419-42.000377 63.602634 3.419755 127.56651-0.120414 191.409971 1.300471 28.008278 0.577987 40.266416-8.790216 39.857009-37.761807a8815.021637 8815.021637 0 0 1 0-239.406961c0.216745-28.200941-10.427846-39.110442-39.230856-38.869614-96.957291 1.131891-193.98683 0.553904-290.944121 0.26491-19.964628 0-36.533584 0.86698-36.268673 28.200941 0.650235 158.392474 0.650235 316.736783 1.059642 475.008843 0.024083 2.191533 1.782126 4.527563 6.887677 16.328128M489.482596 544.632173c0.818815-11.439323 2.047037-22.878645 2.047037-34.269802 0.096331-142.257008 0.096331-284.634431 0-426.939605-0.072248-46.937347-1.878457-48.502728-47.081844-48.502728-93.248542-0.240828-186.448918 1.011477-279.721543-0.674318-30.87413-0.505738-40.21825 10.307432-39.664346 40.434995 1.661712 78.413547 1.589464 157.043838 0 235.481468-0.505738 29.983067 7.923236 41.566886 39.35127 40.603574 68.635936-2.071119 137.464534 1.03556 206.076388-1.396801 30.27206-1.011477 43.975165 9.994356 52.259642 37.665475 12.547131 42.144873 28.152775 83.519097 42.939605 124.989652 4.190405 11.84873 10.018438 23.167639 14.931327 34.703292 3.034431-0.746566 5.924365-1.372719 8.862464-2.095202"  horiz-adv-x="1024" />

    
    <glyph glyph-name="mp_me_worksetting" unicode="&#59309;" d="M512 384zM512 384zM512 384zM403.531138 240.249859h-37.858137a263.224835 263.224835 0 0 1-10.909501 38.701035l31.620696 18.206585a16.039135 16.039135 0 0 1 5.803951 21.746754l-31.692945 54.812418a15.798307 15.798307 0 0 1-21.650423 5.803951l-32.897084-18.977234a240.51477 240.51477 0 0 1-28.706679 27.984195l18.278833 31.741111a15.822389 15.822389 0 0 1-5.852116 21.674506l-54.812418 31.717027a15.822389 15.822389 0 0 1-21.674506-5.852117l-18.904986-32.848918a241.38175 241.38175 0 0 1-39.038194 9.922107v36.605833a15.846472 15.846472 0 0 1-15.798306 15.846472H82.290875v-115.28429a196.997178 196.997178 0 0 0 28.851176 2.360113 195.263217 195.263217 0 0 0 195.2873-195.2873 194.203575 194.203575 0 0 0-35.257197-111.768203h126.09746a15.798307 15.798307 0 0 1-7.369332 9.849859l-32.824835 18.880903c4.262653 12.595296 7.586077 25.6 9.849859 38.990028h36.58175a15.798307 15.798307 0 0 1 15.798306 15.870555v63.337724a15.798307 15.798307 0 0 1-15.774224 15.966886zM577.914581 232.73603l-1.685795-5.587206-19.482972-67.72079 67.624459 19.531138 5.659454 1.661712zM953.533772 452.804516l26.298401 26.370649a23.745626 23.745626 0 0 1 0 33.499153l-69.960489 69.912324a23.625212 23.625212 0 0 1-33.450988 0l-26.370649-26.37065 103.483725-103.411476zM838.851552 544.222766c-0.770649-0.60207-1.854374-0.987394-2.600941-1.782126l-213.590216-213.614299a24.853434 24.853434 0 0 1 0-35.257197l2.143368-2.095202c6.74318-6.863594 16.448542-8.597554 24.973848-5.8762a24.805268 24.805268 0 0 1 5.876199-24.99793l2.191533-2.215616c6.839511-6.815428 16.424459-8.549389 24.973848-5.924365a24.805268 24.805268 0 0 1 5.852117-24.973848l2.215616-2.119285a24.805268 24.805268 0 0 1 35.257196 0l213.6143 213.590216c0.746566 0.722484 1.107808 1.758043 1.782126 2.673189l-102.688994 102.592663zM772.358984 234.999812v-149.987582H87.083349V558.35936h685.275635v-43.349012l49.779116 49.851364V707.913452a24.805268 24.805268 0 0 1-24.877517 24.877517H62.229915c-13.799436 0-24.973848-11.102164-24.973847-24.877517v-647.826904c0-13.799436 11.174412-24.925682 24.973847-24.925683h735.030668c13.799436 0 24.877516 11.126246 24.877517 24.925683v224.69238l-49.779116-49.779116zM739.172907 678.869614c18.375165 0 33.186077-14.883161 33.186077-33.258325 0-18.351082-14.810913-33.161994-33.186077-33.161995a33.186077 33.186077 0 1 0 0 66.42032z m-97.55936 0c18.302916 0 33.137912-14.883161 33.137911-33.258325a33.21016 33.21016 0 1 0-33.137911 33.258325z m-97.703857 0c18.375165 0 33.354657-14.883161 33.354656-33.258325a33.258325 33.258325 0 0 0-66.516651 0c0 18.375165 14.834995 33.258325 33.161995 33.258325z"  horiz-adv-x="1024" />

    
    <glyph glyph-name="mp_nav_navhome" unicode="&#59310;" d="M512 790.011665l-1.059643 0.842898L16.978363 391.706491l60.27921-48.743556L512 694.306679l434.76651-351.343744 60.231044 48.743556-493.937911 399.148072zM129.565381 277.481844v-300.312324h303.707996V266.042521h161.595485v-288.873001H894.434619v300.312324L505.473565 588.414675z"  horiz-adv-x="1024" />

    
    <glyph glyph-name="mp_nav_navtool" unicode="&#59311;" d="M310.186265 424.748071l0.60207-0.674317 92.261148-92.285231 32.1746 32.222766-34.727376 34.727375-15.701975 15.701976 80.508749 80.484666 10.596425-1.155974a72.320602 72.320602 0 0 1 24.540357 1.372719l-59.267732 59.291815c-1.180056 1.204139-2.480527 2.263782-3.732832 3.395673A195.263217 195.263217 0 0 1 198.273565 798.87413l110.636313-110.636313-29.043838-108.37253-108.372531-29.043838L60.809031 661.433678a195.311383 195.311383 0 0 1 249.377234-236.685607z m326.851552-66.203574a74.89746 74.89746 0 0 1-1.324553-24.588523l1.180057-10.620508-7.561995-7.537912-57.244778-57.244779-15.677893-15.726058-50.453434 50.453434-32.1746-32.150518L765.784384-30.946378a92.164817 92.164817 0 0 1 130.384195 0 92.188899 92.188899 0 0 1 0 130.384195l-259.130762 259.10668z m225.511195-359.194732l-46.311195-12.426717-37.617309 37.593227 12.426717 46.287112 46.311195 12.450799 37.593226-37.569144-12.402634-46.335277zM506.268297 324.395108l50.453434-50.501599 57.244779 57.244779a95.560489 95.560489 0 0 0 105.747507 105.723424l250.220132 250.268297-140.185889 140.161807-250.244215-250.244215a95.440075 95.440075 0 0 0-27.406209-78.365381 95.680903 95.680903 0 0 0-78.317215-27.382126l-57.220696-57.220696 50.429351-50.429351L219.707244 116.368015l-9.031045 9.07921-47.467168-38.291628-79.858514-126.073377 20.398119-20.374036 126.09746 79.810348 38.219379 47.491252-9.07921 9.055127 247.282032 247.330197z"  horiz-adv-x="1024" />

    
    <glyph glyph-name="mp_nav_navuser" unicode="&#59312;" d="M987.996237 86.890687c-15.822389 45.998119-68.395108 52.644967-112.298024 71.164628-48.237817 20.32587-101.677516 43.902916-149.79492 63.626717-13.75127 3.732832-27.478457 7.537912-41.181562 11.24666-16.376294 11.294826-32.463594 48.767639-41.181562 67.383632-8.766134 1.276388-17.484102 2.50461-26.250235 3.732831 1.348636 28.851176 19.242145 30.44064 26.250235 52.428222 6.165193 19.434807 0.626152 44.697648 10.427846 62.687488 6.767262 12.498965 22.204327 12.571214 29.83857 23.288053 6.984008 9.729445 11.535654 26.63556 13.703105 38.556538 3.973659 21.746754 7.465663 51.537159-2.914017 73.091251-5.900282 12.402634-9.681279 13.58269-11.342992 28.634431-1.974788 18.230668 5.394544 77.739229 5.659454 90.575353 0.770649 33.378739-0.048166 36.100094-8.091815 68.587771 0 0-9.825776 29.453246-25.190593 38.31571l-30.633302 5.250047-18.880903 17.55635c-76.318344 46.96143-158.103481 14.016181-201.934149-3.732832-63.145061-20.49445-103.026152-82.290875-75.186453-214.360865 4.768391-22.565569-12.354468-32.632173-11.222578-44.938476 2.456444-26.924553 2.962183-91.634995 28.393603-107.577799 2.360113-1.46905 20.398119-5.996613 20.277705-4.768391l7.489746-78.630292c6.357855-17.435936 21.578175-19.362559 26.009407-43.926999l-19.482972-4.768391c-8.766134-18.59191-24.829351-56.088805-41.205645-67.383632-13.727187-3.708749-27.454374-7.513829-41.181561-11.24666-48.117404-19.699718-101.557103-43.300847-149.79492-63.626717-43.902916-18.543744-96.451552-25.16651-112.322108-71.164628 0-31.259454-2.962183-105.097272-2.143367-146.013923h419.787017l30.801882 210.459454-25.6 54.041769 59.147319 28.36952 49.827281-27.743368-27.478457-55.679398 48.574976-209.447977h401.363688c0.722484 40.916651-2.239699 114.754468-2.239699 146.013923z"  horiz-adv-x="1024" />

    
    <glyph glyph-name="mp_tool_barcode" unicode="&#59313;" d="M48.165569 703.337723h24.082785v-553.904045H48.165569zM72.248354 703.337723h48.165569v-553.904045H72.248354zM313.076199 703.337723h24.082785v-553.904045h-24.082785zM216.745061 703.337723h72.248354v-553.904045H216.745061zM433.490122 703.337723h96.331139v-553.904045h-96.331139zM72.248354 125.350894h96.331138v-48.165569H72.248354zM288.993415 125.350894h192.662276v-48.165569h-192.662276zM200.296519 124.79699h31.235372v-46.26303H200.296519zM262.719097 124.79699h31.211289v-46.26303h-31.211289zM553.904045 703.337723h48.165569v-553.904045h-48.165569zM602.069614 703.337723h96.331139v-553.904045h-96.331139zM842.89746 703.337723h48.165569v-553.904045h-48.165569zM722.483537 703.337723h96.331138v-553.904045h-96.331138zM915.145814 703.337723h72.248353v-553.904045h-72.248353zM505.738476 125.350894h72.248354v-24.082785h-72.248354zM725.927375 124.748824h47.539417v-23.769708h-47.539417zM590.365381 124.79699h31.259454v-30.777799h-31.259454zM652.787959 124.79699h31.187206v-30.777799h-31.187206zM871.26698 124.79699h15.533396v-30.777799h-15.533396zM842.89746 125.350894h120.413923v-24.082785h-120.413923z"  horiz-adv-x="1024" />

    
    <glyph glyph-name="mp_tool_abnormal" unicode="&#59314;" d="M305.128881 541.549577c10.355597-85.638382 84.073001-174.238946 150.806397-174.238947 76.751834 0 149.79492 93.248542 161.161994 174.238947 4.431232 3.323424 11.439323 10.524177 14.064346 27.478457 0 0 16.424459 58.713829-5.418626 52.355974 7.61016 22.710066 32.680339 110.828975-15.942804 165.593226 0 0-22.758231 31.13904-78.124553 47.587583l-25.864911 8.91063c-10.187018 7.44158-30.70555 24.805268-30.70555 44.143744 0 0-12.860207-5.924365-20.301787-16.930198 2.914017 9.07921 7.850988 17.484102 15.91872 24.29953 0 0-8.47714-4.40715-16.231797-13.703104-5.996613-3.419755-19.796049-12.88429-24.39586-29.597743l0.361241 1.107808s-2.865851 3.780997-10.500094 4.888806c-7.658325 1.03556-21.072437-3.997742-21.072436-3.997742s-80.629163-31.548448-104.085795-104.158044c0 0-13.775353-32.77667 4.40715-129.30047-25.840828 12.28222-8.115898-51.175917-8.115899-51.175917 2.625024-16.978363 9.729445-24.179116 14.040264-27.50254zM452.106115 878.058325a51.416745 51.416745 0 0 1-8.910631-20.663029l-2.889934 1.107808c2.215616 7.080339 5.948448 13.775353 11.800565 19.555221zM562.983255 59.580809c0 110.058325 89.563876 199.670367 199.766698 199.670367a200.609595 200.609595 0 0 0 36.967074-3.564252c-2.311947 5.948448-3.901411 9.368203-3.901411 9.368203-21.024271 46.913264-149.867168 87.516839-149.867168 87.516839-68.684102 24.251364-69.18984 48.43048-69.18984 48.43048-134.935842-266.11477-237.528504-0.842897-237.528505-0.842898-9.440452-35.907432-148.374036-77.980056-148.374035-77.980056-40.65174-15.629727-57.750517-39.086359-57.750518-39.086359-60.038382-89.08222-67.142803-287.30762-67.142803-287.30762 0.746566-45.227469 20.349953-49.971778 20.349953-49.971778 138.162935-61.676011 354.811665-72.585513 354.811665-72.585513a1084.688617 1084.688617 0 0 1 215.565005 17.363688 199.285042 199.285042 0 0 0-93.706115 168.988899zM771.492004 246.029727c-102.83349 0-186.448918-83.687676-186.448918-186.448918 0-102.905738 83.639511-186.545249 186.448918-186.545249s186.545249 83.639511 186.545249 186.545249c0 102.761242-83.711759 186.448918-186.545249 186.448918z m37.111571-53.993603l-8.549389-175.274506-44.071496 0.024083-8.525305 175.250423h61.14619z m-30.561054-264.982878h-0.746566c-20.133208 0-34.053057 15.148071-34.053058 35.209031 0 20.879774 14.35334 35.160865 34.799624 35.160865 20.518532 0 34.053057-14.281091 34.438382-35.160865-0.024083-20.06096-13.558608-35.209031-34.438382-35.209031z"  horiz-adv-x="1024" />

    
    <glyph glyph-name="mp_tool_brand_analysis" unicode="&#59315;" d="M511.735089-91.297836c-66.42032 0-132.67206 14.136595-195.11872 42.361618-238.804892 107.650047-345.587959 389.587206-237.865663 628.41618l157.573659-71.020131c-68.563688-151.986453-0.650235-331.475447 151.336218-399.918721 152.058702-68.660019 331.451364-0.650235 399.942804 151.312136l157.501411-71.044215A472.263405 472.263405 0 0 0 680.097836-60.327375a474.575353 474.575353 0 0 0-168.362747-30.970461zM468.747319 856.865475A472.624647 472.624647 0 0 1 141.028786 681.133396a465.134901 465.134901 0 0 1-42.482032-63.096896l158.512889-71.429539c5.755786 9.006961 11.920978 17.965757 18.736406 26.563312a301.371966 301.371966 0 0 0 192.95127 109.961994V856.865475zM811.132267 340.915898c-2.047037-13.679022-4.936971-27.213547-8.766133-40.338664l158.296143-71.429539a476.790969 476.790969 0 0 1 24.299529 111.768203h-173.829539zM987.201505 384.072248h-172.89031c0 166.797366-135.61016 302.431609-302.359361 302.431609V859.321919c261.996613 0 475.249671-213.180809 475.249671-475.249671zM339.206021 326.538476h86.336782v-112.851928h-86.336782zM468.747319 465.736971h86.505362v-252.050423h-86.505362zM598.409031 537.672248h86.3127v-323.9857h-86.3127z"  horiz-adv-x="1024" />

    
    <glyph glyph-name="mp_tool_business_analysis" unicode="&#59316;" d="M530.42333 779.078081v78.26905h-53.704609v-78.26905H43.541675v-138.620508h47.515333v-523.318909h331.041957l-201.404327-164.894826 34.053057-41.566886 252.122672 206.437629h1.782126l252.170837-206.437629 34.028975 41.566886-201.404328 164.894826h329.741487v523.318909h57.268861V779.078081H530.42333z m339.061524-608.186642H144.785701V640.457573h724.699153v-469.566134z m-548.340922 120.967827v139.631985h139.656068a139.656068 139.656068 0 1 1-139.656068-139.631985z m39.230856-38.098965a139.680151 139.680151 0 0 1 139.656068 139.680151h-139.656068v-139.680151z m427.084102 286.70555h-178.59793v-53.704609h178.59793v53.704609z m0-98.570837h-178.59793v-53.704609h178.59793v53.704609z m0-98.643085h-178.59793v-53.70461h178.59793v53.70461z"  horiz-adv-x="1024" />

    
    <glyph glyph-name="mp_tool_case_query" unicode="&#59317;" d="M986.479022 114.224647l-206.895203 134.092945a74.704798 74.704798 0 0 1-58.761994 9.536782c-6.598683-1.613547-13.004704-3.997742-18.953151-7.224835l-34.101223 22.059831c40.38683 74.512135 54.8365 163.54619 33.306491 252.363499-46.070367 190.205833-238.250988 307.224083-428.36049 261.153716C82.603951 740.015804-34.462465 547.931515 11.559737 357.822013c46.214864-190.157667 238.299153-307.248166 428.529068-261.10555a351.993979 351.993979 0 0 1 185.678269 114.634054l35.498025-22.999059c-1.637629-26.972719 9.681279-54.258514 34.125306-69.888241l206.726622-134.14111c18.567827-12.185889 40.459078-15.196237 60.44779-10.331514a76.824083 76.824083 0 0 1 46.672436 33.234242 77.23349 77.23349 0 0 1-22.758231 106.999812zM424.579492 160.535842c-155.261712-37.665475-311.43857 57.702352-349.104045 212.771402-37.641392 155.093133 57.461524 311.414487 212.67507 349.031796 155.165381 37.737723 311.414487-57.606021 349.200377-212.723236 37.569144-155.093133-57.7746-311.414487-212.771402-349.079962zM428.408655 363.288805h-145.243274l-25.768579-65.192098H164.822578l139.126246 316.375541h103.604139L546.67921 298.096707h-92.62239l-25.648165 65.192098z m-72.681844 182.956915l-49.586454-125.326811h99.245156l-49.658702 125.326811z"  horiz-adv-x="1024" />

    
    <glyph glyph-name="mp_tool_case_statistical" unicode="&#59318;" d="M340.602822 590.582126V783.292568h622.202822v-192.710442H340.602822zM340.602822 286.681468v192.758607h622.202822v-192.758607H340.602822zM340.602822-17.12286v192.710442h622.202822v-192.710442H340.602822zM73.8619 727.685419V755.573283c12.932455 0.577987 21.939417 1.444967 27.093133 2.600941 8.236312 1.806209 14.931326 5.466792 20.085042 10.957667 3.516087 3.708749 6.213358 8.693885 8.04365 14.931326 1.011477 3.732832 1.565381 6.526435 1.565381 8.332644h34.221637v-208.532832H122.918532V727.685419H73.8619zM72.272437 317.290687c5.852117 13.895767 19.651552 28.586265 41.422389 44.095578 18.904986 13.558608 31.114958 23.26397 36.702164 29.092004 8.525306 9.103293 12.787959 19.073565 12.787958 29.910818 0 8.838382-2.456444 16.111383-7.345249 22.035748-4.864722 5.852117-11.872813 8.742051-20.976105 8.742051-12.474882 0-20.976105-4.67206-25.455504-13.968015-2.576858-5.346378-4.142239-13.895767-4.623894-25.6H64.927187c0.698401 17.749012 3.901411 32.054186 9.657197 42.987771 10.933584 20.807526 30.368391 31.211289 58.304421 31.211288 22.059831 0 39.640263-6.092944 52.66905-18.326999s19.627469-28.36952 19.62747-48.550893c0-15.388899-4.599812-29.116087-13.847602-41.133396-6.044779-7.971402-15.990969-16.785701-29.814487-26.587395l-16.424459-11.631985c-10.307432-7.321167-17.339605-12.547131-21.096519-15.798306a47.443086 47.443086 0 0 1-9.560866-11.367075h91.008843v-36.100094h-142.810912c0.385325 14.931326 3.588335 28.610348 9.633114 40.9889zM101.484854 44.769897c0-8.380809 1.324553-15.268485 4.021825-20.711195 4.961054-10.066604 14.016181-15.099906 27.093133-15.099906 8.04365 0 15.05174 2.745437 21.048354 8.308561 5.972531 5.514958 8.958796 13.462277 8.958795 23.745625 0 13.727187-5.53904 22.878645-16.617121 27.526623-6.333772 2.576858-16.304045 3.829163-29.83857 3.829163v29.380997c13.269614 0.168579 22.541486 1.493133 27.791533 3.901411 9.07921 4.021825 13.606773 12.113641 13.606774 24.419943 0 7.947319-2.311947 14.449671-6.959925 19.434808-4.623895 4.985136-11.174412 7.489746-19.579304 7.489746-9.657197 0-16.785701-3.082596-21.313264-9.199624-4.527563-6.165193-6.695014-14.329257-6.502352-24.588523H64.927187c0.409407 10.355597 2.167451 20.181373 5.322296 29.477328 3.37159 8.139981 8.621637 15.65381 15.798306 22.565569 5.346378 4.864722 11.704233 8.64572 19.097648 11.246661 7.369332 2.552775 16.424459 3.901411 27.165381 3.901411 19.916463 0 35.97968-5.201881 48.189652-15.533396 12.209972-10.283349 18.302916-24.155033 18.302917-41.470555 0-12.306303-3.6365-22.613735-10.933585-31.04271-4.575729-5.322295-9.416369-8.886548-14.377422-10.81317 3.732832 0 9.103293-3.20301 16.0873-9.633114 10.476011-9.657197 15.677893-22.902728 15.677893-39.664346 0-17.652681-6.117027-33.137912-18.326999-46.552022-12.209972-13.390028-30.27206-20.036877-54.234431-20.036877-29.501411 0-49.995861 9.584948-61.483349 28.899341-6.044779 10.259266-9.392286 23.69746-10.066604 40.266416h40.338664z"  horiz-adv-x="1024" />

    
    <glyph glyph-name="mp_tool_cigarette_query" unicode="&#59319;" d="M386.721355 75.668109h250.485042v-51.224083H386.721355zM962.396237 778.500094H61.676011a23.504798 23.504798 0 0 1-23.601129-23.601129V113.791157c0-13.076952 10.500094-23.601129 23.601129-23.601129h900.720226a23.601129 23.601129 0 0 1 23.552963 23.601129V754.898965a23.601129 23.601129 0 0 1-23.552963 23.601129z m-35.233114-538.009407H96.69238V721.761054h830.470743v-481.270367zM697.172531 12.980621H326.803387a17.026529 17.026529 0 0 1-17.002446-17.074694v-6.406021h404.374035v6.406021a17.050611 17.050611 0 0 1-17.002445 17.074694zM310.523424 433.634619a41.012982 41.012982 0 0 1 41.277893-43.58984c21.385513 0 38.628786 14.497836 38.628786 36.629915 0 25.648166-21.457761 34.414299-42.096707 40.603575-18.326999 5.370461-40.531326 11.439323-56.112888 22.878645-19.531138 13.775353-30.633302 37.087488-30.633302 61.098025 0 38.701035 29.477328 71.501787 67.648542 76.535089V667.911947h39.760677v-44.336406c9.922107-1.517215 16.809784-6.526435 22.589652-14.521919v16.424459h35.955598v-74.945626H385.083725c-1.204139 20.349953-16.111383 34.799624-36.750329 34.799624-19.121731 0-35.955597-12.571214-35.955597-32.824835 0-23.408467 17.98984-31.403951 37.88222-36.413171 19.482973-4.84064 42.771025-11.41524 59.219567-23.239887 21.000188-14.955409 32.897084-37.135654 32.897084-63.145061 0-43.517592-30.609219-76.872248-73.404328-83.687676v-39.423519H329.211665v45.949953l-3.082596 0.288994c-11.053998 3.853246-15.268485 5.779868-22.469238 15.316651v-15.605645h-38.65287V433.610536h45.516463zM806.412041 403.940546l-64.590028-64.565946-81.351646 81.399812-45.082973-82.33904-67.768956 259.6365 259.660584-67.744873-82.290875-45.107055z"  horiz-adv-x="1024" />

    
    <glyph glyph-name="mp_tool_cigarette_statistical" unicode="&#59320;" d="M387.660583 72.657761h251.857761v-51.537159H387.660583zM966.393979 779.342992H60.784948a23.69746 23.69746 0 0 1-23.769708-23.69746v-644.768392c0-13.052869 10.572342-23.601129 23.769708-23.601129h905.609031a23.649294 23.649294 0 0 1 23.721543 23.601129V755.645532a23.721543 23.721543 0 0 1-23.721543 23.69746zM931.040452 238.395484H96.042145V722.290875H931.040452v-483.895391zM699.749389 9.657197h-372.31985a17.219191 17.219191 0 0 1-17.12286-17.243274v-6.406021h406.589652v6.406021a17.243274 17.243274 0 0 1-17.146942 17.243274zM231.363311 329.500659a54.499341 54.499341 0 0 0-54.619755-54.595673 54.57159 54.57159 0 1 0 0 109.191345 54.595673 54.595673 0 0 0 54.619755-54.595672zM371.332455 421.665475a54.523424 54.523424 0 0 0-54.692003-54.595673 54.57159 54.57159 0 1 0 0 109.167263 54.57159 54.57159 0 0 0 54.692003-54.57159zM528.328128 377.25682a54.740169 54.740169 0 0 0-54.667921-54.667921 54.667921 54.667921 0 0 0 0 109.263594 54.619755 54.619755 0 0 0 54.667921-54.595673zM596.530574 520.669802m-54.619756 0a54.619755 54.619755 0 1 1 109.239511 0 54.619755 54.619755 0 1 1-109.239511 0ZM715.957103 431.852493m-54.595673 0a54.595673 54.595673 0 1 1 109.191345 0 54.595673 54.595673 0 1 1-109.191345 0ZM842.271308 612.762371m-54.595673 0a54.595673 54.595673 0 1 1 109.191345 0 54.595673 54.595673 0 1 1-109.191345 0ZM176.743556 309.054374a20.470367 20.470367 0 0 0-11.294826 37.569144l147.747883 97.270367 153.431421-43.397178 126.795861 148.012794 117.837065-87.589087 114.152398 163.570273a20.518532 20.518532 0 1 0 33.667733-23.456632l-138.355597-198.177235-120.99191 89.949201-119.017121-138.837253-160.559925 45.468297-132.142239-87.011101a20.32587 20.32587 0 0 0-11.270743-3.37159z"  horiz-adv-x="1024" />

    
    <glyph glyph-name="mp_tool_cominfo_query" unicode="&#59321;" d="M106.951646 455.020132h242.8508v-23.841957H106.951646zM106.951646 375.426529h386.239699v-23.914205H106.951646zM106.951646 295.760677h386.239699v-23.890122H106.951646zM106.951646 216.167074h386.239699v-23.938288H106.951646zM728.552399 239.04572a69.767827 69.767827 0 0 1 27.50254 13.968015V360.398871a69.093509 69.093509 0 0 1-43.710254 15.557479c-1.324553 0-2.697272-0.096331-4.094074-0.192662v-138.283349c1.324553-0.096331 2.576858-0.385325 3.901412-0.385325a70.321731 70.321731 0 0 1 16.400376 1.950706zM712.272437 106.494073c-1.348636 0-2.721355 0.144497-4.045908 0.144497v-9.368203H51.296331V551.18269h656.930198v-44.72173c1.324553 0.048166 2.697272 0.288993 3.949576 0.288993 15.05174 0 29.694073-1.878457 43.854751-5.009219V694.57159a23.914205 23.914205 0 0 1-23.890122 23.866039H27.454374a23.890122 23.890122 0 0 1-23.841956-23.866039v-621.070931c0-13.269614 10.692756-23.938288 23.841956-23.938288h704.710443a23.890122 23.890122 0 0 1 23.890122 23.938288v37.906302c-14.449671-3.178928-29.116087-4.912888-43.782502-4.912888zM676.485419 666.659643c17.55635 0 31.74111-14.232926 31.74111-31.813359a31.861524 31.861524 0 1 0-31.74111 31.813359z m-93.633867 0a31.837441 31.837441 0 1 0 0-63.723048 31.837441 31.837441 0 0 0 0 63.723048z m-93.537535 0a31.861524 31.861524 0 1 0 0.120414-63.698966 31.861524 31.861524 0 0 0-0.120414 63.698966zM1004.083537 154.972719l-95.801317 62.181749a34.968203 34.968203 0 0 1-27.261712 4.334902 30.199812 30.199812 0 0 1-8.838382-3.347507l-15.750141 10.307431a163.473942 163.473942 0 0 1 15.461148 116.849671c-21.313264 88.04666-110.44365 142.257008-198.369897 120.871496-88.142992-21.36143-142.35334-110.323236-121.015992-198.321731 21.457761-88.094826 110.44365-142.329257 198.466227-121.015992a163.54619 163.54619 0 0 1 85.999624 53.198871l16.496707-10.716839c-0.794732-12.426717 4.479398-25.118344 15.750142-32.367263l95.777234-62.037253c8.621637-5.683537 18.736406-7.00809 28.008278-4.792474a35.401693 35.401693 0 0 1 21.578175 15.340734 35.71477 35.71477 0 0 1-10.500094 49.514205z m-267.005832 49.249294c-56.594544-13.727187-113.429915 21.024271-127.181186 77.522484s20.903857 113.405833 77.522484 127.060771a105.241769 105.241769 0 1 0 49.658702-204.583255z"  horiz-adv-x="1024" />

    
    <glyph glyph-name="mp_tool_com_saletarget" unicode="&#59322;" d="M481.149953 353.222201V857.443462c-247.08937-16.279962-442.593415-221.393039-442.593415-472.600565 0-261.948448 212.265663-474.286359 474.165946-474.286359 251.32794 0 456.416933 195.528128 472.672812 442.665663H481.149953zM562.838758 416.487676h391.537912c-10.81317 151.552963-98.257761 282.105738-223.608655 353.342616l-167.929257-353.342616zM544.439511 826.328504v-301.275635l129.30047 272.279963a436.428222 436.428222 0 0 1-129.30047 28.995672z"  horiz-adv-x="1024" />

    
    <glyph glyph-name="mp_tool_com_statistical" unicode="&#59323;" d="M957.266604 806.628786H66.733396c-16.665287 0-30.175729-13.558608-30.175729-30.175729v-784.906114c0-16.68937 13.510442-30.175729 30.175729-30.175729H957.290687c16.593039 0 30.175729 13.486359 30.175729 30.175729V776.453057a30.27206 30.27206 0 0 1-30.199812 30.175729z m-188.664534-65.408842a40.266416 40.266416 0 1 0-0.096332-80.532832 40.266416 40.266416 0 0 0 0.096332 80.532832z m-118.246473 0a40.242333 40.242333 0 1 0 0.048166-80.484666 40.242333 40.242333 0 0 0-0.048166 80.484666zM926.970461 21.79492H96.909125V595.254186h830.061336V21.79492zM886.800376 660.687112a40.266416 40.266416 0 1 0-0.096331 80.532832 40.266416 40.266416 0 0 0 0.096331-80.532832zM354.59492 3.20301h-60.375541v90.623519h60.375541v-90.623519zM480.307056 3.20301h-60.351459v90.623519h60.351459v-90.623519zM606.067357 3.20301H545.715898v90.623519h60.351459v-90.623519zM731.875823 3.20301h-60.375541v90.623519h60.375541v-90.623519zM857.660207 3.20301h-60.351458v90.623519h60.351458v-90.623519zM156.489934 232.760113H65.914581v60.375541h90.575353v-60.375541zM156.489934 358.472248H65.914581v60.44779h90.575353v-60.44779zM156.489934 484.352963H65.914581v60.327376h90.575353v-60.327376zM107.963123-26.226152L52.259643 17.195108l269.703104 345.539793 213.566134-130.215616 242.152398 286.344309 53.873189-45.636877L550.412041 140.763876l-211.543179 128.915146-230.905739-295.905174zM731.58683 533.746754h120.847413v-120.678833z"  horiz-adv-x="1024" />

    
    <glyph glyph-name="mp_tool_complete_analysis" unicode="&#59324;" d="M327.429539 727.492756h683.300847v-458.46397H327.429539zM204.101599 230.857573a95.175165 95.175165 0 0 1 0-190.350329 95.102916 95.102916 0 0 1 95.151082 95.199247 95.102916 95.102916 0 0 1-95.151082 95.151082z m0-140.161806a44.986642 44.986642 0 0 0 0 89.973283c24.925682 0 44.962559-20.133208 44.962559-44.962559a44.89031 44.89031 0 0 0-44.962559-45.010724zM327.429539 229.822013v-86.071872H784.376294a130.914017 130.914017 0 0 0 39.375352 86.071872H327.429539zM915.579304 230.857573a95.271496 95.271496 0 0 1-95.199248-95.151082 95.271496 95.271496 0 0 1 95.199248-95.199247 95.078833 95.078833 0 0 1 95.151082 95.199247 95.102916 95.102916 0 0 1-95.151082 95.151082z m0-140.161806a44.962559 44.962559 0 1 0 0.096331 89.925117 44.962559 44.962559 0 0 0-0.096331-89.925117zM204.101599 269.799436c27.358043 0 52.813547-8.284478 74.03048-22.300659V579.479962H88.576482L13.245532 369.21317v-219.923988h57.461524a134.237441 134.237441 0 0 0 133.394543 120.510254zM114.296896 543.018627h127.373847v-163.931515H55.60715l58.689746 163.931515z"  horiz-adv-x="1024" />

    
    <glyph glyph-name="mp_tool_datum_query" unicode="&#59325;" d="M524.860207 687.756162a328.416933 328.416933 0 0 0 102.664911 67.841204L374.4873 755.814111l-72.585513 91.659078-181.897271 0.16858C39.640263 847.762183 3.901411 834.757479 3.756914 734.35635c-0.072248-100.401129-0.409407-423.375353-0.409407-423.375353l463.184196-0.481656c-65.601505 121.377234-46.190781 275.097648 58.328504 377.256821zM944.213735 642.528692c-101.894262 99.582314-267.198495 99.582314-369.092757 0a250.918532 250.918532 0 0 1 0-360.639699c101.894262-99.606397 267.198495-99.606397 369.092757 0a250.942615 250.942615 0 0 1 0 360.639699z m-313.0762-305.875446a174.720602 174.720602 0 0 0 0 251.15936c70.947883 69.35842 186.063594 69.35842 257.03556 0a174.720602 174.720602 0 0 0 0-251.15936c-70.971966-69.382502-186.087676-69.382502-257.03556 0zM541.188335 252.387582a54.041769 54.041769 0 0 1-75.090122 0l-2.697272-2.649106 75.041956-73.332079 2.745438 2.649106a51.055503 51.055503 0 0 1 0 73.332079zM216.889558 8.886548a51.055503 51.055503 0 0 1 0-73.33208 53.921355 53.921355 0 0 1 75.066039 0l222.211854 217.082221-75.090123 73.380244-222.18777-217.130385z"  horiz-adv-x="1024" />

    
    <glyph glyph-name="mp_tool_customermanager" unicode="&#59326;" d="M532.92794 517.587206c77.980056 0 141.101035 78.172719 141.101035 174.479774 0 96.355221-63.120978 174.311195-141.101035 174.311195-78.076388 0-141.173283-77.955974-141.173283-174.311195 0-96.307056 63.096896-174.479774 141.173283-174.479774zM532.783443 27.550706l0.048166 0.240827-0.288994 1.180057zM393.031044 334.558043l33.547319 57.389276-72.296519 36.172342L414.70555 479.367827l-0.505738 2.360113c-22.999059-1.782126-45.92587-3.877328-68.997178-6.670932-0.457573-0.072248-0.842897-0.264911-1.396801-0.409407-35.907432 1.155974-65.505174-9.753528-69.117592-27.33396l-30.247978-162.004892h170.987771l-22.39699 49.249294zM509.447225 258.239699H21.674506a10.37968 10.37968 0 0 1-10.307432-10.403763v-335.882596a10.355597 10.355597 0 0 1 10.307432-10.307432h487.748636a10.259266 10.259266 0 0 1 10.403763 10.307432V247.835936a10.451929 10.451929 0 0 1-10.37968 10.403763z m-243.862277-230.544497c-28.778928 0-52.091063 23.384384-52.091063 52.163312a52.115146 52.115146 0 1 0 104.206209 0 52.139229 52.139229 0 0 0-52.115146-52.163312zM987.731326 191.024647l-199.622201 252.098589a83.302352 83.302352 0 0 1-65.721919 31.428034c-0.60207 0.120414-1.180056 0.457573-1.782126 0.505738a1579.662088 1579.662088 0 0 1-69.093509 6.670932l-0.553904-2.408279 60.495955-51.175917-72.296519-36.172342 33.450987-57.389276-91.996237-203.234619-14.810912 287.042709 13.221448 11.391157-17.556349 64.397366h-57.0762l-17.580433-64.397366 13.197366-11.439322-6.863593-133.009219h16.35221c20.711195 0 37.496896-16.833866 37.496896-37.496896v-223.801317h98.907996c3.395673 0 7.152587-0.192662 10.765005-0.650235h21.770837c3.80508-22.011665 7.61016-44.071496 11.896896-66.034995l157.862653 30.53697 78.919285 15.3889 19.699717 3.80508 9.777611 1.878457 1.228222 0.240828 0.505738 0.096331c7.802822 22.854563 54.282596 150.22841 54.282597 150.22841l-24.877517 31.500282z m-317.073941-36.220508c-0.337159 5.828034-0.939229 11.704233-1.276388 17.628599l96.186642 5.466792a1047.938288 1047.938288 0 0 1-0.746567 19.434807l19.386642-27.574789-113.550329-14.955409zM545.523236-71.598119l76.96858 61.435184h-76.96858z"  horiz-adv-x="1024" />

    
    <glyph glyph-name="mp_tool_data_query" unicode="&#59327;" d="M1022.868109-59.364064l-187.966133 167.736595a262.839511 262.839511 0 0 1 56.763123 163.353527c0 137.440452-105.265851 250.051552-239.286548 262.935842a85.132643 85.132643 0 0 1-7.200752 16.544873l-4.551647 8.019568c10.451929 14.859078 16.328128 30.70555 16.328128 47.322671V700.977611c0 12.812041-3.564252 25.816745-10.668673 38.676952l-2.167451 4.021825c2.914017 6.791345 4.936971 13.799436 4.936971 21.241016 0 76.270179-165.01524 117.499906-320.08429 117.499906C173.853622 882.41731 9.006961 841.187582 9.006961 764.917404c0-7.465663 1.974788-14.473754 4.912888-21.241016l-2.215616-4.094074c-7.080339-12.787959-10.596425-25.792662-10.596425-38.628786v-94.428599c0-16.617121 5.828034-32.463594 16.279962-47.322671l-4.67206-8.067733c-7.706491-13.365945-11.607902-26.972719-11.607902-40.410913v-94.404515c0-16.207714 5.490875-31.765193 15.485231-46.263029l-3.877329-6.598683c-7.706491-13.414111-11.607902-26.996802-11.607902-40.362747v-94.52493c0-83.880339 143.990969-149.626341 327.863029-149.62634 37.641392 0 73.452493 2.962183 106.855315 8.091815-2.095202 2.793603-3.80508 5.948448-5.779868 8.934714 48.478645-54.282596 118.631797-88.81731 197.093509-88.81731 63.963876 0 122.822201 22.782314 168.627658 60.784948l167.447601-182.40301 59.653057 55.101411zM515.058514 384.698401a164.003763 164.003763 0 0 0 231.989463-0.626153 164.076011 164.076011 0 0 0-0.650235-232.085795 164.196425 164.196425 0 0 0-232.230291 0.746567c-63.891627 64.252869-63.313641 168.194167 0.891063 231.965381zM328.99492 847.256444c176.502728 0 285.019755-47.99699 285.019755-82.290875 0-34.438382-108.517027-82.435372-285.019755-82.435371-176.599059 0-284.875259 47.99699-284.875259 82.435371 0 34.293885 108.276199 82.290875 284.875259 82.290875zM36.244591 685.155221c52.572719-44.553151 174.576105-67.72079 292.750329-67.72079 118.246472 0 240.153528 23.143556 292.84666 67.72079v-78.582126c0-54.162183-120.245343-114.561806-292.84666-114.561806-172.529069 0-292.750329 60.399624-292.750329 114.561806V685.155221z m0-180.018815c53.800941-49.225212 164.58175-80.725494 292.750329-80.725493 30.536971 0 59.339981 2.311947 87.227846 5.803951-21.433678-28.586265-37.689558-61.218438-46.263029-96.981374-2.33603-9.849859-4.166322-19.771966-5.44271-29.886736-11.776482-0.505738-23.215804-1.517215-35.522107-1.517215-172.529069 0-292.750329 60.375541-292.750329 114.465475V505.136406z m292.750329-391.056255c-172.529069 0-292.750329 60.303293-292.750329 114.489557v88.913641c53.800941-49.393791 164.58175-80.845908 292.750329-80.845908 12.234055 0 24.010536 0.891063 35.883349 1.517216a260.334901 260.334901 0 0 1 28.465851-89.997366c5.298213-10.211101 11.704233-19.723801 18.278834-29.019756-25.840828-3.178928-53.415616-5.057385-82.628034-5.057384zM753.622578 279.288053l11.656067 34.871872c-91.85174 148.036877-219.370085 62.133584-219.370084 62.133584 159.644779 28.97159 207.714017-97.005456 207.714017-97.005456z"  horiz-adv-x="1024" />

    
    <glyph glyph-name="mp_tool_deliveryman" unicode="&#59328;" d="M755.332455 681.663217c33.258325-25.311007 85.44572-12.4508 116.729257 28.465852 31.211289 41.037065 29.477328 94.741675-3.684666 119.980432-33.21016 25.262841-85.397554 12.474882-116.58476-28.465851-31.163123-41.061148-29.597742-94.78984 3.540169-119.980433zM140.258137 818.76651l68.009784-64.758608 206.341298 70.634807-67.913452 64.830856zM641.950706 587.33095l-117.7889-40.338664-83.639511 79.714017-11.728316-231.507808 207.015616 70.899718zM462.70254 641.276388l67.961618-64.734525 206.413547 70.707055-67.985701 64.68636zM722.628034 800.367262L524.161806 891.76143l-73.067168-64.204704 198.562559-91.201505zM207.641769 600.21524l-5.70762-112.153528 198.803386-91.41825 10.933584 215.468673-79.063781-69.358419zM401.243274 637.423142L202.608467 728.672813 129.589464 664.588523l198.514393-91.370085zM876.300282 588.318344c1.348636 14.497836-35.522107 44.6254-35.522107 44.6254a1305.383255 1305.383255 0 0 0-17.917592 8.21223l4.575729-14.112512-26.418814-12.619379 1.444967-32.270932-60.206962-102.929821 32.102352 136.549389 5.370461 4.407149 3.251176 32.656256-16.617121 4.961054-13.390029-29.645908 2.384196-6.598683-37.231985-123.424271 2.793603 107.264723 18.230668 26.73189-0.650235 0.939229-49.538288-16.978363-33.089746-28.273189v-1.131891l-6.14111-121.25682-0.385325-6.502352 10.259267 3.949576a4246.035748 4246.035748 0 0 0-15.148072-39.495766l-173.636877-44.890311a1271.860019 1271.860019 0 0 1 28.97159-102.111006l95.512324 29.573659c-1.180056-2.50461-2.119285-4.936971-3.178928-7.465663-0.385325-0.746566 19.338476-11.824647 19.073566-12.595296 4.744309-1.372719 9.536783-2.673189 14.305174-4.021825-17.050611-50.549765-33.81223-99.726811-53.391534-160.439511L527.942803-101.027281l100.280715-22.710066c20.952023 70.393979 39.327187 194.179492 68.92493 267.800564 9.873942 27.382126 19.073565 52.982126 27.020884 75.379116 16.544873-111.021637 36.437253-224.836877 61.290687-333.691063l101.219943 17.893509c-19.555221 105.121355-43.421261 281.16651-54.306679 365.335842 24.56444 106.373659 34.317968 217.395296 43.926999 319.337723z m-216.576481-125.471307c-0.722484-0.144497-0.987394-0.361242-1.685795-0.626153l0.096331 0.144497 0.481655 0.409407 0.818815 0.842898 0.818815 0.770649a6.165193 6.165193 0 0 1-0.529821-1.541298z"  horiz-adv-x="1024" />

    
    <glyph glyph-name="mp_tool_filequery" unicode="&#59329;" d="M594.266792 704.662277h-308.259642c-7.971402 0-14.449671-6.261524-14.449671-14.088429 0-7.850988 6.478269-14.088429 14.449671-14.088429h308.259642c7.971402 0 14.449671 6.237441 14.449671 14.088429a14.257008 14.257008 0 0 1-14.449671 14.088429z m-308.259642 50.212605h308.259642c7.971402 0 14.449671 6.357855 14.449671 14.088429a14.329257 14.329257 0 0 1-14.449671 14.18476h-308.259642c-7.971402 0-14.449671-6.357855-14.449671-14.18476 0-7.730574 6.478269-14.088429 14.449671-14.088429z m-14.449671-142.714581c0-7.850988 6.478269-14.088429 14.449671-14.088429h220.670555a291.449859 291.449859 0 0 0 77.546566 28.176858H286.00715a14.257008 14.257008 0 0 1-14.449671-14.088429z m0-78.413547c0-7.826905 6.478269-14.160677 14.449671-14.160677h128.674318c7.465663 9.801693 15.48523 19.266228 24.371778 28.249106h-153.046096a14.281091 14.281091 0 0 1-14.449671-14.088429z m0-78.437629c0-7.826905 6.478269-14.160677 14.449671-14.160677h86.505362c3.299341 9.609031 7.152587 19.001317 11.487488 28.249106h-97.968768a14.305174 14.305174 0 0 1-14.473753-14.088429z m0-78.509878c0-7.730574 6.478269-14.064346 14.449671-14.064346h71.863029c0.361242 9.440452 1.30047 18.832738 2.625023 28.225024h-74.488052a14.281091 14.281091 0 0 1-14.449671-14.160678zM805.665475 510.09746c-89.876952 87.757667-235.457385 87.757667-325.262088 0a221.079962 221.079962 0 0 1 0-317.868674c89.804704-87.733584 235.361054-87.733584 325.262088 0a221.104045 221.104045 0 0 1 0 317.868674zM529.700847 240.490687a154.009407 154.009407 0 0 0 0 221.344873c62.542992 61.14619 164.027846 61.14619 226.570837 0a153.961242 153.961242 0 0 0 0-221.344873c-62.542992-61.14619-164.027846-61.14619-226.570837 0zM450.468485 166.291627a47.756162 47.756162 0 0 1-66.203574 0l-2.432362-2.480526 66.203575-64.638194 2.432361 2.480527a44.938476 44.938476 0 0 1 0 64.638193zM164.653998-48.358231a44.914393 44.914393 0 0 1 0-64.614111 47.587582 47.587582 0 0 1 66.203575 0l195.768956 191.31364-66.131327 64.662277-195.841204-191.361806zM429.010724 314.280339h-180.885795c-16.95428 0-30.681468 13.365945-30.681467 29.886735V811.180433c0 16.496707 13.727187 29.886736 30.681467 29.958984h384.626153c16.930198-0.072248 30.681468-13.462277 30.681467-29.958984V567.029163a224.933208 224.933208 0 0 0 54.403011-11.246661V811.180433c0 45.901787-38.147131 83.206021-85.084478 83.20602h-384.60207C201.115334 894.290122 163.088617 857.08222 163.040452 811.180433v-467.013359c0.072248-45.829539 38.098965-83.10969 85.10856-83.109689h198.466228a208.460583 208.460583 0 0 0-17.604516 53.222954z"  horiz-adv-x="1024" />

    
    <glyph glyph-name="mp_tool_focuscus_query" unicode="&#59330;" d="M318.591157 636.604327c54.282596 49.682785 126.121543 80.267921 205.329821 80.267921 95.65682 0 180.596802-44.745814 236.468862-113.983819l-46.937347-30.777799c-45.588711 53.96952-113.453998 88.720978-189.531515 88.720979-58.521167 0-112.249859-20.518532-154.683725-54.499342 22.565569-19.89238 40.82032-46.479774 52.885795-77.257573a153.985325 153.985325 0 0 0 212.602822-8.717968l-53.054374-34.920037a91.562747 91.562747 0 0 1-57.726435 20.542615 93.682032 93.682032 0 0 1-93.633866-93.609784 93.609784 93.609784 0 0 1 187.219567 0 90.069614 90.069614 0 0 1-4.792474 28.10461l-74.319473-48.912136-10.716839 16.352211 295.857008 194.42032 70.418062-32.270931 117.355409 77.113076-70.514393 32.367262 20.92794 13.703105-19.338476 29.356914-20.903857-13.727187-1.878457 77.618815-117.210913-77.233491 1.782126-77.546566-24.636688-16.159548-1.974789 88.624647 13.31778 8.814299c-71.068297 63.265475-164.389087 102.159172-266.957667 102.159172-152.468109 0-285.525494-85.349389-353.896519-210.676199 28.080527 25.383255 62.856068 40.723989 100.545625 40.723988 16.713452 0 32.77667-3.034431 47.99699-8.597554zM772.527563 412.345437c0 41.326058-10.355597 80.267921-28.321354 114.634055l-78.606209-51.705738c8.47714-19.338476 13.462277-40.65174 13.462277-62.928317 0-83.784008-66.829727-151.986453-149.987583-154.804139 20.590781-21.024271 33.426905-49.201129 35.883349-81.616557l0.505739-8.236312c117.234995 19.844214 207.063782 121.907056 207.063781 244.657008zM885.090499 542.729633l-67.648542 32.319097-26.105739-17.074694a303.804327 303.804327 0 0 0 37.111571-145.628599c0-152.371778-112.755597-278.565569-259.130762-300.673565l6.670932-98.546754c197.551082 25.624083 350.669426 194.829727 350.669426 399.220319 0 49.538288-9.464534 96.836877-25.913076 140.787959l-15.65381-10.403763zM270.570085 283.671119c68.467357 0 123.905927 71.212794 123.905926 158.946379 0 87.661336-55.43857 158.777799-123.905926 158.777798S146.664158 530.278833 146.664158 442.617498c0-87.733584 55.43857-158.946378 123.905927-158.946379zM529.869426 45.949953l-8.669802 126.771778c-3.516087 46.672437-36.485419 73.42841-73.621073 79.256444a2086.652869 2086.652869 0 0 1-63.265475 8.64572l0.024083 0.240827c-3.6365 0.337159-6.959925 0.650235-9.633114 0.794732l-0.505738-1.637629 53.174788-43.517592-63.530386-30.898212 29.356915-48.815805-79.689934-170.55428c-0.43349-0.192662-0.891063-0.337159-1.324554-0.505738l-12.884289 235.312888 11.728316 9.536782-15.557479 45.998119H245.403575l-15.3889-45.998119 11.680151-9.5127-13.028786-238.756726h-0.024083l0.024083 1.420884-80.845908 173.05889 29.501411 48.815805-63.554469 30.898212 53.150706 43.517592-0.505739 1.637629c-2.9381-0.144497-6.430103-0.481656-10.066604-0.842897l0.024083-0.192662c-22.180245-2.576858-55.703481-7.61016-57.678269-8.838382-0.361242 0-0.674318 0.288993-1.03556 0.192662-37.159737-5.828034-70.321731-32.60809-73.69332-79.256444L15.172154 43.180433 12.691627 7.104421a648.597554 648.597554 0 0 1 260.045908-54.23443c92.188899 0 179.970649 19.338476 259.756915 54.041768l-1.517216 21.578175-1.107808 17.460019zM264.188147-43.324929l3.419755-0.048166c-0.481656 0-0.987394-0.144497-1.46905-0.144497-0.674318 0-1.324553 0.192662-1.950705 0.192663z"  horiz-adv-x="1024" />

    
    <glyph glyph-name="mp_tool_focusunits_query" unicode="&#59331;" d="M987.58683 114.730386l-206.461712 133.876199A74.488053 74.488053 0 0 1 722.483537 258.143368a79.834431 79.834431 0 0 1-19.073565-7.224836l-33.836313 22.035748c40.314581 74.46397 54.692004 163.329445 33.113829 251.93001-45.974036 189.74826-237.84158 306.59793-427.613923 260.647977C85.301223 739.413735-31.644779 547.666604 14.449671 357.870179c46.070367-189.844591 237.865663-306.76651 427.686171-260.647978a351.536406 351.536406 0 0 1 185.461524 114.489558l35.449859-22.974976c-1.758043-27.020884 9.633114-54.186265 33.956726-69.864158l206.509878-133.924365c18.471496-12.041392 40.338664-15.148071 60.351458-10.235184a77.305738 77.305738 0 0 1 23.721543 140.01731zM423.977422 171.830668c-148.903857-36.124177-298.795108 55.342239-334.943367 204.173848-36.100094 148.75936 55.269991 298.795108 204.222013 334.871119 148.711195 36.100094 298.746943-55.269991 334.895202-204.101599 36.027846-148.903857-55.366322-298.771025-204.173848-334.943368zM355.052493 430.214864c51.2 0 92.501976 53.174788 92.501975 118.607714 0 65.481091-41.301976 118.511383-92.501975 118.511382-51.127752 0-92.405644-53.054374-92.405644-118.511382 0-65.432926 41.277893-118.607714 92.405644-118.607714zM487.218815 406.613735c-0.891063 0.096331-29.718156 4.431232-47.250424 6.40602v0.16858c-2.649106 0.216745-5.129633 0.505738-7.128504 0.60207l-0.361242-1.228222 39.688429-32.487677-47.419003-23.09539 21.867169-36.437253-59.436312-127.3016a15.918721 15.918721 0 0 1-0.987395-0.337159l-9.609031 175.635748 8.790217 7.128505-11.58382 34.293885h-37.400564l-11.463406-34.293885 8.669803-7.056256-9.753528-178.260772-0.072248 0.024083 0.072248 0.963311-60.303292 129.180057 21.939416 36.437253-47.443085 23.09539 39.688429 32.487677-0.385325 1.228222c-2.119285-0.168579-4.696143-0.385325-7.489746-0.674318v-0.096331c-16.568956-1.926623-41.590969-5.683537-43.060019-6.598683 0 0-0.60207 0.216745-0.722483 0.216745-27.767451-4.431232-52.548636-24.371778-55.053246-59.24365l-4.985136-73.307997a256 256 0 0 1 171.011853-86.866604c0.43349 0 0.891063-0.096331 1.396802-0.168579 1.926623-0.240828 3.997742-0.240828 5.97253-0.43349 4.888805-0.288993 9.753528-0.240828 14.642333-0.240828 19.796049 0.072248 39.736595 2.143368 59.749389 6.984008a254.482785 254.482785 0 0 1 128.6984 76.390592l-5.298212 77.642898c-2.625024 34.871872-27.309878 54.812418-54.980997 59.24365z"  horiz-adv-x="1024" />

    
    <glyph glyph-name="mp_tool_knowledge" unicode="&#59332;" d="M197.695579 35.97968h43.493508v84.337912H197.695579v37.352399h43.493508v76.511006H197.695579v37.256068h43.493508v78.558043H197.695579v37.280151h43.493508v78.485795H197.695579v37.28015h43.493508v70.875635H197.695579v37.231985h43.493508V740.49746H154.20207v-807.495767h86.987017v65.721919H197.695579zM241.189087 611.148824h36.967075v-37.231985h-36.967075zM241.189087 503.041204h36.967075v-37.304233h-36.967075zM241.189087 387.275259h36.967075v-37.280151h-36.967075zM241.189087 271.437065h36.967075v-37.304233h-36.967075zM241.189087 157.669991h36.967075v-37.352399h-36.967075zM241.189087 35.97968h36.967075v-37.256068h-36.967075zM608.379304 343.083349a25.527752 25.527752 0 1 1 0 51.079586c-14.160677 0-25.551834-11.391157-25.551835-25.503669 0-14.208843 11.391157-25.575917 25.551835-25.575917zM829.724177 804.702164L770.649106 834.974224H241.935654c-57.076199 0-79.111947-1.324553-87.733584-30.27206h675.522107zM823.053246 448.758608h46.744684v-160.34318h-46.744684zM869.79793 484.425212v158.10348h-46.744684V740.49746H278.180245v-129.348636h37.28015v-37.231985h-37.28015v-70.875635h37.28015v-37.28015h-37.28015v-78.485795h37.28015v-37.280151h-37.28015v-78.558043h37.28015v-37.256068h-37.28015v-76.511006h37.28015v-37.352399h-37.28015v-84.337912h37.28015v-37.256068h-37.28015v-65.721919h544.873001v145.532267h46.744684v158.151647h-46.744684v51.681655H539.33396v160.391346h283.719286V484.425212z"  horiz-adv-x="1024" />

    
    <glyph glyph-name="mp_tool_inspectors" unicode="&#59333;" d="M327.09238 650.765005c33.884478-19.916463 81.183067-2.143368 105.77159 39.640263 24.588523 41.831797 17.050611 91.779492-16.737535 111.695955-33.836312 19.820132-81.20715 2.239699-105.795673-39.616181-24.468109-41.807714-17.050611-91.899906 16.761618-111.720037zM302.624271 374.993039l0.987394-0.674318 1.950706-1.396802 15.846472-11.704233 31.524365-23.336218 63.193227-46.600189a1563.285795 1563.285795 0 0 1 56.763123 82.098213L406.999059 416.078269l-32.969332 21.265099-4.214487 2.721354-24.660772 148.976106c0 0.144497-0.096331 0.216745-0.120413 0.361242l-20.109126-5.683538-3.853245-30.199811-67.648542-81.014488 58.37667 132.190405 5.852117 3.564252 9.392285 31.379868-14.61825 7.032173-18.495578-27.093132 0.915146-6.815428-66.107244-128.698401 20.349953 103.724553 21.048354 21.987582-10.765005 25.262841 26.659642 15.82239 0.987395 3.227093c-16.544873 8.862465-33.64365 15.942803-60.206962 24.179116-6.74318 2.071119-40.65174 4.720226-52.620884-3.178928l-80.629163-26.057573-42.337535-13.630856-21.048354-6.791345-10.572342-3.37159-15.846473-80.942239 0.024083-0.096331 0.288994-0.16858 1.155973-0.86698 4.358984-3.467921 66.203575-52.958043a11231.584572 11231.584572 0 0 1-61.892756-124.098589c-0.313076-0.650235-0.361242-1.348636-0.698401-2.022954l41.85588-19.940545c-4.720226-134.285607-14.834995-263.345249-29.116087-398.473754l96.018062-11.752399c15.846472 88.793227 29.2365 236.998683 36.14826 327.09238 23.721543-44.793979 48.093321-90.11778 45.371966-115.043462l20.855691-215.251928 96.547884 6.743179c-7.947319 81.20715-0.553904 163.570273-28.032362 288.198683a17305.937159 17305.937159 0 0 1-51.826152 110.756727 2721.860395 2721.860395 0 0 0 38.580621 107.361053l1.806209-18.110254 1.011477-9.753527 0.553904-4.888806 0.048165-0.602069v-0.288994c38.460207-62.711571 10.692756-17.363688 19.242145-31.452116l0.361242-0.216745zM714.752963 692.813547c32.535842-11.029915 69.864158 12.571214 83.398683 52.741298 13.654939 40.049671-1.685795 81.496143-34.101223 92.501975-32.487676 11.005833-69.815992-12.595296-83.350517-52.789463-13.654939-40.025588 1.613547-81.423895 34.053057-92.45381zM1016.173095 174.335278c-8.332643 24.395861-31.524365 39.206773-50.477516 45.034807a83.470931 83.470931 0 0 1-23.625212 3.756914c-21.168768 0-34.028975-10.211101-42.385701-17.12286-0.385325-0.240828-0.674318-0.505738-1.011477-0.770649-0.024083 22.372907-2.071119 75.282785-3.564252 111.840452l74.777046 157.019755 0.650235 1.30047 0.288994 0.553904 0.120414 0.288994 0.144496 0.144497v0.096331l-5.70762 43.975164-28.321354 30.296143-30.199812 32.34318-60.327376 64.590028c-3.347507 3.516087-20.157291 20.663029-26.611476 21.072437a788.085042 788.085042 0 0 1-36.678081 1.589464l27.189463-22.589652-31.13904-17.363688 15.798307-24.492192-37.087489-91.321919-11.535653 123.183443 5.587206 5.10555-8.862465 27.550706-25.094262-0.939229-6.550517-28.176858 5.972531-4.67206-1.300471-123.183443-43.926999 87.492756 13.558608 25.816745-32.367263 14.690499 24.949765 25.937159c-11.945061-1.083725-23.938288-2.143368-36.051928-3.660583-6.622766-0.939229-19.820132-19.073565-21.939417-22.204328l-85.542051-127.927751-10.716839-15.942804s-4.431232-24.468109-7.875071-40.170084l-1.035559-38.460207-1.372719-47.226341-18.760489-0.43349-22.011665-0.60207-0.120414-22.05983c0-3.492004-1.493133-27.093133-2.600941-48.021073-2.50461-41.904045-4.214487-72.272437-4.214487-81.03857 0-0.891063 0-1.950706 0.096331-2.938099-7.682408 6.815428-18.59191 14.305174-38.990028 16.95428-41.061148 5.466792-73.837817-17.55635-81.20715-55.414487-5.828034-29.525494-1.204139-57.196613 12.523048-76.053434 10.644591-14.61825 26.057573-23.432549 44.480903-25.6 24.757103-2.745437 49.321543 6.526435 65.288429 25.118344 0.963311-28.032361 1.131891-94.645343 1.131891-129.926623v-22.685983h167.808843c1.854374-0.120414 5.70762-0.313076 10.54826-0.313076 9.536783 0 38.628786 0 49.466039 20.879774 3.37159 6.550517 7.273001 20.181373-4.888805 37.400565-4.431232 6.189276-8.549389 11.150329-12.234055 15.677893-6.526435 8.067733-8.862465 11.150329-9.199623 14.160677-1.348636 12.643462 5.996613 33.186077 17.580432 34.631044 4.84064 0.60207 9.199624 0.987394 13.197366 0.987394 11.511571 0 18.134337-2.673189 27.358043-10.765004 3.780997-3.275259 6.959925-16.207714 5.587207-21.554093-18.230668-12.28222-34.67921-36.437253-30.296143-58.906491 2.962183-15.726058 15.48523-26.948636 33.47507-30.079398 15.003575-2.649106 46.985513-4.045908 95.078834-4.045907 21.650423 0 38.243462 0.264911 38.243461 0.26491l21.939417 0.43349 1.950706 127.108937v1.228222l-0.024083 1.276388a93.272625 93.272625 0 0 0 0 13.727187c2.865851-1.541298 5.53904-3.154845 8.21223-4.647977 12.234055-7.17667 25.022013-14.666416 41.663217-14.666416 10.37968 0 20.783443 2.986265 31.885607 9.103293 41.470555 22.854563 49.658702 63.409972 39.303104 93.344873z m-165.01524 359.146566l28.658514-33.667733 8.886547-10.572342-30.70555-57.317028a7182.570085 7182.570085 0 0 1-8.693885 103.844967l1.854374-2.287864z m-252.917403-114.465475l-1.03556 38.460207c-0.818815-1.131891-0.529821 2.600941-0.240828 6.430103l4.599812 7.658326 26.009407 43.902916c0.626152-43.830668 1.806209-87.709501 3.492004-131.564252 0.072248-0.505738 0.337159-0.963311 0.361242-1.517216 67.744873 1.90254 135.44158 3.829163 203.114205 5.779869l-6.767263-12.474883-67.11872-1.155973c-11.656068-0.361242-39.881091-3.540169-50.622013-23.288053-5.587206-10.596425-4.792474-23.360301 2.311947-34.871872 4.744309-7.61016 9.151458-13.58269 12.836124-18.326999 7.44158-9.753528 7.923236-10.885419 7.586077-15.726058-1.372719-20.181373-4.912888-23.408467-17.291439-24.877517a77.546566 77.546566 0 0 0-8.356726-0.385324c-22.469238 0-35.787018 7.489746-36.220508 9.873941-2.287865 16.472625 0.144497 19.916463 6.791345 29.116087a144.737535 144.737535 0 0 1 9.34412 14.61825l1.348636 2.287865c4.864722 8.838382 13.101035 23.528881 5.394544 39.230856-5.177799 10.427846-15.316651 16.761618-30.199812 18.904985-4.936971 0.722484-16.159548 1.613547-55.896143 1.613547h-8.139981l-1.30047 46.311195z m356.76237-298.313453c-4.142239-2.311947-7.513829-3.467921-9.994355-3.467921-4.383067 0-10.765005 3.756914-18.784572 8.453058-6.020696 3.516087-12.547131 7.393415-20.229539 10.981749-16.231797 7.634243-32.728504 4.744309-43.32493-6.984007-14.281091-15.509313-13.871684-42.795108-12.860207-55.17366l-1.252305-81.881467c-4.792474-0.048166-9.970273-0.048166-15.557478-0.048166-36.340922 0-64.493697 0.818815-80.508749 2.50461 2.119285 2.841769 4.936971 5.779868 8.115898 7.754657 11.342992 7.056256 18.254751 19.555221 19.579304 35.233113 1.758043 21.554092-6.911759 45.227469-21.048354 57.702352-17.580433 15.461148-34.751458 22.156162-57.365193 22.156162-5.731703 0-11.84873-0.43349-18.736406-1.420884-42.530198-5.298213-60.495955-52.259643-57.172531-84.193415 1.685795-16.809784 10.596425-27.622954 19.121731-38.171214-2.649106 0.072248-4.479398 0.288993-4.647977 0.288994l-125.471308 0.072248c-0.072248 35.54619-0.457573 101.990593-1.73396 119.908185-1.90254 26.46698-20.446284 38.339793-38.074883 38.339793-14.61825 0-29.814487-7.754657-40.699905-20.879775a29.019755 29.019755 0 0 0-26.081656-10.138852 17.460019 17.460019 0 0 0-13.028787 7.273001c-6.044779 8.308561-7.923236 23.986453-4.647977 40.579492 0.939229 4.816557 3.780997 19.579304 24.73302 19.579304 2.047037 0 3.997742-0.168579 6.044779-0.43349 9.825776-1.324553 12.065475-3.37159 17.98984-8.862465 5.635372-5.346378 13.365945-12.547131 27.020884-18.375165 5.876199-2.480527 11.342992-3.80508 16.617121-3.80508 8.669802-0.553904 16.617121 3.419755 22.252493 9.777611 10.765005 12.161806 8.814299 29.212418 7.17667 42.98777-0.457573 3.419755-0.939229 6.5746-0.939228 9.223707 0 8.115898 2.384196 48.767639 4.118156 78.461712 0.722484 11.680151 1.180056 21.024271 1.613546 28.321355 22.6619 0.43349 59.701223 1.083725 90.382691 1.083725 17.460019 0 28.899341-0.264911 36.316839-0.505739-1.107808-1.517215-2.167451-2.986265-3.178928-4.479397-10.789087-15.075823-19.338476-30.127563-14.762747-61.91684 5.153716-36.172342 46.913264-48.984384 81.086736-48.984383 4.768391 0 9.416369 0.361242 13.606773 0.842897 53.030292 6.165193 56.209219 51.729821 57.292945 66.685231 1.517215 22.324741-8.188147 35.136783-16.737535 46.431608-0.818815 1.059643-1.637629 2.239699-2.576858 3.395673 1.083725 0.120414 2.095202 0.192662 3.03443 0.26491l87.372343 1.541299c1.541298-35.184948 4.190405-102.351834 4.190404-126.314205 0-14.762747 0.577987-22.565569 2.311948-28.947507 3.853246-13.871684 14.738664-22.445155 28.393603-22.445156 5.731703 0 11.102164 1.493133 16.641204 2.986266l3.395672 0.987394c10.765005 2.914017 18.15842 8.886548 24.082785 13.679021 6.478269 5.201881 9.031044 6.984008 13.968015 6.984008 2.9381 0 6.526435-0.529821 10.572343-1.854374 8.164064-2.50461 18.278833-8.982879 20.614863-16.159549 1.998871-5.779868 6.454186-25.383255-18.230668-39.038194z"  horiz-adv-x="1024" />

    
    <glyph glyph-name="mp_tool_logistics_query" unicode="&#59334;" d="M900.383067 312.088805a121.521731 121.521731 0 0 1-167.134525 39.929257 121.521731 121.521731 0 0 1-39.857009-167.110442 121.4254 121.4254 0 0 1 167.08636-39.929257 121.521731 121.521731 0 0 1 39.905174 167.110442z m-35.835184-213.87921a165.930386 165.930386 0 0 0-209.73697 64.349201 166.026717 166.026717 0 1 0 245.499905-42.385701l7.754657-12.667545 1.926623 1.20414c10.11477 6.189276 21.770837 5.611289 25.985324-1.252305l53.439699-87.011101c4.334901-6.984008-0.481656-17.580433-10.572342-23.769708L939.228598-27.695202c-10.11477-6.261524-21.746754-5.611289-25.937159 1.228222L859.755409 60.592286c-4.214487 6.959925 0.553904 17.484102 10.596425 23.721543l1.974789 1.252305-7.77874 12.643461zM981.349389-51.826152a33.21016 33.21016 0 0 0-45.636877 10.861335l56.522295 34.727376a33.089746 33.089746 0 0 0-10.885418-45.588711zM934.845532 761.545814L845.161242 626.272813l-232.832361 57.437441 29.2365 59.67714zM324.033866 328.103857h24.516275v-60.062465h54.499342v60.062465h24.419943l-51.729821 63.506303-51.705739-63.506303z m-7.850987 0l-51.729822 63.506303-51.753904-63.506303H237.215428v-60.062465h54.475259v60.062465h24.492192z m504.726999-300.240075v-29.790405H158.922295v596.530574h661.987583v-136.091816a216.528316 216.528316 0 0 1-239.864535-215.300094c0-119.619191 96.957291-216.600564 216.528316-216.600564 7.850988-0.024083 15.677893 0.457573 23.336219 1.252305zM427.469426 170.000376v18.808655H212.699153v-18.808655h214.770273z m0 50.092192v18.832738H212.699153v-18.832738h214.770273zM820.909878 613.581185H563.63349v18.206585h96.090311L574.01317 665.527752l4.768392 16.833866zM489.916087 665.527752h-84.14525l-85.662464-33.739982h243.525117v-18.206585H158.922295l246.848542 70.129069H574.01317l4.768392-1.348636-4.768392-16.833866zM320.108373 743.387394l29.212417-59.67714L116.512512 626.272813 26.828222 761.545814z"  horiz-adv-x="1024" />

    
    <glyph glyph-name="mp_tool_lsh_analysis" unicode="&#59335;" d="M200.344685 297.831797a114.128316 114.128316 0 1 1 0 228.232549 114.152399 114.152399 0 1 1 0-228.232549zM200.344685 263.224835a161.691816 161.691816 0 0 1-161.715899-161.667732v-138.71684h323.287301v138.71684a161.571402 161.571402 0 0 1-161.571402 161.667732zM823.703481 297.831797a114.152399 114.152399 0 1 1-114.104234 114.104233 114.104233 114.104233 0 0 1 114.104234-114.104233zM823.703481 263.224835a161.691816 161.691816 0 0 1-161.715899-161.667732v-138.71684h323.383632v138.71684a161.64365 161.64365 0 0 1-161.667733 161.667732zM512.048166 576.903104a114.152399 114.152399 0 0 1 0 228.256633 114.152399 114.152399 0 0 1 0-228.256633zM673.667733 380.652493a161.595484 161.595484 0 0 1-161.595485 161.691816 161.691816 161.691816 0 0 1-161.691815-161.691816v-138.765005h323.2873v138.765005z"  horiz-adv-x="1024" />

    
    <glyph glyph-name="mp_tool_laws" unicode="&#59336;" d="M76.222013-76.462841h243.163876V844.462841H76.222013v-920.925682zM128.216745 718.847037h136.164064v-301.05889H128.216745V718.847037z m69.526999-564.620885a88.311571 88.311571 0 1 0-0.048165-176.671307 88.311571 88.311571 0 0 0 0.048165 176.671307zM197.743744 65.023518m-72.031609 0a72.031609 72.031609 0 1 1 144.063218 0 72.031609 72.031609 0 1 1-144.063218 0ZM150.710066 701.555597h93.344873v-39.086359H150.710066zM150.710066 486.568579h93.344873v-39.110442H150.710066zM150.710066 597.349389h93.344873v-39.158608H150.710066zM396.113641-76.462841h243.260207V844.462841H396.113641v-920.925682z m52.139228 795.309878h136.164064v-301.05889h-136.164064V718.847037z m69.551082-564.620885a88.311571 88.311571 0 1 0-88.359737-88.359736 88.383819 88.383819 0 0 0 88.359737 88.359736zM517.803951-7.00809c39.664346 0 71.983443 32.270931 71.983443 72.031608a72.055691 72.055691 0 0 1-144.063217 0 72.079774 72.079774 0 0 1 72.079774-72.031608zM470.673942 701.555597h93.441204v-39.086359h-93.441204zM470.673942 486.568579h93.441204v-39.110442h-93.441204zM470.673942 597.349389h93.441204v-39.158608h-93.441204zM704.493697 844.462841v-920.925682h243.28429V844.462841H704.493697z m52.139229-125.615804h136.091815v-301.05889h-136.091815V718.847037z m69.551082-741.268109a88.335654 88.335654 0 1 0 0 176.647224 88.335654 88.335654 0 0 0 0-176.647224zM826.184008 137.031044c-39.736595 0-72.079774-32.246849-72.079775-72.007526s32.34318-72.031609 72.079775-72.031608a72.007526 72.007526 0 0 1 0 144.039134zM779.029915 701.555597h93.465287v-39.086359h-93.465287zM779.029915 486.568579h93.465287v-39.110442h-93.465287zM779.029915 597.349389h93.465287v-39.158608h-93.465287z"  horiz-adv-x="1024" />

    
    <glyph glyph-name="mp_tool_lsh_query" unicode="&#59337;" d="M691.296331 359.748636a140.258137 140.258137 0 1 1-140.28222 140.185889 140.209972 140.209972 0 0 1 140.28222-140.185889zM691.296331 317.242521a198.65889 198.65889 0 0 1-198.682973-198.634807v-170.530198h397.269615V118.607714a198.562559 198.562559 0 0 1-198.586642 198.634807zM907.704233 269.004704C1047.601129 393.488617 1060.124177 607.729069 935.736595 747.67413 811.324929 887.571025 597.036312 900.142239 457.091251 775.682408c-133.972531-119.185701-150.782314-320.493697-42.771025-460.294261L331.860771 242.152399l-31.283537 35.136783L2.576858 12.28222l93.850611-105.651176 298.000377 265.127376-31.30762 35.209031 82.459454 73.332079c126.169708-123.641016 328.152023-130.384196 462.124553-11.294826zM478.524929 751.599624c126.410536 112.418438 320.686359 101.003198 433.080715-25.431421 112.370273-126.362371 101.051364-320.614111-25.311006-433.056632-126.458702-112.442521-320.686359-100.979116-433.128881 25.383255-112.394356 126.410536-101.051364 320.662277 25.359172 433.104798z"  horiz-adv-x="1024" />

    
    <glyph glyph-name="mp_tool_lsh_salequery" unicode="&#59338;" d="M924.514017 564.355974l-88.287488 88.311571-138.98175-128.337159V52.861712h259.299341V683.734337zM461.83556 401.508184l-79.449107 51.151835V52.861712h259.37159V473.058137l-66.950141-61.676011a92.116651 92.116651 0 0 0-62.711571-24.588523 93.417121 93.417121 0 0 0-50.260771 14.714581zM326.779304 488.374788l-65.55334 42.193039-193.770084-168.627658V52.861712h259.323424zM67.45588-11.41524h889.08824v-92.598307H67.45588zM128.939229 479.295579l127.325682 111.382878 235.722295-151.721543c6.117027-3.901411 13.101035-5.876199 20.085042-5.876199a37.328316 37.328316 0 0 1 25.094262 9.825776L837.79191 720.460583l57.967262-57.943179L951.896143 871.989464l-209.447977-56.161054 42.915522-42.963688-277.433679-256.096331-235.168391 151.288053a37.280151 37.280151 0 0 1-44.45682-3.299341l-148.205457-129.709878a37.039323 37.039323 0 0 1 48.839888-55.751646z"  horiz-adv-x="1024" />

    
    </font>
</defs>
</svg>
