<?xml version="1.0" encoding="utf-8"?>
<!-- Generator: Adobe Illustrator 16.0.0, SVG Export Plug-In . SVG Version: 6.00 Build 0)  -->
<!DOCTYPE svg PUBLIC "-//W3C//DTD SVG 1.1//EN" "http://www.w3.org/Graphics/SVG/1.1/DTD/svg11.dtd">
<svg version="1.1" id="图层_1" xmlns="http://www.w3.org/2000/svg" xmlns:xlink="http://www.w3.org/1999/xlink" x="0px" y="0px"
	 width="42.52px" height="42.52px" viewBox="0 0 42.52 42.52" enable-background="new 0 0 42.52 42.52" xml:space="preserve">
<path fill="#0088d1" d="M10.306,5.534l15.718,15.718L10.1,37.176l0.001,0.002C9.58,37.716,9.26,38.45,9.26,39.26c0,1.656,1.343,3,3,3
	c0.809,0,1.543-0.322,2.082-0.842l0.001,0.001l18-18l-0.001-0.001c0.565-0.546,0.918-1.312,0.918-2.158c0-0.003,0-0.006,0-0.008
	s0-0.004,0-0.006c0-0.85-0.353-1.614-0.918-2.159l0.001-0.001l-18-18l-0.008,0.009C13.797,0.577,13.064,0.26,12.26,0.26
	c-1.657,0-3,1.343-3,3C9.26,4.169,9.666,4.984,10.306,5.534"/>
</svg>
