<?xml version="1.0" encoding="utf-8"?>
<!-- Generator: Adobe Illustrator 16.0.0, SVG Export Plug-In . SVG Version: 6.00 Build 0)  -->
<!DOCTYPE svg PUBLIC "-//W3C//DTD SVG 1.1//EN" "http://www.w3.org/Graphics/SVG/1.1/DTD/svg11.dtd">
<svg version="1.1" id="图层_1" xmlns="http://www.w3.org/2000/svg" xmlns:xlink="http://www.w3.org/1999/xlink" x="0px" y="0px"
	 width="42.52px" height="42.52px" viewBox="0 0 42.52 42.52" enable-background="new 0 0 42.52 42.52" xml:space="preserve">
<g>
	<polygon fill="#231815" points="13.557,24.881 10.779,22.104 25.938,7.191 27.431,11 	"/>
	<polygon fill="#231815" points="17.017,28.365 14.242,25.589 28.121,11.714 30.899,14.481 	"/>
	<polygon fill="#231815" points="20.681,31.803 17.821,28.938 31.693,15.063 35.351,17.128 	"/>
	<path fill="#231815" d="M2.26,39.728l8.034-16.635l9.091,9.092L2.26,39.728z M10.447,23.998l-7.091,14.67l15.111-6.647
		L10.447,23.998z"/>
	<path fill="#231815" d="M1.721,40.251l8.499-17.599l9.617,9.622L1.721,40.251z M10.521,24.434L3.898,38.148l14.116-6.214
		L10.521,24.434z"/>
	<path fill="#231815" d="M5.25,34.55c0,0,0.822-0.159,0.813,0.421c-0.017,0.577,0.229,0.447,0.649,0.459
		c0.418,0.021,0.493,0.338,0.319,0.609c-0.176,0.273-0.118,0.688,0.964,0.549c1.083-0.126-4.438,1.82-4.438,1.82L5.25,34.55z"/>
	<polygon fill="#231815" points="36.686,15.811 27.271,6.394 30.931,2.733 40.346,12.145 	"/>
	<path fill="#231815" d="M40.161,11.876c-0.946,0.939-3.739-0.301-6.238-2.784C31.429,6.615,30.18,3.84,31.124,2.9
		c0.942-0.939,3.74,0.307,6.231,2.787C39.855,8.167,41.108,10.933,40.161,11.876"/>
	<path fill="#231815" d="M39.265,12.509c-1.429,0-3.617-1.254-5.565-3.196c-2.705-2.677-3.911-5.536-2.802-6.638
		c0.27-0.272,0.651-0.407,1.123-0.407c1.431,0,3.611,1.253,5.561,3.192c2.711,2.686,3.918,5.54,2.806,6.639
		C40.115,12.371,39.736,12.509,39.265,12.509 M32.021,2.911c-0.298,0-0.521,0.071-0.67,0.223c-0.706,0.694,0.274,3.221,2.798,5.731
		c1.814,1.799,3.863,3.009,5.116,3.009c0.294,0,0.52-0.073,0.669-0.223c0.701-0.701-0.271-3.227-2.806-5.736
		C35.321,4.115,33.269,2.911,32.021,2.911"/>
	<path fill="#231815" d="M36.686,15.811c-0.807,0.813-3.573-0.64-6.18-3.241c-2.598-2.598-4.047-5.364-3.232-6.176
		c0.804-0.806,3.569,0.64,6.172,3.243C36.047,12.229,37.493,15.001,36.686,15.811"/>
</g>
</svg>
