<?xml version="1.0" encoding="utf-8"?>
<!-- Generator: Adobe Illustrator 16.0.0, SVG Export Plug-In . SVG Version: 6.00 Build 0)  -->
<!DOCTYPE svg PUBLIC "-//W3C//DTD SVG 1.1//EN" "http://www.w3.org/Graphics/SVG/1.1/DTD/svg11.dtd">
<svg version="1.1" id="图层_1" xmlns="http://www.w3.org/2000/svg" xmlns:xlink="http://www.w3.org/1999/xlink" x="0px" y="0px"
	 width="42.52px" height="42.52px" viewBox="0 0 42.52 42.52" enable-background="new 0 0 42.52 42.52" xml:space="preserve">
<path d="M32.214,36.986L16.496,21.268L32.42,5.344l-0.001-0.002C32.94,4.804,33.26,4.07,33.26,3.26c0-1.656-1.343-3-3-3
	c-0.809,0-1.543,0.322-2.082,0.842l-0.001-0.001l-18,18l0.001,0.001C9.613,19.648,9.26,20.413,9.26,21.26c0,0.003,0,0.006,0,0.008
	s0,0.004,0,0.006c0,0.849,0.353,1.614,0.918,2.159l-0.001,0.001l18,18l0.008-0.009c0.538,0.518,1.271,0.835,2.075,0.835
	c1.657,0,3-1.343,3-3C33.26,38.351,32.854,37.536,32.214,36.986"/>
</svg>
