<?xml version="1.0" encoding="utf-8"?>
<!-- Generator: Adobe Illustrator 16.0.0, SVG Export Plug-In . SVG Version: 6.00 Build 0)  -->
<!DOCTYPE svg PUBLIC "-//W3C//DTD SVG 1.1//EN" "http://www.w3.org/Graphics/SVG/1.1/DTD/svg11.dtd">
<svg version="1.1" id="图层_1" xmlns="http://www.w3.org/2000/svg" xmlns:xlink="http://www.w3.org/1999/xlink" x="0px" y="0px"
	 width="42.52px" height="42.52px" viewBox="0 0 42.52 42.52" enable-background="new 0 0 42.52 42.52" xml:space="preserve">
<polygon fill="#231815" points="21.26,21.26 21.26,21.26 21.26,21.26 "/>
<polygon fill="#231815" points="21.26,21.26 21.26,21.26 21.26,21.26 "/>
<polygon fill="#231815" points="21.26,21.26 21.26,21.26 21.26,21.26 "/>
<g id="ava_01">
	<circle fill="#E1E1E1" cx="21.26" cy="21.26" r="21.135"/>
	<g>
		<defs>
			<circle id="SVGID_1_" cx="21.26" cy="21.26" r="21.135"/>
		</defs>
		<clipPath id="SVGID_2_">
			<use xlink:href="#SVGID_1_"  overflow="visible"/>
		</clipPath>
		<g clip-path="url(#SVGID_2_)">
			<path fill="#FEE1B9" d="M12.231,18.514c-0.114-1.126,0.499-2.134,1.369-2.251c0.871-0.118,1.669,0.7,1.784,1.825
				c0.115,1.126-0.499,2.133-1.368,2.252C13.144,20.457,12.346,19.64,12.231,18.514z"/>
			<g>
				<g>
					<g>
						<g>
							<path fill="#FFD9AC" d="M28.423,20.344c-0.867-0.097-1.453-1.091-1.306-2.219c0.146-1.13,0.968-1.967,1.834-1.872
								c0.868,0.097,1.452,1.089,1.307,2.218C30.112,19.602,29.291,20.439,28.423,20.344z"/>
						</g>
					</g>
					<g>
						<g>
							<path fill="#FEE1B9" d="M21.33,9.434c0,0-7.162,0.896-7.162,4.715c0,0,0,5.168,0,6.672c0,1.504,2.432,5.803,4.625,5.979
								c1.096,0.09,2.537,0.215,2.537,0.215s1.441-0.125,2.538-0.215c2.192-0.177,4.623-4.476,4.623-5.979c0-1.503,0-6.672,0-6.672
								C28.491,10.329,21.33,9.434,21.33,9.434z"/>
						</g>
						<g>
							<path fill="#FFD9AC" d="M28.468,14.148c0,0,0,5.168,0,6.672c0,1.504-2.432,5.803-4.623,5.979
								c-1.098,0.09-2.539,0.215-2.539,0.215V9.434C21.306,9.434,28.468,10.329,28.468,14.148z"/>
						</g>
					</g>
					<path fill="#FFFFFF" d="M21.26,24.603c0.999,0,1.809-0.714,1.809-1.593h-3.617C19.451,23.889,20.261,24.603,21.26,24.603z"/>
					<circle fill="#726658" cx="24.903" cy="18.741" r="0.623"/>
					<circle fill="#726658" cx="17.679" cy="18.493" r="0.622"/>
				</g>
			</g>
			<path fill="#FEE1B9" d="M36.574,42.395c0,0-1.074-8.195-2.625-10.343c-1.969-2.388-9.271-1.036-9.271-4.124
				c0-0.011,0-0.016,0-0.026v-2.819h-6.744v2.854c-0.053,3.046-7.4,1.736-9.364,4.116C7.02,34.199,5.945,42.395,5.945,42.395H36.574
				z"/>
			<path fill="#FFD9AC" d="M21.274,25.082v17.313h15.3c0,0-1.074-8.195-2.625-10.343c-1.969-2.388-9.271-1.036-9.271-4.124
				c0-0.011,0-0.016,0-0.026v-2.819H21.274z"/>
			<path fill="#7BD2E5" d="M33.949,32.052c-1.919-2.325-8.887-1.105-9.253-3.892c-0.953,0.455-2.124,0.722-3.39,0.722
				c-1.268,0-2.44-0.27-3.394-0.722c-0.406,2.756-7.428,1.575-9.341,3.892C7.02,34.199,5.945,42.395,5.945,42.395h30.629
				C36.574,42.395,35.5,34.199,33.949,32.052z"/>
			<path fill="#75CCDB" d="M24.696,28.16c-0.953,0.455-2.124,0.722-3.39,0.722c-0.011,0-0.021,0-0.032-0.001v13.514h15.3
				c0,0-1.074-8.195-2.625-10.343C32.03,29.727,25.063,30.946,24.696,28.16z"/>
			<path fill="#891400" d="M27.303,17.026V12.89c0,0-2.895-1.516-5.997-1.447c0-4.205,0-5.928,0-5.928s7.982,0.965,7.982,4.756
				c0,3.791-0.606,6.065-0.606,6.065S27.716,16.336,27.303,17.026z"/>
			<path fill="#BA4830" d="M15.31,17.026V12.89c0,0,2.895-1.516,5.997-1.447c0-4.205,0-5.928,0-5.928s-7.765,0.965-7.765,4.756
				c0,3.791,0.39,6.065,0.39,6.065S14.896,16.336,15.31,17.026z"/>
		</g>
		<g clip-path="url(#SVGID_2_)">
			<g>
				<g>
					<path fill="#891400" d="M18.938,17.312c-0.037,0-0.075-0.018-0.099-0.051c-0.222-0.298-0.667-0.484-1.161-0.484
						c-0.493,0-0.938,0.186-1.16,0.484c-0.041,0.055-0.119,0.067-0.174,0.026s-0.067-0.119-0.025-0.174
						c0.267-0.361,0.788-0.584,1.359-0.584c0.572,0,1.093,0.224,1.36,0.584c0.041,0.055,0.03,0.133-0.025,0.174
						C18.991,17.304,18.965,17.312,18.938,17.312z"/>
				</g>
			</g>
		</g>
		<g clip-path="url(#SVGID_2_)">
			<g>
				<path fill="#891400" d="M26.178,17.312c-0.038,0-0.074-0.018-0.101-0.051c-0.221-0.298-0.666-0.484-1.159-0.484
					c-0.494,0-0.939,0.186-1.16,0.484c-0.041,0.055-0.119,0.067-0.174,0.026c-0.057-0.041-0.067-0.119-0.026-0.174
					c0.268-0.361,0.789-0.584,1.36-0.584s1.093,0.224,1.359,0.584c0.041,0.055,0.029,0.133-0.026,0.174
					C26.229,17.304,26.204,17.312,26.178,17.312z"/>
			</g>
		</g>
	</g>
</g>
</svg>
