<?xml version="1.0" encoding="utf-8"?>
<!-- Generator: Adobe Illustrator 16.0.0, SVG Export Plug-In . SVG Version: 6.00 Build 0)  -->
<!DOCTYPE svg PUBLIC "-//W3C//DTD SVG 1.1//EN" "http://www.w3.org/Graphics/SVG/1.1/DTD/svg11.dtd">
<svg version="1.1" id="图层_1" xmlns="http://www.w3.org/2000/svg" xmlns:xlink="http://www.w3.org/1999/xlink" x="0px" y="0px"
	 width="42.52px" height="42.52px" viewBox="0 0 42.52 42.52" enable-background="new 0 0 42.52 42.52" xml:space="preserve">
<polygon fill="#231815" points="21.26,21.26 21.26,21.26 21.26,21.26 "/>
<polygon fill="#231815" points="21.26,21.26 21.26,21.26 21.26,21.26 "/>
<polygon fill="#231815" points="21.26,21.26 21.26,21.26 21.26,21.26 "/>
<path fill="#030000" d="M39.415,18.233h-1.816c-0.832,0-1.715-0.65-1.963-1.446l-1.041-2.532c-0.393-0.733-0.232-1.814,0.354-2.404
	l1.289-1.285c0.59-0.591,0.59-1.554,0-2.143l-2.143-2.14c-0.59-0.587-1.551-0.587-2.141,0l-1.289,1.288
	c-0.586,0.588-1.668,0.749-2.404,0.355l-2.529-1.042c-0.793-0.246-1.447-1.13-1.447-1.962V3.106c0-0.83-0.682-1.514-1.512-1.514
	h-3.024c-0.833,0-1.515,0.684-1.515,1.514v1.816c0,0.832-0.649,1.716-1.445,1.962l-2.532,1.042c-0.734,0.394-1.814,0.233-2.4-0.355
	l-1.293-1.288c-0.588-0.587-1.55-0.587-2.138,0l-2.14,2.14c-0.588,0.589-0.588,1.552,0,2.141l1.284,1.287
	c0.592,0.59,0.752,1.671,0.357,2.404L6.885,16.79c-0.247,0.794-1.129,1.445-1.963,1.445l-1.814-0.002
	c-0.832,0-1.515,0.681-1.515,1.513v3.024c0,0.834,0.683,1.516,1.515,1.516h1.814c0.834,0,1.714,0.65,1.96,1.445l1.045,2.533
	c0.392,0.734,0.232,1.816-0.357,2.404l-1.287,1.287c-0.585,0.59-0.585,1.551,0,2.141l2.143,2.143c0.588,0.588,1.55,0.588,2.138,0
	l1.29-1.289c0.586-0.588,1.667-0.746,2.397-0.35l2.538,1.041c0.796,0.248,1.445,1.129,1.445,1.961v1.813
	c0,0.83,0.68,1.512,1.515,1.512h3.024c0.83,0,1.512-0.682,1.512-1.512v-1.813c0-0.832,0.654-1.713,1.447-1.961l2.535-1.041
	c0.732-0.396,1.816-0.238,2.404,0.35l1.283,1.289c0.59,0.588,1.551,0.588,2.141,0l2.143-2.143c0.59-0.59,0.59-1.551,0-2.141
	l-1.289-1.287c-0.586-0.588-0.746-1.67-0.354-2.404l1.041-2.533c0.248-0.795,1.133-1.445,1.963-1.445h1.816
	c0.832,0,1.512-0.68,1.512-1.514v-3.026C40.927,18.914,40.247,18.233,39.415,18.233 M28.827,21.258c0,4.177-3.387,7.562-7.563,7.562
	c-4.179,0-7.564-3.385-7.564-7.562c0-4.178,3.386-7.564,7.564-7.564C25.44,13.693,28.827,17.08,28.827,21.258"/>
</svg>
