<?xml version="1.0" encoding="utf-8"?>
<!-- Generator: Adobe Illustrator 16.0.0, SVG Export Plug-In . SVG Version: 6.00 Build 0)  -->
<!DOCTYPE svg PUBLIC "-//W3C//DTD SVG 1.1//EN" "http://www.w3.org/Graphics/SVG/1.1/DTD/svg11.dtd">
<svg version="1.1" id="图层_1" xmlns="http://www.w3.org/2000/svg" xmlns:xlink="http://www.w3.org/1999/xlink" x="0px" y="0px"
	 width="42.52px" height="42.52px" viewBox="0 0 42.52 42.52" enable-background="new 0 0 42.52 42.52" xml:space="preserve">
<g>
	<path fill="#231815" d="M21.26,1.76c-10.77,0-19.5,8.73-19.5,19.5c0,10.77,8.73,19.5,19.5,19.5s19.5-8.73,19.5-19.5
		C40.76,10.49,32.029,1.76,21.26,1.76z M33.716,16.124l-13.69,13.722c-0.394,0.395-1.173,0.719-1.731,0.719h-1.183
		c-0.558,0-1.337-0.324-1.73-0.719l-6.447-6.478c-0.394-0.396-0.393-1.042,0.001-1.437l2.537-2.537
		c0.395-0.396,1.041-0.396,1.436-0.001l4.119,4.11c0.396,0.395,1.041,0.395,1.436-0.002l11.289-11.314
		c0.395-0.395,1.041-0.397,1.437-0.004l2.523,2.506C34.108,15.083,34.109,15.728,33.716,16.124z"/>
</g>
</svg>
