<?xml version="1.0" encoding="utf-8"?>
<!-- Generator: Adobe Illustrator 16.0.0, SVG Export Plug-In . SVG Version: 6.00 Build 0)  -->
<!DOCTYPE svg PUBLIC "-//W3C//DTD SVG 1.1//EN" "http://www.w3.org/Graphics/SVG/1.1/DTD/svg11.dtd">
<svg version="1.1" id="图层_1" xmlns="http://www.w3.org/2000/svg" xmlns:xlink="http://www.w3.org/1999/xlink" x="0px" y="0px"
	 width="42.52px" height="42.52px" viewBox="0 0 42.52 42.52" enable-background="new 0 0 42.52 42.52" xml:space="preserve">
<g>
	<g>
		<path fill="#231815" d="M21.257,1.112c-11.128,0-20.146,9.021-20.146,20.149c0,11.127,9.018,20.147,20.146,20.147
			c11.127,0,20.151-9.02,20.151-20.147C41.408,10.133,32.385,1.112,21.257,1.112z M24.307,33.664H19.52V18.255h4.787V33.664z
			 M21.881,16.368c-1.509,0-2.483-1.074-2.483-2.398c0-1.354,1.008-2.392,2.544-2.392c1.547,0,2.495,1.039,2.527,2.392
			C24.469,15.293,23.488,16.368,21.881,16.368z"/>
	</g>
</g>
</svg>
