<?xml version="1.0" encoding="utf-8"?>
<!-- Generator: Adobe Illustrator 16.0.0, SVG Export Plug-In . SVG Version: 6.00 Build 0)  -->
<!DOCTYPE svg PUBLIC "-//W3C//DTD SVG 1.1//EN" "http://www.w3.org/Graphics/SVG/1.1/DTD/svg11.dtd">
<svg version="1.1" id="图层_1" xmlns="http://www.w3.org/2000/svg" xmlns:xlink="http://www.w3.org/1999/xlink" x="0px" y="0px"
	 width="42.52px" height="42.52px" viewBox="0 0 42.52 42.52" enable-background="new 0 0 42.52 42.52" xml:space="preserve">
<polygon fill="#231815" points="21.26,21.26 21.26,21.26 21.26,21.26 "/>
<polygon fill="#231815" points="21.26,21.26 21.26,21.26 21.26,21.26 "/>
<polygon fill="#231815" points="21.26,21.26 21.26,21.26 21.26,21.26 "/>
<g>
	<path fill="#231815" d="M16.756,27.229h-1.572c-0.112-0.551-0.261-1.086-0.453-1.607l1.313-0.756
		c0.314-0.183,0.42-0.587,0.241-0.903l-1.316-2.276c-0.181-0.315-0.587-0.425-0.899-0.241l-1.366,0.788
		c-0.363-0.418-0.765-0.811-1.192-1.162l0.759-1.318c0.185-0.318,0.072-0.716-0.243-0.9l-2.276-1.317
		c-0.318-0.181-0.72-0.074-0.9,0.243l-0.785,1.364c-0.521-0.181-1.064-0.318-1.621-0.412v-1.52c0-0.363-0.295-0.658-0.656-0.658
		H3.417v4.787c0.393-0.058,0.791-0.098,1.198-0.098c4.481,0,8.109,3.632,8.109,8.109c0,1.729-0.544,3.326-1.464,4.641h5.236
		c-0.042-0.166-0.147-0.317-0.306-0.409l-1.363-0.784c0.177-0.523,0.315-1.063,0.409-1.619h1.519c0.363,0,0.656-0.294,0.656-0.659
		v-2.63C17.412,27.523,17.119,27.229,16.756,27.229z"/>
	<g>
		<polygon fill="#231815" points="23.997,27.541 23.927,27.773 23.118,30.585 25.926,29.774 26.161,29.705 		"/>
		<path fill="#231815" d="M39.594,18.403l1.092-1.095c0.383-0.383,0.383-1.009,0-1.391l-2.905-2.903
			c-0.381-0.384-1.005-0.384-1.389,0l-1.095,1.095L39.594,18.403z"/>
		<path fill="#231815" d="M34.832,14.607c-0.032,0.025-0.077,0.041-0.108,0.074l-8.869,8.87c-0.406,0.403-0.406,1.059,0,1.464
			l0.089,0.087c0.28,0.285,0.683,0.357,1.037,0.244c-0.108,0.358-0.037,0.757,0.244,1.038l0.091,0.092
			c0.284,0.283,0.682,0.355,1.037,0.246c-0.107,0.355-0.04,0.753,0.243,1.037l0.092,0.088c0.404,0.407,1.061,0.407,1.464,0
			l8.87-8.869c0.031-0.03,0.046-0.073,0.074-0.111L34.832,14.607z"/>
	</g>
	<path fill="#231815" d="M32.071,27.447v6.228H3.616V14.02h28.455v1.8l2.067-2.07v-5.94c0-0.572-0.46-1.033-1.033-1.033H2.584
		c-0.573,0-1.037,0.461-1.037,1.033v26.9c0,0.573,0.464,1.035,1.037,1.035h30.521c0.573,0,1.033-0.462,1.033-1.035v-9.33
		L32.071,27.447z M30.693,9.016c0.763,0,1.378,0.618,1.378,1.381c0,0.762-0.615,1.377-1.378,1.377c-0.764,0-1.382-0.615-1.382-1.377
		C29.312,9.634,29.93,9.016,30.693,9.016z M26.642,9.016c0.76,0,1.376,0.618,1.376,1.381c0,0.762-0.616,1.377-1.376,1.377
		c-0.764,0-1.383-0.615-1.383-1.377C25.259,9.634,25.878,9.016,26.642,9.016z M22.585,9.016c0.763,0,1.385,0.618,1.385,1.381
		c0,0.762-0.622,1.377-1.385,1.377c-0.761,0-1.377-0.615-1.377-1.377C21.208,9.634,21.824,9.016,22.585,9.016z"/>
</g>
</svg>
