<?xml version="1.0" encoding="utf-8"?>
<!-- Generator: Adobe Illustrator 16.0.0, SVG Export Plug-In . SVG Version: 6.00 Build 0)  -->
<!DOCTYPE svg PUBLIC "-//W3C//DTD SVG 1.1//EN" "http://www.w3.org/Graphics/SVG/1.1/DTD/svg11.dtd">
<svg version="1.1" id="图层_1" xmlns="http://www.w3.org/2000/svg" xmlns:xlink="http://www.w3.org/1999/xlink" x="0px" y="0px"
	 width="42.52px" height="42.52px" viewBox="0 0 42.52 42.52" enable-background="new 0 0 42.52 42.52" xml:space="preserve">
<polygon fill="#231815" points="21.26,21.26 21.26,21.26 21.26,21.26 "/>
<polygon fill="#231815" points="21.26,21.26 21.26,21.26 21.26,21.26 "/>
<polygon fill="#231815" points="21.26,21.26 21.26,21.26 21.26,21.26 "/>
<g>
	<path fill="#030000" d="M39.453,12.163h-6.064v24.258h6.064c0.834,0,1.516-0.683,1.516-1.516V13.68
		C40.969,12.846,40.287,12.163,39.453,12.163"/>
	<path fill="#030000" d="M30.357,12.162L30.357,12.162v-0.189v-1.326c0-2.955-2.346-4.549-4.549-4.549h-9.099
		c-2.95,0-4.548,2.345-4.548,4.549v1.516H9.129v24.26h22.742v-24.26H30.357z M27.324,12.162L27.324,12.162H15.193v-1.516
		c0,0,0-1.517,1.516-1.517h9.099c0,0,1.516,0,1.516,1.517V12.162z"/>
	<path fill="#030000" d="M7.615,12.163H3.066c-0.835,0-1.516,0.683-1.516,1.517v21.226c0,0.833,0.681,1.516,1.516,1.516h4.548
		V12.163z"/>
</g>
</svg>
