<?xml version="1.0" standalone="no"?><!DOCTYPE svg PUBLIC "-//W3C//DTD SVG 1.1//EN" "http://www.w3.org/Graphics/SVG/1.1/DTD/svg11.dtd"><svg t="1586931432107" class="icon" viewBox="0 0 1024 1024" version="1.1" xmlns="http://www.w3.org/2000/svg" p-id="4542" xmlns:xlink="http://www.w3.org/1999/xlink" width="16" height="16"><defs><style type="text/css"></style></defs><path d="M253.44 796.444444a320.568889 320.568889 0 0 0 380.586667-246.044444 261.404444 261.404444 0 0 1 389.973333-170.666667 500.906667 500.906667 0 0 0-32.426667-83.342222 494.933333 494.933333 0 0 0-28.444444-50.915555A523.662222 523.662222 0 0 0 15.644444 382.862222c-2.844444 10.524444-6.257778 21.048889-8.533333 31.857778a320.568889 320.568889 0 0 0 87.04 293.831111 928.711111 928.711111 0 0 0-52.337778 124.017778 987.591111 987.591111 0 0 0-26.168889 95.573333C9.386667 959.431111 2.844444 995.555556 0 1024h129.137778a760.035556 760.035556 0 0 1 1.706666-79.075556c2.275556-28.444444 5.688889-56.888889 11.093334-85.333333a794.737778 794.737778 0 0 1 56.888889-182.044444 809.528889 809.528889 0 0 1 99.84-166.4 841.386667 841.386667 0 0 1 118.897777-124.871111c5.404444-4.551111 21.617778-17.066667 17.066667-11.946667C234.382222 606.435556 253.44 796.444444 253.44 796.444444z" p-id="4543"></path></svg>