<?xml version="1.0" encoding="utf-8"?>
<!-- Generator: Adobe Illustrator 22.0.0, SVG Export Plug-In . SVG Version: 6.00 Build 0)  -->
<svg version="1.1" id="图层_1" xmlns="http://www.w3.org/2000/svg" xmlns:xlink="http://www.w3.org/1999/xlink" x="0px" y="0px"
	 viewBox="0 0 16 16" style="enable-background:new 0 0 16 16;" xml:space="preserve">
<g>
	<g>
		<path d="M0.9,15l-0.8-2.8l15-4l0.8,2.8L0.9,15z M5.3,13.4l-0.5-1.7l0.7-0.2L6,13.2L5.3,13.4z M15.1,10.6l-1.8-1.1l0.4-0.6l1.8,1.1
			L15.1,10.6z M14.4,6.9l-0.5-0.5c0.3-0.3,0.6-0.6,0.6-1.1c0-0.4-0.2-0.8-0.6-1l0,0c-0.5-0.4-0.8-1-0.8-1.6c0-0.6,0.3-1.2,0.8-1.6
			l0.3,0.2l0.2,0.3c-0.3,0.3-0.6,0.6-0.6,1.1c0,0.4,0.2,0.8,0.6,1.1l0.1,0.1c0.5,0.4,0.8,1,0.8,1.6C15.2,5.9,14.9,6.5,14.4,6.9
			L14.4,6.9z M12.2,6.9l-0.4-0.6c0.3-0.2,0.5-0.4,0.6-0.8c-0.1-0.3-0.3-0.6-0.5-0.8l0,0l0.4-0.6l0,0c0.5,0.4,0.8,0.9,0.8,1.3
			C13,6,12.8,6.5,12.2,6.9L12.2,6.9z M12.2,6.9"/>
	</g>
</g>
</svg>
