<?xml version="1.0" encoding="utf-8"?>
<!-- Generator: Adobe Illustrator 22.0.0, SVG Export Plug-In . SVG Version: 6.00 Build 0)  -->
<svg version="1.1" id="图层_1" xmlns="http://www.w3.org/2000/svg" xmlns:xlink="http://www.w3.org/1999/xlink" x="0px" y="0px"
	 viewBox="0 0 16 16" style="enable-background:new 0 0 16 16;" xml:space="preserve">
<path d="M8,4.2c0-1-0.4-1.9-1.1-2.6C6.2,0.8,5.3,0.5,4.2,0.5c-1,0-1.9,0.4-2.6,1.1C0.8,2.3,0.5,3.2,0.5,4.2c0,1.1,0.4,1.9,1.1,2.7
	c0.6,0.6,1.3,0.9,2,1.1v2.1c-0.4,0.1-0.8,0.3-1.1,0.6c-0.5,0.6-0.8,1.3-0.8,2c0,0.8,0.3,1.4,0.8,2c0.6,0.6,1.3,0.8,2,0.8
	c0.8,0,1.4-0.3,2-0.8c0.6-0.6,0.8-1.2,0.8-2c0-0.2,0-0.4-0.1-0.6l4.6-2.8c0.4,0.4,0.9,0.6,1.4,0.6c0.6,0,1.1-0.2,1.6-0.6
	c0.4-0.4,0.6-0.9,0.6-1.6c0-0.6-0.2-1.1-0.6-1.6c-0.4-0.4-0.9-0.6-1.6-0.6c-0.6,0-1.1,0.3-1.6,0.6c0,0.1-0.1,0.1-0.1,0.2L8,4.8
	C8,4.8,8,4.2,8,4.2z M7.6,6.1l3.6,1.4c-0.1,0.1-0.1,0.2-0.1,0.3c0,0.3,0.1,0.4,0.1,0.6l-4.6,2.6c-0.1-0.1-0.1-0.1-0.1-0.2
	c-0.5-0.4-1-0.7-1.7-0.8V8c0.8-0.1,1.4-0.5,2.1-1.1C7.2,6.6,7.4,6.4,7.6,6.1z"/>
</svg>
