<?xml version="1.0" standalone="no"?><!DOCTYPE svg PUBLIC "-//W3C//DTD SVG 1.1//EN" "http://www.w3.org/Graphics/SVG/1.1/DTD/svg11.dtd"><svg t="1586932137583" class="icon" viewBox="0 0 1024 1024" version="1.1" xmlns="http://www.w3.org/2000/svg" p-id="28730" xmlns:xlink="http://www.w3.org/1999/xlink" width="16" height="16"><defs><style type="text/css"></style></defs><path d="M292.681103 760.808291H29.489394a21.902536 21.902536 0 1 0 0 43.872812h263.191709a21.902536 21.902536 0 1 0 0-43.872812zM29.489394 585.339625a21.902536 21.902536 0 1 0 0 43.872812h308.058037a393.319868 393.319868 0 0 1-12.825402-43.872812H29.489394z m0-350.892172a21.902536 21.902536 0 1 0 0 43.850232h351.682469c10.36419-15.512415 22.105755-30.031312 34.524719-43.850232H29.489394z m0 219.318898h287.690937c1.648335-14.902756 4.290187-29.511974 7.541698-43.850232H29.489394a21.902536 21.902536 0 1 0 0 43.850232zM811.251863 690.720176c69.568776-36.737552 117.460816-108.970761 117.460816-193.103594 0-121.141345-98.200132-219.318897-219.341477-219.318897-121.118765 0-219.296318 98.177552-219.296318 219.318897 0 84.132834 47.89204 156.343462 117.460816 193.103594-119.42527 42.066417-205.183859 155.575744-205.183859 289.384433 0 14.947916 1.422536 29.511974 3.49989 43.872811H1012.935832c2.054774-14.360838 3.49989-28.924895 3.49989-43.872811 0-133.808688-85.758589-247.318015-205.183859-289.384433z" fill="#000000" p-id="28731"></path></svg>