<?xml version="1.0" encoding="utf-8"?>
<!-- Generator: Adobe Illustrator 22.0.0, SVG Export Plug-In . SVG Version: 6.00 Build 0)  -->
<svg version="1.1" id="图层_1" xmlns="http://www.w3.org/2000/svg" xmlns:xlink="http://www.w3.org/1999/xlink" x="0px" y="0px"
	 viewBox="0 0 16 16" style="enable-background:new 0 0 16 16;" xml:space="preserve">
<g>
	<path d="M3.5,3.8c0,0.2-0.2,0.4-0.4,0.4H1c-0.2,0-0.4-0.2-0.4-0.4l0-2c0-0.2,0.2-0.4,0.4-0.4h2.1c0.2,0,0.4,0.2,0.4,0.4L3.5,3.8
		L3.5,3.8z"/>
	<path d="M15.4,3.5c0,0.4-0.3,0.8-0.8,0.8H5.8C5.4,4.3,5,3.9,5,3.5V2.1c0-0.4,0.3-0.8,0.8-0.8h8.9c0.4,0,0.8,0.3,0.8,0.8L15.4,3.5
		L15.4,3.5L15.4,3.5z"/>
	<path d="M3.5,9c0,0.2-0.2,0.4-0.4,0.4H1C0.8,9.4,0.6,9.2,0.6,9l0-2c0-0.2,0.2-0.4,0.4-0.4h2.1c0.2,0,0.4,0.2,0.4,0.4L3.5,9L3.5,9z"
		/>
	<path d="M15.4,8.7c0,0.4-0.3,0.8-0.8,0.8H5.8C5.4,9.5,5,9.1,5,8.7V7.3c0-0.4,0.3-0.8,0.8-0.8h8.9c0.4,0,0.8,0.3,0.8,0.8L15.4,8.7
		L15.4,8.7L15.4,8.7z"/>
	<path d="M3.5,14.2c0,0.2-0.2,0.4-0.4,0.4l-2.1,0c-0.2,0-0.4-0.2-0.4-0.4l0-2c0-0.2,0.2-0.4,0.4-0.4h2.1c0.2,0,0.4,0.2,0.4,0.4
		L3.5,14.2L3.5,14.2z"/>
	<path d="M15.4,13.9c0,0.4-0.3,0.8-0.8,0.8H5.8c-0.4,0-0.8-0.3-0.8-0.8v-1.4c0-0.4,0.3-0.8,0.8-0.8h8.9c0.4,0,0.8,0.3,0.8,0.8
		L15.4,13.9L15.4,13.9L15.4,13.9z"/>
</g>
</svg>
