<?xml version="1.0" standalone="no"?><!DOCTYPE svg PUBLIC "-//W3C//DTD SVG 1.1//EN" "http://www.w3.org/Graphics/SVG/1.1/DTD/svg11.dtd"><svg t="1591347217295" class="icon" viewBox="0 0 1255 1024" version="1.1" xmlns="http://www.w3.org/2000/svg" p-id="16680" xmlns:xlink="http://www.w3.org/1999/xlink" width="78.4375" height="64"><defs><style type="text/css"></style></defs><path d="M1090.76507546 499.6122149v-119.02623688l-433.28137631 186.62537729a64.68817192 64.68817192 0 0 1-51.29772113-0.03234481L45.33952723 324.17789206a32.34408596 32.34408596 0 0 1 0.03234383-59.38374114L605.34503248 23.60430085A64.68817192 64.68817192 0 0 1 656.64275262 23.60430085l560.84645178 242.96877461a32.34408596 32.34408596 0 0 1-0.03234384 59.38374212l-52.20335531 22.51148327v151.4350105l45.08765617 45.08765617a32.34408596 32.34408596 0 0 1 0 45.73453773l-59.31905348 59.28670965a32.34408596 32.34408596 0 0 1-45.73453773 0L1045.67741929 590.43440879a32.34408596 32.34408596 0 0 1 0-45.76688156l45.08765617-45.05531233z m-111.74881759 13.84326935v351.32146227C979.04860171 926.32774212 812.28249475 1013.33333333 606.57410794 1013.33333333S234.16430085 926.32774212 234.16430085 864.77694652V493.43449475h6.21006496l353.03569915 152.92283858a97.03225787 97.03225787 0 0 0 76.97892454 0.09703248l308.65961221-132.99888156z" p-id="16681"></path></svg>