<?xml version="1.0" encoding="utf-8"?>
<!-- Generator: Adobe Illustrator 22.0.0, SVG Export Plug-In . SVG Version: 6.00 Build 0)  -->
<svg version="1.1" id="图层_1" xmlns="http://www.w3.org/2000/svg" xmlns:xlink="http://www.w3.org/1999/xlink" x="0px" y="0px"
	 viewBox="0 0 16 16" style="enable-background:new 0 0 16 16;" xml:space="preserve">
<path d="M8.3,11.4c0.2,0,0.4-0.1,0.5-0.2C9,11,9.1,10.8,9.1,10.6S9,10.3,8.9,10.1C8.7,10,8.5,9.9,8.3,9.9C8.1,9.9,8,10,7.8,10.1
	c-0.2,0.1-0.2,0.3-0.2,0.5s0.1,0.4,0.2,0.5C8,11.3,8.1,11.4,8.3,11.4z M8.8,9L9,5.1c0-0.2-0.2-0.4-0.4-0.4H8.1
	c-0.2,0-0.4,0.2-0.4,0.4L7.9,9c0,0.2,0.2,0.4,0.4,0.4C8.6,9.4,8.7,9.3,8.8,9z M8,14.7c-3.7,0-6.7-3-6.7-6.7s3-6.7,6.7-6.7
	s6.7,3,6.7,6.7S11.7,14.7,8,14.7z"/>
</svg>
