<?xml version="1.0" encoding="utf-8"?>
<!-- Generator: Adobe Illustrator 22.0.0, SVG Export Plug-In . SVG Version: 6.00 Build 0)  -->
<svg version="1.1" id="图层_1" xmlns="http://www.w3.org/2000/svg" xmlns:xlink="http://www.w3.org/1999/xlink" x="0px" y="0px"
	 viewBox="0 0 16 16" style="enable-background:new 0 0 16 16;" xml:space="preserve">
<path d="M14.1,2.5c-0.3,0-0.5,0.2-0.5,0.4c0,0,0,0,0,0.1v10.2c0,0.5-0.5,1-1,1H3.6c-0.6,0-1.3-0.5-1.3-1v-1.1c0-0.5,0.6-0.8,1.2-0.8
	h8.5c0.3,0,0.5-0.2,0.5-0.4c0,0,0,0,0-0.1V2.4c0-1-0.8-1.8-1.8-1.9c-0.1,0-0.2,0-0.2,0H3.6c-1.1,0-2.2,0.6-2.2,1.9v11.3
	c0.2,0.9,1,1.7,1.9,1.7h9.3c1.1,0,2-0.9,2-1.9V3.1C14.6,2.8,14.4,2.6,14.1,2.5L14.1,2.5z M12.1,12.4H3.9c-0.3,0-0.5,0.2-0.5,0.5
	c0,0.3,0.2,0.5,0.5,0.5h8.3c0.3,0,0.5-0.2,0.5-0.5C12.6,12.6,12.4,12.4,12.1,12.4z"/>
</svg>
