<?xml version="1.0" standalone="no"?><!DOCTYPE svg PUBLIC "-//W3C//DTD SVG 1.1//EN" "http://www.w3.org/Graphics/SVG/1.1/DTD/svg11.dtd"><svg t="1591347221945" class="icon" viewBox="0 0 1024 1024" version="1.1" xmlns="http://www.w3.org/2000/svg" p-id="16802" xmlns:xlink="http://www.w3.org/1999/xlink" width="64" height="64"><defs><style type="text/css"></style></defs><path d="M142.44436728 241.37725935h764.80339747c11.76620611 0 17.64930917-5.88310305 17.64930918-17.64930917v-41.18172139c0-11.76620611-5.88310305-17.64930917-17.64930918-17.64930918h-764.80339747c-11.76620611 0-17.64930917 5.88310305-17.64930917 17.64930918v41.18172139c0 5.88310305 11.76620611 17.64930917 17.64930917 17.64930917z m88.24654586-123.5451642h594.19340882c11.76620611 0 17.64930917-5.88310305 17.64930916-17.64930918V59.00106458c0-11.76620611-5.88310305-17.64930917-17.64930916-17.64930918H230.69091314c-11.76620611 0-17.64930917 5.88310305-17.64930917 17.64930918V100.18278597c0 5.88310305 5.88310305 17.64930917 17.64930917 17.64930918z m723.62167608 164.72688561H83.61333671c-17.64930917 0-35.29861835 17.64930917-35.29861835 35.29861834v623.6089241c0 23.53241224 17.64930917 41.1817214 35.29861835 41.1817214h864.81614945c17.64930917 0 35.29861835-17.64930917 35.29861835-35.29861835V317.8575991c5.88310305-17.64930917-11.76620611-35.29861835-29.41551529-35.29861834z m-264.7396376 452.99893542c-29.41551528 0-58.83103058-23.53241224-58.83103056-58.83103057 0-11.76620611 5.88310305-23.53241224 11.76620611-35.29861834l-41.1817214-58.83103059h-5.88310306l-70.59723669 141.19447339c5.88310305 11.76620611 11.76620611 23.53241224 11.76620612 41.1817214 0 35.29861835-29.41551528 64.71413363-64.71413363 64.71413363s-64.71413363-29.41551528-64.71413364-64.71413363c0-11.76620611 0-17.64930917 5.88310306-29.41551529l-94.12964892-117.66206115h-5.88310306c-29.41551528 0-58.83103058-23.53241224-58.83103057-58.83103057s23.53241224-58.83103058 58.83103057-58.83103057 58.83103058 23.53241224 58.83103057 58.83103057c0 11.76620611 0 17.64930917-5.88310306 23.53241222l94.12964893 117.66206115h23.53241222l64.71413363-135.31137031c-5.88310305-11.76620611-11.76620611-23.53241224-11.7662061-41.18172141 0-41.1817214 29.41551528-70.59723668 64.71413363-70.59723669s64.71413363 29.41551528 64.71413363 64.71413363c0 17.64930917-5.88310305 35.29861835-17.64930917 47.06482447l35.29861834 52.94792751h5.88310305c29.41551528 0 58.83103058 23.53241224 58.83103058 58.83103058s-23.53241224 58.83103058-58.83103058 58.83103057z" p-id="16803"></path></svg>