<?xml version="1.0" encoding="utf-8"?>
<!-- Generator: Adobe Illustrator 22.0.0, SVG Export Plug-In . SVG Version: 6.00 Build 0)  -->
<svg version="1.1" id="图层_1" xmlns="http://www.w3.org/2000/svg" xmlns:xlink="http://www.w3.org/1999/xlink" x="0px" y="0px"
	 viewBox="0 0 16 16" style="enable-background:new 0 0 16 16;" xml:space="preserve">
<path d="M0.4,4.9h1.8V9H0.4V4.9z M3.3,4.4c0,0,6.3-0.2,9.6-4.2c0,0,2.8-0.7,2.6,6.8c0,0,0.3,5.1-2.6,5.8c0,0-2.2-2.8-9.7-3.2
	C3.3,9.6,3.3,4.4,3.3,4.4z M4.5,10.9c0,0,0.3,2.4,2.2,4.9c0,0,1.7,0.1,2-0.6c0,0,0.2-0.5-0.4-1.1c-0.2-0.3-1.7-1.6-2-3.2H4.5z"/>
</svg>
