<?xml version="1.0" encoding="utf-8"?>
<!-- Generator: Adobe Illustrator 22.0.0, SVG Export Plug-In . SVG Version: 6.00 Build 0)  -->
<svg version="1.1" id="图层_1" xmlns="http://www.w3.org/2000/svg" xmlns:xlink="http://www.w3.org/1999/xlink" x="0px" y="0px"
	 viewBox="0 0 16 16" style="enable-background:new 0 0 16 16;" xml:space="preserve">
<path d="M14,0.5H2c-0.5,0-0.9,0.4-0.9,0.9v13.3c0,0.5,0.4,0.9,0.9,0.9H14c0.5,0,0.9-0.4,0.9-0.9V1.4C14.9,0.9,14.5,0.5,14,0.5z
	 M7,9.5l-2.3,2.3c-0.2,0.2-0.6,0.2-0.9,0l-1.1-1.1c-0.2-0.2-0.2-0.6,0-0.9c0.2-0.2,0.6-0.2,0.9,0l0.6,0.6l1.9-1.9
	c0.2-0.2,0.6-0.2,0.9,0C7.2,8.9,7.2,9.3,7,9.5z M7,5L4.7,7.3c-0.2,0.2-0.6,0.2-0.9,0L2.8,6.3C2.5,6,2.5,5.7,2.8,5.4s0.6-0.2,0.9,0
	l0.6,0.6l1.9-1.9c0.2-0.2,0.6-0.2,0.9,0C7.2,4.4,7.2,4.8,7,5z M12.8,11.3H9.2c-0.3,0-0.6-0.3-0.6-0.6c0-0.3,0.3-0.6,0.6-0.6h3.6
	c0.3,0,0.6,0.3,0.6,0.6C13.4,11,13.2,11.3,12.8,11.3z M12.8,6.8H9.2c-0.3,0-0.6-0.3-0.6-0.6s0.3-0.6,0.6-0.6h3.6
	c0.3,0,0.6,0.3,0.6,0.6S13.2,6.8,12.8,6.8z"/>
</svg>
