<?xml version="1.0" encoding="utf-8"?>
<!-- Generator: Adobe Illustrator 22.0.0, SVG Export Plug-In . SVG Version: 6.00 Build 0)  -->
<svg version="1.1" id="图层_1" xmlns="http://www.w3.org/2000/svg" xmlns:xlink="http://www.w3.org/1999/xlink" x="0px" y="0px"
	 viewBox="0 0 16 16" style="enable-background:new 0 0 16 16;" xml:space="preserve">
<path d="M4.2,4.6l2.8-2.1c0.8-0.6,1.8-0.7,2.6-0.4l4.4,1.7c0.3,0.1,0.6,0.2,0.9,0.2h0.7c0.2,0,0.4,0.2,0.4,0.4v5.3
	c0,0.2-0.2,0.4-0.4,0.4h-0.9c-0.1,0-0.3,0-0.4,0.1L14,10.3c0,0-0.1,0-0.2,0L8.7,4.1C8.6,4,8.4,4,8.2,4.1L5.9,5.3
	c-0.5,0.3-1,0.3-1.5,0.1C4.1,5.3,3.9,5,4.1,4.7C4.1,4.7,4.1,4.6,4.2,4.6z M0.6,10h0.8L2,9.3C2.5,8.7,3.4,8.6,4,9.1
	c0.2,0.2,0.4,0.4,0.5,0.7c0.5,0.1,0.9,0.5,1,1c0.4,0.1,0.7,0.3,0.9,0.7c0.3,0,0.6,0.2,0.8,0.4c0.5,0.5,0.6,1.2,0.2,1.8l-0.1,0.1v0
	c0.4,0.3,0.9,0.2,1.2-0.2c0.1-0.2,0.2-0.4,0.1-0.6v0h0l0.1,0.1c0.3,0.3,0.8,0.3,1.1,0.1c0.3-0.2,0.4-0.5,0.3-0.8v0h0l0.1,0.1
	c0.3,0.3,0.7,0.3,1.1,0.1c0.3-0.2,0.4-0.5,0.4-0.8v0h0l0.1,0.1c0.3,0.3,0.7,0.3,1,0.1c0.4-0.2,0.5-0.7,0.3-1.1c0,0-0.1-0.1-0.1-0.1
	L12.5,10l-4.2-5c0,0-0.1-0.1-0.2,0L6.1,6C5.5,6.4,4.7,6.4,4.1,6.2C3.7,6,3.4,5.7,3.2,5.4C3.1,5,3.2,4.6,3.4,4.2c0-0.1,0-0.2-0.1-0.3
	c0,0-0.1,0-0.1,0H0.5C0.3,4,0.1,4.1,0.1,4.3v5.3C0.2,9.8,0.4,10,0.6,10z M3.5,9.6C3.1,9.4,2.7,9.5,2.5,9.8L2,10.5
	c-0.2,0.3-0.2,0.7,0.1,1h0l0.1,0.1c0.2,0.2,0.5,0.2,0.8,0.1c0,0,0,0,0,0v0c0,0.3,0,0.5,0.3,0.7l0.1,0c0.2,0.2,0.5,0.2,0.8,0.1
	c0,0,0,0,0,0v0c0,0.2,0.1,0.5,0.3,0.6l0,0c0.2,0.2,0.5,0.2,0.8,0.1c0,0,0,0,0,0v0c0,0.2,0.1,0.3,0.3,0.4l0,0c0.3,0.2,0.8,0.2,1-0.1
	c0,0,0-0.1,0.1-0.1l0.1-0.2c0.2-0.3,0.1-0.7-0.1-0.9c-0.2-0.2-0.5-0.2-0.8-0.1c0,0,0,0,0,0v0c0-0.4-0.3-0.7-0.7-0.7
	c-0.1,0-0.2,0-0.3,0c-0.1,0-0.1-0.1-0.1-0.1c0.1-0.4,0-0.8-0.4-0.9c-0.2-0.1-0.4-0.1-0.6,0c-0.1,0-0.1-0.1-0.1-0.1
	C3.9,10.2,3.8,9.8,3.5,9.6z"/>
</svg>
