<?xml version="1.0" encoding="utf-8"?>
<!-- Generator: Adobe Illustrator 22.0.0, SVG Export Plug-In . SVG Version: 6.00 Build 0)  -->
<svg version="1.1" id="图层_1" xmlns="http://www.w3.org/2000/svg" xmlns:xlink="http://www.w3.org/1999/xlink" x="0px" y="0px"
	 viewBox="0 0 16 16" style="enable-background:new 0 0 16 16;" xml:space="preserve">
<path d="M2.3,2.4c-0.4,0-0.7-0.3-0.7-0.7c0,0,0,0,0,0C1.6,1.3,1.9,1,2.3,1h11.4c0.4,0,0.7,0.3,0.7,0.7c0,0.4-0.3,0.7-0.7,0.7
	c0,0,0,0,0,0H2.3L2.3,2.4z M12,8.5c0.3,0.8,1.1,1.3,2,1.3c0.2,0,0.4,0,0.6-0.1v4.3c0,0.4-0.5,0.9-0.9,0.9H2.2
	c-0.4,0-0.9-0.5-0.9-0.9V9.7C1.6,9.8,1.8,9.8,2,9.8c0.9,0,1.7-0.5,2-1.3c0.3,0.8,1.1,1.3,2,1.3c0.9,0,1.7-0.5,2-1.3
	c0.3,0.8,1.1,1.3,2,1.3C10.8,9.8,11.6,9.3,12,8.5L12,8.5z M14.6,3L16,6.5c0,1.1-0.9,1.9-2,1.9c-1.1,0-2-0.9-2-1.9
	c0,1.1-0.9,1.9-2,1.9c-1.1,0-2-0.9-2-1.9c0,1.1-0.9,1.9-2,1.9S4,7.5,4,6.5c0,1.1-0.9,1.9-2,1.9c-1.1,0-2-0.9-2-1.9L1.4,3H14.6
	L14.6,3z"/>
</svg>
