<?xml version="1.0" encoding="utf-8"?>
<!-- Generator: Adobe Illustrator 22.0.0, SVG Export Plug-In . SVG Version: 6.00 Build 0)  -->
<svg version="1.1" id="图层_1" xmlns="http://www.w3.org/2000/svg" xmlns:xlink="http://www.w3.org/1999/xlink" x="0px" y="0px"
	 viewBox="0 0 16 16" style="enable-background:new 0 0 16 16;" xml:space="preserve">
<g>
	<path d="M15.6,11.5V8.8c0-0.2-0.1-0.3-0.2-0.4L12.1,7l-0.1,0V2.9c0-0.1,0-0.2-0.1-0.2c0,0,0,0,0,0v0l0,0v0c0,0-0.1-0.1-0.1-0.1
		c0,0-0.1,0-0.1-0.1L8.2,1c-0.1,0-0.1,0-0.2,0c-0.1,0-0.1,0-0.2,0L4.3,2.5c0,0-0.1,0-0.1,0.1C4,2.6,4,2.7,4,2.9v4.1L3.9,7L0.6,8.4
		c0,0-0.1,0-0.1,0.1C0.4,8.5,0.4,8.7,0.4,8.8v4.3c0,0.2,0.1,0.3,0.3,0.4L4.2,15c0.1,0,0.1,0,0.2,0h0.1c0,0,0.1,0,0.1,0h0l0,0L8,13.6
		l0,0l0,0l3.4,1.5c0.1,0,0.1,0,0.2,0h0c0,0,0.1,0,0.1,0h0l0,0l2.8-1.2c0.2-0.1,0.3-0.2,0.3-0.4c0-0.2-0.2-0.4-0.4-0.4
		c-0.1,0-0.1,0-0.2,0L12.1,14L12,14v-3.6l0.1,0l1.3-0.5l1.4-0.5l0.1,0v2.2c0,0.2,0.2,0.4,0.4,0.4C15.4,12,15.6,11.8,15.6,11.5
		C15.6,11.5,15.6,11.5,15.6,11.5z M11.2,3.5v3.4l-0.1,0L8.5,8.1L8.4,8.2V4.6l0.1,0L11.2,3.5C11.1,3.5,11.2,3.5,11.2,3.5z M4.4,9.7
		L4.4,9.7L4.4,9.7L2,8.8L1.9,8.8L2,8.7l2.3-1l0,0l0,0l2.3,1l0.2,0.1L6.7,8.8L6.3,9C6.3,9,4.4,9.7,4.4,9.7z M7.6,9.5v3.3l-0.1,0
		L4.9,14l-0.1,0v-3.6l0.1,0L6.1,10L7.6,9.5V9.4C7.6,9.4,7.6,9.5,7.6,9.5z M8,3.8L8,3.8L8,3.8l-0.2,0L5.7,2.9L5.5,2.9l0.2-0.1l2.3-1
		l0,0l0,0l2.3,1l0.2,0.1l-0.2,0.1L8,3.8C8.1,3.8,8,3.8,8,3.8z M14,8.8l-2.2,0.9l-0.1,0l0,0l0,0l-0.1,0L9.3,8.8L9.1,8.7l0.2-0.1
		l2.3-1l0,0l0,0l2.3,1l0.2,0.1C14.2,8.7,14,8.8,14,8.8z"/>
	<path d="M2.2,11.1V9.5L3,9.9v1.2c0,0.2-0.2,0.4-0.4,0.4C2.3,11.5,2.2,11.3,2.2,11.1z M3.7,12.7c-0.1-0.2-0.3-0.3-0.6-0.2l-1.5,0.6
		l1.2,0.5l0.7-0.3C3.7,13.2,3.8,13,3.7,12.7z"/>
</g>
</svg>
