<?xml version="1.0" encoding="utf-8"?>
<!-- Generator: Adobe Illustrator 22.0.0, SVG Export Plug-In . SVG Version: 6.00 Build 0)  -->
<svg version="1.1" id="图层_1" xmlns="http://www.w3.org/2000/svg" xmlns:xlink="http://www.w3.org/1999/xlink" x="0px" y="0px"
	 viewBox="0 0 16 16" style="enable-background:new 0 0 16 16;" xml:space="preserve">
<path d="M11.4,15.8c-1.9,0-3.5-1.6-3.5-3.5s1.6-3.5,3.5-3.5c1.9,0,3.5,1.6,3.5,3.5C14.9,14.3,13.4,15.8,11.4,15.8z M12.6,10.1
	l-3.1,3.1v0.9h0.9l3-3.2L12.6,10.1z M8.7,9.3H3.2v0.9h4.8c-0.2,0.4-0.4,0.8-0.5,1.3H3.2v0.9h4.1c0,0.8,0.2,1.5,0.6,2.2H2.3
	c-0.5,0-0.9-0.4-0.9-0.9V1.4c0-0.5,0.4-0.9,0.9-0.9h8.9l2,2v6.1c-0.5-0.2-1.1-0.4-1.7-0.4C10.4,8.2,9.4,8.6,8.7,9.3z M3.2,8h8.3V7.1
	H3.2V8z M3.2,5.8h8.3V4.9H3.2V5.8z M9.7,2.7H3.2v0.9h6.5L9.7,2.7L9.7,2.7z M10.8,1v2h2L10.8,1z"/>
</svg>
