<?xml version="1.0" standalone="no"?><!DOCTYPE svg PUBLIC "-//W3C//DTD SVG 1.1//EN" "http://www.w3.org/Graphics/SVG/1.1/DTD/svg11.dtd"><svg t="1586932097458" class="icon" viewBox="0 0 1097 1024" version="1.1" xmlns="http://www.w3.org/2000/svg" p-id="28204" xmlns:xlink="http://www.w3.org/1999/xlink" width="17.140625" height="16"><defs><style type="text/css"></style></defs><path d="M1050.845642 935.483865h-86.896851v-516.762005a411.533094 411.533094 0 0 0-33.315272-162.592381 423.080848 423.080848 0 0 0-224.343996-222.958266A411.186661 411.186661 0 0 0 544.101314 0.058027a422.647808 422.647808 0 0 0-388.062284 256.071452 412.832216 412.832216 0 0 0-33.315271 162.852205l0.894951 516.55992h-80.83428a44.285638 44.285638 0 0 0 1.645555 88.513537h1007.974604a44.285638 44.285638 0 1 0-1.645555-88.513537zM520.370678 892.353003V580.217204h-156.818503l215.394487-401.544287v327.090141H730.39546z" p-id="28205"></path></svg>