<?xml version="1.0" encoding="utf-8"?>
<!-- Generator: Adobe Illustrator 16.0.0, SVG Export Plug-In . SVG Version: 6.00 Build 0)  -->
<!DOCTYPE svg PUBLIC "-//W3C//DTD SVG 1.1//EN" "http://www.w3.org/Graphics/SVG/1.1/DTD/svg11.dtd">
<svg version="1.1" id="图层_1" xmlns="http://www.w3.org/2000/svg" xmlns:xlink="http://www.w3.org/1999/xlink" x="0px" y="0px"
	 width="42.52px" height="42.52px" viewBox="0 0 42.52 42.52" enable-background="new 0 0 42.52 42.52" xml:space="preserve">
<path fill="#717071" d="M21.477,1.81c-10.725,0-19.452,8.726-19.452,19.45c0,10.725,8.727,19.45,19.452,19.45
	c10.723,0,19.449-8.726,19.449-19.45C40.926,10.536,32.199,1.81,21.477,1.81 M21.477,37.711c-9.072,0-16.451-7.38-16.451-16.451
	c0-9.069,7.379-16.451,16.451-16.451c9.069,0,16.448,7.382,16.448,16.451C37.925,30.331,30.546,37.711,21.477,37.711"/>
<path fill="#717071" d="M30.956,18.858h-7.134v-7.464c0-0.651-0.529-1.18-1.18-1.18h-2.355c-0.651,0-1.179,0.529-1.179,1.18v7.464
	h-7.135c-0.651,0-1.178,0.53-1.178,1.181v2.208c0,0.651,0.527,1.179,1.178,1.179h7.135v7.538c0,0.651,0.528,1.181,1.179,1.181h2.355
	c0.65,0,1.18-0.529,1.18-1.181v-7.538h7.134c0.651,0,1.181-0.527,1.181-1.179v-2.208C32.137,19.388,31.607,18.858,30.956,18.858"/>
</svg>
