<?xml version="1.0" encoding="utf-8"?>
<!-- Generator: Adobe Illustrator 16.0.0, SVG Export Plug-In . SVG Version: 6.00 Build 0)  -->
<!DOCTYPE svg PUBLIC "-//W3C//DTD SVG 1.1//EN" "http://www.w3.org/Graphics/SVG/1.1/DTD/svg11.dtd">
<svg version="1.1" id="图层_1" xmlns="http://www.w3.org/2000/svg" xmlns:xlink="http://www.w3.org/1999/xlink" x="0px" y="0px"
	 width="42.52px" height="42.52px" viewBox="0 0 42.52 42.52" enable-background="new 0 0 42.52 42.52" xml:space="preserve">
<path fill="#717071" d="M42.103,12.255L32.586,1.952c-0.244-0.261-0.584-0.41-0.938-0.41H16.086c-2.161,0-3.915,1.759-3.915,3.917
	v6.384l2.547,2.007V5.459c0-0.754,0.611-1.368,1.367-1.368h14.96v8.858c0,0.331,0.271,0.603,0.602,0.603h8.179l0.063,0.066V37.06
	c0,0.754-0.614,1.37-1.365,1.37H16.086c-0.756,0-1.367-0.616-1.367-1.37v-6.615c-0.943,0.729-1.81,1.401-2.547,1.98v4.635
	c0,2.161,1.754,3.918,3.915,3.918h22.438c2.158,0,3.918-1.757,3.918-3.918V13.12C42.442,12.8,42.319,12.49,42.103,12.255
	 M32.25,12.345V5.349l6.465,6.996H32.25z"/>
<path fill="#717071" d="M21.578,22.254c0.008-0.287-0.07-0.72-0.491-1.139c-0.022-0.026-0.051-0.048-0.076-0.069L9.045,11.62
	c-0.248-0.231-0.515-0.349-0.805-0.349c-0.413,0-0.91,0.262-1.057,1.005c-0.051,0.246-0.051,0.487-0.051,0.487v5.562H1.656
	c-0.724,0-1.124,0.308-1.331,0.565c-0.342,0.423-0.342,0.911-0.313,1.145v4.091c0,1.08,0.725,1.606,1.152,1.746
	c0.087,0.028,0.17,0.038,0.276,0.044l5.61-0.068v6.225c0,0.16,0.048,0.322,0.135,0.455c0.154,0.248,0.487,0.507,0.95,0.507
	c0.4,0,0.802-0.195,1.186-0.581c0.479-0.461,7.274-5.703,11.782-9.157C21.179,23.226,21.564,22.846,21.578,22.254 M8.75,30.718
	v-5.731c0-0.224-0.091-0.445-0.253-0.602c-0.16-0.159-0.372-0.249-0.597-0.249H7.891l-6.208,0.075
	c0.01-0.029,0.028-0.062,0.028-0.086v-4.102h6.271c0.471,0,0.851-0.38,0.851-0.848v-5.556l10.901,8.586
	C17.666,23.791,10.898,28.982,8.75,30.718"/>
</svg>
