<?xml version="1.0" encoding="utf-8"?>
<!-- Generator: Adobe Illustrator 16.0.0, SVG Export Plug-In . SVG Version: 6.00 Build 0)  -->
<!DOCTYPE svg PUBLIC "-//W3C//DTD SVG 1.1//EN" "http://www.w3.org/Graphics/SVG/1.1/DTD/svg11.dtd">
<svg version="1.1" id="图层_1" xmlns="http://www.w3.org/2000/svg" xmlns:xlink="http://www.w3.org/1999/xlink" x="0px" y="0px"
	 width="42.52px" height="42.52px" viewBox="0 0 42.52 42.52" enable-background="new 0 0 42.52 42.52" xml:space="preserve">
<path fill="#717071" d="M42.315,12.268L32.813,1.98c-0.242-0.262-0.581-0.409-0.937-0.409H16.339c-2.158,0-3.912,1.756-3.912,3.912
	v4.439c0.33-0.218,0.691-0.333,1.07-0.333c0.489,0,1.074,0.216,1.476,0.746V5.483c0-0.753,0.612-1.366,1.366-1.366h14.936v8.844
	c0,0.331,0.271,0.602,0.602,0.602h8.166l0.063,0.066v23.408c0,0.753-0.61,1.365-1.365,1.365H16.339
	c-0.754,0-1.366-0.612-1.366-1.365v-2.874c-0.317,0.301-0.783,0.551-1.373,0.551c-0.408,0-0.799-0.129-1.173-0.356v2.68
	c0,2.155,1.754,3.911,3.912,3.911H38.74c2.158,0,3.913-1.756,3.913-3.911V13.131C42.653,12.813,42.531,12.502,42.315,12.268
	 M32.479,12.358V5.373l6.454,6.985H32.479z"/>
<path fill="#717071" d="M13.6,33.015c0.465,0,0.797-0.262,0.952-0.505c0.087-0.135,0.134-0.294,0.134-0.454v-6.217l5.601,0.069
	c0.105-0.005,0.186-0.014,0.275-0.041c0.428-0.143,1.149-0.666,1.149-1.745v-4.088c0.029-0.232,0.033-0.719-0.31-1.144
	c-0.208-0.254-0.608-0.562-1.33-0.562h-5.098h-0.372v-5.551c0,0,0-0.246-0.049-0.487c-0.146-0.741-0.642-1.005-1.056-1.005
	c-0.286,0-0.557,0.12-0.804,0.349l-0.265,0.209L0.744,21.046c-0.025,0.023-0.051,0.046-0.074,0.069
	c-0.419,0.417-0.5,0.849-0.491,1.139c0.016,0.593,0.399,0.969,0.476,1.038c4.499,3.452,11.288,8.686,11.762,9.145
	c0.289,0.289,0.587,0.471,0.887,0.542C13.403,33.004,13.501,33.015,13.6,33.015 M2.021,22.203l10.407-8.199l0.477-0.376v5.55
	c0,0.468,0.381,0.849,0.849,0.849h1.22h5.042v4.095c0,0.023,0.021,0.058,0.027,0.083l-5.069-0.058l-1.126-0.016h-0.01
	c-0.223,0-0.44,0.087-0.597,0.245c-0.162,0.161-0.251,0.377-0.251,0.604v5.726c-0.115-0.095-0.251-0.202-0.395-0.317
	c-0.042-0.034-0.087-0.068-0.132-0.105c-0.012-0.009-0.021-0.019-0.035-0.027C9.855,28.213,3.932,23.668,2.021,22.203"/>
</svg>
