<?xml version="1.0" encoding="utf-8"?>
<!-- Generator: Adobe Illustrator 16.0.0, SVG Export Plug-In . SVG Version: 6.00 Build 0)  -->
<!DOCTYPE svg PUBLIC "-//W3C//DTD SVG 1.1//EN" "http://www.w3.org/Graphics/SVG/1.1/DTD/svg11.dtd">
<svg version="1.1" id="图层_1" xmlns="http://www.w3.org/2000/svg" xmlns:xlink="http://www.w3.org/1999/xlink" x="0px" y="0px"
	 width="42.52px" height="42.52px" viewBox="0 0 42.52 42.52" enable-background="new 0 0 42.52 42.52" xml:space="preserve">
<g>
	<g>
		<path fill="#231815" d="M12.67,14.718c0.43,3.556,3.491,7.235,6.262,7.235c3.187,0,6.22-3.872,6.692-7.235
			c0.184-0.138,0.475-0.437,0.584-1.141c0,0,0.682-2.438-0.225-2.174c0.316-0.943,1.357-4.602-0.662-6.876
			c0,0-0.945-1.293-3.244-1.976l-1.074-0.37c-0.423-0.309-1.275-1.03-1.275-1.833c0,0-0.534,0.246-0.843,0.703
			c0.121-0.377,0.326-0.726,0.661-1.009c0,0-0.352,0.183-0.674,0.569c-0.249,0.142-0.822,0.535-1.013,1.229l0.015-0.046
			c0,0-0.119-0.157-0.436-0.203c-0.318-0.043-0.875,0.166-0.875,0.166s-3.348,1.31-4.322,4.325c0,0-0.572,1.361,0.183,5.369
			c-1.073-0.51-0.337,2.125-0.337,2.125C12.196,14.281,12.491,14.58,12.67,14.718z M18.773,0.745
			c-0.163,0.226-0.305,0.512-0.37,0.858l-0.12-0.046C18.375,1.263,18.53,0.985,18.773,0.745z"/>
		<path fill="#231815" d="M23.377,34.731c0-4.57,3.719-8.291,8.295-8.291c0.525,0,1.039,0.055,1.535,0.148
			c-0.096-0.247-0.162-0.389-0.162-0.389c-0.873-1.948-6.223-3.634-6.223-3.634c-2.852-1.007-2.873-2.011-2.873-2.011
			c-5.603,11.05-9.863,0.035-9.863,0.035c-0.392,1.491-6.161,3.238-6.161,3.238c-1.688,0.649-2.398,1.623-2.398,1.623
			C3.034,29.149,2.739,37.38,2.739,37.38c0.031,1.878,0.845,2.075,0.845,2.075c5.737,2.561,14.733,3.014,14.733,3.014
			c3.393,0.072,6.443-0.267,8.951-0.721C24.932,40.281,23.377,37.689,23.377,34.731z"/>
	</g>
	<path fill="#231815" d="M32.035,26.989c-4.27,0-7.742,3.475-7.742,7.742c0,4.273,3.473,7.746,7.742,7.746s7.746-3.473,7.746-7.746
		C39.781,30.464,36.305,26.989,32.035,26.989z M33.576,29.231l-0.355,7.278l-1.83-0.001l-0.354-7.277H33.576z M32.307,40.234h-0.031
		c-0.836,0-1.414-0.629-1.414-1.462c0-0.867,0.596-1.46,1.445-1.46c0.852,0,1.414,0.593,1.43,1.46
		C33.736,39.605,33.174,40.234,32.307,40.234z"/>
</g>
</svg>
