<?xml version="1.0" encoding="utf-8"?>
<!-- Generator: Adobe Illustrator 16.0.0, SVG Export Plug-In . SVG Version: 6.00 Build 0)  -->
<!DOCTYPE svg PUBLIC "-//W3C//DTD SVG 1.1//EN" "http://www.w3.org/Graphics/SVG/1.1/DTD/svg11.dtd">
<svg version="1.1" id="图层_1" xmlns="http://www.w3.org/2000/svg" xmlns:xlink="http://www.w3.org/1999/xlink" x="0px" y="0px"
	 width="42.52px" height="42.52px" viewBox="0 0 42.52 42.52" enable-background="new 0 0 42.52 42.52" xml:space="preserve">
<g>
	<rect x="2" y="8" fill="#231815" width="1" height="23"/>
	<rect x="3" y="8" fill="#231815" width="2" height="23"/>
	<rect x="13" y="8" fill="#231815" width="1" height="23"/>
	<rect x="9" y="8" fill="#231815" width="3" height="23"/>
	<rect x="18" y="8" fill="#231815" width="4" height="23"/>
	<rect x="3" y="32" fill="#231815" width="4" height="2"/>
	<rect x="12" y="32" fill="#231815" width="8" height="2"/>
	<rect x="8.317" y="32.023" fill="#231815" width="1.297" height="1.921"/>
	<rect x="10.909" y="32.023" fill="#231815" width="1.296" height="1.921"/>
	<rect x="23" y="8" fill="#231815" width="2" height="23"/>
	<rect x="25" y="8" fill="#231815" width="4" height="23"/>
	<rect x="35" y="8" fill="#231815" width="2" height="23"/>
	<rect x="30" y="8" fill="#231815" width="4" height="23"/>
	<rect x="38" y="8" fill="#231815" width="3" height="23"/>
	<rect x="21" y="32" fill="#231815" width="3" height="1"/>
	<rect x="30.143" y="32.025" fill="#231815" width="1.974" height="0.987"/>
	<rect x="24.514" y="32.023" fill="#231815" width="1.298" height="1.278"/>
	<rect x="27.106" y="32.023" fill="#231815" width="1.295" height="1.278"/>
	<rect x="36.178" y="32.023" fill="#231815" width="0.645" height="1.278"/>
	<rect x="35" y="32" fill="#231815" width="5" height="1"/>
</g>
</svg>
