<?xml version="1.0" encoding="utf-8"?>
<!-- Generator: Adobe Illustrator 16.0.0, SVG Export Plug-In . SVG Version: 6.00 Build 0)  -->
<!DOCTYPE svg PUBLIC "-//W3C//DTD SVG 1.1//EN" "http://www.w3.org/Graphics/SVG/1.1/DTD/svg11.dtd">
<svg version="1.1" id="图层_1" xmlns="http://www.w3.org/2000/svg" xmlns:xlink="http://www.w3.org/1999/xlink" x="0px" y="0px"
	 width="42.52px" height="42.52px" viewBox="0 0 42.52 42.52" enable-background="new 0 0 42.52 42.52" xml:space="preserve">
<g>
	<g>
		<path fill="#231815" d="M21.249,40.996c-2.758,0-5.509-0.587-8.102-1.759c-9.916-4.47-14.35-16.177-9.877-26.094l6.543,2.949
			c-2.847,6.311-0.027,13.764,6.284,16.606c6.314,2.851,13.763,0.027,16.607-6.283l6.54,2.95
			c-2.167,4.805-6.074,8.478-11.004,10.345C25.971,40.57,23.606,40.996,21.249,40.996L21.249,40.996z"/>
		<g>
			<path fill="#231815" d="M19.464,1.625C14.134,2.106,9.248,4.692,5.856,8.922c-0.665,0.829-1.249,1.705-1.764,2.62l6.582,2.966
				c0.239-0.374,0.495-0.746,0.778-1.103c2.022-2.516,4.877-4.118,8.012-4.566V1.625z"/>
			<path fill="#231815" d="M33.681,23.049c-0.085,0.568-0.205,1.13-0.364,1.675l6.573,2.966c0.512-1.479,0.859-3.033,1.009-4.641
				H33.681z"/>
		</g>
		<path fill="#231815" d="M40.992,21.257h-7.179c0-6.926-5.631-12.558-12.555-12.558V1.523
			C32.137,1.523,40.992,10.375,40.992,21.257L40.992,21.257z"/>
	</g>
	<g>
		<rect x="14.085" y="23.646" fill="#231815" width="3.585" height="4.686"/>
		<rect x="19.464" y="17.866" fill="#231815" width="3.592" height="10.466"/>
		<rect x="24.848" y="14.879" fill="#231815" width="3.584" height="13.453"/>
	</g>
</g>
</svg>
