<?xml version="1.0" encoding="utf-8"?>
<!-- Generator: Adobe Illustrator 16.0.0, SVG Export Plug-In . SVG Version: 6.00 Build 0)  -->
<!DOCTYPE svg PUBLIC "-//W3C//DTD SVG 1.1//EN" "http://www.w3.org/Graphics/SVG/1.1/DTD/svg11.dtd">
<svg version="1.1" id="图层_1" xmlns="http://www.w3.org/2000/svg" xmlns:xlink="http://www.w3.org/1999/xlink" x="0px" y="0px"
	 width="42.52px" height="42.52px" viewBox="0 0 42.52 42.52" enable-background="new 0 0 42.52 42.52" xml:space="preserve">
<path fill="#231815" d="M22.025,4.855v-3.25h-2.23v3.25H1.808v5.756h1.973v21.73h13.746l-8.363,6.847l1.414,1.726l10.469-8.572
	h0.074l10.471,8.572l1.413-1.726l-8.363-6.847h13.692v-21.73h2.378V4.855H22.025z M36.104,30.109H6.012V10.611h30.092V30.109z
	 M13.335,25.086v-5.798h5.799c0-3.203-2.596-5.799-5.799-5.799s-5.798,2.596-5.798,5.799C7.537,22.49,10.132,25.086,13.335,25.086z
	 M14.964,26.668c3.203,0,5.799-2.597,5.799-5.8h-5.799V26.668z M32.698,14.763h-7.416v2.23h7.416V14.763z M32.698,18.856h-7.416
	v2.23h7.416V18.856z M32.698,22.952h-7.416v2.23h7.416V22.952z"/>
</svg>
