<?xml version="1.0" encoding="utf-8"?>
<!-- Generator: Adobe Illustrator 16.0.0, SVG Export Plug-In . SVG Version: 6.00 Build 0)  -->
<!DOCTYPE svg PUBLIC "-//W3C//DTD SVG 1.1//EN" "http://www.w3.org/Graphics/SVG/1.1/DTD/svg11.dtd">
<svg version="1.1" id="图层_1" xmlns="http://www.w3.org/2000/svg" xmlns:xlink="http://www.w3.org/1999/xlink" x="0px" y="0px"
	 width="42.52px" height="42.52px" viewBox="0 0 42.52 42.52" enable-background="new 0 0 42.52 42.52" xml:space="preserve">
<g>
	<path fill="#231815" d="M40.962,32.462l-8.591-5.568c-0.754-0.486-1.625-0.594-2.44-0.396c-0.274,0.067-0.54,0.166-0.787,0.3
		l-1.416-0.916c1.677-3.094,2.277-6.791,1.383-10.479C27.198,7.505,19.218,2.646,11.324,4.559C3.43,6.477-1.431,14.453,0.48,22.347
		c1.919,7.896,9.895,12.758,17.794,10.842c3.125-0.756,5.765-2.477,7.71-4.76l1.474,0.955c-0.068,1.12,0.402,2.253,1.417,2.902
		l8.584,5.57c0.771,0.506,1.68,0.631,2.51,0.429c0.773-0.188,1.477-0.661,1.938-1.38C42.875,35.422,42.453,33.423,40.962,32.462z
		 M17.63,30.539c-6.447,1.564-12.932-2.396-14.496-8.835C1.571,15.264,5.52,8.773,11.965,7.211c6.443-1.567,12.931,2.392,14.5,8.833
		C28.025,22.484,24.066,28.975,17.63,30.539z"/>
	<g>
		<path fill="#231815" d="M17.789,22.12h-6.031l-1.07,2.707H6.844l5.777-13.137h4.302L22.7,24.827h-3.846L17.789,22.12z
			 M14.771,14.523l-2.059,5.204h4.121L14.771,14.523z"/>
	</g>
</g>
</svg>
