<?xml version="1.0" encoding="utf-8"?>
<!-- Generator: Adobe Illustrator 16.0.0, SVG Export Plug-In . SVG Version: 6.00 Build 0)  -->
<!DOCTYPE svg PUBLIC "-//W3C//DTD SVG 1.1//EN" "http://www.w3.org/Graphics/SVG/1.1/DTD/svg11.dtd">
<svg version="1.1" id="图层_1" xmlns="http://www.w3.org/2000/svg" xmlns:xlink="http://www.w3.org/1999/xlink" x="0px" y="0px"
	 width="42.52px" height="42.52px" viewBox="0 0 42.52 42.52" enable-background="new 0 0 42.52 42.52" xml:space="preserve">
<g>
	<path fill="#030000" d="M14.143,12.682V4.68h25.836v8.002H14.143L14.143,12.682z"/>
	<path fill="#030000" d="M14.143,25.301v-8.004h25.836v8.004H14.143L14.143,25.301z"/>
	<path fill="#030000" d="M14.143,37.916v-8.002h25.836v8.002H14.143L14.143,37.916z"/>
	<path fill="#030000" d="M3.067,6.989V5.831c0.537-0.024,0.911-0.06,1.125-0.108c0.342-0.075,0.62-0.227,0.834-0.455
		c0.146-0.154,0.258-0.361,0.334-0.62c0.042-0.155,0.065-0.271,0.065-0.346h1.421v8.659H5.104V6.989H3.067z"/>
	<path fill="#030000" d="M3.001,24.03c0.243-0.577,0.816-1.187,1.72-1.831c0.785-0.563,1.292-0.966,1.524-1.208
		c0.354-0.378,0.531-0.792,0.531-1.242c0-0.367-0.102-0.669-0.305-0.915c-0.202-0.243-0.493-0.363-0.871-0.363
		c-0.518,0-0.871,0.194-1.057,0.58c-0.107,0.222-0.172,0.577-0.192,1.063H2.696c0.029-0.737,0.162-1.331,0.401-1.785
		c0.454-0.864,1.261-1.296,2.421-1.296c0.916,0,1.646,0.253,2.187,0.761S8.52,18.972,8.52,19.81c0,0.639-0.191,1.209-0.575,1.708
		c-0.251,0.331-0.664,0.697-1.238,1.104l-0.682,0.483c-0.428,0.304-0.72,0.521-0.876,0.656c-0.158,0.138-0.29,0.294-0.397,0.472
		h3.779v1.499H2.601C2.617,25.112,2.75,24.544,3.001,24.03z"/>
	<path fill="#030000" d="M4.214,35.346c0,0.348,0.055,0.634,0.167,0.86c0.206,0.418,0.582,0.627,1.125,0.627
		c0.334,0,0.625-0.114,0.874-0.345c0.248-0.229,0.372-0.559,0.372-0.986c0-0.57-0.23-0.95-0.69-1.143
		C5.799,34.252,5.385,34.2,4.823,34.2v-1.22c0.551-0.007,0.936-0.062,1.154-0.162c0.377-0.167,0.565-0.503,0.565-1.014
		c0-0.33-0.096-0.6-0.289-0.807c-0.192-0.207-0.464-0.311-0.813-0.311c-0.401,0-0.697,0.128-0.885,0.382
		c-0.188,0.256-0.278,0.595-0.27,1.021H2.696c0.017-0.43,0.09-0.838,0.221-1.224c0.14-0.338,0.358-0.65,0.656-0.937
		c0.222-0.202,0.486-0.359,0.793-0.467c0.306-0.106,0.682-0.162,1.128-0.162c0.827,0,1.494,0.216,2.001,0.645
		c0.507,0.427,0.76,1.003,0.76,1.722c0,0.511-0.151,0.939-0.454,1.289c-0.19,0.221-0.391,0.369-0.597,0.449
		c0.155,0,0.378,0.133,0.668,0.4c0.435,0.401,0.651,0.951,0.651,1.647c0,0.733-0.254,1.376-0.761,1.933
		c-0.507,0.556-1.257,0.832-2.252,0.832c-1.225,0-2.076-0.398-2.553-1.2c-0.251-0.426-0.39-0.984-0.418-1.672H4.214z"/>
</g>
</svg>
