<?xml version="1.0" encoding="utf-8"?>
<!-- Generator: Adobe Illustrator 16.0.0, SVG Export Plug-In . SVG Version: 6.00 Build 0)  -->
<!DOCTYPE svg PUBLIC "-//W3C//DTD SVG 1.1//EN" "http://www.w3.org/Graphics/SVG/1.1/DTD/svg11.dtd">
<svg version="1.1" id="图层_1" xmlns="http://www.w3.org/2000/svg" xmlns:xlink="http://www.w3.org/1999/xlink" x="0px" y="0px"
	 width="42.52px" height="42.52px" viewBox="0 0 42.52 42.52" enable-background="new 0 0 42.52 42.52" xml:space="preserve">
<g>
	<g>
		<rect x="16.097" y="34.188" fill="#231815" width="10.458" height="2.14"/>
		<path fill="#231815" d="M40.128,4.844H2.524c-0.548,0-0.987,0.441-0.987,0.984v26.773c0,0.542,0.439,0.98,0.987,0.98h37.604
			c0.544,0,0.985-0.438,0.985-0.98V5.828C41.113,5.285,40.672,4.844,40.128,4.844z M38.66,27.306H3.988V7.213H38.66V27.306z"/>
		<path fill="#231815" d="M29.056,36.804h-15.46c-0.391,0-0.711,0.321-0.711,0.716v0.266h16.883V37.52
			C29.768,37.125,29.447,36.804,29.056,36.804z"/>
	</g>
	<path fill="#231815" d="M9.607,23.523c0,1.256-1.013,2.267-2.268,2.267c-1.252,0-2.267-1.011-2.267-2.267
		c0-1.253,1.015-2.267,2.267-2.267C8.594,21.257,9.607,22.271,9.607,23.523z"/>
	<path fill="#231815" d="M15.419,19.696c0,1.256-1.013,2.267-2.271,2.267c-1.252,0-2.266-1.011-2.266-2.267
		c0-1.251,1.014-2.266,2.266-2.266C14.406,17.43,15.419,18.444,15.419,19.696z"/>
	<path fill="#231815" d="M21.938,21.54c0,1.251-1.018,2.27-2.27,2.27c-1.251,0-2.265-1.019-2.265-2.27
		c0-1.254,1.014-2.267,2.265-2.267C20.92,19.273,21.938,20.286,21.938,21.54z"/>
	<circle fill="#231815" cx="24.77" cy="15.585" r="2.268"/>
	<circle fill="#231815" cx="29.729" cy="19.273" r="2.267"/>
	<circle fill="#231815" cx="34.974" cy="11.761" r="2.267"/>
	<g>
		<path fill="#231815" d="M7.339,24.372c-0.275,0-0.547-0.133-0.711-0.383c-0.258-0.393-0.149-0.919,0.242-1.177l6.135-4.039
			l6.371,1.802l5.265-6.146l4.893,3.637l4.74-6.792c0.27-0.386,0.803-0.479,1.187-0.21c0.384,0.268,0.479,0.797,0.211,1.184
			l-5.745,8.229l-5.024-3.735l-4.942,5.765l-6.667-1.888l-5.487,3.613C7.661,24.328,7.5,24.372,7.339,24.372L7.339,24.372z"/>
	</g>
</g>
</svg>
