<?xml version="1.0" encoding="utf-8"?>
<!-- Generator: Adobe Illustrator 16.0.0, SVG Export Plug-In . SVG Version: 6.00 Build 0)  -->
<!DOCTYPE svg PUBLIC "-//W3C//DTD SVG 1.1//EN" "http://www.w3.org/Graphics/SVG/1.1/DTD/svg11.dtd">
<svg version="1.1" id="图层_1" xmlns="http://www.w3.org/2000/svg" xmlns:xlink="http://www.w3.org/1999/xlink" x="0px" y="0px"
	 width="42.52px" height="42.52px" viewBox="0 0 42.52 42.52" enable-background="new 0 0 42.52 42.52" xml:space="preserve">
<g>
	<g>
		<rect x="16.058" y="34.063" fill="#231815" width="10.401" height="2.127"/>
		<path fill="#231815" d="M39.962,4.879H2.561c-0.545,0-0.98,0.437-0.98,0.98V32.48c0,0.543,0.436,0.98,0.98,0.98h37.401
			c0.539,0,0.978-0.438,0.978-0.98V5.859C40.939,5.316,40.501,4.879,39.962,4.879z M38.499,27.219H4.015V7.235h34.484V27.219z"/>
		<path fill="#231815" d="M28.949,36.666H13.57c-0.39,0-0.706,0.316-0.706,0.709v0.266h16.791v-0.266
			C29.655,36.982,29.337,36.666,28.949,36.666z"/>
	</g>
	<g>
		<path fill="#231815" d="M12.894,19.199c-0.047,1.001,0.716,1.81,1.714,1.81c0.888,0,1.604-0.602,1.604-1.521
			c0-1.065-0.891-1.429-1.748-1.686c-0.761-0.223-1.683-0.475-2.33-0.95c-0.811-0.572-1.272-1.54-1.272-2.537
			c0-1.607,1.224-2.969,2.809-3.178V9.471h1.651v1.841c0.412,0.063,0.698,0.271,0.938,0.603v-0.682h1.493v3.112H15.99
			C15.94,13.5,15.321,12.9,14.464,12.9c-0.794,0-1.493,0.522-1.493,1.363c0,0.972,0.747,1.304,1.573,1.512
			c0.809,0.201,1.776,0.474,2.459,0.965c0.872,0.621,1.366,1.542,1.366,2.622c0,1.807-1.271,3.192-3.048,3.475v1.637H13.67v-1.908
			l-0.128-0.012c-0.459-0.16-0.634-0.24-0.933-0.636v0.648h-1.605v-3.366H12.894z"/>
	</g>
	<polygon fill="#231815" points="33.485,20.432 30.803,23.113 27.425,19.733 25.553,23.152 22.739,12.371 33.521,15.184 
		30.104,17.057 	"/>
</g>
</svg>
