<?xml version="1.0" encoding="utf-8"?>
<!-- Generator: Adobe Illustrator 16.0.0, SVG Export Plug-In . SVG Version: 6.00 Build 0)  -->
<!DOCTYPE svg PUBLIC "-//W3C//DTD SVG 1.1//EN" "http://www.w3.org/Graphics/SVG/1.1/DTD/svg11.dtd">
<svg version="1.1" id="图层_1" xmlns="http://www.w3.org/2000/svg" xmlns:xlink="http://www.w3.org/1999/xlink" x="0px" y="0px"
	 width="42.52px" height="42.52px" viewBox="0 0 42.52 42.52" enable-background="new 0 0 42.52 42.52" xml:space="preserve">
<g>
	<path fill="#231815" d="M39.749,3.711H2.771c-0.692,0-1.253,0.563-1.253,1.253v32.592c0,0.693,0.561,1.253,1.253,1.253h36.979
		c0.689,0,1.253-0.56,1.253-1.253V4.964C41.002,4.273,40.438,3.711,39.749,3.711z M31.915,6.427c0.92,0,1.67,0.748,1.67,1.671
		c0,0.924-0.75,1.673-1.67,1.673c-0.926,0-1.675-0.749-1.675-1.673C30.24,7.175,30.989,6.427,31.915,6.427z M27.005,6.427
		c0.924,0,1.672,0.748,1.672,1.671c0,0.924-0.748,1.673-1.672,1.673c-0.922,0-1.668-0.749-1.668-1.673
		C25.337,7.175,26.083,6.427,27.005,6.427z M38.491,36.3H4.024V12.488h34.467V36.3z M36.823,9.771c-0.927,0-1.674-0.749-1.674-1.673
		c0-0.923,0.747-1.671,1.674-1.671c0.923,0,1.668,0.748,1.668,1.671C38.491,9.021,37.746,9.771,36.823,9.771z"/>
	<g>
		<g>
			<polygon fill="#231815" points="14.724,37.072 12.217,37.072 12.217,33.309 14.724,33.309 14.724,37.072 			"/>
		</g>
		<g>
			<polygon fill="#231815" points="19.944,37.072 17.438,37.072 17.438,33.309 19.944,33.309 19.944,37.072 			"/>
		</g>
		<g>
			<polygon fill="#231815" points="25.166,37.072 22.66,37.072 22.66,33.309 25.166,33.309 25.166,37.072 			"/>
		</g>
		<g>
			<polygon fill="#231815" points="30.39,37.072 27.883,37.072 27.883,33.309 30.39,33.309 30.39,37.072 			"/>
		</g>
		<g>
			<polygon fill="#231815" points="35.613,37.072 33.107,37.072 33.107,33.309 35.613,33.309 35.613,37.072 			"/>
		</g>
	</g>
	<g>
		<g>
			<polygon fill="#231815" points="6.498,27.54 2.737,27.54 2.737,25.033 6.498,25.033 6.498,27.54 			"/>
		</g>
		<g>
			<polygon fill="#231815" points="6.498,22.32 2.737,22.32 2.737,19.81 6.498,19.81 6.498,22.32 			"/>
		</g>
		<g>
			<polygon fill="#231815" points="6.498,17.093 2.737,17.093 2.737,14.588 6.498,14.588 6.498,17.093 			"/>
		</g>
	</g>
	<g>
		<polygon fill="#231815" points="4.483,38.294 2.17,36.491 13.369,22.143 22.237,27.55 32.292,15.66 34.529,17.555 22.855,31.36 
			14.071,26.007 4.483,38.294 		"/>
	</g>
	<polygon fill="#231815" points="30.378,15.042 35.396,15.042 35.396,20.053 	"/>
</g>
</svg>
