<?xml version="1.0" encoding="utf-8"?>
<!-- Generator: Adobe Illustrator 16.0.0, SVG Export Plug-In . SVG Version: 6.00 Build 0)  -->
<!DOCTYPE svg PUBLIC "-//W3C//DTD SVG 1.1//EN" "http://www.w3.org/Graphics/SVG/1.1/DTD/svg11.dtd">
<svg version="1.1" id="图层_1" xmlns="http://www.w3.org/2000/svg" xmlns:xlink="http://www.w3.org/1999/xlink" x="0px" y="0px"
	 width="42.52px" height="42.52px" viewBox="0 0 42.52 42.52" enable-background="new 0 0 42.52 42.52" xml:space="preserve">
<g>
	<g>
		<g>
			<rect x="4.441" y="18.311" fill="#231815" width="10.084" height="0.99"/>
			<rect x="4.441" y="21.616" fill="#231815" width="16.038" height="0.993"/>
			<rect x="4.441" y="24.924" fill="#231815" width="16.038" height="0.992"/>
			<rect x="4.441" y="28.229" fill="#231815" width="16.038" height="0.994"/>
		</g>
	</g>
	<g>
		<path fill="#231815" d="M30.252,27.279c0.436-0.107,0.815-0.314,1.142-0.58V22.24c-0.502-0.408-1.135-0.646-1.815-0.646
			c-0.055,0-0.112,0.004-0.17,0.008v5.742c0.055,0.004,0.107,0.016,0.162,0.016C29.799,27.359,30.026,27.334,30.252,27.279z"/>
		<path fill="#231815" d="M29.576,32.783c-0.056,0-0.113-0.006-0.168-0.006v0.389H2.13V14.318h27.278v1.857
			c0.055-0.002,0.112-0.012,0.164-0.012c0.625,0,1.233,0.078,1.821,0.208V8.364c0-0.545-0.444-0.991-0.992-0.991H1.14
			c-0.546,0-0.99,0.446-0.99,0.991v25.789c0,0.551,0.444,0.994,0.99,0.994h29.262c0.548,0,0.992-0.443,0.992-0.994v-1.574
			C30.794,32.711,30.185,32.783,29.576,32.783z M28.09,9.523c0.729,0,1.318,0.591,1.318,1.321c0,0.732-0.589,1.324-1.318,1.324
			c-0.735,0-1.326-0.592-1.326-1.324C26.764,10.114,27.354,9.523,28.09,9.523z M24.202,9.523c0.731,0,1.322,0.591,1.322,1.321
			c0,0.732-0.591,1.324-1.322,1.324c-0.729,0-1.322-0.592-1.322-1.324C22.88,10.114,23.473,9.523,24.202,9.523z M20.318,9.523
			c0.732,0,1.325,0.591,1.325,1.321c0,0.732-0.593,1.324-1.325,1.324c-0.731,0-1.32-0.592-1.32-1.324
			C18.998,10.114,19.586,9.523,20.318,9.523z"/>
	</g>
	<path fill="#231815" d="M41.693,30.77l-3.978-2.582c-0.351-0.221-0.755-0.273-1.132-0.18c-0.129,0.029-0.254,0.072-0.367,0.139
		l-0.654-0.428c0.778-1.432,1.055-3.145,0.642-4.852c-0.885-3.656-4.586-5.907-8.237-5.019c-3.66,0.887-5.911,4.581-5.025,8.235
		c0.891,3.658,4.586,5.91,8.241,5.025c1.449-0.355,2.673-1.152,3.571-2.209l0.685,0.445c-0.033,0.516,0.186,1.043,0.654,1.344
		l3.977,2.576c0.358,0.236,0.778,0.291,1.163,0.199c0.355-0.086,0.683-0.303,0.896-0.637C42.578,32.137,42.382,31.215,41.693,30.77z
		 M30.606,28.725c-2.35,0.57-4.71-0.873-5.281-3.219s0.868-4.709,3.219-5.276c2.344-0.574,4.708,0.869,5.28,3.213
		C34.392,25.789,32.951,28.154,30.606,28.725z"/>
</g>
</svg>
