<?xml version="1.0" encoding="utf-8"?>
<!-- Generator: Adobe Illustrator 16.0.0, SVG Export Plug-In . SVG Version: 6.00 Build 0)  -->
<!DOCTYPE svg PUBLIC "-//W3C//DTD SVG 1.1//EN" "http://www.w3.org/Graphics/SVG/1.1/DTD/svg11.dtd">
<svg version="1.1" id="图层_1" xmlns="http://www.w3.org/2000/svg" xmlns:xlink="http://www.w3.org/1999/xlink" x="0px" y="0px"
	 width="42.52px" height="42.52px" viewBox="0 0 42.52 42.52" enable-background="new 0 0 42.52 42.52" xml:space="preserve">
<g>
	<rect x="13.596" y="6.997" fill="#231815" width="28.373" height="19.037"/>
	<path fill="#231815" d="M8.475,27.619c-2.179,0-3.949,1.77-3.949,3.951c0,2.184,1.771,3.953,3.949,3.953
		c2.187,0,3.951-1.77,3.951-3.953C12.426,29.389,10.662,27.619,8.475,27.619z M8.475,33.439c-1.028,0-1.865-0.836-1.865-1.869
		c0-1.031,0.836-1.867,1.865-1.867c1.035,0,1.867,0.836,1.867,1.867C10.342,32.604,9.51,33.439,8.475,33.439z"/>
	<path fill="#231815" d="M13.596,27.662v3.574H32.57c0.084-1.396,0.691-2.654,1.635-3.574H13.596z"/>
	<path fill="#231815" d="M38.018,27.619c-2.178,0-3.953,1.77-3.953,3.951c0,2.184,1.775,3.953,3.953,3.953
		c2.188,0,3.951-1.77,3.951-3.953C41.969,29.389,40.205,27.619,38.018,27.619z M38.018,33.439c-1.029,0-1.865-0.836-1.865-1.869
		c0-1.031,0.836-1.867,1.865-1.867c1.033,0,1.867,0.836,1.867,1.867C39.885,32.604,39.051,33.439,38.018,33.439z"/>
	<path fill="#231815" d="M8.475,26.002c1.136,0,2.193,0.344,3.074,0.926V13.143H3.678L0.55,21.874v9.132h2.386
		C3.222,28.195,5.596,26.002,8.475,26.002z M4.746,14.657h5.289v6.807H2.309L4.746,14.657z"/>
</g>
</svg>
