<?xml version="1.0" encoding="utf-8"?>
<!-- Generator: Adobe Illustrator 16.0.0, SVG Export Plug-In . SVG Version: 6.00 Build 0)  -->
<!DOCTYPE svg PUBLIC "-//W3C//DTD SVG 1.1//EN" "http://www.w3.org/Graphics/SVG/1.1/DTD/svg11.dtd">
<svg version="1.1" id="图层_1" xmlns="http://www.w3.org/2000/svg" xmlns:xlink="http://www.w3.org/1999/xlink" x="0px" y="0px"
	 width="42.52px" height="42.52px" viewBox="0 0 42.52 42.52" enable-background="new 0 0 42.52 42.52" xml:space="preserve">
<g>
	<path fill="#231815" d="M22.129,15.713c3.238,0,5.859-3.246,5.859-7.245c0-4.001-2.621-7.238-5.859-7.238
		c-3.242,0-5.862,3.237-5.862,7.238C16.267,12.467,18.887,15.713,22.129,15.713z"/>
	<polygon fill="#231815" points="22.123,36.061 22.125,36.051 22.113,36.002 	"/>
	<path fill="#231815" d="M16.32,23.313l1.393-2.383l-3.002-1.502L17.22,17.3l-0.021-0.098c-0.955,0.074-1.907,0.161-2.865,0.277
		c-0.019,0.003-0.035,0.011-0.058,0.017c-1.491-0.048-2.72,0.405-2.87,1.135l-1.256,6.727h7.1L16.32,23.313z"/>
	<path fill="#231815" d="M21.154,26.482H0.9c-0.236,0-0.428,0.195-0.428,0.432v13.947c0,0.234,0.192,0.428,0.428,0.428h20.253
		c0.243,0,0.432-0.189,0.432-0.428V26.914C21.586,26.678,21.39,26.482,21.154,26.482z M11.028,36.055
		c-1.195,0-2.163-0.971-2.163-2.166s0.967-2.166,2.163-2.166c1.197,0,2.164,0.971,2.164,2.166S12.225,36.055,11.028,36.055z"/>
	<path fill="#231815" d="M41.014,29.273l-8.289-10.468c-0.697-0.871-1.719-1.313-2.729-1.305c-0.025-0.005-0.049-0.019-0.074-0.021
		c-0.963-0.117-1.912-0.203-2.869-0.277l-0.023,0.1l2.512,2.125l-3.002,1.502l1.389,2.383l-3.82,8.439l-0.615-11.919l0.549-0.473
		l-0.729-2.674h-2.37l-0.73,2.674l0.548,0.475l-0.285,5.523h0.679c0.86,0,1.557,0.699,1.557,1.557v9.293h4.107
		c0.141,0,0.297,0.008,0.447,0.027h0.904c0.158,0.914,0.316,1.83,0.494,2.742l6.555-1.268l3.277-0.639l0.818-0.158l0.406-0.078
		l0.051-0.01l0.021-0.004c0.324-0.949,2.254-6.238,2.254-6.238L41.014,29.273z M27.848,30.777c-0.014-0.242-0.039-0.486-0.053-0.732
		l3.994-0.227c-0.008-0.268-0.018-0.539-0.031-0.807l0.805,1.145L27.848,30.777z"/>
	<polygon fill="#231815" points="22.652,40.178 25.848,37.627 22.652,37.627 	"/>
</g>
</svg>
