<?xml version="1.0" encoding="utf-8"?>
<!-- Generator: Adobe Illustrator 16.0.0, SVG Export Plug-In . SVG Version: 6.00 Build 0)  -->
<!DOCTYPE svg PUBLIC "-//W3C//DTD SVG 1.1//EN" "http://www.w3.org/Graphics/SVG/1.1/DTD/svg11.dtd">
<svg version="1.1" id="图层_1" xmlns="http://www.w3.org/2000/svg" xmlns:xlink="http://www.w3.org/1999/xlink" x="0px" y="0px"
	 width="42.52px" height="42.52px" viewBox="0 0 42.52 42.52" enable-background="new 0 0 42.52 42.52" xml:space="preserve">
<g>
	<g>
		<g>
			<path fill="#231815" d="M42.473,39.67l-7.805-6.965c1.475-1.87,2.357-4.224,2.357-6.783c0-5.707-4.371-10.383-9.936-10.918
				c-0.076-0.229-0.166-0.46-0.299-0.687l-0.189-0.333c0.434-0.617,0.678-1.275,0.678-1.965V8.098c0-0.532-0.148-1.072-0.443-1.606
				l-0.09-0.167c0.121-0.282,0.205-0.573,0.205-0.882c0-3.167-6.852-4.879-13.291-4.879c-6.441,0-13.286,1.712-13.286,4.879
				c0,0.31,0.082,0.601,0.204,0.882l-0.092,0.17c-0.294,0.531-0.44,1.071-0.44,1.604v3.921c0,0.69,0.242,1.348,0.676,1.965
				l-0.194,0.335c-0.32,0.555-0.482,1.12-0.482,1.678v3.92c0,0.673,0.228,1.319,0.643,1.921l-0.161,0.274
				c-0.32,0.557-0.482,1.121-0.482,1.676v3.925c0,3.483,5.979,6.213,13.614,6.213c1.563,0,3.05-0.123,4.437-0.336
				c-0.087-0.116-0.158-0.247-0.24-0.371c2.013,2.254,4.926,3.688,8.184,3.688c2.656,0,5.1-0.946,7.002-2.524l6.953,7.574
				L42.473,39.67z M21.387,21.231c2.674-2.655,6.984-2.641,9.633,0.026c2.658,2.67,2.639,6.989-0.027,9.637
				c-2.676,2.653-6.986,2.642-9.643-0.031C18.697,28.195,18.721,23.879,21.387,21.231z M13.661,2.024
				c7.329,0,11.835,1.993,11.835,3.417c0,1.43-4.506,3.423-11.835,3.423c-7.333,0-11.829-1.993-11.829-3.423
				C1.832,4.017,6.328,2.024,13.661,2.024z M1.505,8.755c2.183,1.85,7.249,2.812,12.156,2.812c4.91,0,9.972-0.961,12.16-2.812v3.263
				c0,2.249-4.993,4.757-12.16,4.757c-7.164,0-12.156-2.508-12.156-4.757V8.755z M1.505,16.23c2.234,2.044,6.834,3.352,12.156,3.352
				c1.268,0,2.464-0.096,3.622-0.241c-0.89,1.187-1.565,2.542-1.921,4.027c-0.097,0.409-0.173,0.821-0.226,1.241
				c-0.489,0.021-0.964,0.063-1.475,0.063c-7.164,0-12.156-2.507-12.156-4.753V16.23z M13.661,32.468
				c-7.164,0-12.156-2.504-12.156-4.754v-3.692c2.234,2.051,6.834,3.357,12.156,3.357c0.508,0,0.997-0.037,1.49-0.063
				c0.17,1.337,0.574,2.599,1.182,3.737c0.22,0.424,0.486,0.819,0.759,1.205C16.019,32.39,14.874,32.468,13.661,32.468z"/>
		</g>
	</g>
	<g>
		<g>
			<path fill="#231815" d="M31.293,25.608l0.484-1.448c-3.814-6.147-9.109-2.58-9.109-2.58
				C29.297,20.377,31.293,25.608,31.293,25.608z"/>
		</g>
	</g>
</g>
</svg>
