<?xml version="1.0" encoding="utf-8"?>
<!-- Generator: Adobe Illustrator 16.0.0, SVG Export Plug-In . SVG Version: 6.00 Build 0)  -->
<!DOCTYPE svg PUBLIC "-//W3C//DTD SVG 1.1//EN" "http://www.w3.org/Graphics/SVG/1.1/DTD/svg11.dtd">
<svg version="1.1" id="图层_1" xmlns="http://www.w3.org/2000/svg" xmlns:xlink="http://www.w3.org/1999/xlink" x="0px" y="0px"
	 width="42.52px" height="42.52px" viewBox="0 0 42.52 42.52" enable-background="new 0 0 42.52 42.52" xml:space="preserve">
<g>
	<path fill="#231815" d="M21.794,8.647c1.264-1.235,2.715-2.166,4.263-2.817L15.55,5.821l-3.014-3.806c0,0-4.214-0.004-7.553-0.007
		C1.646,2.003,0.162,2.543,0.156,6.712c-0.003,4.169-0.017,17.58-0.017,17.58l19.233,0.02C16.648,19.272,17.454,12.889,21.794,8.647
		z"/>
	<path fill="#231815" d="M39.207,10.525c-4.231-4.135-11.095-4.135-15.326,0c-4.232,4.134-4.232,10.839,0,14.975
		c4.231,4.136,11.095,4.136,15.326,0C43.439,21.364,43.438,14.66,39.207,10.525z M26.207,23.226c-2.948-2.878-2.948-7.548,0-10.429
		c2.946-2.88,7.726-2.88,10.673,0c2.948,2.881,2.948,7.551,0,10.429C33.933,26.107,29.153,26.107,26.207,23.226z"/>
	<path fill="#231815" d="M22.472,26.725c-0.861-0.84-2.255-0.84-3.118,0l-0.112,0.11l3.116,3.045l0.114-0.11
		C23.332,28.929,23.332,27.565,22.472,26.725z M9.006,36.836c-0.86,0.841-0.86,2.202,0,3.045c0.861,0.842,2.257,0.842,3.117,0
		l9.227-9.014l-3.118-3.047L9.006,36.836z"/>
</g>
</svg>
