<?xml version="1.0" encoding="utf-8"?>
<!-- Generator: Adobe Illustrator 16.0.0, SVG Export Plug-In . SVG Version: 6.00 Build 0)  -->
<!DOCTYPE svg PUBLIC "-//W3C//DTD SVG 1.1//EN" "http://www.w3.org/Graphics/SVG/1.1/DTD/svg11.dtd">
<svg version="1.1" id="图层_1" xmlns="http://www.w3.org/2000/svg" xmlns:xlink="http://www.w3.org/1999/xlink" x="0px" y="0px"
	 width="42.52px" height="42.52px" viewBox="0 0 42.52 42.52" enable-background="new 0 0 42.52 42.52" xml:space="preserve">
<g>
	<path fill="#231815" d="M31.364,8.9c1.381,1.051,3.548,0.517,4.847-1.182c1.296-1.704,1.224-3.934-0.153-4.982
		c-1.379-1.049-3.546-0.518-4.841,1.182C29.923,5.623,29.988,7.854,31.364,8.9z"/>
	<polygon fill="#231815" points="5.824,3.207 8.648,5.896 17.216,2.963 14.396,0.271 	"/>
	<polygon fill="#231815" points="26.656,12.817 21.765,14.492 18.292,11.182 17.805,20.795 26.401,17.851 	"/>
	<polygon fill="#231815" points="19.213,10.577 22.035,13.265 30.606,10.329 27.783,7.643 	"/>
	<polygon fill="#231815" points="30.006,3.971 21.765,0.176 18.731,2.842 26.976,6.629 	"/>
	<polygon fill="#231815" points="8.622,12.282 8.385,16.939 16.64,20.735 17.094,11.788 13.811,14.668 	"/>
	<polygon fill="#231815" points="16.661,10.737 8.413,6.948 5.381,9.609 13.624,13.403 	"/>
	<path fill="#231815" d="M36.387,12.776c0.056-0.602-1.475-1.853-1.475-1.853c-0.294-0.133-0.534-0.242-0.744-0.341l0.19,0.586
		l-1.097,0.524l0.06,1.34l-2.5,4.274l1.333-5.67l0.223-0.183l0.135-1.356l-0.69-0.206l-0.556,1.231l0.099,0.274l-1.546,5.125
		l0.116-4.454l0.757-1.11l-0.027-0.039l-2.057,0.705l-1.374,1.174v0.047l-0.255,5.035l-0.016,0.27
		c0.16-0.062,0.31-0.119,0.426-0.164c-0.204,0.539-0.413,1.086-0.629,1.64l-7.21,1.864c0.344,1.432,0.742,2.845,1.203,4.24
		l3.966-1.228c-0.049,0.104-0.088,0.205-0.132,0.31c-0.016,0.031,0.803,0.491,0.792,0.523c0.197,0.057,0.396,0.111,0.594,0.167
		c-0.708,2.099-1.404,4.141-2.217,6.662L21.922,41.4l4.164,0.943c0.87-2.923,1.633-8.063,2.862-11.12
		c0.41-1.137,0.792-2.2,1.122-3.13c0.687,4.61,1.513,9.336,2.545,13.856l4.203-0.743c-0.812-4.365-1.803-11.675-2.255-15.17
		C35.583,21.619,35.988,17.009,36.387,12.776z M27.394,17.986c-0.03,0.006-0.041,0.015-0.07,0.026l0.004-0.006l0.02-0.017
		l0.034-0.035l0.034-0.032C27.405,17.944,27.398,17.966,27.394,17.986z"/>
</g>
</svg>
