<?xml version="1.0" encoding="utf-8"?>
<!-- Generator: Adobe Illustrator 16.0.0, SVG Export Plug-In . SVG Version: 6.00 Build 0)  -->
<!DOCTYPE svg PUBLIC "-//W3C//DTD SVG 1.1//EN" "http://www.w3.org/Graphics/SVG/1.1/DTD/svg11.dtd">
<svg version="1.1" id="图层_1" xmlns="http://www.w3.org/2000/svg" xmlns:xlink="http://www.w3.org/1999/xlink" x="0px" y="0px"
	 width="42.52px" height="42.52px" viewBox="0 0 42.52 42.52" enable-background="new 0 0 42.52 42.52" xml:space="preserve">
<g>
	<g>
		<path fill="#231815" d="M24.676,7.945h-12.8c-0.331,0-0.6,0.26-0.6,0.585c0,0.326,0.269,0.585,0.6,0.585h12.8
			c0.331,0,0.6-0.259,0.6-0.585C25.275,8.205,25.007,7.945,24.676,7.945z M11.876,5.86h12.8c0.331,0,0.6-0.264,0.6-0.585
			c0-0.325-0.269-0.589-0.6-0.589h-12.8c-0.331,0-0.6,0.264-0.6,0.589C11.276,5.596,11.545,5.86,11.876,5.86z M11.276,11.786
			c0,0.326,0.269,0.585,0.6,0.585h9.163c1.023-0.546,2.107-0.937,3.22-1.17H11.876C11.545,11.202,11.276,11.461,11.276,11.786z
			 M11.276,15.042c0,0.325,0.269,0.588,0.6,0.588h5.343c0.31-0.407,0.643-0.8,1.012-1.173h-6.355
			C11.545,14.458,11.276,14.718,11.276,15.042z M11.276,18.299c0,0.325,0.269,0.588,0.6,0.588h3.592
			c0.137-0.399,0.297-0.789,0.477-1.173h-4.068C11.545,17.714,11.276,17.977,11.276,18.299z M11.276,21.559
			c0,0.321,0.269,0.584,0.6,0.584h2.984c0.015-0.392,0.054-0.782,0.109-1.172h-3.093C11.545,20.97,11.276,21.233,11.276,21.559z"/>
	</g>
	<g>
		<g>
			<path fill="#231815" d="M33.454,16.024c-3.732-3.644-9.777-3.644-13.506,0c-3.732,3.646-3.732,9.555,0,13.199
				c3.729,3.643,9.773,3.643,13.506,0C37.185,25.579,37.185,19.667,33.454,16.024z M21.995,27.219c-2.597-2.537-2.597-6.653,0-9.191
				c2.597-2.539,6.811-2.539,9.408,0c2.598,2.538,2.598,6.654,0,9.191C28.806,29.758,24.592,29.758,21.995,27.219z"/>
		</g>
		<g>
			<path fill="#231815" d="M18.705,30.3c-0.76-0.738-1.989-0.738-2.749,0l-0.101,0.103l2.749,2.684l0.101-0.103
				C19.464,32.246,19.464,31.046,18.705,30.3z M6.837,39.213c-0.759,0.742-0.759,1.944,0,2.683c0.757,0.742,1.989,0.742,2.749,0
				l8.129-7.944l-2.746-2.685L6.837,39.213z"/>
		</g>
	</g>
	<g>
		<path fill="#231815" d="M17.814,24.155h-7.511c-0.704,0-1.274-0.555-1.274-1.241V3.522c0-0.685,0.57-1.241,1.274-1.244h15.971
			c0.703,0.003,1.274,0.559,1.274,1.244V13.66c0.784,0.062,1.541,0.224,2.259,0.467V3.522c0-1.906-1.584-3.455-3.533-3.455H10.304
			C8.351,0.071,6.772,1.616,6.77,3.522v19.392c0.003,1.903,1.582,3.451,3.534,3.451h8.241
			C18.208,25.674,17.959,24.933,17.814,24.155z"/>
	</g>
</g>
</svg>
