<?xml version="1.0" encoding="utf-8"?>
<!-- Generator: Adobe Illustrator 16.0.0, SVG Export Plug-In . SVG Version: 6.00 Build 0)  -->
<!DOCTYPE svg PUBLIC "-//W3C//DTD SVG 1.1//EN" "http://www.w3.org/Graphics/SVG/1.1/DTD/svg11.dtd">
<svg version="1.1" id="图层_1" xmlns="http://www.w3.org/2000/svg" xmlns:xlink="http://www.w3.org/1999/xlink" x="0px" y="0px"
	 width="42.52px" height="42.52px" viewBox="0 0 42.52 42.52" enable-background="new 0 0 42.52 42.52" xml:space="preserve">
<g>
	<path fill="#231815" d="M13.229,10.771c2.254-2.063,5.237-3.333,8.526-3.333c3.972,0,7.499,1.858,9.819,4.733l-1.949,1.278
		c-1.893-2.241-4.711-3.684-7.87-3.684c-2.43,0-4.661,0.852-6.423,2.263c0.937,0.826,1.695,1.93,2.196,3.208
		c1.135-0.989,2.608-1.594,4.227-1.594c1.806,0,3.435,0.754,4.601,1.956l-2.203,1.45c-0.658-0.53-1.486-0.853-2.397-0.853
		c-2.146,0-3.888,1.742-3.888,3.887c0,2.143,1.742,3.883,3.888,3.883c2.151,0,3.886-1.74,3.886-3.883
		c0-0.409-0.078-0.796-0.199-1.167l-3.086,2.031l-0.445-0.679l12.285-8.073l2.924,1.34l4.873-3.202l-2.928-1.344l0.869-0.569
		l-0.803-1.219L38.264,7.77l-0.078-3.223l-4.867,3.207l0.074,3.22l-1.023,0.671l-0.082-3.68l0.553-0.366
		c-2.951-2.627-6.826-4.242-11.085-4.242c-6.331,0-11.856,3.544-14.695,8.748c1.166-1.054,2.61-1.691,4.175-1.691
		C11.93,10.414,12.597,10.54,13.229,10.771z"/>
	<path fill="#231815" d="M32.078,20.083c0-1.716-0.43-3.333-1.176-4.76l-3.264,2.147c0.352,0.803,0.559,1.688,0.559,2.613
		c0,3.479-2.775,6.311-6.228,6.428c0.855,0.873,1.388,2.043,1.49,3.389l0.021,0.342C28.348,29.418,32.078,25.18,32.078,20.083z"/>
	<path fill="#231815" d="M36.752,14.669l-2.809-1.342l-1.084,0.709c0.98,1.801,1.541,3.86,1.541,6.047
		c0,6.327-4.682,11.567-10.76,12.485l0.277,4.092c8.203-1.064,14.561-8.09,14.561-16.577c0-2.057-0.393-4.021-1.076-5.846
		L36.752,14.669z"/>
	<path fill="#231815" d="M11.235,25.426c2.843,0,5.145-2.957,5.145-6.6c0-3.64-2.302-6.593-5.145-6.593S6.09,15.186,6.09,18.826
		C6.09,22.469,8.392,25.426,11.235,25.426z"/>
	<path fill="#231815" d="M22.002,35.297l-0.36-5.264c-0.146-1.938-1.515-3.049-3.057-3.291c-0.051-0.008-1.651-0.25-2.627-0.359
		l0.001-0.01c-0.151-0.014-0.289-0.027-0.4-0.033l-0.021,0.068l2.208,1.807l-2.638,1.283l1.219,2.027l-3.309,7.082
		c-0.018,0.008-0.037,0.014-0.055,0.021l-0.535-9.771l0.487-0.396l-0.646-1.91h-2.079l-0.639,1.91l0.485,0.395L9.495,38.77H9.494
		l0.001-0.059l-3.357-7.186l1.225-2.027l-2.639-1.283l2.207-1.807L6.91,26.34c-0.122,0.006-0.267,0.02-0.418,0.035l0.001,0.008
		C5.572,26.49,4.18,26.699,4.098,26.75c-0.015,0-0.028-0.012-0.043-0.008c-1.543,0.242-2.92,1.354-3.06,3.291L0.63,35.412
		L0.527,36.91c3.318,1.447,6.965,2.252,10.798,2.252c3.828,0,7.473-0.803,10.786-2.244l-0.063-0.896L22.002,35.297z M10.97,39.004
		c0.049,0,0.093,0.002,0.142,0.002c-0.02,0-0.041,0.006-0.061,0.006C11.023,39.012,10.996,39.004,10.97,39.004z"/>
</g>
</svg>
