<?xml version="1.0" encoding="utf-8"?>
<!-- Generator: Adobe Illustrator 16.0.0, SVG Export Plug-In . SVG Version: 6.00 Build 0)  -->
<!DOCTYPE svg PUBLIC "-//W3C//DTD SVG 1.1//EN" "http://www.w3.org/Graphics/SVG/1.1/DTD/svg11.dtd">
<svg version="1.1" id="图层_1" xmlns="http://www.w3.org/2000/svg" xmlns:xlink="http://www.w3.org/1999/xlink" x="0px" y="0px"
	 width="42.52px" height="42.52px" viewBox="0 0 42.52 42.52" enable-background="new 0 0 42.52 42.52" xml:space="preserve">
<g>
	<path fill="#231815" d="M13.582,10.183c1.407,0.827,3.371,0.089,4.392-1.646c1.021-1.737,0.708-3.811-0.695-4.638
		c-1.405-0.823-3.372-0.093-4.393,1.645C11.87,7.28,12.178,9.36,13.582,10.183z"/>
	<path fill="#231815" d="M12.566,21.634l0.041,0.028l0.081,0.058l0.658,0.486l1.309,0.969l2.624,1.935
		c0.82-1.11,1.609-2.248,2.357-3.409L16.9,19.928l-1.369-0.883l-0.175-0.113l-1.024-6.186c0-0.006-0.004-0.009-0.005-0.015
		l-0.835,0.236l-0.16,1.254l-2.809,3.364l2.424-5.489l0.243-0.148l0.39-1.303l-0.607-0.292l-0.768,1.125l0.038,0.283l-2.745,5.344
		l0.845-4.307l0.874-0.913l-0.447-1.049l1.107-0.657l0.041-0.134c-0.687-0.368-1.397-0.662-2.5-1.004
		C9.138,8.955,7.73,8.845,7.233,9.173l-3.348,1.082l-1.758,0.566l-0.874,0.282l-0.439,0.14l-0.658,3.361l0.001,0.004l0.012,0.007
		l0.048,0.036l0.181,0.144l2.749,2.199c-0.866,1.713-1.724,3.427-2.57,5.153c-0.013,0.027-0.015,0.056-0.029,0.084
		c0.581,0.276,1.159,0.552,1.738,0.828C2.09,28.635,1.67,33.994,1.077,39.605l3.987,0.488c0.658-3.687,1.214-9.841,1.501-13.582
		c0.985,1.86,1.997,3.742,1.884,4.777l0.866,8.938l4.009-0.28c-0.33-3.372-0.023-6.792-1.164-11.967
		c-0.859-1.854-1.63-3.493-2.152-4.599c0.533-1.577,1.058-3.046,1.602-4.458l0.075,0.752l0.042,0.405l0.023,0.203l0.002,0.025v0.005
		v0.007c1.597,2.604,0.444,0.721,0.799,1.306L12.566,21.634z"/>
	<path fill="#231815" d="M29.679,8.437c1.351,0.458,2.901-0.522,3.463-2.19c0.567-1.663-0.07-3.384-1.416-3.841
		c-1.349-0.457-2.899,0.523-3.461,2.192C27.698,6.26,28.332,7.979,29.679,8.437z"/>
	<path fill="#231815" d="M42.195,29.966c-0.346-1.013-1.309-1.628-2.096-1.87c-0.355-0.104-0.674-0.156-0.981-0.156
		c-0.879,0-1.413,0.424-1.76,0.711c-0.016,0.01-0.028,0.021-0.042,0.032c-0.001-0.929-0.086-3.126-0.148-4.644l3.105-6.52
		l0.027-0.054l0.012-0.023l0.005-0.012l0.006-0.006V17.42l-0.237-1.826l-1.176-1.258l-1.254-1.343l-2.505-2.682
		c-0.139-0.146-0.837-0.858-1.105-0.875c-0.513-0.034-1.017-0.056-1.523-0.066l1.129,0.938l-1.293,0.721l0.656,1.017l-1.54,3.792
		l-0.479-5.115l0.232-0.212L30.86,9.367l-1.042,0.039l-0.272,1.17l0.248,0.194l-0.054,5.115l-1.824-3.633l0.563-1.072l-1.344-0.61
		l1.036-1.077c-0.496,0.045-0.994,0.089-1.497,0.152c-0.275,0.039-0.823,0.792-0.911,0.922l-3.552,5.312l-0.445,0.662
		c0,0-0.184,1.016-0.327,1.668l-0.043,1.597l-0.057,1.961c-0.468,0.011-0.771,0.018-0.779,0.018l-0.914,0.025l-0.005,0.916
		c0,0.145-0.062,1.125-0.108,1.994c-0.104,1.74-0.175,3.001-0.175,3.365c0,0.037,0,0.081,0.004,0.122
		c-0.319-0.283-0.772-0.594-1.619-0.704c-1.705-0.227-3.066,0.729-3.372,2.301c-0.242,1.226-0.05,2.375,0.52,3.158
		c0.442,0.607,1.082,0.973,1.847,1.063c1.028,0.114,2.048-0.271,2.711-1.043c0.04,1.164,0.047,3.93,0.047,5.395v0.942h6.968
		c0.077,0.005,0.237,0.013,0.438,0.013c0.396,0,1.604,0,2.054-0.867c0.14-0.272,0.302-0.838-0.203-1.553
		c-0.184-0.257-0.355-0.463-0.508-0.651c-0.271-0.335-0.368-0.463-0.382-0.588c-0.056-0.525,0.249-1.378,0.73-1.438
		c0.201-0.025,0.382-0.041,0.548-0.041c0.478,0,0.753,0.111,1.136,0.447c0.157,0.136,0.289,0.673,0.232,0.895
		c-0.757,0.51-1.44,1.513-1.258,2.446c0.123,0.653,0.643,1.119,1.39,1.249c0.623,0.11,1.951,0.168,3.948,0.168
		c0.899,0,1.588-0.011,1.588-0.011l0.911-0.018l0.081-5.278v-0.051l-0.001-0.053c-0.014-0.182-0.014-0.396,0-0.57
		c0.119,0.064,0.23,0.131,0.341,0.193c0.508,0.298,1.039,0.609,1.73,0.609c0.431,0,0.863-0.124,1.324-0.378
		C42.285,32.893,42.625,31.209,42.195,29.966z M35.343,15.053l1.19,1.398l0.369,0.439l-1.275,2.38
		c-0.112-1.437-0.228-2.875-0.361-4.312L35.343,15.053z M24.841,19.806l-0.043-1.597c-0.034,0.047-0.022-0.108-0.01-0.267
		l0.191-0.318l1.08-1.823c0.026,1.82,0.075,3.642,0.145,5.463c0.003,0.021,0.014,0.04,0.015,0.063
		c2.813-0.079,5.624-0.159,8.434-0.24l-0.281,0.518l-2.787,0.048c-0.484,0.015-1.656,0.147-2.102,0.967
		c-0.232,0.44-0.199,0.97,0.096,1.448c0.197,0.316,0.38,0.564,0.533,0.761c0.309,0.405,0.329,0.452,0.315,0.653
		c-0.057,0.838-0.204,0.972-0.718,1.033c-0.109,0.012-0.227,0.016-0.347,0.016c-0.933,0-1.486-0.311-1.504-0.41
		c-0.095-0.684,0.006-0.827,0.282-1.209c0.121-0.172,0.255-0.363,0.388-0.607l0.056-0.095c0.202-0.367,0.544-0.977,0.224-1.629
		c-0.215-0.433-0.636-0.696-1.254-0.785c-0.205-0.03-0.671-0.067-2.321-0.067c-0.11,0-0.224,0-0.338,0L24.841,19.806z
		 M39.655,32.193c-0.172,0.096-0.312,0.144-0.415,0.144c-0.182,0-0.447-0.156-0.78-0.351c-0.25-0.146-0.521-0.307-0.84-0.456
		c-0.674-0.317-1.359-0.197-1.799,0.29c-0.593,0.644-0.576,1.777-0.534,2.291l-0.052,3.4c-0.199,0.002-0.414,0.002-0.646,0.002
		c-1.509,0-2.678-0.034-3.343-0.104c0.088-0.118,0.205-0.24,0.337-0.322c0.471-0.293,0.758-0.812,0.813-1.463
		c0.073-0.895-0.287-1.878-0.874-2.396c-0.73-0.642-1.443-0.92-2.382-0.92c-0.238,0-0.492,0.018-0.778,0.059
		c-1.766,0.22-2.512,2.17-2.374,3.496c0.07,0.698,0.44,1.147,0.794,1.585c-0.11-0.003-0.186-0.012-0.193-0.012l-5.21-0.003
		c-0.003-1.476-0.019-4.235-0.072-4.979c-0.079-1.099-0.849-1.592-1.581-1.592c-0.607,0-1.238,0.322-1.69,0.867
		c-0.259,0.319-0.667,0.468-1.083,0.421c-0.236-0.027-0.411-0.122-0.541-0.302c-0.251-0.345-0.329-0.996-0.193-1.685
		c0.039-0.2,0.157-0.813,1.027-0.813c0.085,0,0.166,0.007,0.251,0.018c0.408,0.055,0.501,0.14,0.747,0.368
		c0.234,0.222,0.555,0.521,1.122,0.763c0.244,0.103,0.471,0.158,0.69,0.158c0.36,0.023,0.69-0.142,0.924-0.406
		c0.447-0.505,0.366-1.213,0.298-1.785c-0.019-0.142-0.039-0.273-0.039-0.383c0-0.337,0.099-2.025,0.171-3.258
		c0.03-0.485,0.049-0.873,0.067-1.176c0.941-0.018,2.479-0.045,3.753-0.045c0.725,0,1.2,0.011,1.508,0.021
		c-0.046,0.063-0.09,0.124-0.132,0.186c-0.448,0.626-0.803,1.251-0.613,2.571c0.214,1.502,1.948,2.034,3.367,2.034
		c0.198,0,0.391-0.015,0.565-0.035c2.202-0.256,2.334-2.148,2.379-2.769c0.063-0.927-0.34-1.459-0.695-1.928
		c-0.034-0.044-0.068-0.093-0.107-0.141c0.045-0.005,0.087-0.008,0.126-0.011l3.628-0.064c0.064,1.461,0.174,4.25,0.174,5.245
		c0,0.613,0.024,0.937,0.096,1.202c0.16,0.576,0.612,0.932,1.179,0.932c0.238,0,0.461-0.062,0.691-0.124l0.141-0.041
		c0.447-0.121,0.754-0.369,1-0.568c0.269-0.216,0.375-0.29,0.58-0.29c0.122,0,0.271,0.022,0.439,0.077
		c0.339,0.104,0.759,0.373,0.856,0.671C40.495,30.812,40.68,31.626,39.655,32.193z"/>
</g>
</svg>
