<?xml version="1.0" encoding="utf-8"?>
<!-- Generator: Adobe Illustrator 16.0.0, SVG Export Plug-In . SVG Version: 6.00 Build 0)  -->
<!DOCTYPE svg PUBLIC "-//W3C//DTD SVG 1.1//EN" "http://www.w3.org/Graphics/SVG/1.1/DTD/svg11.dtd">
<svg version="1.1" id="图层_1" xmlns="http://www.w3.org/2000/svg" xmlns:xlink="http://www.w3.org/1999/xlink" x="0px" y="0px"
	 width="42.52px" height="42.52px" viewBox="0 0 42.52 42.52" enable-background="new 0 0 42.52 42.52" xml:space="preserve">
<g>
	<g>
		<path fill="#231815" d="M3.165,40.38h10.097V2.14H3.165V40.38z M5.324,7.356h5.654v12.501H5.324V7.356z M8.211,30.801
			c2.024,0,3.666,1.645,3.666,3.669s-1.642,3.666-3.666,3.666c-2.024,0-3.667-1.642-3.667-3.666S6.187,30.801,8.211,30.801z"/>
	</g>
	<g>
		<circle fill="#231815" cx="8.211" cy="34.505" r="2.991"/>
	</g>
	<g>
		<rect x="6.258" y="8.074" fill="#231815" width="3.876" height="1.623"/>
	</g>
	<g>
		<rect x="6.258" y="17.001" fill="#231815" width="3.876" height="1.624"/>
	</g>
	<g>
		<rect x="6.258" y="12.401" fill="#231815" width="3.876" height="1.626"/>
	</g>
	<g>
		<path fill="#231815" d="M16.448,40.38h10.101V2.14H16.448V40.38z M18.613,7.356h5.654v12.501h-5.654V7.356z M21.501,30.801
			c2.022,0,3.665,1.645,3.665,3.669s-1.643,3.666-3.665,3.666c-2.027,0-3.669-1.642-3.669-3.666S19.474,30.801,21.501,30.801z"/>
	</g>
	<g>
		<path fill="#231815" d="M21.501,37.496c1.647,0,2.989-1.34,2.989-2.991s-1.342-2.99-2.989-2.99c-1.652,0-2.993,1.339-2.993,2.99
			S19.849,37.496,21.501,37.496z"/>
	</g>
	<g>
		<rect x="19.544" y="8.074" fill="#231815" width="3.88" height="1.623"/>
	</g>
	<g>
		<rect x="19.544" y="17.001" fill="#231815" width="3.88" height="1.624"/>
	</g>
	<g>
		<rect x="19.544" y="12.401" fill="#231815" width="3.88" height="1.626"/>
	</g>
	<g>
		<path fill="#231815" d="M29.253,2.14v38.24h10.102V2.14H29.253z M31.418,7.356h5.651v12.501h-5.651V7.356z M34.306,38.136
			c-2.026,0-3.669-1.642-3.669-3.666s1.643-3.669,3.669-3.669c2.022,0,3.666,1.645,3.666,3.669S36.328,38.136,34.306,38.136z"/>
	</g>
	<g>
		<path fill="#231815" d="M34.306,31.515c-1.65,0-2.993,1.339-2.993,2.99s1.343,2.991,2.993,2.991c1.648,0,2.987-1.34,2.987-2.991
			S35.954,31.515,34.306,31.515z"/>
	</g>
	<g>
		<rect x="32.348" y="8.074" fill="#231815" width="3.881" height="1.623"/>
	</g>
	<g>
		<rect x="32.348" y="17.001" fill="#231815" width="3.881" height="1.624"/>
	</g>
	<g>
		<rect x="32.348" y="12.401" fill="#231815" width="3.881" height="1.626"/>
	</g>
</g>
</svg>
