<?xml version="1.0" encoding="utf-8"?>
<!-- Generator: Adobe Illustrator 16.0.0, SVG Export Plug-In . SVG Version: 6.00 Build 0)  -->
<!DOCTYPE svg PUBLIC "-//W3C//DTD SVG 1.1//EN" "http://www.w3.org/Graphics/SVG/1.1/DTD/svg11.dtd">
<svg version="1.1" id="图层_1" xmlns="http://www.w3.org/2000/svg" xmlns:xlink="http://www.w3.org/1999/xlink" x="0px" y="0px"
	 width="42.52px" height="42.52px" viewBox="0 0 42.52 42.52" enable-background="new 0 0 42.52 42.52" xml:space="preserve">
<g>
	<g id="XMLID_71_">
		<g>
			<path fill="#231815" d="M37.387,24.246c-1.459-2.373-4.565-3.117-6.94-1.658c-2.369,1.458-3.116,4.565-1.655,6.939
				c1.458,2.377,4.563,3.115,6.938,1.658C38.103,29.727,38.845,26.62,37.387,24.246z M35.899,33.127
				c-3.117,1.414-6.87,0.32-8.709-2.672c-1.995-3.243-0.983-7.489,2.264-9.485c3.246-1.993,7.49-0.977,9.482,2.266
				c1.84,2.995,1.118,6.837-1.552,8.979l0.322,0.526l0.08-0.05c0.42-0.257,0.904-0.233,1.079,0.052l2.219,3.613
				c0.18,0.29-0.02,0.73-0.439,0.987L39,38.355c-0.42,0.26-0.903,0.233-1.077-0.051L35.7,34.689
				c-0.175-0.289,0.023-0.726,0.44-0.985l0.082-0.052L35.899,33.127z"/>
			<path fill="#231815" d="M40.749,39.357c-0.646,0.397-1.495,0.198-1.895-0.451l2.347-1.442
				C41.6,38.111,41.398,38.961,40.749,39.357z"/>
		</g>
	</g>
	<g id="XMLID_72_">
		<g>
			<polygon fill="#231815" points="38.818,5.583 35.094,11.2 25.426,8.815 26.64,6.337 			"/>
			<path fill="#231815" d="M13.455,23.581h1.018v2.494h2.263v-2.494h1.014l-2.148-2.637L13.455,23.581z M13.129,23.581l-2.148-2.637
				l-2.149,2.637H9.85v2.494h2.262v-2.494H13.129z M34.087,36.048v1.237H6.599v-24.77h27.488v5.651
				c-0.318-0.034-0.643-0.052-0.969-0.052c-4.965,0-8.991,4.025-8.991,8.992s4.026,8.994,8.991,8.994
				C33.444,36.101,33.769,36.081,34.087,36.048z M17.75,30.146v-0.781H8.832v0.781H17.75z M17.75,28.066v-0.782H8.832v0.782H17.75z"
				/>
			<polygon fill="#231815" points="34.087,11.727 23.404,11.727 23.404,10.971 27.394,10.971 23.835,9.57 24.033,8.871 			"/>
			<polygon fill="#231815" points="20.343,9.57 16.849,9.57 13.292,10.971 17.279,10.971 23.404,10.971 23.404,11.727 
				20.343,11.727 6.599,11.727 16.849,8.815 18.142,8.815 22.541,8.815 23.835,8.815 24.033,8.871 23.835,9.57 			"/>
			<polygon fill="#231815" points="13.292,6.337 14.505,8.815 4.838,11.2 1.114,5.583 			"/>
		</g>
	</g>
</g>
</svg>
