<?xml version="1.0" encoding="utf-8"?>
<!-- Generator: Adobe Illustrator 16.0.0, SVG Export Plug-In . SVG Version: 6.00 Build 0)  -->
<!DOCTYPE svg PUBLIC "-//W3C//DTD SVG 1.1//EN" "http://www.w3.org/Graphics/SVG/1.1/DTD/svg11.dtd">
<svg version="1.1" id="图层_1" xmlns="http://www.w3.org/2000/svg" xmlns:xlink="http://www.w3.org/1999/xlink" x="0px" y="0px"
	 width="42.52px" height="42.52px" viewBox="0 0 42.52 42.52" enable-background="new 0 0 42.52 42.52" xml:space="preserve">
<g>
	<polygon fill="#231815" points="38.389,13.771 34.723,10.104 28.952,15.433 28.952,35.01 39.719,35.01 39.719,8.814 	"/>
	<path fill="#231815" d="M19.177,20.533l-3.299-2.124V35.01h10.77V17.562l-2.78,2.561c-0.708,0.659-1.642,1.021-2.604,1.021
		C20.521,21.143,19.807,20.933,19.177,20.533z"/>
	<polygon fill="#231815" points="13.569,16.926 10.847,15.174 2.801,22.176 2.801,35.01 13.569,35.01 	"/>
	<rect x="2.801" y="37.679" fill="#231815" width="36.918" height="3.845"/>
	<path fill="#231815" d="M5.354,17.303l5.287-4.625l9.788,6.3c0.254,0.162,0.544,0.244,0.834,0.244c0.373,0,0.746-0.139,1.042-0.408
		L34.788,7.289l2.407,2.406l2.331-8.698l-8.697,2.332l1.782,1.784l-11.52,10.634l-9.765-6.282C10.748,9.1,9.998,9.15,9.48,9.602
		l-6.154,5.386c-0.637,0.558-0.704,1.53-0.143,2.17C3.741,17.798,4.712,17.859,5.354,17.303z"/>
</g>
</svg>
