<?xml version="1.0" encoding="utf-8"?>
<!-- Generator: Adobe Illustrator 16.0.0, SVG Export Plug-In . SVG Version: 6.00 Build 0)  -->
<!DOCTYPE svg PUBLIC "-//W3C//DTD SVG 1.1//EN" "http://www.w3.org/Graphics/SVG/1.1/DTD/svg11.dtd">
<svg version="1.1" id="图层_1" xmlns="http://www.w3.org/2000/svg" xmlns:xlink="http://www.w3.org/1999/xlink" x="0px" y="0px"
	 width="42.52px" height="42.52px" viewBox="0 0 42.52 42.52" enable-background="new 0 0 42.52 42.52" xml:space="preserve">
<g>
	<path fill="#231815" d="M28.705,22.267c3.215,0,5.824-2.607,5.824-5.821c0-3.218-2.609-5.826-5.824-5.826
		c-3.219,0-5.825,2.607-5.825,5.826C22.88,19.66,25.486,22.267,28.705,22.267z"/>
	<path fill="#231815" d="M28.705,24.032c-4.555,0-8.25,3.691-8.25,8.248v7.081h16.496V32.28
		C36.951,27.724,33.261,24.032,28.705,24.032z"/>
	<path fill="#231815" d="M37.691,26.035c5.809-5.169,6.329-14.065,1.164-19.876c-5.166-5.809-14.064-6.331-19.875-1.163
		c-5.563,4.949-6.261,13.308-1.776,19.113l-3.424,3.041l-1.299-1.459L0.107,36.695l3.897,4.387l12.374-11.009l-1.3-1.462
		l3.424-3.045C23.741,30.7,32.128,30.98,37.691,26.035z M19.87,5.996c5.249-4.668,13.316-4.194,17.983,1.056
		c4.666,5.247,4.196,13.313-1.051,17.982c-5.251,4.669-13.316,4.193-17.985-1.054C14.15,18.731,14.621,10.665,19.87,5.996z"/>
</g>
</svg>
