<?xml version="1.0" encoding="utf-8"?>
<!-- Generator: Adobe Illustrator 16.0.0, SVG Export Plug-In . SVG Version: 6.00 Build 0)  -->
<!DOCTYPE svg PUBLIC "-//W3C//DTD SVG 1.1//EN" "http://www.w3.org/Graphics/SVG/1.1/DTD/svg11.dtd">
<svg version="1.1" id="图层_1" xmlns="http://www.w3.org/2000/svg" xmlns:xlink="http://www.w3.org/1999/xlink" x="0px" y="0px"
	 width="42.52px" height="42.52px" viewBox="0 0 42.52 42.52" enable-background="new 0 0 42.52 42.52" xml:space="preserve">
<g>
	<path fill="#231815" d="M8.319,24.838c2.616,0,4.739-2.12,4.739-4.738s-2.123-4.739-4.739-4.739c-2.62,0-4.742,2.121-4.742,4.739
		S5.699,24.838,8.319,24.838z"/>
	<path fill="#231815" d="M8.319,26.275c-3.707,0-6.715,3.004-6.715,6.713v5.76h13.424v-5.76
		C15.028,29.279,12.026,26.275,8.319,26.275z"/>
	<path fill="#231815" d="M34.203,24.838c2.619,0,4.742-2.12,4.742-4.738s-2.123-4.739-4.742-4.739c-2.615,0-4.738,2.121-4.738,4.739
		S31.588,24.838,34.203,24.838z"/>
	<path fill="#231815" d="M34.203,26.275c-3.707,0-6.715,3.004-6.715,6.713v5.76h13.428v-5.76
		C40.916,29.279,37.91,26.275,34.203,26.275z"/>
	<path fill="#231815" d="M21.262,13.25c2.615,0,4.738-2.123,4.738-4.737c0-2.618-2.123-4.741-4.738-4.741
		c-2.619,0-4.739,2.123-4.739,4.741C16.523,11.127,18.643,13.25,21.262,13.25z"/>
	<path fill="#231815" d="M27.973,21.399c0-3.709-3.002-6.714-6.71-6.714c-3.707,0-6.714,3.005-6.714,6.714v5.762h13.424V21.399z"/>
</g>
</svg>
