<?xml version="1.0" encoding="utf-8"?>
<!-- Generator: Adobe Illustrator 16.0.0, SVG Export Plug-In . SVG Version: 6.00 Build 0)  -->
<!DOCTYPE svg PUBLIC "-//W3C//DTD SVG 1.1//EN" "http://www.w3.org/Graphics/SVG/1.1/DTD/svg11.dtd">
<svg version="1.1" id="图层_1" xmlns="http://www.w3.org/2000/svg" xmlns:xlink="http://www.w3.org/1999/xlink" x="0px" y="0px"
	 width="42.52px" height="42.52px" viewBox="0 0 42.52 42.52" enable-background="new 0 0 42.52 42.52" xml:space="preserve">
<g>
	<g>
		<path fill="#231815" d="M17.083,35.004c-1.673-0.802-3.469-1.304-5.291-1.519c0.063-0.436,0.121-0.867,0.183-1.299
			c0.406-0.26,0.697-0.644,0.725-0.963c0.046-0.4,0.094-0.801,0.141-1.208c0.054,0.061,0.128,0.104,0.215,0.112
			c0.195,0.019,0.366-0.12,0.389-0.313l0.191-1.856c0.019-0.19-0.121-0.364-0.314-0.384c-0.072-0.011-0.144,0.009-0.203,0.04
			c0.041-0.354,0.081-0.704,0.126-1.058c0.032-0.487,0.268-1.774-0.664-2.609c-1.347-1.322-4.315-1.322-5.665,0
			c-0.932,0.835-0.692,2.122-0.66,2.609c0.043,0.354,0.083,0.704,0.124,1.058c-0.059-0.031-0.132-0.051-0.203-0.04
			c-0.193,0.02-0.333,0.193-0.314,0.384l0.193,1.856c0.021,0.192,0.19,0.331,0.386,0.313c0.085-0.008,0.163-0.052,0.219-0.112
			c0.045,0.407,0.092,0.808,0.138,1.208c0.029,0.319,0.318,0.701,0.727,0.963c0.061,0.432,0.12,0.863,0.181,1.299
			C5.879,33.7,4.09,34.202,2.413,35.004c-0.54,0.285-0.917,1.014-0.861,1.583c0.063,0.654,0.129,1.304,0.197,1.957
			c0.057,0.566,0.544,1.129,1.085,1.237c4.583,0.737,9.242,0.737,13.829,0c0.541-0.108,1.024-0.671,1.087-1.237
			c0.063-0.653,0.13-1.303,0.193-1.957C18,36.018,17.62,35.287,17.083,35.004z"/>
		<path fill="#231815" d="M40.104,35.004c-1.673-0.802-3.466-1.304-5.288-1.519c0.059-0.436,0.119-0.867,0.185-1.299
			c0.405-0.26,0.694-0.644,0.723-0.963c0.046-0.4,0.097-0.801,0.139-1.208c0.059,0.061,0.131,0.104,0.218,0.112
			c0.195,0.019,0.366-0.12,0.385-0.313l0.196-1.856c0.017-0.19-0.121-0.364-0.315-0.384c-0.072-0.011-0.144,0.009-0.204,0.04
			c0.041-0.354,0.085-0.704,0.125-1.058c0.031-0.487,0.273-1.774-0.657-2.609c-1.354-1.322-4.322-1.322-5.669,0
			c-0.934,0.835-0.694,2.122-0.661,2.609c0.042,0.354,0.079,0.704,0.125,1.058c-0.062-0.031-0.132-0.051-0.207-0.04
			c-0.192,0.02-0.331,0.193-0.312,0.384l0.194,1.856c0.017,0.192,0.192,0.331,0.382,0.313c0.088-0.008,0.164-0.052,0.217-0.112
			c0.048,0.407,0.096,0.808,0.142,1.208c0.03,0.319,0.32,0.701,0.727,0.963c0.06,0.432,0.12,0.863,0.183,1.299
			c-1.824,0.215-3.618,0.717-5.292,1.519c-0.538,0.285-0.917,1.014-0.862,1.583c0.065,0.654,0.13,1.304,0.197,1.957
			c0.058,0.566,0.546,1.129,1.086,1.237c4.586,0.737,9.245,0.737,13.828,0c0.541-0.108,1.026-0.671,1.087-1.237
			c0.065-0.653,0.131-1.303,0.193-1.957C41.025,36.018,40.647,35.287,40.104,35.004z"/>
	</g>
	<path fill="#231815" d="M28.595,14.23c-1.676-0.797-3.467-1.298-5.291-1.519c0.062-0.429,0.119-0.866,0.183-1.301
		c0.408-0.258,0.697-0.638,0.725-0.957c0.047-0.405,0.095-0.806,0.142-1.206c0.056,0.059,0.131,0.099,0.218,0.109
		c0.192,0.019,0.365-0.121,0.382-0.313l0.194-1.857c0.022-0.191-0.12-0.363-0.314-0.383c-0.069-0.008-0.143,0.008-0.206,0.042
		c0.047-0.356,0.089-0.706,0.128-1.062c0.034-0.482,0.272-1.774-0.663-2.605c-1.347-1.325-4.316-1.325-5.662,0
		c-0.933,0.831-0.694,2.123-0.662,2.605c0.04,0.355,0.084,0.705,0.125,1.062c-0.062-0.034-0.131-0.049-0.206-0.042
		c-0.191,0.02-0.334,0.192-0.312,0.383l0.192,1.857c0.021,0.192,0.192,0.331,0.383,0.313c0.086-0.01,0.163-0.051,0.223-0.109
		c0.042,0.4,0.091,0.801,0.136,1.206c0.028,0.319,0.319,0.699,0.727,0.957c0.06,0.435,0.12,0.869,0.18,1.301
		c-1.823,0.221-3.615,0.722-5.287,1.519c-0.543,0.283-0.922,1.019-0.862,1.587c0.061,0.651,0.127,1.305,0.196,1.957
		c0.057,0.568,0.543,1.13,1.084,1.233c4.586,0.738,9.244,0.738,13.83,0c0.542-0.104,1.025-0.665,1.087-1.233
		c0.067-0.652,0.132-1.306,0.192-1.957C29.511,15.249,29.134,14.513,28.595,14.23z"/>
	<path fill="#231815" d="M26.746,30.113l-4.486-2.591v-5.176c0-0.552-0.447-0.997-1.002-0.997c-0.552,0-0.998,0.445-0.998,0.997
		v5.176l-4.485,2.591c-0.481,0.276-0.645,0.892-0.366,1.366c0.184,0.323,0.521,0.504,0.869,0.504c0.168,0,0.341-0.044,0.497-0.135
		l4.483-2.589l4.488,2.589c0.155,0.091,0.329,0.135,0.499,0.135c0.347,0,0.685-0.181,0.867-0.504
		C27.387,31.005,27.226,30.39,26.746,30.113z"/>
</g>
</svg>
