<?xml version="1.0" encoding="utf-8"?>
<!-- Generator: Adobe Illustrator 16.0.0, SVG Export Plug-In . SVG Version: 6.00 Build 0)  -->
<!DOCTYPE svg PUBLIC "-//W3C//DTD SVG 1.1//EN" "http://www.w3.org/Graphics/SVG/1.1/DTD/svg11.dtd">
<svg version="1.1" id="图层_1" xmlns="http://www.w3.org/2000/svg" xmlns:xlink="http://www.w3.org/1999/xlink" x="0px" y="0px"
	 width="42.52px" height="42.52px" viewBox="0 0 42.52 42.52" enable-background="new 0 0 42.52 42.52" xml:space="preserve">
<g>
	<path fill="#231815" d="M17.306,33.281c-2.222,0-4.026,1.803-4.026,4.026c0,2.225,1.805,4.026,4.026,4.026
		c2.227,0,4.027-1.802,4.027-4.026C21.333,35.084,19.533,33.281,17.306,33.281z"/>
	<circle fill="#231815" cx="32.449" cy="37.308" r="4.026"/>
	<path fill="#231815" d="M11.617,9.178c-0.035,0-0.074,0.008-0.111,0.01l-1.127-5.234c-0.118-0.557-0.536-1.005-1.083-1.16
		L3.883,1.245C3.06,1.01,2.205,1.488,1.969,2.306c-0.23,0.822,0.243,1.679,1.062,1.913l4.521,1.293l5.218,24.217
		c0.152,0.712,0.781,1.222,1.506,1.222l21.497,0.063c0,0,0.002,0,0.004,0c0.854,0,1.544-0.689,1.546-1.542
		c0.003-0.854-0.685-1.547-1.54-1.549l-20.253-0.058l-0.648-3.011h22.292c0.71,0,1.288-0.578,1.288-1.289l2.147-11.382L11.617,9.178
		z"/>
</g>
</svg>
