<?xml version="1.0" encoding="utf-8"?>
<!-- Generator: Adobe Illustrator 16.0.0, SVG Export Plug-In . SVG Version: 6.00 Build 0)  -->
<!DOCTYPE svg PUBLIC "-//W3C//DTD SVG 1.1//EN" "http://www.w3.org/Graphics/SVG/1.1/DTD/svg11.dtd">
<svg version="1.1" id="图层_1" xmlns="http://www.w3.org/2000/svg" xmlns:xlink="http://www.w3.org/1999/xlink" x="0px" y="0px"
	 width="42.52px" height="42.52px" viewBox="0 0 42.52 42.52" enable-background="new 0 0 42.52 42.52" xml:space="preserve">
<g>
	<path fill="#231815" d="M39.626,1.957H2.893c-0.688,0-1.243,0.559-1.243,1.244v32.377c0,0.689,0.556,1.244,1.243,1.244h6.878v-2.49
		H4.136V10.676h34.245v23.656h-6.202v2.49h7.447c0.688,0,1.244-0.555,1.244-1.244V3.201C40.87,2.516,40.313,1.957,39.626,1.957z
		 M26.967,7.977c-0.919,0-1.658-0.745-1.658-1.663c0-0.917,0.739-1.659,1.658-1.659c0.92,0,1.661,0.742,1.661,1.659
		C28.628,7.231,27.887,7.977,26.967,7.977z M31.845,7.977c-0.918,0-1.662-0.745-1.662-1.663c0-0.917,0.744-1.659,1.662-1.659
		c0.917,0,1.657,0.742,1.657,1.659C33.502,7.231,32.762,7.977,31.845,7.977z M36.723,7.977c-0.92,0-1.661-0.745-1.661-1.663
		c0-0.917,0.741-1.659,1.661-1.659c0.914,0,1.658,0.742,1.658,1.659C38.381,7.231,37.637,7.977,36.723,7.977z"/>
	<g>
		<polygon fill="#231815" points="19.979,21.074 16.739,18.281 7.518,21.969 10.762,24.76 		"/>
		<polygon fill="#231815" points="34.045,21.465 24.803,17.767 21.63,20.857 30.869,24.549 		"/>
		<polygon fill="#231815" points="21.611,30.012 21.611,40.563 30.862,36.863 30.862,31.342 25.601,33.441 		"/>
		<polygon fill="#231815" points="22.586,29.301 25.826,32.084 35.052,28.395 31.811,25.607 		"/>
		<polygon fill="#231815" points="11.089,31.754 11.089,36.863 20.335,40.563 20.335,30.74 16.899,34.078 		"/>
		<polygon fill="#231815" points="19.8,29.619 10.564,25.922 7.391,29.008 16.624,32.703 		"/>
	</g>
</g>
</svg>
