<?xml version="1.0" encoding="utf-8"?>
<!-- Generator: Adobe Illustrator 16.0.0, SVG Export Plug-In . SVG Version: 6.00 Build 0)  -->
<!DOCTYPE svg PUBLIC "-//W3C//DTD SVG 1.1//EN" "http://www.w3.org/Graphics/SVG/1.1/DTD/svg11.dtd">
<svg version="1.1" id="图层_1" xmlns="http://www.w3.org/2000/svg" xmlns:xlink="http://www.w3.org/1999/xlink" x="0px" y="0px"
	 width="42.52px" height="42.52px" viewBox="0 0 42.52 42.52" enable-background="new 0 0 42.52 42.52" xml:space="preserve">
<g>
	<g>
		<g>
			<path fill="#231815" d="M13.514,30.893v-10.17c0-1.282-1.036-2.317-2.32-2.317H6.547c-1.281,0-2.324,1.036-2.324,2.317v10.17
				H13.514z"/>
			<path fill="#231815" d="M25.902,30.893V15.815c0-1.282-1.041-2.324-2.321-2.324h-4.646c-1.282,0-2.323,1.042-2.323,2.324v15.078
				H25.902z"/>
			<path fill="#231815" d="M38.288,30.893V9.27c0-1.282-1.041-2.324-2.322-2.324h-4.642c-1.284,0-2.327,1.042-2.327,2.324v21.623
				H38.288z"/>
		</g>
		<rect x="2.164" y="32.996" fill="#231815" width="38.191" height="2.578"/>
	</g>
</g>
</svg>
