<?xml version="1.0" encoding="utf-8"?>
<!-- Generator: Adobe Illustrator 16.0.0, SVG Export Plug-In . SVG Version: 6.00 Build 0)  -->
<!DOCTYPE svg PUBLIC "-//W3C//DTD SVG 1.1//EN" "http://www.w3.org/Graphics/SVG/1.1/DTD/svg11.dtd">
<svg version="1.1" id="图层_1" xmlns="http://www.w3.org/2000/svg" xmlns:xlink="http://www.w3.org/1999/xlink" x="0px" y="0px"
	 width="42.52px" height="42.52px" viewBox="0 0 42.52 42.52" enable-background="new 0 0 42.52 42.52" xml:space="preserve">
<g>
	<path fill="#231815" d="M33.584,0.148l-4.209,8.857h9.811C38.914,5.206,36.725,1.935,33.584,0.148z M34.283,2.823
		c1.332,1.173,2.299,2.7,2.789,4.402h-4.885L34.283,2.823z"/>
	<path fill="#231815" d="M16.016,18.953v7.554l3.242-6.824C18.22,19.274,17.133,19.032,16.016,18.953z"/>
	<path fill="#231815" d="M36.602,14.727l-0.072-0.343l-0.15-0.682l-0.297-1.361l-0.596-2.725c-1.129,0.243-2.246,0.524-3.357,0.838
		l0.756,2.683l0.381,1.343l0.004,0.01c0,0-3.975,2.299-4.012,2.322l-0.273-0.01l1.246,1.18l-1.287,0.584l0.547,1.023l-1.752,3.482
		l-0.055-4.964l0.238-0.19l-0.264-1.127l-0.994-0.039l-0.354,1.103l0.227,0.206l-0.457,4.946l-1.467-3.612l0.629-0.976l-1.24-0.685
		l1.078-0.899c-0.48,0.011-0.965,0.032-1.453,0.064c-0.215,0.019-0.725,0.599-0.801,0.703l-3.159,4.553l-0.397,0.57l-0.1,0.14
		l-0.002,0.012l-0.005,0.006h-0.002c0.016-0.349-0.138,3.045-0.072,1.612l0.007,0.018l0.021,0.037l0.039,0.08l0.151,0.312
		l0.608,1.244l1.219,2.487c0.345-0.165,0.685-0.343,1.028-0.521c-0.021,0.318-0.039,0.635-0.056,0.948
		c-0.215-0.006-0.421-0.011-0.606-0.015l-0.022,1.73h-7.047v-12.64C8.238,18.585,3.334,23.725,3.334,30.022
		c0,6.563,5.326,11.889,11.887,11.889c2.25,0,4.34-0.634,6.13-1.715l-0.026,2.021l3.442,0.153c0-0.014,0-0.029,0-0.046l0.98,0.046
		c0.08-1.096,0.158-2.448,0.23-3.865l0.115,3.736h0.98h2.465h0.984c0.104-3.501,0.041-9.619,0.01-12.04
		c0.219,0.01,0.436,0.021,0.654,0.025c0.004-0.023,0.014-0.042,0.014-0.07c0.104-3.754,0.133-7.517,0.104-11.274l4.355-2.165
		c0,0,0.836-1.641,0.969-1.872l-0.01-0.037L36.602,14.727z M22.453,23.588c-0.01,0.115-0.017,0.231-0.027,0.346l-0.085-0.158
		L22.453,23.588z M15.222,40.128c-5.574,0-10.107-4.532-10.107-10.105c0-4.646,3.184-8.619,7.535-9.762v10.553v1.781h1.782h7.024
		l-0.076,5.426C19.671,39.343,17.53,40.128,15.222,40.128z"/>
	<path fill="#231815" d="M36.631,14.851v0.005v0.003c0.025-0.054,0.021-0.05-0.002-0.013L36.631,14.851z"/>
	<path fill="#231815" d="M26.494,15.943c1.287,0.438,2.77-0.499,3.313-2.086c0.543-1.594-0.061-3.239-1.348-3.678
		c-1.285-0.438-2.771,0.492-3.314,2.084C24.6,13.854,25.205,15.501,26.494,15.943z"/>
</g>
</svg>
