<?xml version="1.0" encoding="utf-8"?>
<!-- Generator: Adobe Illustrator 16.0.0, SVG Export Plug-In . SVG Version: 6.00 Build 0)  -->
<!DOCTYPE svg PUBLIC "-//W3C//DTD SVG 1.1//EN" "http://www.w3.org/Graphics/SVG/1.1/DTD/svg11.dtd">
<svg version="1.1" id="图层_1" xmlns="http://www.w3.org/2000/svg" xmlns:xlink="http://www.w3.org/1999/xlink" x="0px" y="0px"
	 width="42.52px" height="42.52px" viewBox="0 0 42.52 42.52" enable-background="new 0 0 42.52 42.52" xml:space="preserve">
<g>
	<g>
		<g>
			<path d="M31.976,25.298v7.007H10.541v-7.007H6.425v9.067c0,1.136,0.92,2.059,2.058,2.059h25.55c1.141,0,2.063-0.923,2.063-2.059
				v-9.067H31.976z"/>
		</g>
	</g>
	<g>
		<path d="M20.88,6.024l-5.895,7.125c0,0-0.894,0.846,0.076,0.846c0.974,0,3.322,0,3.322,0s0,0.573,0,1.446c0,2.511,0,7.071,0,8.931
			c0,0-0.136,0.502,0.631,0.502s4.131,0,4.676,0c0.549,0,0.535-0.424,0.535-0.424c0-1.804,0-6.523,0-8.944c0-0.788,0-1.303,0-1.303
			s1.889,0,3.07,0s0.293-0.882,0.293-0.882s-5.019-6.659-5.718-7.36C21.363,5.454,20.88,6.024,20.88,6.024z"/>
	</g>
</g>
</svg>
