<?xml version="1.0" encoding="utf-8"?>
<!-- Generator: Adobe Illustrator 16.0.0, SVG Export Plug-In . SVG Version: 6.00 Build 0)  -->
<!DOCTYPE svg PUBLIC "-//W3C//DTD SVG 1.1//EN" "http://www.w3.org/Graphics/SVG/1.1/DTD/svg11.dtd">
<svg version="1.1" id="图层_1" xmlns="http://www.w3.org/2000/svg" xmlns:xlink="http://www.w3.org/1999/xlink" x="0px" y="0px"
	 width="42.52px" height="42.52px" viewBox="0 0 42.52 42.52" enable-background="new 0 0 42.52 42.52" xml:space="preserve">
<g>
	<g>
		<path fill="#231815" d="M41.473,5.994c-0.039-0.403-0.293-0.751-0.664-0.917l-8.466-3.78c-0.365-0.167-0.798-0.12-1.125,0.116
			L20.599,9.116c4.064,1.951,7.182,5.637,8.304,10.264c0.498,2.044,0.549,4.152,0.198,6.199l12.872-9.332
			c0.327-0.237,0.501-0.633,0.46-1.034L41.473,5.994z M36.432,11.279c-0.844,0.615-2.023,0.426-2.636-0.419
			c-0.611-0.841-0.422-2.021,0.416-2.633c0.848-0.613,2.027-0.427,2.637,0.418C37.462,9.49,37.278,10.669,36.432,11.279z"/>
		<path fill="#231815" d="M6.775,20.538l8.703,12.003c0.241-0.039,0.481-0.073,0.715-0.129c5.181-1.259,8.376-6.497,7.123-11.68
			c-0.997-4.089-4.466-7.019-8.59-7.359l-7.701,5.584C6.522,19.323,6.411,20.031,6.775,20.538z"/>
	</g>
	<path fill="#231815" d="M38.477,35.77l-8.063-5.229c-0.71-0.453-1.529-0.555-2.291-0.371c-0.259,0.064-0.51,0.157-0.741,0.284
		l-1.328-0.859c1.574-2.908,2.139-6.38,1.296-9.839c-1.794-7.413-9.29-11.976-16.696-10.182c-7.411,1.804-11.978,9.291-10.18,16.701
		c1.8,7.413,9.288,11.98,16.703,10.183c2.933-0.713,5.417-2.329,7.237-4.472l1.383,0.896c-0.063,1.056,0.383,2.113,1.329,2.728
		l8.064,5.229c0.725,0.47,1.577,0.59,2.354,0.398c0.725-0.174,1.387-0.617,1.822-1.291C40.272,38.55,39.876,36.673,38.477,35.77z
		 M16.574,33.965c-6.057,1.47-12.142-2.244-13.613-8.294c-1.469-6.045,2.242-12.142,8.293-13.604
		c6.046-1.473,12.142,2.244,13.615,8.292C26.331,26.402,22.612,32.497,16.574,33.965z"/>
</g>
</svg>
