<?xml version="1.0" encoding="utf-8"?>
<!-- Generator: Adobe Illustrator 16.0.0, SVG Export Plug-In . SVG Version: 6.00 Build 0)  -->
<!DOCTYPE svg PUBLIC "-//W3C//DTD SVG 1.1//EN" "http://www.w3.org/Graphics/SVG/1.1/DTD/svg11.dtd">
<svg version="1.1" id="图层_1" xmlns="http://www.w3.org/2000/svg" xmlns:xlink="http://www.w3.org/1999/xlink" x="0px" y="0px"
	 width="42.52px" height="42.52px" viewBox="0 0 42.52 42.52" enable-background="new 0 0 42.52 42.52" xml:space="preserve">
<g>
	<g>
		<path fill="#231815" d="M12.676,14.723c0.431,3.55,3.485,7.229,6.257,7.229c3.186,0,6.215-3.865,6.691-7.229
			c0.18-0.134,0.473-0.438,0.582-1.14c0,0,0.68-2.438-0.225-2.172c0.313-0.94,1.355-4.596-0.662-6.872c0,0-0.943-1.291-3.24-1.972
			l-1.072-0.368c-0.425-0.312-1.278-1.035-1.278-1.838c0,0-0.531,0.247-0.841,0.703c0.122-0.375,0.326-0.721,0.662-1.006
			c0,0-0.352,0.184-0.676,0.569c-0.245,0.146-0.82,0.534-1.011,1.231l0.011-0.045c0,0-0.118-0.161-0.433-0.203
			c-0.317-0.042-0.871,0.162-0.871,0.162s-3.351,1.315-4.32,4.322c0,0-0.575,1.361,0.184,5.365
			c-1.073-0.505-0.339,2.124-0.339,2.124C12.203,14.286,12.499,14.589,12.676,14.723z M18.775,0.761
			c-0.163,0.226-0.302,0.509-0.367,0.858l-0.122-0.046C18.378,1.278,18.533,1.004,18.775,0.761z"/>
		<path fill="#231815" d="M23.373,34.725c0-4.569,3.721-8.289,8.291-8.289c0.523,0,1.037,0.055,1.533,0.148
			c-0.096-0.242-0.158-0.392-0.158-0.392c-0.875-1.943-6.219-3.628-6.219-3.628c-2.852-1.007-2.871-2.008-2.871-2.008
			c-5.601,11.044-9.855,0.034-9.855,0.034c-0.392,1.488-6.158,3.234-6.158,3.234c-1.686,0.648-2.397,1.621-2.397,1.621
			c-2.492,3.697-2.786,11.919-2.786,11.919c0.033,1.881,0.843,2.078,0.843,2.078c5.73,2.556,14.723,3.009,14.723,3.009
			c3.392,0.069,6.438-0.265,8.946-0.717C24.932,40.266,23.373,37.677,23.373,34.725z"/>
	</g>
	<path fill="#231815" d="M32.029,26.985c-4.268,0-7.74,3.469-7.74,7.739s3.473,7.736,7.74,7.736c4.264,0,7.736-3.466,7.736-7.736
		S36.293,26.985,32.029,26.985z M29.225,40.484l1.848-4.89h-2.404l6.484-6.448l-1.693,4.894h2.406L29.225,40.484z"/>
</g>
</svg>
