<?xml version="1.0" encoding="utf-8"?>
<!-- Generator: Adobe Illustrator 22.0.0, SVG Export Plug-In . SVG Version: 6.00 Build 0)  -->
<svg version="1.1" id="图层_1" xmlns="http://www.w3.org/2000/svg" xmlns:xlink="http://www.w3.org/1999/xlink" x="0px" y="0px"
	 viewBox="0 0 16 16" style="enable-background:new 0 0 16 16;" xml:space="preserve">
<style type="text/css">
	.st0{fill:#EB6841;}
</style>
<g>
	<path class="st0" d="M13.3,3H2.7C1.5,3,0.6,4,0.6,5.2v5.7c0,1.1,0.9,2.1,2.1,2.1h10.7c1.1,0,2.1-0.9,2.1-2.1V5.2
		C15.3,4,14.4,3,13.3,3z M2,8.1c0.7-0.8,1.2-1.8,1.5-2.8l0.9,0.4C4,6.8,3.3,7.7,2.4,8.3L2,8.1z M7,9.8c-0.1,0.2-0.3,0.5-0.5,0.7
		c-0.1,0.1-0.2,0.1-0.3,0C6.1,10.3,6,10.1,5.9,9.8c-1,0.2-2.1,0.3-3.3,0.5L2.5,9.4c0.3,0,0.5-0.2,0.7-0.4c0.4-0.6,0.8-1.3,1-2l1,0.4
		c-0.5,0.8-1,1.4-1.5,2c0.4,0,1.1,0,1.9-0.1C5.5,9.1,5.4,8.9,5.3,8.8l0.3-0.3C6.2,8.8,6.7,9.3,7,9.6C7.1,9.6,7.1,9.6,7,9.8z
		 M6.9,8.3C6,7.6,5.4,6.6,5,5.3l0.4-0.2c0.6,1.2,1.4,2,2.4,2.5C7.4,7.8,7.1,8.1,6.9,8.3z M13.1,8.8v1.9h-0.8v-0.4h-2.1v0.4H9.3V8.3
		h0.8v0.1h2l0.2-0.3l0.9,0.5L13.1,8.8z M13.8,7.9H8.6L8.4,7.4h2.4V6.5H9.8c0,0,0,0-0.1,0.1C9.6,6.8,9.4,6.9,9.3,7.1L8.8,6.9
		c0.3-0.5,0.5-1.1,0.7-1.8l0.8,0.3C10.2,5.6,10.1,5.8,10,6h0.8V5h0.9v1h0.6l0.3-0.4l0.8,0.6l-0.2,0.3h-1.4v0.8h1.1L13.1,7l0.8,0.6
		L13.8,7.9z"/>
	<rect x="10.2" y="8.9" class="st0" width="2.1" height="0.8"/>
</g>
</svg>
