<?xml version="1.0" standalone="no"?><!DOCTYPE svg PUBLIC "-//W3C//DTD SVG 1.1//EN" "http://www.w3.org/Graphics/SVG/1.1/DTD/svg11.dtd"><svg t="1587891171557" class="icon" viewBox="0 0 1024 1024" version="1.1" xmlns="http://www.w3.org/2000/svg" p-id="7216" xmlns:xlink="http://www.w3.org/1999/xlink" width="64" height="64"><defs><style type="text/css"></style></defs><path d="M632.97130661 587.28673183h195.85830596c51.8448457 0 97.92915298 46.08430728 97.92915298 97.92915298v195.85830596c0 51.8448457-46.08430728 97.92915298-97.92915298 97.92915297h-195.85830596c-51.8448457 0-97.92915298-46.08430728-97.92915296-97.92915297v-195.85830596c0-51.8448457 46.08430728-97.92915298 97.92915296-97.92915298zM177.88877219 587.28673183h195.85830596c51.8448457 0 97.92915298 46.08430728 97.92915298 97.92915298v195.85830596c0 51.8448457-46.08430728 97.92915298-97.92915298 97.92915297H177.88877219c-51.8448457 0-97.92915298-46.08430728-97.92915297-97.92915297v-195.85830596c0-51.8448457 40.32376887-97.92915298 97.92915297-97.92915298zM177.88877219 132.2041974h195.85830596c51.8448457 0 97.92915298 46.08430728 97.92915298 97.92915298v195.85830597c0 51.8448457-46.08430728 97.92915298-97.92915298 97.92915296H177.88877219C126.0439265 523.92080931 79.95961922 477.83650204 79.95961922 425.99165634V230.13335038c0-57.60538411 40.32376887-97.92915298 97.92915297-97.92915298zM546.56323047 258.93604244l115.21076821-115.21076822c40.32376887-40.32376887 97.92915298-40.32376887 138.25292184 0l115.21076822 115.21076822c40.32376887 40.32376887 40.32376887 97.92915298 0 138.25292184l-115.21076822 115.21076821c-40.32376887 40.32376887-97.92915298 40.32376887-138.25292184 0l-115.21076821-115.21076821C512 356.86519541 512 293.4992729 546.56323047 258.93604244z" p-id="7217"></path></svg>