<?xml version="1.0" standalone="no"?><!DOCTYPE svg PUBLIC "-//W3C//DTD SVG 1.1//EN" "http://www.w3.org/Graphics/SVG/1.1/DTD/svg11.dtd"><svg t="1587891165148" class="icon" viewBox="0 0 1024 1024" version="1.1" xmlns="http://www.w3.org/2000/svg" p-id="7082" xmlns:xlink="http://www.w3.org/1999/xlink" width="64" height="64"><defs><style type="text/css"></style></defs><path d="M177.88877219 195.57011992c-17.28161523 0-34.56323047 17.28161523-34.56323046 34.56323046v195.85830596c0 17.28161523 17.28161523 34.56323047 34.56323046 34.56323045h195.85830596c17.28161523 0 34.56323047-17.28161523 34.56323047-34.56323044V230.13335038c0-17.28161523-17.28161523-34.56323047-34.56323047-34.56323046H177.88877219z m0-63.36592252h195.85830596c51.8448457 0 97.92915298 46.08430728 97.92915298 97.92915298v195.85830596c0 51.8448457-46.08430728 97.92915298-97.92915298 97.92915297H177.88877219C126.0439265 523.92080931 79.95961922 477.83650204 79.95961922 425.99165634V230.13335038c0-57.60538411 40.32376887-97.92915298 97.92915297-97.92915298z m0 518.44845694c-17.28161523 0-34.56323047 17.28161523-34.56323046 34.56323047v195.85830596c0 17.28161523 17.28161523 34.56323047 34.56323046 34.56323046h195.85830596c17.28161523 0 34.56323047-17.28161523 34.56323047-34.56323046v-195.85830596c0-17.28161523-17.28161523-34.56323047-34.56323047-34.56323047H177.88877219z m0-63.36592251h195.85830596c51.8448457 0 97.92915298 46.08430728 97.92915298 97.92915298v195.85830596c0 51.8448457-46.08430728 97.92915298-97.92915298 97.92915297H177.88877219c-51.8448457 0-97.92915298-46.08430728-97.92915297-97.92915297v-195.85830596c0-51.8448457 40.32376887-97.92915298 97.92915297-97.92915298z m455.08253443 63.36592251c-17.28161523 0-34.56323047 17.28161523-34.56323046 34.56323047v195.85830596c0 17.28161523 17.28161523 34.56323047 34.56323045 34.56323046h195.85830596c17.28161523 0 34.56323047-17.28161523 34.56323047-34.56323046v-195.85830596c0-17.28161523-17.28161523-34.56323047-34.56323047-34.56323047h-195.85830596z m-1e-8-63.36592251h195.85830596c51.8448457 0 97.92915298 46.08430728 97.92915298 97.92915298v195.85830596c0 51.8448457-46.08430728 97.92915298-97.92915298 97.92915297h-195.85830596c-51.8448457 0-97.92915298-46.08430728-97.92915296-97.92915297v-195.85830596c0-51.8448457 46.08430728-97.92915298 97.92915297-97.92915298z m-40.32376887-282.26638212c-11.52107682 11.52107682-11.52107682 34.56323047 0 46.0843073l115.21076821 115.21076821c11.52107682 11.52107682 34.56323047 11.52107682 46.08430729 0l115.2107682-115.21076821c11.52107682-11.52107682 11.52107682-34.56323047 0-46.0843073l-115.2107682-115.2107682c-11.52107682-11.52107682-34.56323047-11.52107682-46.08430729 0l-115.21076821 115.2107682zM546.56323047 258.93604244l115.21076821-115.21076822c40.32376887-40.32376887 97.92915298-40.32376887 138.25292184 0l115.21076822 115.21076822c40.32376887 40.32376887 40.32376887 97.92915298 0 138.25292184l-115.21076822 115.21076821c-40.32376887 40.32376887-97.92915298 40.32376887-138.25292184 0l-115.21076821-115.21076821C512 356.86519541 512 293.4992729 546.56323047 258.93604244z" p-id="7083"></path></svg>