<?xml version="1.0" encoding="utf-8"?>
<!-- Generator: Adobe Illustrator 22.0.0, SVG Export Plug-In . SVG Version: 6.00 Build 0)  -->
<svg version="1.1" id="图层_1" xmlns="http://www.w3.org/2000/svg" xmlns:xlink="http://www.w3.org/1999/xlink" x="0px" y="0px"
	 viewBox="0 0 16 16" style="enable-background:new 0 0 16 16;" xml:space="preserve">
<path d="M7.975,0.614c-4.052,0-7.336,3.284-7.336,7.336s3.284,7.336,7.336,7.336c4.052,0,7.336-3.284,7.336-7.336
	S12.027,0.614,7.975,0.614z M3.452,6.767C3.45,6.764,3.45,6.759,3.448,6.756L3.444,6.737c0-0.003-0.002-0.006-0.002-0.009
	c-0.002-0.006-0.003-0.014-0.005-0.02c0-0.005-0.002-0.008-0.002-0.011c-0.002-0.006-0.002-0.014-0.003-0.02
	c0-0.005-0.002-0.008-0.002-0.013c0-0.006-0.002-0.013-0.002-0.019C3.428,6.641,3.428,6.634,3.428,6.63s-0.002-0.009,0-0.017
	c-0.002-0.009-0.002-0.02-0.002-0.031s0.002-0.02,0.002-0.031c0-0.006,0.002-0.011,0.002-0.016s0.002-0.011,0.002-0.016
	c0-0.006,0-0.013,0.002-0.019c0-0.005,0.002-0.008,0.002-0.013c0-0.006,0.002-0.014,0.003-0.02c0-0.005,0.002-0.008,0.002-0.011
	c0.002-0.006,0.003-0.014,0.005-0.02c0-0.003,0-0.006,0.002-0.009L3.45,6.408C3.452,6.405,3.452,6.4,3.453,6.397
	C3.455,6.392,3.458,6.386,3.459,6.38c0.002-0.005,0.003-0.008,0.005-0.013C3.466,6.362,3.469,6.356,3.47,6.352l0.005-0.014
	C3.477,6.333,3.48,6.328,3.481,6.323c0.002-0.005,0.003-0.011,0.006-0.016C3.491,6.305,3.492,6.3,3.494,6.297
	C3.495,6.291,3.498,6.286,3.502,6.28C3.505,6.277,3.506,6.273,3.508,6.27c0.003-0.006,0.006-0.011,0.009-0.017
	C3.52,6.25,3.522,6.247,3.523,6.244c0.003-0.006,0.008-0.011,0.011-0.017C3.536,6.223,3.539,6.22,3.541,6.217
	C3.545,6.211,3.548,6.206,3.553,6.2c0.003-0.003,0.005-0.006,0.008-0.009c0.003-0.005,0.006-0.009,0.011-0.014
	C3.575,6.172,3.58,6.169,3.583,6.164c0.003-0.003,0.006-0.008,0.009-0.011C3.6,6.145,3.606,6.138,3.614,6.13l1.498-1.498
	c0.25-0.25,0.655-0.25,0.905,0s0.25,0.655,0,0.905L5.611,5.942h6.236c0.355,0,0.641,0.287,0.641,0.641
	c0,0.355-0.287,0.641-0.641,0.641H4.064c-0.009,0-0.02-0.002-0.031-0.002c-0.005,0-0.009-0.002-0.014-0.002S4.008,7.219,4.003,7.219
	c-0.006,0-0.013,0-0.019-0.002c-0.005,0-0.008-0.002-0.013-0.002c-0.006,0-0.014-0.002-0.02-0.003c-0.005,0-0.008-0.002-0.011-0.002
	C3.934,7.209,3.927,7.208,3.92,7.206C3.916,7.205,3.912,7.205,3.909,7.203L3.891,7.198C3.888,7.197,3.883,7.197,3.88,7.195
	C3.875,7.194,3.869,7.191,3.862,7.189C3.858,7.188,3.855,7.186,3.85,7.184C3.845,7.183,3.839,7.18,3.834,7.178L3.82,7.173
	C3.816,7.172,3.811,7.169,3.806,7.167C3.802,7.166,3.795,7.164,3.791,7.161C3.787,7.158,3.783,7.156,3.78,7.155
	C3.773,7.153,3.769,7.15,3.763,7.147C3.759,7.144,3.756,7.142,3.753,7.141C3.747,7.138,3.742,7.134,3.736,7.131
	C3.733,7.128,3.73,7.127,3.727,7.125C3.72,7.122,3.716,7.117,3.709,7.114C3.706,7.112,3.703,7.109,3.7,7.108
	C3.694,7.103,3.689,7.1,3.683,7.095C3.68,7.092,3.677,7.091,3.673,7.088C3.669,7.084,3.664,7.081,3.659,7.077
	C3.655,7.073,3.652,7.069,3.647,7.066C3.644,7.063,3.639,7.059,3.636,7.056C3.628,7.048,3.62,7.042,3.612,7.034
	S3.598,7.019,3.591,7.011C3.588,7.008,3.584,7.003,3.581,7C3.578,6.995,3.573,6.992,3.57,6.987S3.563,6.978,3.559,6.973
	C3.556,6.97,3.555,6.967,3.552,6.964C3.547,6.958,3.542,6.953,3.539,6.947C3.537,6.944,3.534,6.941,3.533,6.938
	C3.53,6.931,3.525,6.927,3.522,6.92C3.519,6.917,3.517,6.914,3.516,6.911C3.513,6.905,3.509,6.9,3.506,6.894
	C3.503,6.891,3.502,6.888,3.5,6.884C3.498,6.878,3.495,6.873,3.492,6.867C3.489,6.864,3.487,6.859,3.486,6.856
	C3.484,6.852,3.481,6.845,3.48,6.841C3.478,6.836,3.475,6.831,3.473,6.827L3.469,6.813C3.467,6.808,3.464,6.802,3.463,6.797
	C3.461,6.792,3.459,6.789,3.458,6.784C3.455,6.78,3.453,6.773,3.452,6.767z M12.522,9.348c0,0.006-0.002,0.011-0.002,0.016
	s-0.002,0.011-0.002,0.016c0,0.006,0,0.013-0.002,0.019c0,0.005-0.002,0.008-0.002,0.013c0,0.006-0.002,0.014-0.003,0.02
	c0,0.005-0.002,0.008-0.002,0.011c-0.002,0.006-0.003,0.014-0.005,0.02c0,0.003,0,0.006-0.002,0.009L12.5,9.491
	c-0.002,0.003-0.002,0.008-0.003,0.011c-0.002,0.005-0.005,0.011-0.006,0.017c-0.002,0.005-0.003,0.008-0.005,0.013
	c-0.002,0.005-0.005,0.011-0.006,0.016l-0.005,0.014c-0.002,0.005-0.005,0.009-0.006,0.014s-0.003,0.011-0.006,0.016
	c-0.003,0.003-0.005,0.008-0.006,0.011c-0.002,0.006-0.005,0.011-0.008,0.017c-0.003,0.003-0.005,0.006-0.006,0.009
	c-0.003,0.006-0.006,0.011-0.009,0.017c-0.003,0.003-0.005,0.006-0.006,0.009c-0.003,0.006-0.008,0.011-0.011,0.017
	c-0.002,0.003-0.005,0.006-0.006,0.009c-0.005,0.006-0.008,0.011-0.013,0.017c-0.003,0.003-0.005,0.006-0.008,0.009
	c-0.003,0.005-0.006,0.009-0.011,0.014s-0.008,0.009-0.013,0.014c-0.003,0.003-0.006,0.008-0.009,0.011
	c-0.008,0.008-0.014,0.016-0.022,0.023l-1.498,1.498c-0.25,0.25-0.655,0.25-0.905,0s-0.25-0.655,0-0.905l0.406-0.406H4.1
	c-0.355,0-0.641-0.288-0.641-0.641c0-0.355,0.288-0.641,0.641-0.641h7.784c0.009,0,0.02,0.002,0.031,0.002
	c0.005,0,0.009,0.002,0.014,0.002s0.011,0.002,0.016,0.002c0.006,0,0.013,0,0.019,0.002c0.005,0,0.008,0.002,0.013,0.002
	c0.006,0,0.014,0.002,0.02,0.003c0.005,0,0.008,0.002,0.011,0.002c0.006,0.002,0.014,0.003,0.02,0.005
	c0.005,0.002,0.008,0.002,0.011,0.003l0.019,0.005c0.003,0.002,0.008,0.002,0.011,0.003c0.005,0.002,0.011,0.005,0.017,0.006
	c0.005,0.002,0.008,0.003,0.013,0.005c0.005,0.002,0.011,0.005,0.016,0.006l0.014,0.005c0.005,0.002,0.009,0.005,0.014,0.006
	c0.005,0.002,0.011,0.003,0.016,0.006c0.003,0.003,0.008,0.005,0.011,0.006c0.006,0.002,0.011,0.005,0.017,0.008
	c0.003,0.003,0.006,0.005,0.009,0.006c0.006,0.003,0.011,0.006,0.017,0.009c0.003,0.003,0.006,0.005,0.009,0.006
	c0.006,0.003,0.011,0.008,0.017,0.011c0.003,0.002,0.006,0.005,0.009,0.006c0.006,0.005,0.011,0.008,0.017,0.013
	c0.003,0.003,0.006,0.005,0.009,0.008c0.005,0.003,0.009,0.006,0.014,0.011c0.005,0.003,0.008,0.008,0.013,0.011
	c0.003,0.003,0.008,0.006,0.011,0.009c0.008,0.008,0.016,0.014,0.023,0.022s0.014,0.016,0.022,0.023
	c0.003,0.003,0.006,0.008,0.009,0.011c0.003,0.005,0.008,0.008,0.011,0.012c0.003,0.005,0.008,0.009,0.011,0.014
	c0.003,0.003,0.005,0.006,0.008,0.009c0.005,0.006,0.009,0.011,0.013,0.017c0.002,0.003,0.005,0.006,0.006,0.009
	c0.003,0.006,0.008,0.011,0.011,0.017c0.003,0.003,0.005,0.006,0.006,0.009C12.436,8.995,12.439,9,12.442,9.006
	c0.003,0.003,0.005,0.006,0.006,0.009c0.002,0.006,0.005,0.011,0.008,0.017c0.003,0.003,0.005,0.008,0.006,0.011
	c0.002,0.005,0.005,0.011,0.006,0.016s0.005,0.009,0.006,0.014l0.005,0.014c0.002,0.005,0.005,0.011,0.006,0.016
	c0.002,0.005,0.003,0.008,0.005,0.012c0.003,0.005,0.005,0.011,0.006,0.017c0.002,0.003,0.002,0.008,0.003,0.011l0.005,0.019
	c0,0.003,0,0.006,0.002,0.009c0.002,0.006,0.003,0.014,0.005,0.02c0,0.005,0.002,0.008,0.002,0.011
	c0.002,0.006,0.002,0.014,0.003,0.02c0,0.005,0.002,0.008,0.002,0.013c0,0.006,0.002,0.012,0.002,0.019
	C12.52,9.259,12.52,9.266,12.52,9.27c0.002,0.006,0.002,0.011,0.002,0.016c0.002,0.009,0.002,0.02,0.002,0.031
	S12.522,9.338,12.522,9.348z"/>
</svg>
