<?xml version="1.0" standalone="no"?><!DOCTYPE svg PUBLIC "-//W3C//DTD SVG 1.1//EN" "http://www.w3.org/Graphics/SVG/1.1/DTD/svg11.dtd"><svg t="1587891153798" class="icon" viewBox="0 0 1024 1024" version="1.1" xmlns="http://www.w3.org/2000/svg" p-id="6948" xmlns:xlink="http://www.w3.org/1999/xlink" width="64" height="64"><defs><style type="text/css"></style></defs><path d="M930.78017699 482.24882933L595.44330271 135.14574893C571.91089048 111.6133367 548.37847824 99.84713058 518.96296296 99.84713058S460.13193239 111.6133367 442.48262321 135.14574893L107.14574894 482.24882933C71.84713059 517.54744767 71.84713059 552.84606601 77.73023365 564.61227213c5.88310305 11.76620611 17.64930917 35.29861835 58.83103058 35.29861835h47.06482445v270.62274064c0 58.83103058 41.1817214 117.66206115 105.89585505 117.66206115H401.30090181c17.64930917 0 29.41551528-11.76620611 29.41551528-29.41551529v-252.97343147c0-29.41551528-5.88310305-47.06482446 29.4155153-47.06482446h111.77895809c29.41551528 0 29.41551528 17.64930917 29.41551529 47.06482446v247.09032842c0 17.64930917 11.76620611 29.41551528 29.41551529 29.41551528h117.66206114c64.71413363 0 105.89585503-58.83103058 105.89585504-117.66206115V594.02778741h41.1817214c41.1817214 0 52.94792752-23.53241224 58.83103058-35.29861834 5.88310305-5.88310305 11.76620611-41.1817214-23.53241223-76.48033974z" p-id="6949"></path></svg>