<?xml version="1.0" standalone="no"?><!DOCTYPE svg PUBLIC "-//W3C//DTD SVG 1.1//EN" "http://www.w3.org/Graphics/SVG/1.1/DTD/svg11.dtd"><svg t="1587891179223" class="icon" viewBox="0 0 1024 1024" version="1.1" xmlns="http://www.w3.org/2000/svg" p-id="7350" xmlns:xlink="http://www.w3.org/1999/xlink" width="64" height="64"><defs><style type="text/css"></style></defs><path d="M512 160.98055555c104.31388889 0 196.35555555 85.90555555 196.35555555 196.35555555S616.31388889 547.55555555 512 547.55555555 315.64444445 461.65 315.64444445 351.2 407.68611111 160.98055555 512 160.98055555M512 87.34722222C364.73333333 87.34722222 248.14722222 203.93333333 248.14722222 351.2S364.73333333 615.05277777 512 615.05277777s263.85277778-116.58611111 263.85277778-263.85277777S659.26666667 87.34722222 512 87.34722222z" p-id="7351"></path><path d="M512 615.05277777c73.63333333 0 147.26666667 18.40833333 208.62777778 61.36111111 61.36111111 36.81666667 110.45 92.04166667 141.13055555 159.53888889 18.40833333 30.68055555 0 61.36111111-6.13611111 67.49722223-6.13611111 12.27222222-24.54444445 30.68055555-61.36111111 30.68055555H229.73888889c-36.81666667 0-55.225-24.54444445-61.36111111-30.68055555-6.13611111-12.27222222-18.40833333-36.81666667-6.13611111-67.49722223 30.68055555-61.36111111 79.76944445-116.58611111 141.13055555-159.53888889 61.36111111-36.81666667 134.99444445-61.36111111 208.62777778-61.36111111M512 547.55555555c-177.94722222 0-337.48611111 104.31388889-411.11944445 257.71666667-49.08888889 92.04166667 24.54444445 202.49166667 128.85833334 202.49166666h564.52222222c104.31388889 0 171.81111111-110.45 128.85833334-202.49166666C849.48611111 651.86944444 689.94722222 547.55555555 512 547.55555555z" p-id="7352"></path></svg>