<?xml version="1.0" standalone="no"?><!DOCTYPE svg PUBLIC "-//W3C//DTD SVG 1.1//EN" "http://www.w3.org/Graphics/SVG/1.1/DTD/svg11.dtd"><svg t="1591255684181" class="icon" viewBox="0 0 1155 1024" version="1.1" xmlns="http://www.w3.org/2000/svg" p-id="2662" xmlns:xlink="http://www.w3.org/1999/xlink" width="72.1875" height="64"><defs><style type="text/css"></style></defs><path d="M420.34455601 137.17279644A30.13343771 30.13343771 0 0 1 448.63584707 105.30476258h258.84550372a30.13343771 30.13343771 0 0 1 31.86803388 31.86803386v63.84361823h63.84361821V137.17279644A98.09706654 98.09706654 0 0 0 707.48135079 41.46022511h-255.16121042a98.09706654 98.09706654 0 0 0-95.71073287 95.71257133v63.84361823h63.84361823z m95.71257134 478.01866966h127.68815569a31.97650359 31.97650359 0 1 0-1e-8-63.84453746H516.05712735a31.97650359 31.97650359 0 1 0 0 63.84453746z" p-id="2663"></path><path d="M1017.27176928 232.77597884H142.53064112A96.03706124 96.03706124 0 0 0 48.76868614 326.53793382V888.88628961A96.03706124 96.03706124 0 0 0 142.53064112 982.6482446h874.74112816a96.03706124 96.03706124 0 0 0 93.76195498-93.76195499V326.53793382a96.03706124 96.03706124 0 0 0-93.76195498-93.76103575z m31.21721559 656.11123002a29.59200838 29.59200838 0 0 1-27.74802327 31.32568531H142.7466613a29.59200838 29.59200838 0 0 1-31.3256853-31.32568531V482.73340076h937.17739783v406.1538081z m0-468.69762825H111.20495581v-93.6516468a29.59200838 29.59200838 0 0 1 27.74894252-31.32660454h877.99430026a29.59200838 29.59200838 0 0 1 31.32568533 31.32568532v93.76195497z" p-id="2664"></path></svg>