<?xml version="1.0" standalone="no"?><!DOCTYPE svg PUBLIC "-//W3C//DTD SVG 1.1//EN" "http://www.w3.org/Graphics/SVG/1.1/DTD/svg11.dtd"><svg t="1591255666005" class="icon" viewBox="0 0 1024 1024" version="1.1" xmlns="http://www.w3.org/2000/svg" p-id="2414" xmlns:xlink="http://www.w3.org/1999/xlink" width="64" height="64"><defs><style type="text/css"></style></defs><path d="M805.08179297 962.64051896h-585.86275812c-87.99222422 0-157.85955469-71.29626373-157.85955381-160.9430423V222.30252334c0-89.64677857 69.9425372-160.9430423 157.78434706-160.9430423h585.93796487c87.91701749 0 157.78434706 71.29626373 157.78434708 160.9430423v579.39495332c0 87.31536095-69.86733046 160.9430423-157.78434708 160.9430423zM219.21903485 107.38618294c-63.17390457 0-112.81054387 50.53912365-112.81054387 114.9163404v579.39495332c0 64.37721674 49.63663931 114.9163404 112.81054386 114.9163404h585.86275813c63.17390457 0 112.73533714-50.53912365 112.73533715-114.9163404V222.30252334c0-64.37721674-49.63663931-114.9163404-112.73533715-114.9163404h-585.86275813z" p-id="2415"></path><path d="M940.30403127 300.51783405H83.92158982c-13.53726527 0-22.56210878-9.25046459-22.56210878-23.01335095 0-13.83809309 9.0248435-23.01335095 22.56210878-23.01335095h856.38244145c13.53726527 0 22.56210878 9.17525786 22.56210878 23.01335095 0 13.76288635-9.0248435 23.01335095-22.56210878 23.01335095z m-662.57392709 259.76507872a76.71116984 76.71116984 0 0 1-76.6359631-78.21531071c0-43.62007668 33.84316317-78.1401031 76.71116985-78.14010308 42.79279993 0 76.56075548 34.52002642 76.56075547 78.21531071 0 43.62007668-36.09937404 78.1401031-76.63596222 78.14010308z m0-121.83538737c-22.56210878 0-40.61179579 18.35051484-40.61179579 41.36386579 0 23.01335095 18.04968702 41.36386579 40.61179579 41.36386667 22.56210878 0 40.61179579-18.35051484 40.6117958-41.36386667 0-23.01335095-18.04968702-41.36386579-40.6117958-41.36386579z m234.42031016 121.83538737a76.71116984 76.71116984 0 0 1-76.71116982-78.21531071c0-43.62007668 33.84316317-78.1401031 76.71116982-78.14010308 42.79279993 0 76.63596309 34.52002642 76.63596224 78.21531071 0 43.62007668-33.84316317 78.1401031-76.71116984 78.14010308z m0-121.83538737c-22.56210878 0-40.61179579 18.35051484-40.61179578 41.36386579 0 23.01335095 18.04968702 41.36386579 40.61179578 41.36386667 22.56210878 0 40.61179579-18.35051484 40.6117958-41.36386667 0-23.01335095-18.04968702-41.36386579-40.6117958-41.36386579z m234.34510256 121.83538737A76.71116984 76.71116984 0 0 1 669.93476142 482.06760206c0-43.62007668 33.84316317-78.1401031 76.71116983-78.14010308 42.79279993 0 76.56075548 34.52002642 76.56075548 78.21531071 0 43.62007668-33.84316317 78.1401031-76.63596222 78.14010308z m0-121.83538737c-22.56210878 0-40.61179579 18.35051484-40.61179579 41.36386579 0 23.01335095 18.04968702 41.36386579 40.61179579 41.36386667 22.56210878 0 40.61179579-18.35051484 40.6117958-41.36386667 0-23.01335095-18.04968702-41.36386579-40.6117958-41.36386579zM277.73010418 806.28510514a76.71116984 76.71116984 0 0 1-76.6359631-78.21530982c0-43.62007668 33.84316317-78.1401031 76.71116984-78.14010397 42.79279993 0 76.56075548 34.52002642 76.56075548 78.21531071 0 43.62007668-36.09937404 78.1401031-76.63596222 78.14010308z m0-119.57917649c-22.56210878 0-40.61179579 18.42572246-40.61179579 41.36386667 0 23.01335095 18.04968702 41.36386579 40.61179579 41.36386579 22.56210878 0 40.61179579-18.35051484 40.6117958-41.36386579 0-22.93814421-18.04968702-41.36386579-40.6117958-41.36386667z m234.42031016 119.57917649a76.71116984 76.71116984 0 0 1-76.71116982-78.21530982c0-43.62007668 33.84316317-78.1401031 76.71116982-78.14010397 42.79279993 0 76.63596309 34.52002642 76.63596224 78.21531071 0 43.62007668-33.84316317 78.1401031-76.71116984 78.14010308z m0-119.57917649c-22.56210878 0-40.61179579 18.42572246-40.61179578 41.36386667 0 23.01335095 18.04968702 41.36386579 40.61179578 41.36386579 22.56210878 0 40.61179579-18.35051484 40.6117958-41.36386579 0-22.93814421-18.04968702-41.36386579-40.6117958-41.36386667z m234.34510256 119.57917649A76.71116984 76.71116984 0 0 1 669.93476142 728.06979531c0-43.62007668 33.84316317-78.1401031 76.71116983-78.14010396 42.79279993 0 76.56075548 34.52002642 76.56075548 78.21531071 0 43.62007668-33.84316317 78.1401031-76.63596222 78.14010308z m0-119.57917649c-22.56210878 0-40.61179579 18.42572246-40.61179579 41.36386667 0 23.01335095 18.04968702 41.36386579 40.61179579 41.36386579 22.56210878 0 40.61179579-18.35051484 40.6117958-41.36386579 0-22.93814421-18.04968702-41.36386579-40.6117958-41.36386667z" p-id="2416"></path></svg>