<?xml version="1.0" standalone="no"?><!DOCTYPE svg PUBLIC "-//W3C//DTD SVG 1.1//EN" "http://www.w3.org/Graphics/SVG/1.1/DTD/svg11.dtd"><svg t="1591255691521" class="icon" viewBox="0 0 1024 1024" version="1.1" xmlns="http://www.w3.org/2000/svg" p-id="2785" xmlns:xlink="http://www.w3.org/1999/xlink" width="64" height="64"><defs><style type="text/css"></style></defs><path d="M325.52813274 442.28085072h61.00425498V376.9191486h74.07659539V315.91489362H386.53238772V250.55319149H325.52813274v65.36170213H247.09409017v61.00425498h78.43404257zM412.67706856 555.57446843l-61.00425498 56.64680783L295.02600473 555.57446843l-43.57446843 47.93191455 56.64680885 47.93191455-56.64680885 52.2893617 43.57446843 43.57446843 56.64680885-52.2893617 61.00425498 52.2893617 39.21702127-43.57446843-52.2893617-52.2893617 52.2893617-47.93191455zM600.04728166 315.91489362h183.01276596v61.00425498h-183.01276596zM600.04728166 660.15319183h183.01276596v61.00425498h-183.01276596zM600.04728166 564.2893617h183.01276596v61.00425498h-183.01276596z" p-id="2786"></path><path d="M64.08132422 84.97021311v854.05957378h897.63404222V84.97021311H64.08132422z m827.91489293 784.34042553H133.80047248V154.68936136h758.19574467v714.62127728z" p-id="2787"></path></svg>