<?xml version="1.0" standalone="no"?><!DOCTYPE svg PUBLIC "-//W3C//DTD SVG 1.1//EN" "http://www.w3.org/Graphics/SVG/1.1/DTD/svg11.dtd"><svg t="1591255582230" class="icon" viewBox="0 0 1024 1024" version="1.1" xmlns="http://www.w3.org/2000/svg" p-id="1306" xmlns:xlink="http://www.w3.org/1999/xlink" width="64" height="64"><defs><style type="text/css"></style></defs><path d="M510.90834552 69.27712745c-244.7295991 0-443.12069917 198.39110008-443.12070033 443.12069918s198.39110008 443.12069917 443.12070033 443.12069919 443.12069917-198.39110008 443.12069917-443.12069919-198.39110008-443.12069917-443.12069917-443.12069918z m169.30240525 716.8940004c-21.62944809 21.62944809-56.7032995 21.62944809-78.32682702 0L426.35837475 610.65031463c-12.39655787-10.15759985-20.31046394-25.58403209-20.3104628-42.86225322V235.44783294c0-30.59238441 24.79785151-55.39023594 55.39023479-55.39023477 30.59238441 0 55.39023594 24.79785151 55.39023592 55.39023477v309.0081792l163.38236811 163.38236811c21.63536753 21.63536753 21.63536753 56.70803527 0 78.3327476z" p-id="1307"></path></svg>