<?xml version="1.0" standalone="no"?><!DOCTYPE svg PUBLIC "-//W3C//DTD SVG 1.1//EN" "http://www.w3.org/Graphics/SVG/1.1/DTD/svg11.dtd"><svg t="1591255591884" class="icon" viewBox="0 0 1024 1024" version="1.1" xmlns="http://www.w3.org/2000/svg" p-id="1428" xmlns:xlink="http://www.w3.org/1999/xlink" width="64" height="64"><defs><style type="text/css"></style></defs><path d="M251.136 54.564571H197.668571v171.556572h53.467429zM144.128 111.762286h0.438857zM197.668571 663.844571h160.475429v114.285715H197.668571zM679.058286 54.564571h53.430857v171.556572h-53.430857zM786.066286 111.762286h-0.438857 0.438857zM197.668571 492.324571h160.475429v114.322286H197.668571z" p-id="1429"></path><path d="M436.662857 913.225143H143.469714c-29.549714 0-53.467429-25.636571-53.467428-57.161143V436.736c0-31.597714 23.917714-57.197714 53.467428-57.197714h386.998857a351.085714 351.085714 0 0 1 362.569143 6.656V226.56c0-63.268571-47.908571-114.578286-107.008-114.797714H144.128c-59.099429 0.219429-106.971429 51.529143-106.971429 114.797714v627.529143c0 63.305143 48.054857 115.309714 107.410286 115.309714h352.512a356.315429 356.315429 0 0 1-60.416-56.173714z" p-id="1430"></path><path d="M706.304 404.809143a280.649143 280.649143 0 1 0 0.036571 561.261714 280.649143 280.649143 0 0 0-0.036571-561.261714z m125.184 357.961143c0 31.085714-59.574857 38.217143-115.492571 38.217143-55.844571 0-116.224-7.131429-116.224-38.217143v-8.557715c0-22.930286 41.142857-46.006857 76.288-58.697142 2.486857-0.877714 14.628571-7.570286 7.899428-25.234286a111.908571 111.908571 0 0 1-30.537143-74.971429c0-43.373714 28.708571-66.157714 62.208-66.157714s62.427429 22.784 62.427429 66.157714c0 28.196571-13.202286 56.978286-30.500572 74.715429-6.656 20.187429 3.986286 24.978286 5.705143 25.490286 36.864 12.141714 78.226286 35.145143 78.226286 58.697142v8.557715z" p-id="1431"></path></svg>