<?xml version="1.0" standalone="no"?><!DOCTYPE svg PUBLIC "-//W3C//DTD SVG 1.1//EN" "http://www.w3.org/Graphics/SVG/1.1/DTD/svg11.dtd"><svg t="1591255702797" class="icon" viewBox="0 0 1024 1024" version="1.1" xmlns="http://www.w3.org/2000/svg" p-id="3030" xmlns:xlink="http://www.w3.org/1999/xlink" width="64" height="64"><defs><style type="text/css"></style></defs><path d="M866.00560662 169.04049145h-40.62130665v-12.06868767c0-36.17943307-29.45803685-65.75464166-65.46171233-65.75464164h-0.96613415c-36.00367549 0-65.46064713 29.57520858-65.46064713 65.75464164v12.06868767H331.46287139v-12.06868767c0-36.17943307-29.45697166-65.75464166-65.46064714-65.75464164h-0.99595966c-36.00367549 0-65.46171233 29.57520858-65.46171234 65.75464164v12.06868767h-40.53502566c-36.00367549 0-65.46171233 29.60503411-65.46171233 65.72801172v628.61352201c0 36.17943307 29.45803685 65.75570685 65.46171233 65.75570684H866.00773702c36.00474068 0 65.46171233-29.57627378 65.46171233-65.75464164V234.76743797c0-36.1229776-29.45697166-65.72801171-65.46277753-65.72801172z m-146.32618052-12.06868767c0-21.74068096 17.5938671-39.4517198 39.27702739-39.45171979h0.96613415c21.65546516 0 39.2780926 17.71103883 39.27809259 39.45065459v116.95868546c0 21.74174617-17.62262743 39.4506546-39.27809259 39.45065459h-0.96613415c-21.6831603 0-39.27702739-17.70890842-39.27702739-39.45171979V156.96967339z m-493.95018892 0c0-21.74068096 17.5938671-39.4517198 39.2780926-39.45171979h0.99489447c21.62457444 0 39.2780926 17.71103883 39.27809259 39.45065459v116.95868546c0 21.74174617-17.65351816 39.4506546-39.27809259 39.45065459h-0.99489447c-21.6842255 0-39.2780926-17.70890842-39.2780926-39.45171979V156.96967339z m640.27636944 719.59417085H159.00952659c-7.10060653 0-13.09234246-6.10890766-13.09234246-13.18288425V401.19922129h733.18076495v462.18280389c0 7.0729114-5.99067073 13.18181905-13.09127726 13.18181905zM242.14286545 495.33391992h120.79339646v59.43802048h-120.79339646v-59.43802048z m210.90910492 0h119.8347187v59.43802048h-119.8347187v-59.43802048z m209.95042717 0h117.91736321v59.43802048h-117.91736321v-59.43802048z m-420.85953209 120.79339645h120.79339646v58.47934273h-120.79339646v-58.47934273z m210.90910492 0h119.8347187v58.47934273h-119.8347187v-58.47934273z m209.95042717 0h117.91736321v58.47934273h-117.91736321v-58.47934273z m-420.85953209 117.91736321h120.79339646v61.35537597h-120.79339646v-61.35537597z m210.90910492 0h119.8347187v61.35537597h-119.8347187v-61.35537597z m209.95042717 0h117.91736321v61.35537597h-117.91736321v-61.35537597z" p-id="3031"></path></svg>