<?xml version="1.0" standalone="no"?><!DOCTYPE svg PUBLIC "-//W3C//DTD SVG 1.1//EN" "http://www.w3.org/Graphics/SVG/1.1/DTD/svg11.dtd"><svg t="1591255649981" class="icon" viewBox="0 0 1024 1024" version="1.1" xmlns="http://www.w3.org/2000/svg" p-id="2169" xmlns:xlink="http://www.w3.org/1999/xlink" width="64" height="64"><defs><style type="text/css"></style></defs><path d="M229.34540516 215.78632866v358.79402444c0 4.58922589-3.75482118 8.34404708-8.34404708 8.34404708h-41.7202354c-4.58922589 0-8.34404708-3.75482118-8.34404708-8.34404708V215.78632866c0-4.58922589 3.75482118-8.34404708 8.34404708-8.34404709h41.7202354c4.58922589 0 8.34404708 3.75482118 8.34404708 8.34404709zM221.00135808 741.4612947h-40.67722952c-4.58922589 0-8.34404708-3.75482118-8.34404707-8.34404707v-41.72023541c0-4.58922589 3.75482118-8.34404708 8.34404707-8.34404708h40.67722952c4.58922589 0 8.34404708 3.75482118 8.34404708 8.34404708v41.72023541c0 4.58922589-3.75482118 8.34404708-8.34404708 8.34404707zM221.00135808 820.72974196h-40.67722952c-4.58922589 0-8.34404708-3.75482118-8.34404707-8.34404708v-41.7202354c0-4.58922589 3.75482118-8.34404708 8.34404707-8.34404707h40.67722952c4.58922589 0 8.34404708 3.75482118 8.34404708 8.34404707v41.7202354c0 4.58922589-3.75482118 8.34404708-8.34404708 8.34404708zM541.20416478 215.78632866v358.79402444c0 4.58922589-3.75482118 8.34404708-8.34404708 8.34404708h-41.7202354c-4.58922589 0-8.34404708-3.75482118-8.34404708-8.34404708V215.78632866c0-4.58922589 3.75482118-8.34404708 8.34404708-8.34404709h41.7202354c4.58922589 0 8.34404708 3.75482118 8.34404708 8.34404709zM532.8601177 741.4612947h-40.67722952c-4.58922589 0-8.34404708-3.75482118-8.34404708-8.34404707v-41.72023541c0-4.58922589 3.75482118-8.34404708 8.34404708-8.34404708h40.67722952c4.58922589 0 8.34404708 3.75482118 8.34404708 8.34404708v41.72023541c0 4.58922589-3.75482118 8.34404708-8.34404708 8.34404707zM532.8601177 820.72974196h-40.67722952c-4.58922589 0-8.34404708-3.75482118-8.34404708-8.34404708v-41.7202354c0-4.58922589 3.75482118-8.34404708 8.34404708-8.34404707h40.67722952c4.58922589 0 8.34404708 3.75482118 8.34404708 8.34404707v41.7202354c0 4.58922589-3.75482118 8.34404708-8.34404708 8.34404708zM853.0629244 215.78632866v358.79402444c0 4.58922589-3.75482118 8.34404708-8.34404708 8.34404708h-41.7202354c-4.58922589 0-8.34404708-3.75482118-8.34404708-8.34404708V215.78632866c0-4.58922589 3.75482118-8.34404708 8.34404708-8.34404709h41.7202354c4.58922589 0 8.34404708 3.75482118 8.34404708 8.34404709zM844.71887732 741.4612947h-40.67722951c-4.58922589 0-8.34404708-3.75482118-8.34404709-8.34404707v-41.72023541c0-4.58922589 3.75482118-8.34404708 8.34404709-8.34404708h40.67722951c4.58922589 0 8.34404708 3.75482118 8.34404708 8.34404708v41.72023541c0 4.58922589-3.75482118 8.34404708-8.34404708 8.34404707zM844.71887732 820.72974196h-40.67722951c-4.58922589 0-8.34404708-3.75482118-8.34404709-8.34404708v-41.7202354c0-4.58922589 3.75482118-8.34404708 8.34404709-8.34404707h40.67722951c4.58922589 0 8.34404708 3.75482118 8.34404708 8.34404707v41.7202354c0 4.58922589-3.75482118 8.34404708-8.34404708 8.34404708z" p-id="2170"></path><path d="M278.36668175 153.20597555v717.5880489H124.00181077V153.20597555h154.36487098m25.03214125-58.40832956H98.96966954c-18.46120416 0-33.37618832 14.91498416-33.37618833 33.37618833v767.65233136c0 18.46120416 14.91498416 33.37618832 33.37618833 33.37618833h204.42915346c18.46120416 0 33.37618832-14.91498416 33.37618831-33.37618833V128.17383432c0-18.46120416-14.91498416-33.37618832-33.37618831-33.37618833zM589.1824355 153.20597555v717.5880489H434.8175645V153.20597555h154.364871m25.03214123-58.40832956H409.78542327c-18.46120416 0-33.37618832 14.91498416-33.37618833 33.37618833v767.65233136c0 18.46120416 14.91498416 33.37618832 33.37618833 33.37618833h204.42915346c18.46120416 0 33.37618832-14.91498416 33.37618833-33.37618833V128.17383432c0-18.46120416-14.91498416-33.37618832-33.37618833-33.37618833zM899.99818923 153.20597555v717.5880489H745.63331825V153.20597555h154.36487098m25.03214123-58.40832956H720.601177c-18.46120416 0-33.37618832 14.91498416-33.37618831 33.37618833v767.65233136c0 18.46120416 14.91498416 33.37618832 33.37618831 33.37618833h204.42915346c18.46120416 0 33.37618832-14.91498416 33.37618833-33.37618833V128.17383432c0-18.46120416-14.91498416-33.37618832-33.37618833-33.37618833z" p-id="2171"></path></svg>