<?xml version="1.0" standalone="no"?><!DOCTYPE svg PUBLIC "-//W3C//DTD SVG 1.1//EN" "http://www.w3.org/Graphics/SVG/1.1/DTD/svg11.dtd"><svg t="1591255638959" class="icon" viewBox="0 0 1024 1024" version="1.1" xmlns="http://www.w3.org/2000/svg" p-id="2047" xmlns:xlink="http://www.w3.org/1999/xlink" width="64" height="64"><defs><style type="text/css"></style></defs><path d="M887.51396915 772.05259588l-60.90117938-138.04093988v-196.88956375c0-129.90865829-83.21948656-247.63188526-202.96928888-294.32105701C619.56436909 85.95300657 570.87460403 41.29040924 512 41.29040924c-58.87460403 0-105.56377578 44.63661529-111.64350089 101.4846449-121.77637672 46.68917175-202.96928793 164.41239871-202.96928888 294.32105701v196.88956281L136.48603085 772.05259588a58.25104266 58.25104266 0 0 0 4.05315071 54.79547221 57.10784622 57.10784622 0 0 0 48.7157471 26.39743993h645.49014268c20.29173276 0 38.55689016-10.15885693 48.7157471-26.39743993 10.13287584-16.23858205 12.18543228-38.55689016 4.05315071-54.82145331zM512 985.18074168a100.49733879 100.49733879 0 0 0 101.48464397-101.51062601h-202.96928794A100.49733879 100.49733879 0 0 0 512 985.20672372z" p-id="2048"></path></svg>