<?xml version="1.0" standalone="no"?><!DOCTYPE svg PUBLIC "-//W3C//DTD SVG 1.1//EN" "http://www.w3.org/Graphics/SVG/1.1/DTD/svg11.dtd"><svg t="1591255609033" class="icon" viewBox="0 0 1024 1024" version="1.1" xmlns="http://www.w3.org/2000/svg" p-id="1674" xmlns:xlink="http://www.w3.org/1999/xlink" width="64" height="64"><defs><style type="text/css"></style></defs><path d="M744.212 700.842V551.33h-56.064v204.476h172.596v-54.964H744.212zM178 588h218v56H178z m0-148h398v54H178z m0-150h450v54H178z" p-id="1675"></path><path d="M452 880H106c-27.5 0-50-22.5-50-50V106c0-27.5 22.5-50 50-50h594c27.5 0 50 22.5 50 50v296h52V86c0-44-36-80-80-80H86C42 6 6 42 6 86v766c0 44 36 80 80 80h366v-52z" p-id="1676"></path><path d="M840.558 479.322c-108.284-43.426-232.512-19.79-315.51 60.464-83.552 80.25-108.288 200.628-63.212 305.616C507.458 950.39 612.446 1018 730.074 1018c159.956 0 290.226-125.876 289.678-279.782 0-113.784-70.358-215.472-179.194-258.896zM730.074 966.978c-131.756 0-238.844-103.162-238.844-229.31s107.088-229.314 238.844-229.314c131.758 0 238.846 103.166 238.846 229.314s-107.088 229.31-238.846 229.31z" p-id="1677"></path></svg>