<?xml version="1.0" standalone="no"?><!DOCTYPE svg PUBLIC "-//W3C//DTD SVG 1.1//EN" "http://www.w3.org/Graphics/SVG/1.1/DTD/svg11.dtd"><svg t="1591255672232" class="icon" viewBox="0 0 1024 1024" version="1.1" xmlns="http://www.w3.org/2000/svg" p-id="2540" xmlns:xlink="http://www.w3.org/1999/xlink" width="64" height="64"><defs><style type="text/css"></style></defs><path d="M558.45965414 377.73698144v167.83111997c0 22.24731553-18.41322589 40.27567225-41.11946401 40.27567224s-41.11946401-18.02835673-41.11946401-40.27567224V377.73698144H344.63823268a13.71344138 13.71344138 0 0 1-12.53901674-8.28772476 13.2221856 13.2221856 0 0 1 2.88391126-14.54680308L507.68508465 184.51701222c2.56370846-2.52094522 6.05569216-3.93004617 9.68743866-3.93004617 3.63070349 0 7.1237302 1.40910095 9.69786872 3.93004617l172.70091445 170.319732c3.92065912 3.85599275 5.07318062 9.64467542 2.9266745 14.66466275-2.14650611 5.01998733-7.1769235 8.26686465-12.72049977 8.22410141H558.45965414zM174.68146673 42.06326845h685.31744681c37.85068357 0 68.53591671 30.05421458 68.5359167 67.13724581V914.79844273c0 37.08303124-30.68523314 67.13724581-68.5359167 67.13724581H174.68146673c-37.85068357 0-68.53591671-30.05421458-68.53591671-67.13724581V109.20155727c0-37.08303124 30.68523314-67.13724581 68.53591671-67.13724581z m13.70301132 859.31168854h657.91142417V122.62504301H188.38447805v778.74991398zM311.74287008 646.26301856h411.1946401c18.92534178 0 34.26274332 15.03805885 34.26274332 33.56810141 0 18.54151562-15.33740154 33.56914441-34.26274332 33.5691444H311.74287008c-18.92534178 0-34.26274332-15.02762879-34.26274332-33.5691444 0-18.53004255 15.33740154-33.56810141 34.26274332-33.56810141z m0 134.27344862h411.1946401c18.92534178 0 34.26274332 15.02762879 34.26274332 33.56914441 0 18.53004255-15.33740154 33.56810141-34.26274332 33.5681014H311.74287008c-18.92534178 0-34.26274332-15.03805885-34.26274332-33.5681014 0-18.54151562 15.33740154-33.56914441 34.26274332-33.56914441z" p-id="2541"></path></svg>