<?xml version="1.0" standalone="no"?><!DOCTYPE svg PUBLIC "-//W3C//DTD SVG 1.1//EN" "http://www.w3.org/Graphics/SVG/1.1/DTD/svg11.dtd"><svg t="1591255626700" class="icon" viewBox="0 0 1024 1024" version="1.1" xmlns="http://www.w3.org/2000/svg" p-id="1920" xmlns:xlink="http://www.w3.org/1999/xlink" width="64" height="64"><defs><style type="text/css"></style></defs><path d="M187.30225339 361.33591041h106.91146432V254.42444609H187.30225339v106.91146432z m35.62064102-35.6701832h35.67018227v-35.62064009h-35.67018227v35.67018226z m137.23111969 35.6701832h106.86192214V254.42444609H360.10447194v106.91146432z m35.62064011-35.6701832h35.62064102v-35.62064009h-35.67018226v35.67018226z" p-id="1921"></path><path d="M896.44530305 562.67427476a62.37327818 62.37327818 0 0 0 60.54022646-62.42281942V126.16041366c0-33.73804804-26.80217933-61.38243953-60.54022646-62.32373601H128.49599344A62.37327818 62.37327818 0 0 0 66.12271526 126.11087151v374.19012599a62.37327818 62.37327818 0 0 0 62.37327818 62.37327726h365.27257996v46.32169571a53.45573216 53.45573216 0 0 0-33.8866736 35.62064102H187.30225339a35.67018318 35.67018318 0 0 0-37.45369184 35.67018317v96.16086748H101.79289843a35.67018318 35.67018318 0 0 0-35.67018317 35.67018226v106.91146522c0 19.66814286 15.95249816 35.62064102 35.67018317 35.6206401h142.48256318a35.67018318 35.67018318 0 0 0 35.67018318-35.67018225v-106.86192307a35.67018318 35.67018318 0 0 0-35.67018319-35.67018226H185.51874382v-97.99391921h277.93017419c5.44961121 13.87173744 16.39837578 24.87004418 30.31965539 30.31965539v67.67426382H422.47775012a35.67018318 35.67018318 0 0 0-35.67018319 35.67018226v106.91146522c0 19.66814286 16.00204032 35.62064102 35.67018319 35.6206401h178.15274543a35.67018318 35.67018318 0 0 0 35.67018319-35.67018225v-106.86192307a35.67018318 35.67018318 0 0 0-35.67018319-35.67018226H529.38921443V708.82294047a53.50527432 53.50527432 0 0 0 19.61859979-10.70105467h1.7339674a53.50527432 53.50527432 0 0 0 10.70105468-16.05158248h277.93017421v94.42690098h-60.54022644a35.67018318 35.67018318 0 0 0-35.67018318 35.67018226v106.9114643c0 19.66814286 16.00204032 35.62064102 35.67018318 35.62064102h142.53210532a35.67018318 35.67018318 0 0 0 35.67018227-35.67018226v-106.86192306a35.67018318 35.67018318 0 0 0-35.67018227-35.67018226h-46.32169569v-96.21040964a35.67018318 35.67018318 0 0 0-37.4041506-35.62064102h-274.41269722a53.45573216 53.45573216 0 0 0-33.83713145-35.67018317v-46.27215355h367.05608862zM101.79289843 919.02930962h142.48256318v-106.91146522H101.79289843v106.91146522z m677.03988564 0h142.53210532v-106.91146522h-142.53210532v106.91146522zM128.49599344 527.00409249a26.75263716 26.75263716 0 0 1-26.75263716-26.75263715V126.16041366a26.75263716 26.75263716 0 0 1 26.75263715-26.75263714h767.89976746a26.75263716 26.75263716 0 0 1 24.9691285 26.75263714v374.190126a26.75263716 26.75263716 0 0 1-24.91958634 26.75263624H128.49599344z m383.05812893 114.04550076a17.83509114 17.83509114 0 1 1 0 35.6701832 17.83509114 17.83509114 0 0 1 0-35.6701832z m-89.07637225 277.93017422h178.15274543v-106.86192307H422.47775012v106.91146522z" p-id="1922"></path><path d="M705.7584512 361.33591041h106.91146431V254.42444609h-106.91146431v106.91146432z m35.67018227-35.6701832h35.62064102v-35.62064009h-35.67018227v35.67018226z m-208.47240082 35.6701832h106.9114643V254.42444609H532.95623266v106.91146432z m35.67018227-35.6701832h35.57109886v-35.62064009h-35.62064101v35.67018226z" p-id="1923"></path></svg>