<?xml version="1.0" standalone="no"?><!DOCTYPE svg PUBLIC "-//W3C//DTD SVG 1.1//EN" "http://www.w3.org/Graphics/SVG/1.1/DTD/svg11.dtd"><svg t="1591255697383" class="icon" viewBox="0 0 1024 1024" version="1.1" xmlns="http://www.w3.org/2000/svg" p-id="2908" xmlns:xlink="http://www.w3.org/1999/xlink" width="64" height="64"><defs><style type="text/css"></style></defs><path d="M465.569773 56.08694445c288.60239844-28.32869922 529.23958333 211.28643967 502.5475 499.58203255-19.53296745 211.18385156-186.94621268 384.2221849-397.51741189 410.81263889-107.07513889 13.49944445-207.50314367-10.73819445-291.26106033-60.236477L150.88986111 950.527727c-13.60203255 4.70371268-27.20310633-7.15911589-24.44185634-21.27217145l25.97588412-133.97143966C80.42717145 704.06027778 41.87130078 585.01972222 57.10994922 456.57078255 82.16541667 245.69277778 254.18074523 76.94972222 465.569773 56.08694445z m0.61361111 410.09643966c-25.2596849 0-45.81565711 20.55597222-45.81565711 45.81661589 0 25.26064367 20.55597222 45.81661589 45.81565711 45.81661589h274.89777779c25.26064367 0 45.81661589-20.55597222 45.81661588-45.81661589 0-25.26064367-20.55597222-45.81661589-45.81661588-45.81661589h-274.89777779z m-183.26454601 91.63323178c25.2596849 0 45.81565711-20.55597222 45.81565713-45.81661589 0-25.26064367-20.55597222-45.81661589-45.81565713-45.81661589-25.26064367 0-45.81661589 20.55597222-45.81661588 45.81661589 0 25.26064367 20.55597222 45.81661589 45.81661588 45.81661589z" p-id="2909"></path></svg>