<?xml version="1.0" encoding="utf-8"?>
<!-- Generator: Adobe Illustrator 16.0.0, SVG Export Plug-In . SVG Version: 6.00 Build 0)  -->
<!DOCTYPE svg PUBLIC "-//W3C//DTD SVG 1.1//EN" "http://www.w3.org/Graphics/SVG/1.1/DTD/svg11.dtd">
<svg version="1.1" id="图层_1" xmlns="http://www.w3.org/2000/svg" xmlns:xlink="http://www.w3.org/1999/xlink" x="0px" y="0px"
	 width="42.52px" height="42.52px" viewBox="0 0 42.52 42.52" enable-background="new 0 0 42.52 42.52" xml:space="preserve">
<g>
	<polygon fill="#231815" points="40.234,19.777 35.396,14.94 35.396,17.614 30.039,17.617 30.039,22.227 35.396,22.227 
		35.396,24.615 	"/>
	<polygon fill="#231815" points="26.176,11.941 29.437,15.202 33.22,11.416 34.911,13.104 34.911,6.262 28.072,6.262 29.964,8.153 	
		"/>
	<polygon fill="#231815" points="19.431,10.662 24.044,10.662 24.044,5.307 26.433,5.307 21.595,0.468 16.756,5.304 19.431,5.307 	
		"/>
	<polygon fill="#231815" points="13.756,14.527 17.019,11.266 13.23,7.48 14.921,5.79 8.079,5.79 8.079,12.628 9.97,10.74 	"/>
	<polygon fill="#231815" points="12.478,16.66 7.125,16.66 7.125,14.272 2.285,19.106 7.122,23.943 7.125,21.271 12.478,21.271 	"/>
	<path fill="#231815" d="M21.274,13.543c-2.861,0-5.181,2.864-5.181,6.397s2.32,6.401,5.181,6.401c2.858,0,5.176-2.867,5.176-6.401
		S24.133,13.543,21.274,13.543z"/>
	<path fill="#231815" d="M28.582,28.02c-0.056,0.006-2.205-0.293-3.046-0.354l-0.018,0.078l2.221,1.875l-2.651,1.33l1.224,2.104
		l-3.296,7.275l-0.513-9.945l0.496-0.428l-0.658-2.41h-2.135l-0.657,2.41l0.491,0.426l-0.529,10.295l-3.452-7.623l1.228-2.104
		l-2.65-1.33l2.216-1.877l-0.019-0.076c-0.84,0.061-2.855,0.354-2.875,0.354c-1.557-0.076-2.933,1.176-3.079,2.857l-0.588,7.477
		c2.579,2.002,5.718,3.303,9.151,3.617c0.53,0.051,1.064,0.08,1.609,0.08c0.696,0,1.374-0.049,2.044-0.129
		c3.443-0.396,6.592-1.781,9.13-3.873l-0.565-7.172C31.517,29.195,30.143,27.943,28.582,28.02z"/>
</g>
</svg>
