<?xml version="1.0" encoding="utf-8"?>
<!-- Generator: Adobe Illustrator 16.0.0, SVG Export Plug-In . SVG Version: 6.00 Build 0)  -->
<!DOCTYPE svg PUBLIC "-//W3C//DTD SVG 1.1//EN" "http://www.w3.org/Graphics/SVG/1.1/DTD/svg11.dtd">
<svg version="1.1" id="图层_1" xmlns="http://www.w3.org/2000/svg" xmlns:xlink="http://www.w3.org/1999/xlink" x="0px" y="0px"
	 width="42.52px" height="42.52px" viewBox="0 0 42.52 42.52" enable-background="new 0 0 42.52 42.52" xml:space="preserve">
<g>
	<path fill="#231815" d="M36.048,12.259L26.535,1.961c-0.24-0.259-0.581-0.409-0.935-0.409H10.048c-2.157,0-3.915,1.758-3.915,3.915
		v31.585c0,2.156,1.758,3.914,3.915,3.914h22.423c2.16,0,3.916-1.758,3.916-3.914V13.124C36.387,12.803,36.267,12.495,36.048,12.259
		 M32.663,12.35h-6.461V5.357L32.663,12.35z M33.84,37.053c0,0.75-0.615,1.366-1.369,1.366H10.048c-0.754,0-1.367-0.616-1.367-1.366
		V5.468c0-0.753,0.613-1.367,1.367-1.367h14.95v8.851c0,0.333,0.27,0.603,0.603,0.603h8.173l0.066,0.068V37.053z"/>
	<path fill="#231815" d="M28.682,30.515H13.836c-0.235,0-0.424,0.191-0.424,0.424c0,0.236,0.188,0.427,0.424,0.427h14.846
		c0.237,0,0.426-0.19,0.426-0.427C29.107,30.706,28.919,30.515,28.682,30.515"/>
	<path fill="#231815" d="M28.682,23.992H13.836c-0.235,0-0.424,0.19-0.424,0.425s0.188,0.425,0.424,0.425h14.846
		c0.237,0,0.426-0.19,0.426-0.425S28.919,23.992,28.682,23.992"/>
	<path fill="#231815" d="M28.682,17.47H13.836c-0.235,0-0.424,0.191-0.424,0.426c0,0.232,0.188,0.423,0.424,0.423h14.846
		c0.237,0,0.426-0.19,0.426-0.423C29.107,17.661,28.919,17.47,28.682,17.47"/>
</g>
</svg>
