<?xml version="1.0" encoding="utf-8"?>
<!-- Generator: Adobe Illustrator 16.0.0, SVG Export Plug-In . SVG Version: 6.00 Build 0)  -->
<!DOCTYPE svg PUBLIC "-//W3C//DTD SVG 1.1//EN" "http://www.w3.org/Graphics/SVG/1.1/DTD/svg11.dtd">
<svg version="1.1" id="图层_1" xmlns="http://www.w3.org/2000/svg" xmlns:xlink="http://www.w3.org/1999/xlink" x="0px" y="0px"
	 width="42.52px" height="42.52px" viewBox="0 0 42.52 42.52" enable-background="new 0 0 42.52 42.52" xml:space="preserve">
<path fill="#231815" d="M21.259,0.787C9.95,0.787,0.785,9.955,0.785,21.259c0,11.311,9.165,20.474,20.474,20.474
	c11.31,0,20.476-9.163,20.476-20.474C41.734,9.955,32.568,0.787,21.259,0.787z M18.187,33.463c-0.461,0.455-1.201,0.455-1.655,0
	l-0.367-0.367l0,0l-0.399-0.396l-1.712-1.713l-0.027-0.04l-7.857-7.917c-0.458-0.455-0.458-1.199,0-1.65l2.477-2.477
	c0.459-0.458,1.194-0.458,1.652,0l7.069,7.12l14.858-14.86c0.455-0.456,1.195-0.456,1.649,0l2.477,2.479
	c0.458,0.455,0.458,1.197,0,1.652L18.187,33.463z"/>
</svg>
