<?xml version="1.0" encoding="utf-8"?>
<!-- Generator: Adobe Illustrator 16.0.0, SVG Export Plug-In . SVG Version: 6.00 Build 0)  -->
<!DOCTYPE svg PUBLIC "-//W3C//DTD SVG 1.1//EN" "http://www.w3.org/Graphics/SVG/1.1/DTD/svg11.dtd">
<svg version="1.1" id="图层_1" xmlns="http://www.w3.org/2000/svg" xmlns:xlink="http://www.w3.org/1999/xlink" x="0px" y="0px"
	 width="42.52px" height="42.52px" viewBox="0 0 42.52 42.52" enable-background="new 0 0 42.52 42.52" xml:space="preserve">
<circle fill="#231815" cx="21.26" cy="21.26" r="21.121"/>
<g>
	<path fill="#FFFFFF" d="M27.113,34.417v-3.832c0-0.793,0.643-1.44,1.441-1.44l2.969-0.085L27.113,34.417z"/>
	<path fill="#FFFFFF" d="M30.084,8.103H12.438c-0.799,0-1.442,0.646-1.442,1.44v23.435c0,0.796,0.644,1.439,1.442,1.439h13.242
		v-5.109c0-0.794,0.646-1.439,1.442-1.439h4.4V9.543C31.523,8.748,30.881,8.103,30.084,8.103z M29.115,12.146
		c0,0.226-0.248,0.411-0.557,0.411H13.675c-0.309,0-0.558-0.186-0.558-0.411v-0.683c0-0.229,0.249-0.412,0.558-0.412h14.884
		c0.309,0,0.557,0.183,0.557,0.412V12.146z M29.115,15.098c0,0.229-0.248,0.413-0.557,0.413H13.675
		c-0.309,0-0.558-0.185-0.558-0.413v-0.685c0-0.224,0.249-0.41,0.558-0.41h14.884c0.309,0,0.557,0.187,0.557,0.41V15.098z
		 M29.115,18.112c0,0.225-0.248,0.41-0.557,0.41H13.675c-0.309,0-0.558-0.186-0.558-0.41v-0.687c0-0.227,0.249-0.41,0.558-0.41
		h14.884c0.309,0,0.557,0.184,0.557,0.41V18.112z M21.545,21.096c0,0.225-0.131,0.408-0.293,0.408h-7.84
		c-0.163,0-0.294-0.184-0.294-0.408v-0.687c0-0.226,0.131-0.409,0.294-0.409h7.84c0.163,0,0.293,0.184,0.293,0.409V21.096z"/>
</g>
</svg>
