<?xml version="1.0" encoding="utf-8"?>
<!-- Generator: Adobe Illustrator 16.0.0, SVG Export Plug-In . SVG Version: 6.00 Build 0)  -->
<!DOCTYPE svg PUBLIC "-//W3C//DTD SVG 1.1//EN" "http://www.w3.org/Graphics/SVG/1.1/DTD/svg11.dtd">
<svg version="1.1" id="图层_1" xmlns="http://www.w3.org/2000/svg" xmlns:xlink="http://www.w3.org/1999/xlink" x="0px" y="0px"
	 width="42.52px" height="42.52px" viewBox="0 0 42.52 42.52" enable-background="new 0 0 42.52 42.52" xml:space="preserve">
<g>
	<g>
		<g>
			<path fill="#231815" d="M21.259,22.976c-7.111,0-13.066-2.088-14.692-4.909c-0.286,0.498-0.456,1.012-0.456,1.544v4.611
				c0,3.563,6.782,6.447,15.147,6.447c8.366,0,15.149-2.885,15.149-6.447V19.61c0-0.532-0.169-1.046-0.458-1.544
				C34.321,20.888,28.373,22.976,21.259,22.976z"/>
		</g>
	</g>
	<g>
		<g>
			<path fill="#231815" d="M21.259,32.492c-7.111,0-13.066-2.095-14.692-4.897c-0.286,0.491-0.456,1.003-0.456,1.536v4.612
				c0,3.56,6.782,6.446,15.147,6.446c8.366,0,15.149-2.887,15.149-6.446v-4.612c0-0.533-0.169-1.045-0.458-1.536
				C34.321,30.397,28.373,32.492,21.259,32.492z"/>
		</g>
	</g>
	<g>
		<g>
			<path fill="#231815" d="M35.992,8.856c-0.296,2.606-6.767,4.695-14.733,4.695c-7.965,0-14.44-2.089-14.731-4.692
				C6.267,9.331,6.111,9.822,6.111,10.33v4.608c0,3.566,6.782,6.445,15.147,6.445c8.366,0,15.149-2.879,15.149-6.445V10.33
				C36.408,9.822,36.252,9.331,35.992,8.856z"/>
		</g>
	</g>
	<g>
		<g>
			<path fill="#231815" d="M21.259,12.089c8.152,0,14.76-2.183,14.76-4.877c0-2.696-6.607-4.882-14.76-4.882
				c-8.155,0-14.762,2.186-14.762,4.882C6.497,9.906,13.104,12.089,21.259,12.089z"/>
		</g>
	</g>
</g>
</svg>
