<?xml version="1.0" encoding="utf-8"?>
<!-- Generator: Adobe Illustrator 16.0.0, SVG Export Plug-In . SVG Version: 6.00 Build 0)  -->
<!DOCTYPE svg PUBLIC "-//W3C//DTD SVG 1.1//EN" "http://www.w3.org/Graphics/SVG/1.1/DTD/svg11.dtd">
<svg version="1.1" id="图层_1" xmlns="http://www.w3.org/2000/svg" xmlns:xlink="http://www.w3.org/1999/xlink" x="0px" y="0px"
	 width="42.52px" height="42.52px" viewBox="0 0 42.52 42.52" enable-background="new 0 0 42.52 42.52" xml:space="preserve">
<g>
	<path fill="#231815" d="M18.967,22.342c-0.12-0.063-0.263-0.044-0.369,0.042c-1.027,0.88-2.262,1.494-3.577,1.773
		c-0.126,0.023-0.226,0.124-0.256,0.249c-0.028,0.124,0.016,0.254,0.118,0.336c0.579,0.461,0.912,1.137,0.912,1.854
		c0,0.774-0.379,1.501-1.015,1.942c-0.105,0.074-0.158,0.204-0.138,0.331l1.407,8.101c0.026,0.158,0.165,0.275,0.325,0.275h9.835
		c0.092,0,0.175-0.037,0.236-0.101c0.063-0.062,0.101-0.147,0.096-0.238C26.402,30.189,23.57,24.742,18.967,22.342"/>
	<path fill="#231815" d="M21.056,14.504c0-4.31-3.426-7.815-7.636-7.815c-2.457,0-4.638,1.196-6.037,3.043
		c-0.04,0.027-0.082,0.049-0.114,0.086c-0.063,0.074-0.105,0.159-0.13,0.249C6.283,11.33,5.78,12.856,5.78,14.504
		c0,4.31,3.426,7.819,7.64,7.819C17.629,22.323,21.056,18.814,21.056,14.504 M13.42,8.348c1.211,0,2.335,0.377,3.274,1.013
		c-0.896,0.086-1.934,0.51-3.529,1.364c-1.528,0.814-3.162,0.159-4.122-0.402C10.136,9.113,11.691,8.348,13.42,8.348 M13.42,20.661
		c-3.298,0-5.979-2.763-5.979-6.157c0-1.131,0.301-2.185,0.82-3.098c0.783,0.477,1.985,1.038,3.341,1.038
		c0.705,0,1.45-0.15,2.191-0.55c2.718-1.455,3.327-1.411,4.382-0.928c0.049,0.021,0.103,0.025,0.152,0.034
		c0.671,0.996,1.068,2.204,1.068,3.504C19.396,17.898,16.717,20.661,13.42,20.661"/>
	<path fill="#231815" d="M30.124,20.818c0-0.561,0.257-1.088,0.711-1.447c0.082-0.065,0.117-0.166,0.091-0.266
		c-0.022-0.097-0.1-0.172-0.198-0.192c-1.022-0.215-1.989-0.695-2.793-1.382c-0.082-0.069-0.194-0.083-0.286-0.031
		c-2.038,1.064-3.63,2.893-4.647,5.232c1.772,1.656,3.148,3.839,4.042,6.403h2.626c0.126,0,0.231-0.091,0.256-0.213L31.03,22.6
		c0.018-0.098-0.023-0.199-0.104-0.254C30.422,21.996,30.124,21.425,30.124,20.818"/>
	<path fill="#231815" d="M36.313,17.5c-0.096-0.053-0.206-0.039-0.289,0.031c-0.803,0.685-1.768,1.165-2.793,1.382
		c-0.099,0.023-0.177,0.096-0.196,0.195c-0.023,0.098,0.009,0.202,0.09,0.264c0.447,0.361,0.71,0.884,0.71,1.447
		c0,0.604-0.295,1.171-0.791,1.52c-0.085,0.054-0.124,0.155-0.109,0.256l1.101,6.326c0.018,0.122,0.129,0.215,0.254,0.215h7.68
		c0.069,0,0.136-0.027,0.184-0.08c0.05-0.049,0.076-0.116,0.073-0.188C42.116,23.623,39.904,19.374,36.313,17.5"/>
	<path fill="#231815" d="M37.946,11.382c0-3.368-2.679-6.109-5.968-6.109c-1.915,0-3.616,0.935-4.708,2.378
		c-0.034,0.021-0.066,0.037-0.094,0.068c-0.05,0.056-0.081,0.125-0.102,0.195c-0.667,0.984-1.061,2.178-1.061,3.467
		c0,3.362,2.679,6.101,5.964,6.101C35.268,17.483,37.946,14.745,37.946,11.382 M31.979,6.573c0.944,0,1.82,0.293,2.553,0.79
		c-0.697,0.068-1.509,0.399-2.748,1.064c-1.193,0.635-2.462,0.125-3.208-0.311C29.428,7.172,30.633,6.573,31.979,6.573
		 M31.979,16.186c-2.57,0-4.665-2.156-4.665-4.803c0-0.885,0.248-1.702,0.654-2.415c0.611,0.37,1.542,0.804,2.592,0.804
		c0.552,0,1.132-0.118,1.713-0.427c2.12-1.137,2.597-1.105,3.422-0.731c0.037,0.016,0.076,0.021,0.11,0.027
		c0.526,0.779,0.841,1.723,0.841,2.742C36.646,14.03,34.553,16.186,31.979,16.186"/>
	<path fill="#231815" d="M11.041,26.599c0-0.722,0.333-1.398,0.912-1.861c0.102-0.077,0.146-0.211,0.119-0.334
		c-0.03-0.125-0.13-0.223-0.256-0.249c-1.313-0.276-2.548-0.891-3.575-1.771c-0.105-0.086-0.252-0.104-0.37-0.04
		c-4.6,2.398-7.431,7.846-7.575,14.563c-0.002,0.091,0.033,0.177,0.095,0.238c0.063,0.063,0.149,0.102,0.237,0.102h9.831
		c0.162,0,0.301-0.118,0.328-0.276l1.417-8.091c0.023-0.125-0.032-0.258-0.136-0.329C11.424,28.103,11.041,27.373,11.041,26.599"/>
</g>
</svg>
