<?xml version="1.0" encoding="utf-8"?>
<!-- Generator: Adobe Illustrator 16.0.0, SVG Export Plug-In . SVG Version: 6.00 Build 0)  -->
<!DOCTYPE svg PUBLIC "-//W3C//DTD SVG 1.1//EN" "http://www.w3.org/Graphics/SVG/1.1/DTD/svg11.dtd">
<svg version="1.1" id="图层_1" xmlns="http://www.w3.org/2000/svg" xmlns:xlink="http://www.w3.org/1999/xlink" x="0px" y="0px"
	 width="42.52px" height="42.52px" viewBox="0 0 42.52 42.52" enable-background="new 0 0 42.52 42.52" xml:space="preserve">
<path fill="#231815" d="M41.566,20.512L30.309,7.559c-0.188-0.52-0.697-0.896-1.301-0.896H11.6
	c-1.235-1.219-2.912-1.912-4.649-1.912c-3.654,0-6.617,2.971-6.617,6.624c0,0.469,0.063,0.923,0.157,1.367L0.483,12.77l0.016,0.02
	c0.204,0.907,0.578,1.753,1.104,2.48l-0.059,0.056l11.767,13.547l0.042-0.035c1.202,1.681,3.171,2.777,5.391,2.777
	c0.433,0,0.858-0.042,1.274-0.124c1.252-0.249,2.425-0.861,3.343-1.765h1.076v8.043l2.627-2.749l2.623,2.749v-8.043h11.117
	c0.762,0,1.381-0.599,1.381-1.338v-6.757C42.186,21.164,41.943,20.752,41.566,20.512z M28.648,8.206
	c0.041,0.032,0.076,0.062,0.113,0.096l0,0l0.094,0.115l0.693,0.791l0,0l0.844,0.98L39.17,20.29H23.6l-3.636-4.187l-1.336-1.538
	l-5.529-6.359H28.648z M40.648,28.188H29.688v-3.992h-5.25v3.992h-1.729l-0.229,0.249c-0.968,1.04-2.33,1.639-3.736,1.639
	c-1.758,0-3.307-0.893-4.219-2.255l0.043-0.037l-0.214-0.243c-0.44-0.75-0.691-1.617-0.691-2.548c0-2.799,2.281-5.079,5.081-5.079
	c1.418,0,2.786,0.608,3.752,1.665l0.23,0.248h0.012l0.021,0.024l0.029-0.024h17.719l0.021,0.024l0.029-0.024h0.09V28.188z"/>
</svg>
