<?xml version="1.0" encoding="utf-8"?>
<!-- Generator: Adobe Illustrator 16.0.0, SVG Export Plug-In . SVG Version: 6.00 Build 0)  -->
<!DOCTYPE svg PUBLIC "-//W3C//DTD SVG 1.1//EN" "http://www.w3.org/Graphics/SVG/1.1/DTD/svg11.dtd">
<svg version="1.1" id="图层_1" xmlns="http://www.w3.org/2000/svg" xmlns:xlink="http://www.w3.org/1999/xlink" x="0px" y="0px"
	 width="42.52px" height="42.52px" viewBox="0 0 42.52 42.52" enable-background="new 0 0 42.52 42.52" xml:space="preserve">
<path fill-rule="evenodd" clip-rule="evenodd" fill="#231815" d="M36.48,41.322h-2.076V1.197h2.076c1.146,0,2.076,0.93,2.076,2.076
	v35.976C38.557,40.395,37.627,41.322,36.48,41.322 M8.114,39.248v-2.074h3.459c2.293,0,4.151-1.859,4.151-4.15
	c0-2.295-1.858-4.152-4.151-4.152H8.114v-3.459h3.459c2.293,0,4.151-1.859,4.151-4.152s-1.858-4.151-4.151-4.151H8.114V13.65h3.459
	c2.293,0,4.151-1.858,4.151-4.151c0-2.292-1.858-4.151-4.151-4.151H8.114V3.272c0-1.146,0.929-2.076,2.076-2.076h22.14v40.125H10.19
	C9.043,41.322,8.114,40.395,8.114,39.248 M13.649,9.499c0,1.147-0.929,2.076-2.076,2.076H6.039c-1.147,0-2.076-0.929-2.076-2.076
	c0-1.146,0.929-2.075,2.076-2.075h5.534C12.72,7.423,13.649,8.352,13.649,9.499 M6.039,19.185h5.534
	c1.146,0,2.076,0.929,2.076,2.076c0,1.146-0.929,2.076-2.076,2.076H6.039c-1.147,0-2.076-0.93-2.076-2.076
	C3.963,20.114,4.892,19.185,6.039,19.185 M6.039,30.945h5.534c1.146,0,2.076,0.932,2.076,2.078c0,1.145-0.929,2.074-2.076,2.074
	H6.039c-1.147,0-2.076-0.93-2.076-2.074C3.963,31.877,4.892,30.945,6.039,30.945"/>
</svg>
