<?xml version="1.0" encoding="utf-8"?>
<!-- Generator: Adobe Illustrator 16.0.0, SVG Export Plug-In . SVG Version: 6.00 Build 0)  -->
<!DOCTYPE svg PUBLIC "-//W3C//DTD SVG 1.1//EN" "http://www.w3.org/Graphics/SVG/1.1/DTD/svg11.dtd">
<svg version="1.1" id="图层_1" xmlns="http://www.w3.org/2000/svg" xmlns:xlink="http://www.w3.org/1999/xlink" x="0px" y="0px"
	 width="42.52px" height="42.52px" viewBox="0 0 42.52 42.52" enable-background="new 0 0 42.52 42.52" xml:space="preserve">
<path fill-rule="evenodd" clip-rule="evenodd" d="M38.719,40.733H30.66c-1.113,0-2.014-0.901-2.014-2.014
	c0-1.114,0.9-2.016,2.014-2.016h6.043V30.66c0-1.112,0.902-2.014,2.016-2.014s2.014,0.901,2.014,2.014v8.06
	C40.732,39.832,39.832,40.733,38.719,40.733 M38.719,13.873c-1.113,0-2.016-0.901-2.016-2.014v-0.001V5.815H30.66
	c-1.113,0-2.014-0.901-2.014-2.015s0.9-2.015,2.014-2.015h8.059c1.113,0,2.014,0.901,2.014,2.015v8.059
	C40.732,12.972,39.832,13.873,38.719,13.873 M11.859,5.815L11.859,5.815H5.816v6.044c0,1.112-0.902,2.014-2.015,2.014
	c-1.113,0-2.014-0.901-2.014-2.014V3.801c0-1.113,0.901-2.015,2.014-2.015h8.059c1.113,0,2.014,0.901,2.014,2.015
	S12.972,5.815,11.859,5.815 M11.859,11.859 M3.801,28.646c1.113,0,2.015,0.901,2.015,2.014v6.044h6.043
	c1.113,0,2.014,0.901,2.014,2.016c0,1.112-0.901,2.014-2.014,2.014H3.801c-1.113,0-2.014-0.901-2.014-2.014v-8.06
	C1.787,29.548,2.688,28.646,3.801,28.646"/>
<rect x="1.898" y="19.581" fill-rule="evenodd" clip-rule="evenodd" width="38.723" height="3.357"/>
</svg>
