<?xml version="1.0" encoding="utf-8"?>
<!-- Generator: Adobe Illustrator 16.0.0, SVG Export Plug-In . SVG Version: 6.00 Build 0)  -->
<!DOCTYPE svg PUBLIC "-//W3C//DTD SVG 1.1//EN" "http://www.w3.org/Graphics/SVG/1.1/DTD/svg11.dtd">
<svg version="1.1" id="图层_1" xmlns="http://www.w3.org/2000/svg" xmlns:xlink="http://www.w3.org/1999/xlink" x="0px" y="0px"
	 width="42.52px" height="42.52px" viewBox="0 0 42.52 42.52" enable-background="new 0 0 42.52 42.52" xml:space="preserve">
<g>
	<polygon fill="#231815" points="42.235,27.088 39.353,24.205 32.665,30.891 29.267,27.493 26.382,30.375 32.677,36.668 
		35.562,33.785 35.55,33.773 	"/>
	<circle fill="#231815" cx="17.083" cy="13.276" r="7.423"/>
	<path fill="#231815" d="M23.61,28.758l4.493-4.494l5.3,5.298l0.478-0.478v-0.579c0-2.9-6.35-7.003-9.498-7.003h-2.315
		c-1.318,1.198-3.064,1.934-4.984,1.934c-1.921,0-3.667-0.735-4.984-1.934H9.782c-3.148,0-9.498,4.103-9.498,7.003v1.096
		c0,2.9,2.552,5.253,5.699,5.253h22.201c0.471,0,0.927-0.058,1.365-0.159L23.61,28.758z"/>
</g>
</svg>
