<?xml version="1.0" encoding="utf-8"?>
<!-- Generator: Adobe Illustrator 16.0.0, SVG Export Plug-In . SVG Version: 6.00 Build 0)  -->
<!DOCTYPE svg PUBLIC "-//W3C//DTD SVG 1.1//EN" "http://www.w3.org/Graphics/SVG/1.1/DTD/svg11.dtd">
<svg version="1.1" id="图层_1" xmlns="http://www.w3.org/2000/svg" xmlns:xlink="http://www.w3.org/1999/xlink" x="0px" y="0px"
	 width="42.52px" height="42.52px" viewBox="0 0 42.52 42.52" enable-background="new 0 0 42.52 42.52" xml:space="preserve">
<g>
	<path fill="#231815" d="M18.353,26.918c0-0.877,0.404-1.705,1.115-2.268c0.122-0.1,0.178-0.26,0.143-0.412
		c-0.036-0.154-0.158-0.271-0.312-0.307c-1.606-0.336-3.119-1.086-4.374-2.161c-0.124-0.107-0.304-0.128-0.453-0.05
		c-5.621,2.932-9.082,9.588-9.254,17.801c-0.003,0.107,0.04,0.213,0.114,0.293c0.078,0.078,0.183,0.121,0.29,0.121h12.016
		c0.199,0,0.367-0.141,0.401-0.338l1.733-9.891c0.027-0.154-0.039-0.313-0.169-0.4C18.82,28.76,18.353,27.867,18.353,26.918"/>
	<path fill="#231815" d="M28.042,21.718c-0.149-0.076-0.328-0.055-0.453,0.052c-1.253,1.075-2.764,1.821-4.373,2.163
		c-0.154,0.033-0.273,0.152-0.31,0.305c-0.038,0.154,0.018,0.316,0.141,0.414c0.709,0.563,1.113,1.391,1.113,2.266
		c0,0.945-0.462,1.83-1.239,2.373c-0.13,0.094-0.195,0.25-0.169,0.408l1.721,9.898c0.034,0.193,0.203,0.338,0.401,0.338h12.019
		c0.11,0,0.216-0.045,0.29-0.123c0.077-0.076,0.119-0.184,0.119-0.293C37.127,31.309,33.667,24.656,28.042,21.718"/>
	<path fill="#231815" d="M30.595,12.139c0-5.269-4.188-9.554-9.336-9.554c-3.002,0-5.67,1.461-7.38,3.72
		c-0.047,0.035-0.097,0.062-0.135,0.105c-0.079,0.09-0.131,0.196-0.163,0.303c-1.043,1.543-1.66,3.411-1.66,5.425
		c0,5.27,4.19,9.56,9.338,9.56S30.595,17.409,30.595,12.139 M21.259,4.613c1.469,0,2.839,0.455,3.984,1.226
		c-1.087,0.112-2.359,0.642-4.296,1.676c-1.866,1-3.864,0.196-5.037-0.487C17.248,5.546,19.146,4.613,21.259,4.613 M21.259,19.666
		c-4.03,0-7.309-3.375-7.309-7.527c0-1.379,0.369-2.672,1.003-3.783c0.958,0.582,2.431,1.266,4.083,1.266
		c0.862,0,1.773-0.185,2.68-0.671c3.325-1.777,4.072-1.729,5.36-1.138c0.059,0.028,0.12,0.033,0.185,0.043
		c0.821,1.217,1.305,2.692,1.305,4.283C28.564,16.29,25.285,19.666,21.259,19.666"/>
</g>
</svg>
