<?xml version="1.0" encoding="utf-8"?>
<!-- Generator: Adobe Illustrator 16.0.0, SVG Export Plug-In . SVG Version: 6.00 Build 0)  -->
<!DOCTYPE svg PUBLIC "-//W3C//DTD SVG 1.1//EN" "http://www.w3.org/Graphics/SVG/1.1/DTD/svg11.dtd">
<svg version="1.1" id="图层_1" xmlns="http://www.w3.org/2000/svg" xmlns:xlink="http://www.w3.org/1999/xlink" x="0px" y="0px"
	 width="42.52px" height="42.52px" viewBox="0 0 42.52 42.52" enable-background="new 0 0 42.52 42.52" xml:space="preserve">
<path fill="#231815" d="M22.616,17.973h11.428L21.262,5.187v11.43C21.262,17.363,21.867,17.971,22.616,17.973z M34.614,19.905
	H22.616c-1.817,0-3.288-1.47-3.294-3.288V4.615c0-0.219,0.083-0.418,0.201-0.582h-7.359C9.6,4.033,7.52,6.115,7.52,8.681V33.84
	c0,2.564,2.08,4.646,4.645,4.646h18.19c2.567,0,4.646-2.082,4.646-4.646V19.823C34.882,19.876,34.753,19.905,34.614,19.905z
	 M12.358,22.973h17.807c0.444,0,0.807,0.359,0.807,0.805c0,0.447-0.361,0.809-0.807,0.809H12.358c-0.441,0-0.804-0.361-0.804-0.809
	C11.555,23.332,11.916,22.973,12.358,22.973z M30.971,26.875c0,0.444-0.361,0.803-0.807,0.803H12.358
	c-0.441,0-0.804-0.358-0.804-0.803c0-0.443,0.361-0.806,0.804-0.806h17.807C30.609,26.069,30.971,26.432,30.971,26.875z
	 M24.292,33.87H12.357c-0.441,0-0.805-0.361-0.805-0.802c0-0.446,0.361-0.809,0.805-0.809h11.935c0.444,0,0.809,0.362,0.809,0.809
	C25.101,33.509,24.736,33.87,24.292,33.87z M30.165,30.777H12.358c-0.441,0-0.804-0.363-0.804-0.809s0.361-0.805,0.804-0.805h17.807
	c0.444,0,0.807,0.36,0.807,0.805C30.972,30.412,30.609,30.777,30.165,30.777z"/>
</svg>
