<?xml version="1.0" encoding="utf-8"?>
<!-- Generator: Adobe Illustrator 16.0.0, SVG Export Plug-In . SVG Version: 6.00 Build 0)  -->
<!DOCTYPE svg PUBLIC "-//W3C//DTD SVG 1.1//EN" "http://www.w3.org/Graphics/SVG/1.1/DTD/svg11.dtd">
<svg version="1.1" id="图层_1" xmlns="http://www.w3.org/2000/svg" xmlns:xlink="http://www.w3.org/1999/xlink" x="0px" y="0px"
	 width="42.52px" height="42.52px" viewBox="0 0 42.52 42.52" enable-background="new 0 0 42.52 42.52" xml:space="preserve">
<g>
	<g>
		<path fill="#231815" d="M29.758,11.05c1.648,0,2.988-1.65,2.988-3.684c0-2.035-1.34-3.683-2.988-3.683
			c-1.645,0-2.98,1.647-2.98,3.683C26.777,9.4,28.113,11.05,29.758,11.05z"/>
		<path fill="#231815" d="M40.174,18.04v-0.006l-0.021-0.02l-4.996-5.394c-0.363-0.386-0.83-0.597-1.291-0.633
			c-0.047-0.02-0.973-0.126-1.385-0.159l1.053,0.89l-1.564,0.784l0.727,1.243l-1.992,4.399l-0.324-6.213l0.287-0.246l-0.379-1.392
			h-1.232l-0.383,1.392l0.287,0.25l-0.318,6.207l-1.992-4.396l0.725-1.243l-1.564-0.784l1.307-1.104l-0.035-0.136
			c-1.422-0.606-3.02-1.297-3.645-1.518L22.183,8.94v4.472c1.132,0.46,1.983,0.746,2.815,1.017
			c-0.191,4.397-0.324,8.791-0.381,13.188c0,0.031,0.014,0.057,0.014,0.089c0.131,0,0.264,0,0.396,0l0.447,14.242h4.061
			c0.123-4.152,0.049-11.431,0.014-14.242c0.135,0,0.271,0,0.408,0l0.445,14.242h4.063c0.123-4.152,0.049-11.431,0.012-14.242
			c0.139,0,0.273,0,0.416,0c0-0.032,0.008-0.058,0.008-0.089c-0.008-0.698-0.029-1.395-0.043-2.092
			c0.742,0.411,1.492,0.813,2.252,1.189l1.662-3.277l0.83-1.64l0.416-0.819l0.207-0.412l0.105-0.205l0.076-0.152L40.174,18.04z
			 M36.188,19.946l-0.922,1.591l-0.477,0.82c-0.039-1.693-0.092-3.386-0.156-5.076l1.822,2.199L36.188,19.946z"/>
	</g>
	<g>
		<g>
			<path fill="#231815" d="M18.248,11.145H6.458c-0.45,0-0.813-0.364-0.813-0.813c0-0.448,0.363-0.813,0.813-0.813h11.79
				c0.449,0,0.814,0.366,0.814,0.813C19.063,10.781,18.697,11.145,18.248,11.145L18.248,11.145z"/>
		</g>
		<g>
			<path fill="#231815" d="M18.248,14.579H6.458c-0.45,0-0.813-0.364-0.813-0.813c0-0.45,0.363-0.814,0.813-0.814h11.79
				c0.449,0,0.814,0.364,0.814,0.814C19.063,14.215,18.697,14.579,18.248,14.579L18.248,14.579z"/>
		</g>
		<g>
			<path fill="#231815" d="M18.248,18.015H6.458c-0.45,0-0.813-0.364-0.813-0.814c0-0.447,0.363-0.813,0.813-0.813h11.79
				c0.449,0,0.814,0.366,0.814,0.813C19.063,17.65,18.697,18.015,18.248,18.015L18.248,18.015z"/>
		</g>
		<g>
			<path fill="#231815" d="M18.248,21.447H6.458c-0.45,0-0.813-0.365-0.813-0.814c0-0.448,0.363-0.812,0.813-0.812h11.79
				c0.449,0,0.814,0.363,0.814,0.812C19.063,21.082,18.697,21.447,18.248,21.447L18.248,21.447z"/>
		</g>
	</g>
	<path fill="#231815" d="M22.183,0.571H8.08c-0.28,0-0.55,0.108-0.752,0.303L2.446,5.572C2.232,5.778,2.113,6.059,2.113,6.354
		v19.705c0,0.599,0.486,1.083,1.086,1.083h18.983c0.597,0,1.083-0.484,1.083-1.083v-24.4C23.266,1.058,22.779,0.571,22.183,0.571z
		 M7.424,3.792v1.749H5.609L7.424,3.792z M21.096,24.975H4.282V7.214h3.979c0.462,0,0.838-0.377,0.838-0.837V2.741h11.997V24.975z"
		/>
</g>
</svg>
