<?xml version="1.0" encoding="utf-8"?>
<!-- Generator: Adobe Illustrator 16.0.0, SVG Export Plug-In . SVG Version: 6.00 Build 0)  -->
<!DOCTYPE svg PUBLIC "-//W3C//DTD SVG 1.1//EN" "http://www.w3.org/Graphics/SVG/1.1/DTD/svg11.dtd">
<svg version="1.1" id="图层_1" xmlns="http://www.w3.org/2000/svg" xmlns:xlink="http://www.w3.org/1999/xlink" x="0px" y="0px"
	 width="42.52px" height="42.52px" viewBox="0 0 42.52 42.52" enable-background="new 0 0 42.52 42.52" xml:space="preserve">
<g>
	<path fill="#231815" d="M30.336,41.663v-5.94c0-1.231,1-2.234,2.232-2.234l4.607-0.131L30.336,41.663z"/>
	<path fill="#231815" d="M34.939,0.856H7.577c-1.236,0-2.233,1.002-2.233,2.234v36.342c0,1.233,0.998,2.23,2.233,2.23h20.535v-7.922
		c0-1.232,1.004-2.231,2.238-2.231h6.826V3.091C37.176,1.858,36.176,0.856,34.939,0.856z M15.071,3.666l0.074-0.038
		c3.008,0,5.446,2.435,5.446,5.444c0,0.01-0.002,0.023-0.002,0.033h-5.518V3.666z M14.135,4.8v5.442h5.521
		c0,3.007-2.44,5.444-5.447,5.444c-3.005,0-5.445-2.438-5.445-5.444C8.765,7.26,11.164,4.839,14.135,4.8z M33.24,29.314
		c0,0.349-0.389,0.634-0.865,0.634H9.294c-0.479,0-0.866-0.285-0.866-0.634V28.25c0-0.351,0.387-0.636,0.866-0.636h23.081
		c0.477,0,0.865,0.285,0.865,0.636V29.314z M33.439,24.702c0,0.354-0.387,0.635-0.865,0.635H9.495c-0.478,0-0.867-0.28-0.867-0.635
		V23.64c0-0.352,0.389-0.637,0.867-0.637h23.08c0.479,0,0.865,0.285,0.865,0.637V24.702z M33.439,20.34
		c0,0.352-0.387,0.64-0.865,0.64H9.495c-0.478,0-0.867-0.288-0.867-0.64v-1.06c0-0.353,0.389-0.638,0.867-0.638h23.08
		c0.479,0,0.865,0.285,0.865,0.638V20.34z M32.982,7.165c0,0.352-0.172,0.638-0.385,0.638H22.344c-0.213,0-0.385-0.286-0.385-0.638
		V6.101c0-0.35,0.172-0.638,0.385-0.638h10.254c0.213,0,0.385,0.288,0.385,0.638V7.165z M33.068,15.052
		c0,0.35-0.172,0.635-0.385,0.635H22.428c-0.215,0-0.385-0.285-0.385-0.635v-1.064c0-0.35,0.17-0.635,0.385-0.635h10.256
		c0.213,0,0.385,0.285,0.385,0.635V15.052z M33.025,11.124c0,0.352-0.172,0.635-0.387,0.635H22.385
		c-0.213,0-0.383-0.283-0.383-0.635V10.06c0-0.35,0.17-0.635,0.383-0.635h10.254c0.215,0,0.387,0.285,0.387,0.635V11.124z"/>
</g>
</svg>
