<?xml version="1.0" encoding="utf-8"?>
<!-- Generator: Adobe Illustrator 16.0.0, SVG Export Plug-In . SVG Version: 6.00 Build 0)  -->
<!DOCTYPE svg PUBLIC "-//W3C//DTD SVG 1.1//EN" "http://www.w3.org/Graphics/SVG/1.1/DTD/svg11.dtd">
<svg version="1.1" id="图层_1" xmlns="http://www.w3.org/2000/svg" xmlns:xlink="http://www.w3.org/1999/xlink" x="0px" y="0px"
	 width="42.52px" height="42.52px" viewBox="0 0 42.52 42.52" enable-background="new 0 0 42.52 42.52" xml:space="preserve">
<g>
	<g>
		<polygon fill="#231815" points="14.349,36.526 14.349,23.867 11.759,24.519 11.759,37.182 		"/>
	</g>
	<g>
		<path fill="#231815" d="M6.046,37.182h4.58V22.979h6.797v14.202h19.053V18.246h2.1l-1.699-12.09V5.338H5.646v0.818l-1.702,12.09
			h2.103V37.182z M32.141,6.156h3.439v11.276h-3.439V6.156z M26.186,6.156h3.438v11.276h-3.438V6.156z M23.251,21.258h10.195v3.864
			H23.251V21.258z M19.541,6.156h3.438v11.276h-3.438V6.156z M13.135,6.156h3.437v11.276h-3.437V6.156z M7.03,6.156h3.435v11.276
			H7.03V6.156z"/>
	</g>
</g>
</svg>
