<?xml version="1.0" encoding="utf-8"?>
<!-- Generator: Adobe Illustrator 16.0.0, SVG Export Plug-In . SVG Version: 6.00 Build 0)  -->
<!DOCTYPE svg PUBLIC "-//W3C//DTD SVG 1.1//EN" "http://www.w3.org/Graphics/SVG/1.1/DTD/svg11.dtd">
<svg version="1.1" id="图层_1" xmlns="http://www.w3.org/2000/svg" xmlns:xlink="http://www.w3.org/1999/xlink" x="0px" y="0px"
	 width="42.52px" height="42.52px" viewBox="0 0 42.52 42.52" enable-background="new 0 0 42.52 42.52" xml:space="preserve">
<path fill="#231815" d="M42.243,38.254L21.971,3.437c-0.147-0.252-0.417-0.408-0.712-0.408c-0.289,0-0.558,0.155-0.702,0.408
	L0.276,38.254c-0.148,0.256-0.155,0.568-0.009,0.828c0.15,0.252,0.419,0.408,0.712,0.408h40.558c0.294,0,0.567-0.156,0.714-0.408
	c0.067-0.131,0.107-0.271,0.107-0.412C42.358,38.525,42.318,38.383,42.243,38.254z M24.03,15.387L23.356,29.23h-3.484l-0.671-13.844
	H24.03z M21.613,36.316h-0.061c-1.587,0-2.687-1.191-2.687-2.781c0-1.648,1.129-2.779,2.748-2.779c1.619,0,2.692,1.131,2.723,2.779
	C24.336,35.125,23.266,36.316,21.613,36.316z"/>
</svg>
