<?xml version="1.0" encoding="utf-8"?>
<!-- Generator: Adobe Illustrator 16.0.0, SVG Export Plug-In . SVG Version: 6.00 Build 0)  -->
<!DOCTYPE svg PUBLIC "-//W3C//DTD SVG 1.1//EN" "http://www.w3.org/Graphics/SVG/1.1/DTD/svg11.dtd">
<svg version="1.1" id="图层_1" xmlns="http://www.w3.org/2000/svg" xmlns:xlink="http://www.w3.org/1999/xlink" x="0px" y="0px"
	 width="42.52px" height="42.52px" viewBox="0 0 42.52 42.52" enable-background="new 0 0 42.52 42.52" xml:space="preserve">
<g>
	<path fill-rule="evenodd" clip-rule="evenodd" fill="#231815" d="M21.736,6.769c4.841,0,9.415-0.028,13.991,0.046
		C36.17,6.82,36.822,7.387,37,7.844c1.619,4.227,3.152,8.481,4.706,12.728c0.323,0.894,0.02,1.398-0.95,1.398
		c-4.233,0.01-8.463,0.045-12.686-0.05c-0.541-0.012-1.347-0.625-1.548-1.145c-1.615-4.177-3.112-8.387-4.628-12.595
		C21.762,7.821,21.798,7.403,21.736,6.769"/>
	<path fill-rule="evenodd" clip-rule="evenodd" fill="#231815" d="M20.816,6.859c-0.192,0.794-0.281,1.434-0.499,2.029
		c-1.356,3.778-2.783,7.528-4.096,11.322c-0.454,1.326-1.188,1.821-2.578,1.795c-3.822-0.069-7.645-0.012-11.469-0.03
		c-1.588-0.006-1.796-0.315-1.243-1.834c1.428-3.97,2.898-7.926,4.296-11.908c0.38-1.064,0.936-1.518,2.121-1.497
		c3.922,0.069,7.85,0.025,11.774,0.03C19.618,6.767,20.107,6.818,20.816,6.859"/>
	<path fill-rule="evenodd" clip-rule="evenodd" fill="#231815" d="M22.366,14.19c0.997,2.465,1.908,4.597,2.705,6.771
		c0.468,1.258,1.126,1.825,2.578,1.744c2.641-0.142,5.297,0.005,7.948-0.054c1.163-0.024,1.672,0.365,1.655,1.568
		c-0.045,3.316-0.045,6.629,0,9.941c0.009,1.171-0.433,1.624-1.629,1.614c-4.026-0.047-8.055-0.023-12.081-0.011
		c-0.829,0-1.517-0.036-1.506-1.171c0.027-6.577,0.027-13.152,0.044-19.724C22.081,14.777,22.154,14.68,22.366,14.19"/>
	<path fill-rule="evenodd" clip-rule="evenodd" fill="#231815" d="M20.325,14.59c0.034,0.475,0.085,0.95,0.085,1.423
		c0.004,5.907,0.004,11.819,0,17.728c-0.003,1.949-0.078,2.014-1.955,2.014c-3.872,0.01-7.742-0.042-11.615,0.028
		c-1.282,0.021-1.67-0.428-1.647-1.679c0.069-3.256,0.066-6.521,0-9.778c-0.021-1.245,0.329-1.726,1.634-1.686
		c2.85,0.086,5.708-0.043,8.557,0.058c1.257,0.042,1.826-0.415,2.17-1.564c0.521-1.75,1.169-3.468,1.783-5.19
		c0.174-0.492,0.416-0.962,0.62-1.441C20.083,14.534,20.203,14.56,20.325,14.59"/>
</g>
</svg>
