<?xml version="1.0" encoding="utf-8"?>
<!-- Generator: Adobe Illustrator 16.0.0, SVG Export Plug-In . SVG Version: 6.00 Build 0)  -->
<!DOCTYPE svg PUBLIC "-//W3C//DTD SVG 1.1//EN" "http://www.w3.org/Graphics/SVG/1.1/DTD/svg11.dtd">
<svg version="1.1" id="图层_1" xmlns="http://www.w3.org/2000/svg" xmlns:xlink="http://www.w3.org/1999/xlink" x="0px" y="0px"
	 width="42.52px" height="42.52px" viewBox="0 0 42.52 42.52" enable-background="new 0 0 42.52 42.52" xml:space="preserve">
<path fill="#231815" d="M12.88,19.568c0.008,0.009,0.016,0.019,0.025,0.028l3.831,3.832l1.336-1.338l-1.442-1.442l-0.652-0.652
	l3.343-3.342l0.44,0.048c0.113,0.013,0.228,0.019,0.342,0.019c0.231,0,0.457-0.027,0.677-0.076l-2.461-2.462
	c-0.049-0.05-0.103-0.094-0.155-0.141c0.758-2.726,0.068-5.771-2.076-7.916c-2.128-2.129-5.145-2.824-7.855-2.093l4.594,4.594
	l-1.206,4.5l-4.5,1.206L2.525,9.74c-0.732,2.712-0.035,5.729,2.093,7.856C6.853,19.831,10.067,20.487,12.88,19.568z M26.452,22.317
	c-0.073,0.329-0.094,0.674-0.055,1.021l0.049,0.441l-0.314,0.313l-2.377,2.377l-0.651,0.653l-2.095-2.095l-1.336,1.335L31.798,38.49
	c0.748,0.746,1.729,1.121,2.708,1.121s1.959-0.375,2.706-1.121c1.495-1.495,1.495-3.919,0-5.414L26.452,22.317z M35.816,37.232
	l-1.923,0.516l-1.562-1.561l0.516-1.922l1.923-0.517l1.561,1.56L35.816,37.232z M21.022,23.735l2.095,2.097l2.377-2.377
	c-0.128-1.16,0.249-2.364,1.138-3.253c0.888-0.889,2.093-1.265,3.253-1.137L40.275,8.673l-5.821-5.82L24.063,13.244
	c0.13,1.159-0.248,2.364-1.138,3.254c-0.889,0.888-2.093,1.264-3.252,1.137l-2.376,2.376l2.094,2.094L9.123,32.373l-0.375-0.377
	l-1.971,1.59l-3.316,5.235l0.847,0.846l5.236-3.314l1.587-1.972l-0.377-0.376L21.022,23.735z"/>
</svg>
