<?xml version="1.0" encoding="utf-8"?>
<!-- Generator: Adobe Illustrator 16.0.0, SVG Export Plug-In . SVG Version: 6.00 Build 0)  -->
<!DOCTYPE svg PUBLIC "-//W3C//DTD SVG 1.1//EN" "http://www.w3.org/Graphics/SVG/1.1/DTD/svg11.dtd">
<svg version="1.1" id="图层_1" xmlns="http://www.w3.org/2000/svg" xmlns:xlink="http://www.w3.org/1999/xlink" x="0px" y="0px"
	 width="42.52px" height="42.52px" viewBox="0 0 42.52 42.52" enable-background="new 0 0 42.52 42.52" xml:space="preserve">
<path fill="#231815" d="M41.025,33.597c-0.657-1.91-2.84-2.186-4.663-2.955c-2.003-0.844-4.222-1.823-6.22-2.642
	c-0.571-0.155-1.141-0.313-1.71-0.467c-0.68-0.469-1.348-2.025-1.71-2.798c-0.364-0.053-0.726-0.104-1.09-0.155
	c0.056-1.198,0.799-1.264,1.09-2.177c0.256-0.807,0.026-1.856,0.433-2.603c0.281-0.519,0.922-0.522,1.239-0.967
	c0.29-0.404,0.479-1.106,0.569-1.601c0.165-0.903,0.31-2.14-0.121-3.035c-0.245-0.515-0.402-0.564-0.471-1.189
	c-0.082-0.757,0.224-3.228,0.235-3.761c0.032-1.386-0.002-1.499-0.336-2.848c0,0-0.408-1.223-1.046-1.591L25.952,4.59l-0.784-0.729
	c-3.169-1.95-6.565-0.582-8.385,0.155c-2.622,0.851-4.278,3.417-3.122,8.901c0.198,0.937-0.513,1.355-0.466,1.866
	c0.102,1.118,0.123,3.805,1.179,4.467c0.098,0.061,0.847,0.249,0.842,0.198c0.104,1.089,0.208,2.177,0.311,3.265
	c0.264,0.724,0.896,0.804,1.08,1.824l-0.809,0.198c-0.364,0.772-1.031,2.329-1.711,2.798c-0.57,0.154-1.14,0.312-1.71,0.467
	c-1.998,0.818-4.217,1.798-6.22,2.642c-1.823,0.77-4.005,1.045-4.664,2.955c0,1.298-0.123,4.364-0.089,6.063h17.431l1.279-8.739
	l-1.063-2.244l2.456-1.178l2.069,1.152l-1.141,2.312l2.017,8.697h16.666C41.148,37.961,41.025,34.895,41.025,33.597z"/>
</svg>
