<?xml version="1.0" encoding="utf-8"?>
<!-- Generator: Adobe Illustrator 16.0.0, SVG Export Plug-In . SVG Version: 6.00 Build 0)  -->
<!DOCTYPE svg PUBLIC "-//W3C//DTD SVG 1.1//EN" "http://www.w3.org/Graphics/SVG/1.1/DTD/svg11.dtd">
<svg version="1.1" id="图层_1" xmlns="http://www.w3.org/2000/svg" xmlns:xlink="http://www.w3.org/1999/xlink" x="0px" y="0px"
	 width="42.52px" height="42.52px" viewBox="0 0 42.52 42.52" enable-background="new 0 0 42.52 42.52" xml:space="preserve">
<g>
	<path fill="#030000" d="M2.289,4.756v33.01c0,1.227,0.996,2.22,2.224,2.22h2.746V2.534H4.513C3.285,2.534,2.289,3.529,2.289,4.756z
		 M9.925,2.534v37.451h25.16V2.534H9.925z M32.132,30.181h-19.26c-0.016-0.823,0.043-2.311,0.043-2.942
		c0.32-0.925,1.379-1.057,2.264-1.43c0.97-0.411,2.047-0.887,3.016-1.284c0.276-0.073,0.554-0.15,0.829-0.227
		c0.331-0.224,0.653-0.982,0.83-1.355l0.393-0.097c-0.089-0.496-0.396-0.534-0.523-0.884c-0.05-0.528-0.101-1.057-0.151-1.584
		c0.003,0.024-0.36-0.066-0.408-0.096c-0.512-0.32-0.521-1.625-0.572-2.167c-0.021-0.248,0.322-0.45,0.227-0.905
		c-0.562-2.66,0.243-3.904,1.514-4.317c0.882-0.356,2.532-1.021,4.066-0.075l0.382,0.354l0.618,0.107
		c0.31,0.178,0.504,0.771,0.504,0.771c0.165,0.654,0.18,0.709,0.165,1.381c-0.006,0.26-0.153,1.457-0.114,1.824
		c0.034,0.304,0.108,0.328,0.229,0.576c0.207,0.436,0.138,1.034,0.059,1.474c-0.045,0.239-0.136,0.58-0.276,0.776
		c-0.155,0.216-0.464,0.217-0.601,0.469c-0.197,0.362-0.087,0.871-0.211,1.262c-0.143,0.444-0.5,0.475-0.527,1.057
		c0.176,0.024,0.352,0.048,0.527,0.075c0.178,0.373,0.498,1.132,0.829,1.355c0.277,0.076,0.554,0.153,0.83,0.227
		c0.968,0.397,2.046,0.873,3.018,1.284c0.883,0.373,1.941,0.505,2.262,1.43C32.091,27.87,32.15,29.357,32.132,30.181z"/>
	<path fill="#030000" d="M40.23,11.114h-3.401v-8.58h3.401V11.114z"/>
	<path fill="#030000" d="M40.23,21.95h-3.401v-8.581h3.401V21.95z"/>
	<path fill="#030000" d="M40.23,32.784h-3.401v-8.579h3.401V32.784z"/>
</g>
</svg>
