<?xml version="1.0" encoding="utf-8"?>
<!-- Generator: Adobe Illustrator 16.0.0, SVG Export Plug-In . SVG Version: 6.00 Build 0)  -->
<!DOCTYPE svg PUBLIC "-//W3C//DTD SVG 1.1//EN" "http://www.w3.org/Graphics/SVG/1.1/DTD/svg11.dtd">
<svg version="1.1" id="图层_1" xmlns="http://www.w3.org/2000/svg" xmlns:xlink="http://www.w3.org/1999/xlink" x="0px" y="0px"
	 width="42.52px" height="42.52px" viewBox="0 0 42.52 42.52" enable-background="new 0 0 42.52 42.52" xml:space="preserve">
<polygon fill="#231815" points="21.26,21.26 21.26,21.26 21.26,21.26 "/>
<polygon fill="#231815" points="21.26,21.26 21.26,21.26 21.26,21.26 "/>
<polygon fill="#231815" points="21.26,21.26 21.26,21.26 21.26,21.26 "/>
<path fill="#030000" d="M19.21,28.976c0,0,9.739,7.697,18.292-10.958C37.502,18.018,19.448,14.623,19.21,28.976z M20.669,38.516
	c-2.952-3.99-5.413-10.602-0.678-19.699c8.238-15.839-2.248-18.751-2.248-18.751s8.898,3.961,0.477,17.396
	C20.724,6.166,5.017,2.828,5.017,2.828c0.299,17.03,8.713,17.553,11.509,17.252c-5.175,8.17-3.668,14.554-1.476,18.498
	c-3.635,0.553-6.34,2.05-6.675,3.876h19.41C27.436,40.557,24.525,39.011,20.669,38.516z"/>
</svg>
