<?xml version="1.0" encoding="utf-8"?>
<!-- Generator: Adobe Illustrator 16.0.0, SVG Export Plug-In . SVG Version: 6.00 Build 0)  -->
<!DOCTYPE svg PUBLIC "-//W3C//DTD SVG 1.1//EN" "http://www.w3.org/Graphics/SVG/1.1/DTD/svg11.dtd">
<svg version="1.1" id="图层_1" xmlns="http://www.w3.org/2000/svg" xmlns:xlink="http://www.w3.org/1999/xlink" x="0px" y="0px"
	 width="42.52px" height="42.52px" viewBox="0 0 42.52 42.52" enable-background="new 0 0 42.52 42.52" xml:space="preserve">
<polygon fill="#231815" points="21.26,21.26 21.26,21.26 21.26,21.26 "/>
<polygon fill="#231815" points="21.26,21.26 21.26,21.26 21.26,21.26 "/>
<polygon fill="#231815" points="21.26,21.26 21.26,21.26 21.26,21.26 "/>
<g>
	<path fill="#231815" d="M27.335,29.82c1.57,0,2.845,1.271,2.845,2.841c0,1.571-1.274,2.846-2.845,2.846s-2.844-1.274-2.844-2.846
		C24.491,31.091,25.765,29.82,27.335,29.82z M28.927,32.661c0-0.878-0.713-1.591-1.592-1.591c-0.882,0-1.594,0.713-1.594,1.591
		c0,0.883,0.712,1.595,1.594,1.595C28.214,34.256,28.927,33.544,28.927,32.661z"/>
	<path fill="#231815" d="M9.385,32.661c0,1.571-1.271,2.846-2.843,2.846c-1.57,0-2.842-1.274-2.842-2.846
		c0-1.57,1.271-2.841,2.842-2.841C8.113,29.82,9.385,31.091,9.385,32.661z M8.136,32.661c0-0.878-0.712-1.591-1.594-1.591
		c-0.878,0-1.592,0.713-1.592,1.591c0,0.883,0.714,1.595,1.592,1.595C7.424,34.256,8.136,33.544,8.136,32.661z"/>
	<path fill="#231815" d="M2.397,24.443v1.773H6.45v-2.534h4.256v-4.536H5.189L2.397,24.443z M6.433,28.68
		c-1.952,0-3.534,1.533-3.629,3.459H0.048v-7.695l4.313-7.698h8.927v15.394h-3.23C9.966,30.213,8.381,28.68,6.433,28.68z"/>
	<g>
		<path fill="#231815" d="M31.45,13.09c0-0.194,0.015-0.385,0.037-0.573H14.649v19.622h9.104c0.089-1.926,1.62-3.459,3.497-3.459
			c1.878,0,3.404,1.533,3.495,3.459h6.883V17.741c-0.426,0.122-0.872,0.191-1.337,0.191C33.624,17.933,31.45,15.762,31.45,13.09z"/>
	</g>
	<path fill="#231815" d="M37.628,7.013c-2.669,0-4.841,2.172-4.841,4.842c0,2.671,2.172,4.845,4.841,4.845
		c2.67,0,4.844-2.174,4.844-4.845C42.472,9.185,40.298,7.013,37.628,7.013z M40.739,13.034h-6.222v-1.941h6.222V13.034z"/>
</g>
</svg>
