<?xml version="1.0" encoding="utf-8"?>
<!-- Generator: Adobe Illustrator 16.0.0, SVG Export Plug-In . SVG Version: 6.00 Build 0)  -->
<!DOCTYPE svg PUBLIC "-//W3C//DTD SVG 1.1//EN" "http://www.w3.org/Graphics/SVG/1.1/DTD/svg11.dtd">
<svg version="1.1" id="图层_1" xmlns="http://www.w3.org/2000/svg" xmlns:xlink="http://www.w3.org/1999/xlink" x="0px" y="0px"
	 width="42.52px" height="42.52px" viewBox="0 0 42.52 42.52" enable-background="new 0 0 42.52 42.52" xml:space="preserve">
<polygon fill="#231815" points="21.26,21.26 21.26,21.26 21.26,21.26 "/>
<polygon fill="#231815" points="21.26,21.26 21.26,21.26 21.26,21.26 "/>
<polygon fill="#231815" points="21.26,21.26 21.26,21.26 21.26,21.26 "/>
<g>
	<rect x="5.222" y="6.476" fill="#231815" width="6.899" height="22.18"/>
	<polygon fill="#231815" points="3.817,4.301 30.343,4.301 30.343,11.029 32.64,11.029 32.64,2.004 1.518,2.004 1.518,33.131 
		20.311,33.131 20.311,30.827 3.817,30.827 	"/>
	<polygon fill="#231815" points="13.569,28.655 20.311,28.655 20.311,12.895 20.466,12.895 20.466,6.476 13.569,6.476 	"/>
	<polygon fill="#231815" points="28.933,6.476 22.034,6.476 22.034,12.895 27.04,12.895 26.749,11.029 28.933,11.029 	"/>
	<polygon fill="#231815" points="34.834,13.956 34.677,14.88 34.893,16.155 38.542,16.155 38.542,38.118 23.702,38.118 
		23.702,16.155 27.019,16.155 27.217,14.763 27.092,13.956 21.239,13.956 21.239,40.516 41.002,40.516 41.002,13.956 	"/>
	<polygon fill="#231815" points="27.717,12.159 28.132,14.823 27.717,17.72 34.17,17.72 33.695,14.939 34.17,12.159 	"/>
	<rect x="25.469" y="22.007" fill="#231815" width="11.306" height="1.565"/>
	<rect x="25.469" y="25.333" fill="#231815" width="11.306" height="1.56"/>
	<rect x="25.469" y="28.797" fill="#231815" width="11.306" height="1.569"/>
</g>
</svg>
