<?xml version="1.0" encoding="utf-8"?>
<!-- Generator: Adobe Illustrator 16.0.0, SVG Export Plug-In . SVG Version: 6.00 Build 0)  -->
<!DOCTYPE svg PUBLIC "-//W3C//DTD SVG 1.1//EN" "http://www.w3.org/Graphics/SVG/1.1/DTD/svg11.dtd">
<svg version="1.1" id="图层_1" xmlns="http://www.w3.org/2000/svg" xmlns:xlink="http://www.w3.org/1999/xlink" x="0px" y="0px"
	 width="42.52px" height="42.52px" viewBox="0 0 42.52 42.52" enable-background="new 0 0 42.52 42.52" xml:space="preserve">
<polygon fill="#231815" points="21.26,21.26 21.26,21.26 21.26,21.26 "/>
<polygon fill="#231815" points="21.26,21.26 21.26,21.26 21.26,21.26 "/>
<polygon fill="#231815" points="21.26,21.26 21.26,21.26 21.26,21.26 "/>
<g>
	<path fill="#231815" d="M12.002,7.923c1.692-0.698,2.36-2.955,1.5-5.039c-0.861-2.088-2.926-3.212-4.615-2.515
		c-1.688,0.695-2.361,2.95-1.499,5.037C8.249,7.49,10.314,8.621,12.002,7.923z"/>
	<path fill="#231815" d="M31.357,7.923c1.687,0.698,3.756-0.433,4.615-2.517c0.857-2.087,0.186-4.341-1.503-5.037
		c-1.688-0.698-3.751,0.426-4.611,2.515C28.993,4.968,29.665,7.225,31.357,7.923z"/>
	<path fill="#231815" d="M41.87,17.157l-0.002-0.008l-0.013-0.016l-0.032-0.055l-0.265-0.455l-0.536-0.907l-1.063-1.815
		l-2.134-3.626c-0.485-0.819-1.348-1.227-2.122-1.1c-0.685-0.126-1.366-0.215-2.051-0.285l-0.017,0.068l0.792,1.258l-1.156,0.772
		l0.381,1.372l-1.91,4.9l0.383-6.472l0.218-0.255l-0.125-1.519l-0.856-0.063l-0.396,1.484l0.173,0.282l-0.754,6.034l-0.91-4.69
		l0.621-1.301l-1.002-0.928l0.958-1.067c-0.027,0-0.052,0-0.086,0c-0.033-0.008-0.061-0.018-0.094-0.025
		c-0.982-0.164-1.954,0.561-2.174,1.658l-0.766,3.927l-0.384,1.966l-0.064,0.343l-5.012,2.731l-4.27-2.516l-0.057-0.344
		l-0.313-1.975l-0.635-3.954c-0.182-1.079-1.088-1.82-2.05-1.731c-0.064-0.033-0.13-0.061-0.192-0.063
		c-0.223-0.014-0.444-0.014-0.669-0.023l0.866,1.015l-0.948,0.928l0.589,1.303l-0.858,4.656l-0.671-5.997l0.156-0.276l-0.352-1.438
		l-0.754,0.059l-0.117,1.479l0.202,0.248l0.344,6.733l-1.911-5.164l0.359-1.378l-1.095-0.767l0.751-1.259L9.838,8.875
		c-0.722,0.074-1.441,0.165-2.162,0.3c-0.2,0.001-0.4,0.041-0.591,0.114C6.918,9.322,6.752,9.341,6.586,9.381
		c-0.229,0.053-0.417,0.313-0.52,0.657c-0.079,0.107-0.156,0.224-0.219,0.352l-3.689,7.376c-0.902,3.91-0.996,5.758-1.537,8.741
		c1.53,0.256,3.067,0.458,4.611,0.606c0.229-2.454,0.69-6.099,0.728-7.571l0.416-0.963c0.152,2.737,0.328,5.473,0.52,8.209
		c0.002,0.036,0.015,0.063,0.018,0.095c0.106-0.007,0.212-0.018,0.318-0.027l0.487,15.5h4.504
		c0.137-4.657,0.048-12.868,0.009-15.903c0.248-0.02,0.493-0.038,0.737-0.059l0.256,15.962h2.296
		c0.07-4.804,0.024-13.385,0.001-16.171c0.313-0.025,0.617-0.049,0.93-0.074c-0.003-0.033,0.006-0.063,0.003-0.1
		c-0.15-1.639-0.323-3.279-0.488-4.917l5.402,3.602c0.163-0.238,0.311-0.48,0.468-0.722c0.075,0.12,0.145,0.242,0.218,0.359
		l5.341-3.31c-0.169,1.663-0.344,3.324-0.491,4.987c-0.006,0.036,0.002,0.066,0,0.1c0.302,0.025,0.607,0.049,0.906,0.074
		l0.262,16.171h2.297c0.069-4.688,0.021-12.977,0.001-15.965c0.245,0.023,0.489,0.038,0.728,0.06l0.5,15.905h4.502
		c0.133-4.462,0.058-12.189,0.019-15.5c0.108,0.01,0.217,0.021,0.327,0.027c0.002-0.031,0.015-0.059,0.015-0.095
		c0.013-0.155,0.019-0.313,0.027-0.466c0.515,0.259,1.028,0.52,1.547,0.765l3.671-7.571l0.114-0.237l0.059-0.119l0.016-0.028v-0.006
		C41.886,18.249,41.919,21.09,41.87,17.157z M36.927,19.495c0.046-0.854,0.092-1.706,0.135-2.558l0.387,0.752l0.229,0.443
		L36.927,19.495z"/>
</g>
</svg>
