<?xml version="1.0" encoding="utf-8"?>
<!-- Generator: Adobe Illustrator 16.0.0, SVG Export Plug-In . SVG Version: 6.00 Build 0)  -->
<!DOCTYPE svg PUBLIC "-//W3C//DTD SVG 1.1//EN" "http://www.w3.org/Graphics/SVG/1.1/DTD/svg11.dtd">
<svg version="1.1" id="图层_1" xmlns="http://www.w3.org/2000/svg" xmlns:xlink="http://www.w3.org/1999/xlink" x="0px" y="0px"
	 width="42.52px" height="42.52px" viewBox="0 0 42.52 42.52" enable-background="new 0 0 42.52 42.52" xml:space="preserve">
<polygon fill="#231815" points="21.26,21.26 21.26,21.26 21.26,21.26 "/>
<polygon fill="#231815" points="21.26,21.26 21.26,21.26 21.26,21.26 "/>
<polygon fill="#231815" points="21.26,21.26 21.26,21.26 21.26,21.26 "/>
<g>
	<g id="XMLID_47_">
		<g>
			<path fill="#231815" d="M33.739,34.077c0.484,0,0.875,0.452,0.875,1.007c0,0.559-0.391,1.01-0.875,1.01H8.782
				c-0.483,0-0.877-0.451-0.877-1.01c0-0.278,0.099-0.528,0.258-0.712c0.156-0.184,0.377-0.295,0.619-0.295H33.739z"/>
			<path fill="#231815" d="M32.855,39.926c0,0.616-0.5,1.116-1.117,1.116h-2.646c-0.618,0-1.115-0.5-1.115-1.116v-2.852h4.879
				V39.926z"/>
			<rect x="25.424" y="28.279" fill="#231815" width="0.815" height="2.001"/>
			<rect x="23.624" y="28.279" fill="#231815" width="0.819" height="2.001"/>
			<rect x="21.797" y="28.279" fill="#231815" width="0.815" height="2.001"/>
			<rect x="20.003" y="28.279" fill="#231815" width="0.815" height="2.001"/>
			<rect x="18.077" y="28.279" fill="#231815" width="0.815" height="2.001"/>
			<rect x="16.28" y="28.279" fill="#231815" width="0.819" height="2.001"/>
			<path fill="#231815" d="M14.556,37.074v2.852c0,0.616-0.499,1.116-1.116,1.116h-2.646c-0.616,0-1.116-0.5-1.116-1.116v-2.852
				H14.556z"/>
			<path fill="#231815" d="M13.972,21.065h-0.967c0-1.41,1.145-2.554,2.556-2.554c0.704,0,1.342,0.287,1.804,0.747
				c0.462,0.463,0.75,1.103,0.75,1.807h-0.97c0-0.877-0.707-1.586-1.584-1.586C14.684,19.479,13.972,20.188,13.972,21.065z"/>
			<path fill="#231815" d="M27.491,31.358v-4.052H15.029v4.052H27.491z M14.452,14.003c-1.552,0-2.811,1.113-2.811,2.49v5.306h9.619
				h9.618v-5.306c0-1.377-1.257-2.49-2.812-2.49H14.452z M10.358,15.99c0-1.762,1.427-3.188,3.188-3.188h15.429
				c1.759,0,3.189,1.427,3.189,3.188v5.809l2.743,5.314v4.581c0,0-0.729,1.467-2.743,1.467c-2.021,0-6.231,0-6.231,0h-9.348
				c0,0-4.211,0-6.228,0c-2.017,0-2.75-1.467-2.75-1.467v-4.581l2.75-5.314V15.99z M13.267,29.335c0-1.025-0.832-1.854-1.852-1.854
				c-1.025,0-1.857,0.829-1.857,1.854c0,1.022,0.832,1.852,1.857,1.852C12.436,31.187,13.267,30.357,13.267,29.335z M33.06,29.335
				c0-1.025-0.828-1.854-1.852-1.854c-1.024,0-1.854,0.829-1.854,1.854c0,1.022,0.83,1.852,1.854,1.852
				C32.231,31.187,33.06,30.357,33.06,29.335z"/>
			<polygon fill="#231815" points="6.324,1.478 36.195,1.478 36.195,24.127 34.741,24.127 33.349,21.701 33.349,11.458 
				25.952,11.458 16.689,11.354 9.295,11.354 9.295,21.597 7.844,24.127 6.324,24.127 			"/>
		</g>
	</g>
</g>
</svg>
