<?xml version="1.0" encoding="utf-8"?>
<!-- Generator: Adobe Illustrator 16.0.0, SVG Export Plug-In . SVG Version: 6.00 Build 0)  -->
<!DOCTYPE svg PUBLIC "-//W3C//DTD SVG 1.1//EN" "http://www.w3.org/Graphics/SVG/1.1/DTD/svg11.dtd">
<svg version="1.1" id="图层_1" xmlns="http://www.w3.org/2000/svg" xmlns:xlink="http://www.w3.org/1999/xlink" x="0px" y="0px"
	 width="42.52px" height="42.52px" viewBox="0 0 42.52 42.52" enable-background="new 0 0 42.52 42.52" xml:space="preserve">
<polygon fill="#231815" points="21.26,21.26 21.26,21.26 21.26,21.26 "/>
<polygon fill="#231815" points="21.26,21.26 21.26,21.26 21.26,21.26 "/>
<polygon fill="#231815" points="21.26,21.26 21.26,21.26 21.26,21.26 "/>
<g>
	<path fill="#231815" d="M36.482,13.486h-1.972c-0.136-0.69-0.329-1.362-0.566-2.013l1.646-0.949
		c0.395-0.231,0.526-0.738,0.302-1.131L34.24,6.538c-0.225-0.393-0.731-0.532-1.128-0.302l-1.71,0.988
		c-0.46-0.527-0.961-1.014-1.495-1.458l0.953-1.654c0.226-0.395,0.088-0.898-0.305-1.126l-2.857-1.655
		c-0.397-0.226-0.9-0.09-1.13,0.304l-0.983,1.711c-0.657-0.224-1.336-0.397-2.033-0.514V0.927c0-0.461-0.368-0.828-0.823-0.828
		h-3.302c-0.456,0-0.827,0.367-0.827,0.828v1.97c-0.688,0.14-1.358,0.33-2.012,0.57l-0.95-1.647
		c-0.229-0.398-0.734-0.532-1.13-0.304L11.65,3.169c-0.395,0.226-0.529,0.729-0.303,1.125l0.99,1.712
		c-0.522,0.46-1.014,0.961-1.46,1.5L9.227,6.551C8.829,6.327,8.328,6.459,8.098,6.854L6.444,9.71
		c-0.226,0.397-0.09,0.901,0.306,1.129l1.71,0.986c-0.225,0.654-0.397,1.333-0.516,2.026H6.039c-0.458,0-0.824,0.374-0.826,0.832
		v3.298c0,0.458,0.368,0.826,0.826,0.826h1.974c0.14,0.693,0.326,1.368,0.568,2.013l-1.647,0.954
		c-0.394,0.229-0.529,0.735-0.303,1.13l1.653,2.855c0.222,0.392,0.732,0.529,1.127,0.306l1.71-0.992
		c0.46,0.525,0.961,1.019,1.496,1.464l-0.953,1.65c-0.228,0.392-0.09,0.898,0.306,1.129l2.856,1.645
		c0.074,0.045,0.154,0.071,0.233,0.087l0.514-6.473c-2.702-1.829-4.479-4.92-4.479-8.425c0-5.615,4.554-10.172,10.166-10.172
		c5.619,0,10.17,4.557,10.17,10.172c0,3.431-1.703,6.458-4.307,8.299l0.509,6.438c0.133-0.005,0.26-0.038,0.385-0.109l2.856-1.649
		c0.395-0.225,0.529-0.733,0.305-1.127l-0.992-1.713c0.524-0.459,1.02-0.961,1.465-1.498l1.649,0.955
		c0.392,0.227,0.898,0.089,1.128-0.304l1.65-2.857c0.227-0.396,0.092-0.902-0.304-1.129l-1.707-0.991
		c0.219-0.651,0.392-1.328,0.511-2.024h1.904c0.458,0,0.824-0.372,0.824-0.826v-3.295C37.311,13.856,36.94,13.486,36.482,13.486z"/>
	<path fill="#231815" d="M21.259,17.933c1.308,0,2.367-1.311,2.367-2.924c0-1.612-1.059-2.92-2.367-2.92
		c-1.304,0-2.362,1.308-2.362,2.92C18.897,16.623,19.955,17.933,21.259,17.933z"/>
	<path fill="#231815" d="M24.597,18.697c-0.025,0.002-1.003-0.132-1.388-0.162l-0.011,0.036l1.014,0.858l-1.211,0.608l0.56,0.961
		l-1.504,3.32l-0.235-4.54l0.227-0.197l-0.3-1.1h-0.975l-0.301,1.1l0.226,0.194l-0.243,4.701l-1.573-3.478l0.558-0.961l-1.209-0.608
		l1.014-0.858l-0.011-0.036c-0.384,0.03-1.304,0.162-1.313,0.162c-0.712-0.035-1.339,0.537-1.405,1.307l-0.869,11.018
		c0.5,0.04,1.004,0.074,1.506,0.102c0.002,0.002,0.002,0.006,0.002,0.011c0.049,0,0.097,0,0.148,0
		c0.067,0.005,0.135,0.005,0.204,0.008l0.355,11.279h3.216c0.1-3.288,0.039-9.057,0.009-11.287c0.111,0,0.218,0,0.329,0
		l0.353,11.287h3.22c0.099-3.286,0.036-9.043,0.008-11.278c0.076-0.004,0.147-0.004,0.22-0.009c0.023,0,0.044,0,0.071,0
		c0-0.003,0-0.005,0-0.007c0.526-0.025,1.059-0.06,1.588-0.105l-0.877-11.018C25.938,19.233,25.311,18.662,24.597,18.697z"/>
</g>
</svg>
