<?xml version="1.0" encoding="utf-8"?>
<!-- Generator: Adobe Illustrator 16.0.0, SVG Export Plug-In . SVG Version: 6.00 Build 0)  -->
<!DOCTYPE svg PUBLIC "-//W3C//DTD SVG 1.1//EN" "http://www.w3.org/Graphics/SVG/1.1/DTD/svg11.dtd">
<svg version="1.1" id="图层_1" xmlns="http://www.w3.org/2000/svg" xmlns:xlink="http://www.w3.org/1999/xlink" x="0px" y="0px"
	 width="42.52px" height="42.52px" viewBox="0 0 42.52 42.52" enable-background="new 0 0 42.52 42.52" xml:space="preserve">
<polygon fill="#231815" points="21.26,21.26 21.26,21.26 21.26,21.26 "/>
<polygon fill="#231815" points="21.26,21.26 21.26,21.26 21.26,21.26 "/>
<polygon fill="#231815" points="21.26,21.26 21.26,21.26 21.26,21.26 "/>
<path fill="#030000" d="M11.005,21.094c0-0.741-0.375-1.342-0.838-1.342c-0.464,0-0.842,0.602-0.842,1.342
	c0,0.423,0.123,0.795,0.313,1.045l0.011,0.098l-0.532,4.49l1.03,0.795l1.068-0.795l-0.595-4.504
	C10.851,21.983,11.005,21.569,11.005,21.094z M10.583,19.334c0.959,0.806,0.999,2.729,0.999,2.729l1.03-3.664
	C12.611,18.399,11.871,19.321,10.583,19.334z M9.685,19.334c-1.287-0.013-2.028-0.935-2.028-0.935l1.031,3.664
	C8.688,22.063,8.729,20.14,9.685,19.334z M38.622,7.392H3.901c-2.042,0-3.7,1.654-3.7,3.697v20.34c0,2.041,1.658,3.697,3.7,3.697
	h34.721c2.042,0,3.696-1.656,3.696-3.697v-20.34C42.318,9.046,40.664,7.392,38.622,7.392z M24.833,12.188h9.268
	c0.101,0,0.179,0.343,0.179,0.769c0,0.424-0.078,0.768-0.179,0.768h-9.268c-0.1,0-0.183-0.344-0.183-0.768
	C24.65,12.532,24.733,12.188,24.833,12.188z M10.134,11.122c1.789,0,3.24,1.449,3.24,3.24c0,1.787-1.451,3.238-3.24,3.238
	c-1.789,0-3.238-1.451-3.238-3.238C6.896,12.571,8.345,11.122,10.134,11.122z M10.134,28.342c-3.929,0-7.116,5.82-7.116-0.24
	c0-4.738,1.95-8.781,4.681-10.314c0.66,0.551,1.507,0.882,2.436,0.882c0.925,0,1.778-0.331,2.438-0.882
	c2.728,1.533,4.675,5.576,4.675,10.314C17.248,34.162,14.063,28.342,10.134,28.342z M38.846,30.217H20.086
	c-0.204,0-0.366-0.246-0.366-0.545c0-0.303,0.162-0.547,0.366-0.547h18.759c0.202,0,0.366,0.244,0.366,0.547
	C39.212,29.971,39.048,30.217,38.846,30.217z M38.846,28.035H20.086c-0.204,0-0.366-0.244-0.366-0.547
	c0-0.301,0.162-0.545,0.366-0.545h18.759c0.202,0,0.366,0.244,0.366,0.545C39.212,27.791,39.048,28.035,38.846,28.035z
	 M38.846,25.855H20.086c-0.204,0-0.366-0.246-0.366-0.547s0.162-0.543,0.366-0.543h18.759c0.202,0,0.366,0.242,0.366,0.543
	S39.048,25.855,38.846,25.855z M38.846,21.563H20.086c-0.204,0-0.366-0.244-0.366-0.544s0.162-0.545,0.366-0.545h18.759
	c0.202,0,0.366,0.245,0.366,0.545S39.048,21.563,38.846,21.563z M38.846,19.384H20.086c-0.204,0-0.366-0.247-0.366-0.547
	c0-0.297,0.162-0.543,0.366-0.543h18.759c0.202,0,0.366,0.246,0.366,0.543C39.212,19.137,39.048,19.384,38.846,19.384z"/>
</svg>
