<?xml version="1.0" encoding="utf-8"?>
<!-- Generator: Adobe Illustrator 16.0.0, SVG Export Plug-In . SVG Version: 6.00 Build 0)  -->
<!DOCTYPE svg PUBLIC "-//W3C//DTD SVG 1.1//EN" "http://www.w3.org/Graphics/SVG/1.1/DTD/svg11.dtd">
<svg version="1.1" id="图层_1" xmlns="http://www.w3.org/2000/svg" xmlns:xlink="http://www.w3.org/1999/xlink" x="0px" y="0px"
	 width="42.52px" height="42.52px" viewBox="0 0 42.52 42.52" enable-background="new 0 0 42.52 42.52" xml:space="preserve">
<polygon fill="#231815" points="21.26,21.26 21.26,21.26 21.26,21.26 "/>
<polygon fill="#231815" points="21.26,21.26 21.26,21.26 21.26,21.26 "/>
<polygon fill="#231815" points="21.26,21.26 21.26,21.26 21.26,21.26 "/>
<g>
	<g id="XMLID_115_">
		<g>
			<path fill="#231815" d="M35.086,33.293h0.738v2.494h0.932v-2.494h0.739l-1.206-1.511L35.086,33.293z M34.738,33.293l-1.203-1.511
				l-1.206,1.511h0.739v2.494h0.929v-2.494H34.738z M41.237,29.689v10.239H28.584V29.689H41.237z M37.495,37.302v-0.572h-5.166
				v0.572H37.495z"/>
			<polygon fill="#231815" points="41.23,29.099 34.912,29.099 34.906,29.099 28.584,29.099 31.412,26.274 32.587,26.274 
				37.229,26.274 38.407,26.274 			"/>
			<path fill="#231815" d="M27.154,38.451v1.411H5.432v-1.411c0-0.707,0.572-1.281,1.279-1.281h19.16
				C26.58,37.17,27.154,37.744,27.154,38.451z"/>
			<path fill="#231815" d="M25.194,15.745v20.61H7.389v-20.61H25.194z M20.901,34.013V22.359c0-2.359-1.914-4.271-4.272-4.271
				h-0.673c-2.36,0-4.272,1.912-4.272,4.271v11.653H20.901z"/>
			<path fill="#231815" d="M14.128,25.436c0.796,0,1.44,0.643,1.44,1.438s-0.645,1.438-1.44,1.438c-0.793,0-1.439-0.643-1.439-1.438
				S13.334,25.436,14.128,25.436z M14.79,26.874c0-0.364-0.297-0.66-0.662-0.66c-0.366,0-0.66,0.296-0.66,0.66
				c0,0.366,0.294,0.66,0.66,0.66C14.493,27.534,14.79,27.24,14.79,26.874z"/>
		</g>
	</g>
	<path fill="#231815" d="M30.317,13.767L17.969,3.147C17.461,2.71,16.817,2.535,16.2,2.606c-0.617-0.071-1.26,0.104-1.768,0.541
		L2.085,13.767c-0.966,0.83-1.076,2.288-0.245,3.253c0.831,0.966,2.286,1.075,3.252,0.244L16.2,7.71l11.108,9.553
		c0.967,0.831,2.423,0.722,3.252-0.244C31.393,16.055,31.282,14.597,30.317,13.767z"/>
</g>
</svg>
