<?xml version="1.0" encoding="utf-8"?>
<!-- Generator: Adobe Illustrator 16.0.0, SVG Export Plug-In . SVG Version: 6.00 Build 0)  -->
<!DOCTYPE svg PUBLIC "-//W3C//DTD SVG 1.1//EN" "http://www.w3.org/Graphics/SVG/1.1/DTD/svg11.dtd">
<svg version="1.1" id="图层_1" xmlns="http://www.w3.org/2000/svg" xmlns:xlink="http://www.w3.org/1999/xlink" x="0px" y="0px"
	 width="42.52px" height="42.52px" viewBox="0 0 42.52 42.52" enable-background="new 0 0 42.52 42.52" xml:space="preserve">
<g>
	<rect x="5.75" y="26.17" fill="#231815" width="9.566" height="4.232"/>
	<rect x="5.75" y="20.424" fill="#231815" width="9.566" height="1.356"/>
	<rect x="5.75" y="23.3" fill="#231815" width="9.566" height="1.353"/>
	<rect x="16.798" y="20.424" fill="#231815" width="9.566" height="1.356"/>
	<rect x="16.798" y="23.3" fill="#231815" width="9.566" height="1.353"/>
	<rect x="16.798" y="26.17" fill="#231815" width="9.566" height="1.356"/>
	<rect x="16.798" y="29.047" fill="#231815" width="9.566" height="1.355"/>
	<path fill="#231815" d="M5.75,9.214v8.623h20.779V9.214H5.75z M11.22,16.316h-0.726l-1.907-2.688l-0.398-0.795h-0.04l0.12,0.795
		v2.648H7.325v-5.113h0.727l1.923,2.705l0.381,0.779h0.038l-0.116-0.779v-2.666h0.943V16.316z M15.136,16.277h-3.047v-5.074h3.009
		v0.884h-2.015v1.183h1.834v0.884h-1.834v1.24h2.053V16.277z M20.294,16.316h-0.669l-0.909-2.825l-0.123-0.774h-0.035l-0.122,0.782
		l-0.899,2.817h-0.704l-1.394-5.113h1.081l0.675,2.835l0.094,0.901h0.03l0.101-0.916l0.885-2.82h0.65l0.871,2.835l0.102,0.901h0.032
		l0.105-0.916l0.618-2.82h1.009L20.294,16.316z M25.178,15.505c-0.093,0.197-0.217,0.36-0.376,0.49
		c-0.162,0.13-0.36,0.228-0.59,0.292c-0.23,0.063-0.481,0.092-0.761,0.092c-0.362,0-0.68-0.034-0.956-0.102
		c-0.274-0.067-0.477-0.133-0.609-0.201l0.319-0.848c0.055,0.027,0.125,0.059,0.208,0.091c0.087,0.035,0.18,0.067,0.287,0.094
		c0.104,0.032,0.217,0.054,0.337,0.075c0.119,0.017,0.24,0.027,0.366,0.027c0.294,0,0.521-0.049,0.68-0.148
		c0.155-0.097,0.234-0.253,0.234-0.453c0-0.155-0.059-0.279-0.171-0.377c-0.111-0.094-0.255-0.182-0.426-0.264
		c-0.175-0.081-0.36-0.162-0.561-0.247c-0.2-0.084-0.389-0.189-0.561-0.313c-0.168-0.123-0.31-0.275-0.426-0.457
		c-0.113-0.183-0.17-0.419-0.17-0.704c0-0.248,0.039-0.462,0.126-0.64c0.079-0.185,0.197-0.335,0.35-0.456
		c0.153-0.124,0.332-0.211,0.539-0.267c0.21-0.06,0.44-0.088,0.699-0.088c0.294,0,0.571,0.025,0.83,0.074
		c0.265,0.05,0.478,0.127,0.646,0.221l-0.313,0.836c-0.104-0.067-0.264-0.128-0.478-0.187c-0.213-0.054-0.44-0.082-0.687-0.082
		c-0.235,0-0.412,0.046-0.538,0.139c-0.121,0.091-0.185,0.214-0.185,0.369c0,0.144,0.061,0.264,0.171,0.363
		c0.114,0.099,0.258,0.187,0.428,0.266c0.173,0.085,0.36,0.17,0.561,0.255c0.2,0.087,0.386,0.193,0.559,0.316
		c0.17,0.123,0.315,0.274,0.429,0.458c0.114,0.179,0.168,0.407,0.168,0.675C25.31,15.076,25.266,15.312,25.178,15.505z"/>
	<g>
		<path fill="#231815" d="M33.184,31.892c-0.408,0-0.739-0.33-0.739-0.74V6.471c0-0.41,0.331-0.739,0.739-0.739
			s0.737,0.33,0.737,0.739v24.681C33.921,31.562,33.592,31.892,33.184,31.892L33.184,31.892z"/>
	</g>
	<g>
		<path fill="#231815" d="M36.138,32.508c-0.405,0-0.736-0.329-0.736-0.735V7.087c0-0.409,0.331-0.74,0.736-0.74
			c0.408,0,0.742,0.332,0.742,0.74v24.686C36.88,32.179,36.546,32.508,36.138,32.508L36.138,32.508z"/>
	</g>
	<path fill="#231815" d="M39.515,6.464c-0.816,0-1.479,0.662-1.479,1.479L38.032,32.29c0,0.907-0.323,1.683-0.919,2.178
		c-0.547,0.462-1.289,0.641-2.094,0.522c-0.04-0.007-0.082-0.007-0.123-0.015c-1.957-0.355-3.611-2.365-3.611-4.395V6.232
		c0-0.423-0.179-0.804-0.463-1.071C30.56,4.735,30.1,4.45,29.565,4.45H2.995c-0.816,0-1.479,0.666-1.479,1.483
		c0,0.049,0.014,0.098,0.02,0.147c-0.006,0.053-0.02,0.099-0.02,0.152v24.349c0,3.501,2.671,6.714,6.076,7.313
		c0.991,0.175,4.498,0.233,8.685,0.233c7.274,0,16.593-0.174,18.396-0.209c0.275,0.035,0.551,0.074,0.822,0.074
		c1.313,0,2.535-0.433,3.52-1.261c1.273-1.066,1.979-2.647,1.979-4.442V7.943C40.993,7.126,40.329,6.464,39.515,6.464z
		 M8.104,34.983c-1.969-0.35-3.63-2.363-3.63-4.402V7.408H28.33v23.173c0,1.627,0.584,3.191,1.547,4.464
		C20.67,35.187,9.677,35.261,8.104,34.983z"/>
</g>
</svg>
