<?xml version="1.0" encoding="utf-8"?>
<!-- Generator: Adobe Illustrator 16.0.0, SVG Export Plug-In . SVG Version: 6.00 Build 0)  -->
<!DOCTYPE svg PUBLIC "-//W3C//DTD SVG 1.1//EN" "http://www.w3.org/Graphics/SVG/1.1/DTD/svg11.dtd">
<svg version="1.1" id="图层_1" xmlns="http://www.w3.org/2000/svg" xmlns:xlink="http://www.w3.org/1999/xlink" x="0px" y="0px"
	 width="42.52px" height="42.52px" viewBox="0 0 42.52 42.52" enable-background="new 0 0 42.52 42.52" xml:space="preserve">
<g>
	<g>
		<g>
			<path fill="#231815" d="M34.188,5.207c-0.422,0.436-0.409,1.129,0.026,1.551c2.868,2.782,4.604,8.155,4.528,14.024
				c-0.067,5.564-1.768,10.55-4.432,13.009c-0.448,0.412-0.474,1.105-0.063,1.549c0.215,0.236,0.51,0.354,0.806,0.354
				c0.267,0,0.531-0.096,0.742-0.289c3.141-2.898,5.064-8.355,5.141-14.599c0.082-6.544-1.86-12.385-5.197-15.622
				C35.304,4.762,34.611,4.77,34.188,5.207z"/>
		</g>
	</g>
	<g>
		<g>
			<path fill="#231815" d="M30.988,10.55c-0.461-0.391-1.154-0.333-1.544,0.129c-0.393,0.461-0.336,1.151,0.126,1.544
				c1.932,1.637,3.172,4.912,3.241,8.548c0.065,3.564-0.996,6.783-2.772,8.406c-0.446,0.406-0.476,1.1-0.068,1.547
				c0.215,0.238,0.511,0.357,0.812,0.357c0.263,0,0.527-0.096,0.735-0.287c2.261-2.064,3.563-5.828,3.485-10.063
				C34.922,16.419,33.422,12.615,30.988,10.55z"/>
		</g>
	</g>
	<g>
		<rect x="1.582" y="12.048" fill="#231815" width="9.757" height="18.933"/>
	</g>
	<g>
		<polygon fill="#231815" points="13.349,29.625 26.493,38.617 26.493,3.903 13.349,13.546 		"/>
	</g>
</g>
</svg>
