<?xml version="1.0" encoding="utf-8"?>
<!-- Generator: Adobe Illustrator 16.0.0, SVG Export Plug-In . SVG Version: 6.00 Build 0)  -->
<!DOCTYPE svg PUBLIC "-//W3C//DTD SVG 1.1//EN" "http://www.w3.org/Graphics/SVG/1.1/DTD/svg11.dtd">
<svg version="1.1" id="图层_1" xmlns="http://www.w3.org/2000/svg" xmlns:xlink="http://www.w3.org/1999/xlink" x="0px" y="0px"
	 width="42.52px" height="42.52px" viewBox="0 0 42.52 42.52" enable-background="new 0 0 42.52 42.52" xml:space="preserve">
<polygon fill="#231815" points="21.26,21.26 21.26,21.26 21.26,21.26 "/>
<polygon fill="#231815" points="21.26,21.26 21.26,21.26 21.26,21.26 "/>
<polygon fill="#231815" points="21.26,21.26 21.26,21.26 21.26,21.26 "/>
<g>
	<path fill="#030000" d="M8.524,19.826c2.705,0,4.898-2.192,4.898-4.896c0-2.707-2.193-4.899-4.898-4.899
		c-2.706,0-4.896,2.192-4.896,4.899C3.627,17.634,5.818,19.826,8.524,19.826z"/>
	<path fill="#030000" d="M18.215,6.821v29.044H40.93V6.821H18.215z M38.99,32.835H20.155v-3.282H38.99V32.835z M38.99,26.265H20.155
		v-3.277H38.99V26.265z M38.99,19.701H20.155v-3.283H38.99V19.701z M38.99,13.133H20.155V9.852H38.99V13.133z"/>
	<path fill="#030000" d="M15.46,33.358v-5.112c0-3.832-3.106-6.935-6.936-6.935c-3.829,0-6.935,3.103-6.935,6.935v5.112H15.46z"/>
</g>
</svg>
