<?xml version="1.0" encoding="utf-8"?>
<!-- Generator: Adobe Illustrator 16.0.0, SVG Export Plug-In . SVG Version: 6.00 Build 0)  -->
<!DOCTYPE svg PUBLIC "-//W3C//DTD SVG 1.1//EN" "http://www.w3.org/Graphics/SVG/1.1/DTD/svg11.dtd">
<svg version="1.1" id="图层_1" xmlns="http://www.w3.org/2000/svg" xmlns:xlink="http://www.w3.org/1999/xlink" x="0px" y="0px"
	 width="42.52px" height="42.52px" viewBox="0 0 42.52 42.52" enable-background="new 0 0 42.52 42.52" xml:space="preserve">
<polygon fill="#231815" points="21.26,21.26 21.26,21.26 21.26,21.26 "/>
<polygon fill="#231815" points="21.26,21.26 21.26,21.26 21.26,21.26 "/>
<polygon fill="#231815" points="21.26,21.26 21.26,21.26 21.26,21.26 "/>
<g>
	<polygon fill="#231815" points="1.518,31.825 4.878,31.825 4.878,10.694 37.643,10.694 37.643,6.694 1.518,6.694 	"/>
	<path fill="#231815" d="M22.563,27.608c-0.176-0.103-0.348-0.211-0.53-0.297c-0.978-0.458-1.954-0.929-2.946-1.354
		c-0.367-0.159-0.532-0.436-0.59-0.775c-0.039-0.241-0.09-0.408-0.352-0.418c-0.084-0.546-0.094-0.404,0.131-1.653
		c0.228-1.246,0.23-0.639,0.658-1.584c0.244-0.753,0.224-0.845-0.081-0.747c-0.05-0.055-0.038-0.179-0.033-0.271
		c0.027-0.524,0.051-1.047,0.095-1.566c0.032-0.398-0.097-0.718-0.359-1.006c-0.09-0.1-0.314-0.365-0.314-0.365l-0.082-0.757
		c-0.403,0.43-1.687,0.467-1.687,0.467s-1.161,0.113-1.674,0.262c-0.743,0.214-1.069,0.694-1.032,1.452
		c0.026,0.499,0.123,1.275,0.141,1.776c0.003,0.101-0.114-0.124-0.231-0.037c-0.118,0.085,0.039,0.651,0.22,0.959
		c0.297,0.611,0.31,0.309,0.477,1.505c0.298,1.626,0.245,1.016,0.155,1.565c-0.257,0.012-0.31,0.178-0.349,0.42
		c-0.057,0.34-0.224,0.612-0.587,0.773c-1.129,0.504-2.241,1.043-3.354,1.579c-0.353,0.172-0.602,0.428-0.545,0.868
		c2.215,0,4.431,0,6.645,0l-0.985-1.665l-0.949-1.688l1.546,0.366l0.393,0.113l1.93-0.479l-0.948,1.688l-0.986,1.665
		c2.213,0,4.428,0,6.644,0C23.028,28.041,22.871,27.782,22.563,27.608z"/>
	<path fill="#231815" d="M6.118,11.935v19.891v4h34.884V11.935h-3.359H6.118z M23.152,28.528c0,0.971-1.07,1.76-2.396,1.76h-9.004
		c-1.322,0-2.392-0.789-2.392-1.76V16.689c0-0.972,1.07-1.761,2.392-1.761h9.004c1.325,0,2.396,0.789,2.396,1.761V28.528z
		 M37.664,27.787h-0.021l-11.114,0.016c-0.291,0-0.524-0.369-0.524-0.826c0-0.459,0.233-0.827,0.522-0.829l11.116-0.015h0.017
		c0.292,0,0.527,0.37,0.527,0.826C38.187,27.416,37.953,27.786,37.664,27.787z M37.664,22.594h-0.021l-11.114,0.015
		c-0.291,0-0.524-0.369-0.524-0.825c0-0.459,0.233-0.827,0.522-0.83l11.116-0.015h0.017c0.292,0,0.527,0.37,0.527,0.828
		C38.187,22.223,37.953,22.591,37.664,22.594z M38.187,16.668c0,0.457-0.233,0.826-0.522,0.829h-0.021l-11.114,0.015
		c-0.291,0-0.524-0.369-0.524-0.827c0-0.457,0.233-0.826,0.522-0.829l11.116-0.014h0.017C37.951,15.842,38.187,16.21,38.187,16.668z
		"/>
	<polygon fill="#231815" points="15.863,25.969 16.336,28.386 16.807,25.969 16.336,25.531 	"/>
</g>
</svg>
