<?xml version="1.0" encoding="utf-8"?>
<!-- Generator: Adobe Illustrator 16.0.0, SVG Export Plug-In . SVG Version: 6.00 Build 0)  -->
<!DOCTYPE svg PUBLIC "-//W3C//DTD SVG 1.1//EN" "http://www.w3.org/Graphics/SVG/1.1/DTD/svg11.dtd">
<svg version="1.1" id="图层_1" xmlns="http://www.w3.org/2000/svg" xmlns:xlink="http://www.w3.org/1999/xlink" x="0px" y="0px"
	 width="42.52px" height="42.52px" viewBox="0 0 42.52 42.52" enable-background="new 0 0 42.52 42.52" xml:space="preserve">
<polygon fill="#231815" points="21.26,21.26 21.26,21.26 21.26,21.26 "/>
<polygon fill="#231815" points="21.26,21.26 21.26,21.26 21.26,21.26 "/>
<polygon fill="#231815" points="21.26,21.26 21.26,21.26 21.26,21.26 "/>
<g>
	<g>
		<path fill="#231815" d="M3.444,3.443v35.633h35.631V3.443H3.444z M35.971,6.551v9.935H6.551V6.551H35.971z M35.971,17.36v10.052
			H6.551V17.36H35.971z M6.551,35.971v-7.685h29.42v7.685H6.551z"/>
	</g>
	<g>
		<rect x="8.499" y="7.78" fill="#231815" width="1.68" height="6.472"/>
	</g>
	<g>
		<rect x="11.474" y="7.78" fill="#231815" width="1.683" height="6.472"/>
	</g>
	<g>
		<rect x="14.389" y="7.78" fill="#231815" width="1.684" height="6.472"/>
	</g>
	<g>
		<rect x="8.734" y="19.077" fill="#231815" width="1.685" height="6.472"/>
	</g>
	<g>
		<rect x="11.715" y="19.077" fill="#231815" width="1.682" height="6.472"/>
	</g>
	<g>
		<rect x="14.627" y="19.077" fill="#231815" width="1.683" height="6.472"/>
	</g>
	<g>
		<rect x="9.03" y="29.551" fill="#231815" width="1.449" height="5.566"/>
	</g>
	<g>
		<rect x="12.036" y="29.551" fill="#231815" width="1.449" height="5.566"/>
	</g>
	<g>
		<rect x="14.924" y="29.551" fill="#231815" width="1.448" height="5.566"/>
	</g>
</g>
</svg>
