<?xml version="1.0" encoding="utf-8"?>
<!-- Generator: Adobe Illustrator 16.0.0, SVG Export Plug-In . SVG Version: 6.00 Build 0)  -->
<!DOCTYPE svg PUBLIC "-//W3C//DTD SVG 1.1//EN" "http://www.w3.org/Graphics/SVG/1.1/DTD/svg11.dtd">
<svg version="1.1" id="图层_1" xmlns="http://www.w3.org/2000/svg" xmlns:xlink="http://www.w3.org/1999/xlink" x="0px" y="0px"
	 width="42.52px" height="42.52px" viewBox="0 0 42.52 42.52" enable-background="new 0 0 42.52 42.52" xml:space="preserve">
<g>
	<g>
		<path fill="#231815" d="M39.03,25.159c-0.497,0.494-1.305,0.494-1.801,0l-3.757-3.751c-0.495-0.504-0.495-1.308,0-1.803
			l1.506-1.505c0.492-0.496,1.301-0.496,1.8,0l3.755,3.756c0.497,0.497,0.497,1.301,0,1.796L39.03,25.159z"/>
		<path fill="#231815" d="M24.319,39.873L36.481,27.71c0.493-0.495,0.493-1.307,0-1.802l-3.76-3.752
			c-0.496-0.499-1.302-0.499-1.798,0L18.76,34.314L24.319,39.873z"/>
		<polygon fill="#231815" points="17.636,38.214 17.545,38.509 16.518,42.083 20.083,41.051 20.383,40.964 		"/>
	</g>
	<g>
		<path fill="#231815" d="M7.775,13.492h18.469c0.637,0,1.155-0.518,1.155-1.154c0-0.639-0.519-1.157-1.155-1.157H7.775
			c-0.637,0-1.155,0.519-1.155,1.157C6.621,12.975,7.139,13.492,7.775,13.492z"/>
		<path fill="#231815" d="M7.775,18.364h18.469c0.637,0,1.155-0.52,1.155-1.155s-0.519-1.153-1.155-1.153H7.775
			c-0.637,0-1.155,0.518-1.155,1.153S7.139,18.364,7.775,18.364z"/>
		<path fill="#231815" d="M7.775,23.237h18.469c0.637,0,1.155-0.517,1.155-1.155c0-0.635-0.519-1.152-1.155-1.152H7.775
			c-0.637,0-1.155,0.518-1.155,1.152C6.621,22.721,7.139,23.237,7.775,23.237z"/>
		<path fill="#231815" d="M7.775,28.113h18.469c0.637,0,1.155-0.52,1.155-1.156c0-0.639-0.519-1.155-1.155-1.155H7.775
			c-0.637,0-1.155,0.517-1.155,1.155C6.621,27.594,7.139,28.113,7.775,28.113z"/>
		<path fill="#231815" d="M30.093,0.437H10.08c-0.399,0-0.781,0.156-1.066,0.434L2.086,7.538c-0.301,0.29-0.473,0.689-0.473,1.11
			v27.965c0,0.851,0.688,1.538,1.539,1.538h14.493l0.891-3.079H4.692V9.865h5.648c0.655,0,1.187-0.532,1.187-1.186V3.518h17.026
			v31.555H19.51l3.084,3.079h7.499c0.848,0,1.538-0.688,1.538-1.538V1.976C31.631,1.128,30.94,0.437,30.093,0.437z"/>
	</g>
</g>
</svg>
