<?xml version="1.0" encoding="utf-8"?>
<!-- Generator: Adobe Illustrator 16.0.0, SVG Export Plug-In . SVG Version: 6.00 Build 0)  -->
<!DOCTYPE svg PUBLIC "-//W3C//DTD SVG 1.1//EN" "http://www.w3.org/Graphics/SVG/1.1/DTD/svg11.dtd">
<svg version="1.1" id="图层_1" xmlns="http://www.w3.org/2000/svg" xmlns:xlink="http://www.w3.org/1999/xlink" x="0px" y="0px"
	 width="42.52px" height="42.52px" viewBox="0 0 42.52 42.52" enable-background="new 0 0 42.52 42.52" xml:space="preserve">
<polygon fill="#231815" points="21.26,21.26 21.26,21.26 21.26,21.26 "/>
<polygon fill="#231815" points="21.26,21.26 21.26,21.26 21.26,21.26 "/>
<polygon fill="#231815" points="21.26,21.26 21.26,21.26 21.26,21.26 "/>
<g>
	<path fill="#030000" d="M15.128,19.101c-7.546,0-13.663,8.368-13.663,18.69c0,0.344,0.008,0.688,0.021,1.029h27.284
		c0.016-0.342,0.021-0.686,0.021-1.029C28.792,27.469,22.673,19.101,15.128,19.101z M15.255,17.178c3.809,0,6.897-3.017,6.897-6.74
		c0-3.721-3.089-6.738-6.897-6.738c-3.808,0-6.896,3.018-6.896,6.738C8.359,14.161,11.447,17.178,15.255,17.178z"/>
	<path fill="#030000" d="M31.939,25.654c-0.662,0-1.302,0.102-1.921,0.281c1.73,3.352,2.757,7.434,2.757,11.85
		c0,0.344-0.007,0.688-0.021,1.029h8.288c0.008-0.227,0.012-0.457,0.012-0.686C41.055,31.24,36.972,25.654,31.939,25.654z
		 M36.624,19.875c0-2.483-2.059-4.497-4.602-4.497c-2.542,0-4.603,2.014-4.603,4.497c0,2.482,2.061,4.496,4.603,4.496
		C34.565,24.371,36.624,22.357,36.624,19.875z"/>
</g>
</svg>
