<?xml version="1.0" encoding="utf-8"?>
<!-- Generator: Adobe Illustrator 16.0.0, SVG Export Plug-In . SVG Version: 6.00 Build 0)  -->
<!DOCTYPE svg PUBLIC "-//W3C//DTD SVG 1.1//EN" "http://www.w3.org/Graphics/SVG/1.1/DTD/svg11.dtd">
<svg version="1.1" id="图层_1" xmlns="http://www.w3.org/2000/svg" xmlns:xlink="http://www.w3.org/1999/xlink" x="0px" y="0px"
	 width="42.52px" height="42.52px" viewBox="0 0 42.52 42.52" enable-background="new 0 0 42.52 42.52" xml:space="preserve">
<polygon fill="#231815" points="21.26,21.26 21.26,21.26 21.26,21.26 "/>
<polygon fill="#231815" points="21.26,21.26 21.26,21.26 21.26,21.26 "/>
<polygon fill="#231815" points="21.26,21.26 21.26,21.26 21.26,21.26 "/>
<g>
	<path fill="#231815" d="M27.334,29.984c1.57,0,2.844,1.271,2.844,2.842c0,1.572-1.273,2.844-2.844,2.844s-2.844-1.271-2.844-2.844
		C24.49,31.256,25.764,29.984,27.334,29.984z M28.926,32.826c0-0.879-0.713-1.592-1.592-1.592c-0.881,0-1.594,0.713-1.594,1.592
		c0,0.883,0.713,1.594,1.594,1.594C28.213,34.42,28.926,33.709,28.926,32.826z"/>
	<path fill="#231815" d="M9.386,32.826c0,1.572-1.272,2.844-2.842,2.844c-1.571,0-2.842-1.271-2.842-2.844
		c0-1.57,1.271-2.842,2.842-2.842C8.114,29.984,9.386,31.256,9.386,32.826z M8.137,32.826c0-0.879-0.712-1.592-1.593-1.592
		c-0.879,0-1.591,0.713-1.591,1.592c0,0.883,0.712,1.594,1.591,1.594C7.425,34.42,8.137,33.709,8.137,32.826z"/>
	<path fill="#231815" d="M2.399,24.607v1.775h4.052v-2.535h4.256v-4.535H5.191L2.399,24.607z M6.434,28.844
		c-1.951,0-3.533,1.535-3.628,3.459H0.05v-7.695l4.313-7.696h8.925v15.391h-3.229C9.967,30.379,8.382,28.844,6.434,28.844z"/>
	<g>
		<path fill="#231815" d="M31.449,13.257c0-0.194,0.014-0.385,0.037-0.573H14.65v19.619h9.104c0.088-1.924,1.619-3.459,3.496-3.459
			s3.404,1.535,3.494,3.459h6.883V17.906c-0.426,0.123-0.871,0.192-1.338,0.192C33.621,18.099,31.449,15.929,31.449,13.257z"/>
	</g>
	<path fill="#231815" d="M37.627,6.849c-2.668,0-4.842,2.173-4.842,4.841c0,2.671,2.174,4.842,4.842,4.842
		c2.67,0,4.842-2.171,4.842-4.842C42.469,9.022,40.297,6.849,37.627,6.849z M40.412,12.504H38.48v1.972h-1.684v-1.972h-1.955V10.82
		h1.955V8.907h1.684v1.914h1.932V12.504z"/>
</g>
</svg>
