<?xml version="1.0" encoding="utf-8"?>
<!-- Generator: Adobe Illustrator 16.0.0, SVG Export Plug-In . SVG Version: 6.00 Build 0)  -->
<!DOCTYPE svg PUBLIC "-//W3C//DTD SVG 1.1//EN" "http://www.w3.org/Graphics/SVG/1.1/DTD/svg11.dtd">
<svg version="1.1" id="图层_1" xmlns="http://www.w3.org/2000/svg" xmlns:xlink="http://www.w3.org/1999/xlink" x="0px" y="0px"
	 width="42.52px" height="42.52px" viewBox="0 0 42.52 42.52" enable-background="new 0 0 42.52 42.52" xml:space="preserve">
<polygon fill="#231815" points="21.26,21.26 21.26,21.26 21.26,21.26 "/>
<polygon fill="#231815" points="21.26,21.26 21.26,21.26 21.26,21.26 "/>
<polygon fill="#231815" points="21.26,21.26 21.26,21.26 21.26,21.26 "/>
<g>
	<path fill="#231815" d="M27.338,30.09c1.572,0,2.847,1.272,2.847,2.844c0,1.573-1.274,2.847-2.847,2.847s-2.846-1.273-2.846-2.847
		C24.492,31.362,25.766,30.09,27.338,30.09z M28.932,32.934c0-0.88-0.715-1.593-1.594-1.593c-0.883,0-1.594,0.713-1.594,1.593
		c0,0.882,0.711,1.595,1.594,1.595C28.217,34.528,28.932,33.815,28.932,32.934z"/>
	<path fill="#231815" d="M9.376,32.934c0,1.573-1.273,2.847-2.845,2.847c-1.572,0-2.844-1.273-2.844-2.847
		c0-1.571,1.272-2.844,2.844-2.844C8.103,30.09,9.376,31.362,9.376,32.934z M8.126,32.934c0-0.88-0.712-1.593-1.594-1.593
		c-0.879,0-1.592,0.713-1.592,1.593c0,0.882,0.713,1.595,1.592,1.595C7.414,34.528,8.126,33.815,8.126,32.934z"/>
	<path fill="#231815" d="M2.384,24.708v1.777h4.056v-2.538h4.258v-4.538H5.177L2.384,24.708z M6.422,28.948
		c-1.953,0-3.536,1.535-3.632,3.461H0.033v-7.701l4.315-7.702h8.933v15.403H10.05C9.958,30.483,8.371,28.948,6.422,28.948z"/>
	<g>
		<path fill="#231815" d="M31.456,13.349c0-0.194,0.013-0.386,0.037-0.574H14.644v19.635h9.112c0.087-1.926,1.62-3.461,3.496-3.461
			c1.88,0,3.407,1.535,3.499,3.461h6.888V18.002c-0.426,0.123-0.872,0.191-1.338,0.191C33.631,18.193,31.456,16.021,31.456,13.349z"
			/>
	</g>
	<path fill="#231815" d="M37.639,6.739c-2.672,0-4.846,2.176-4.846,4.846c0,2.674,2.174,4.846,4.846,4.846
		c2.673,0,4.848-2.172,4.848-4.846C42.486,8.915,40.312,6.739,37.639,6.739z M40.249,13.969c-0.219,0.511-0.779,0.844-1.331,0.792
		c-0.138-0.014-0.297-0.133-0.351-0.23c-0.634-1.117-1.265-2.232-1.896-3.351c-0.573-0.009-1.128-0.305-1.438-0.835
		c-0.357-0.611-0.295-1.356,0.103-1.896l0.677,1.15c0.057,0.101,0.183,0.131,0.278,0.072l0.798-0.474
		c0.099-0.06,0.13-0.184,0.073-0.282l-0.676-1.153c0.661-0.091,1.474,0.213,1.831,0.823c0.312,0.529,0.17,1.159-0.099,1.673
		c0.667,1.095,1.333,2.191,2,3.286C40.276,13.641,40.306,13.838,40.249,13.969z"/>
</g>
</svg>
