<?xml version="1.0" encoding="utf-8"?>
<!-- Generator: Adobe Illustrator 16.0.0, SVG Export Plug-In . SVG Version: 6.00 Build 0)  -->
<!DOCTYPE svg PUBLIC "-//W3C//DTD SVG 1.1//EN" "http://www.w3.org/Graphics/SVG/1.1/DTD/svg11.dtd">
<svg version="1.1" id="图层_1" xmlns="http://www.w3.org/2000/svg" xmlns:xlink="http://www.w3.org/1999/xlink" x="0px" y="0px"
	 width="42.52px" height="42.52px" viewBox="0 0 42.52 42.52" enable-background="new 0 0 42.52 42.52" xml:space="preserve">
<polygon fill="#231815" points="21.26,21.26 21.26,21.26 21.26,21.26 "/>
<polygon fill="#231815" points="21.26,21.26 21.26,21.26 21.26,21.26 "/>
<polygon fill="#231815" points="21.26,21.26 21.26,21.26 21.26,21.26 "/>
<g>
	<path fill="#231815" d="M15.991,3.852c0,2.063-1.671,3.735-3.733,3.735c-2.058,0-3.735-1.673-3.735-3.735
		c0-2.064,1.677-3.735,3.735-3.735C14.319,0.117,15.991,1.787,15.991,3.852z"/>
	<path fill="#231815" d="M20.914,12.827c-0.343-4.093-5.095-4.038-5.095-4.038H8.332c-5.362,0.103-5.171,4.038-5.171,4.038
		l-0.003,9.185h0.007c0,0.021-0.004,0.041-0.004,0.068c0,0.873,0.706,1.578,1.579,1.578c0.873,0,1.572-0.705,1.572-1.578
		c0-0.027-0.004-0.047-0.004-0.068h0.004v-8.498h0.987L7.286,40.27c0,1.174,0.95,2.133,2.133,2.133c1.171,0,2.128-0.959,2.128-2.133
		l-0.002-17.258h0.95v17.277l0.015,0.018c0.013,1.158,0.959,2.092,2.116,2.092c1.17,0,2.118-0.947,2.118-2.115l-0.008-26.81h1.027
		v8.538h0.002c0,0.012,0,0.012,0,0.014c0,0.869,0.703,1.578,1.575,1.578c0.869,0,1.574-0.709,1.574-1.578c0-0.002,0-0.002,0-0.014
		l0,0V12.827z"/>
	<circle fill="#231815" cx="30.707" cy="3.852" r="3.732"/>
	<path fill="#231815" d="M39.361,12.827C39.02,8.734,34.268,8.79,34.268,8.79h-7.484c-5.365,0.103-5.173,4.038-5.173,4.038v9.185
		h0.003c0,0.021-0.003,0.041-0.003,0.068c0,0.873,0.709,1.578,1.577,1.578c0.87,0,1.573-0.705,1.573-1.578
		c0-0.027-0.003-0.047-0.005-0.068h0.005v-8.498h0.988L25.736,40.27c0,1.174,0.952,2.133,2.132,2.133
		c1.172,0,2.131-0.959,2.131-2.133l-0.005-17.258h0.95v17.277l0.015,0.018c0.015,1.158,0.957,2.092,2.115,2.092
		c1.171,0,2.121-0.947,2.121-2.115l-0.007-26.81h1.022v8.538h0.002c0,0.012,0,0.012,0,0.014c0,0.869,0.703,1.578,1.579,1.578
		c0.866,0,1.569-0.709,1.569-1.578c0-0.002,0-0.002,0-0.014l0,0V12.827z"/>
</g>
</svg>
