<?xml version="1.0" encoding="utf-8"?>
<!-- Generator: Adobe Illustrator 16.0.0, SVG Export Plug-In . SVG Version: 6.00 Build 0)  -->
<!DOCTYPE svg PUBLIC "-//W3C//DTD SVG 1.1//EN" "http://www.w3.org/Graphics/SVG/1.1/DTD/svg11.dtd">
<svg version="1.1" id="图层_1" xmlns="http://www.w3.org/2000/svg" xmlns:xlink="http://www.w3.org/1999/xlink" x="0px" y="0px"
	 width="42.52px" height="42.52px" viewBox="0 0 42.52 42.52" enable-background="new 0 0 42.52 42.52" xml:space="preserve">
<polygon fill="#231815" points="21.26,21.26 21.26,21.26 21.26,21.26 "/>
<polygon fill="#231815" points="21.26,21.26 21.26,21.26 21.26,21.26 "/>
<polygon fill="#231815" points="21.26,21.26 21.26,21.26 21.26,21.26 "/>
<g>
	<path fill="#231815" d="M24.365,4.552c1.081-1.327,1.092-3.106,0.021-3.987c-1.073-0.873-2.822-0.514-3.905,0.811
		c-1.079,1.323-1.091,3.111-0.019,3.987C21.531,6.239,23.279,5.874,24.365,4.552z"/>
	<path fill="#231815" d="M7.148,23.107c-0.042,0.119,0.016,0.249,0.135,0.291l0.374,0.139c0.119,0.043,0.247-0.018,0.289-0.133
		c0.01-0.026,0.015-0.051,0.015-0.077c0.403,0.104,0.833-0.108,0.979-0.513l1.371-3.705c0.161-0.43-0.06-0.911-0.492-1.07
		l-1.071-0.397l0.048-0.128c0.217-0.593-0.085-1.251-0.676-1.471l-1.497-0.551c-0.592-0.223-1.251,0.081-1.468,0.676l-0.049,0.13
		L4.034,15.9c-0.431-0.16-0.909,0.06-1.069,0.491l-1.37,3.705c-0.152,0.403,0.034,0.842,0.409,1.031
		c-0.015,0.018-0.029,0.039-0.038,0.064c-0.044,0.116,0.017,0.246,0.133,0.288l0.373,0.139c0.116,0.045,0.246-0.014,0.289-0.134
		c0.013-0.02,0.013-0.042,0.013-0.062l4.413,1.632C7.172,23.069,7.158,23.088,7.148,23.107z M5.692,16.512l0.047-0.129
		c0.101-0.268,0.399-0.406,0.668-0.306l1.496,0.554c0.27,0.097,0.408,0.397,0.304,0.666l-0.046,0.13L5.692,16.512z"/>
	<path fill="#231815" d="M33.286,30.623l-1.071,0.19c-0.145-0.361-0.317-0.71-0.508-1.039l0.801-0.678
		c0.194-0.163,0.22-0.452,0.059-0.644l-1.179-1.393c-0.16-0.19-0.45-0.217-0.644-0.056l-0.833,0.705
		c-0.303-0.241-0.622-0.459-0.956-0.649l0.357-0.99c0.082-0.238-0.042-0.498-0.276-0.582l-1.715-0.623
		c-0.236-0.083-0.499,0.04-0.585,0.276l-0.371,1.024c-0.377-0.056-0.762-0.085-1.154-0.08l-0.184-1.034
		c-0.047-0.251-0.282-0.418-0.529-0.373l-1.441,0.259c0.385-1.089,0.833-2.438,1.292-3.852l0.696-2.157l0.02-0.068l0.01-0.032
		l0.006-0.009v-0.004c-0.717-1.124,1.605,2.509-1.606-2.521l-0.018-0.003l-0.141-0.015l-0.278-0.037l-0.552-0.063l-1.08-0.128
		c-0.675-0.083-1.317-0.155-1.905-0.223c0.424-1.196,0.844-2.393,1.257-3.593l0.199,0.876l0.086,0.369l0.049,0.207l0.002,0.015
		c0,0,1.178,1.313,0.969,1.08h0.005L22.11,14.8l0.088,0.035l0.703,0.285l5.629,2.287c0.446-1.083,0.858-2.184,1.231-3.299
		l-5.747-1.968l-0.126-0.042l-0.353-1.224l-0.845-2.916c-0.078-0.268-0.494-1.04-0.623-1.111c-0.162-0.088-0.327-0.166-0.492-0.251
		l0.234,0.978L20.86,7.928l-0.045,1.098l-2.25,3.133l1.664-4.731l0.203-0.141l0.235-1.128l-0.56-0.206L19.52,6.95l0.057,0.239
		l-1.955,4.634l0.43-3.814l0.709-0.854l-0.475-0.882l0.933-0.653l0.01-0.04c-0.611-0.221-1.231-0.417-1.873-0.578
		c-0.773-0.22-1.149-0.354-1.741-0.01l-5.446,3.221c-2.25,2.841-2.507,3.896-3.854,5.929c0.997,0.621,2.018,1.201,3.058,1.743
		c0.778-1.592,2.194-4.196,2.488-4.976l2.653-1.771c-1.062,2.578-2.109,5.155-3.122,7.753c-0.008,0.023-0.008,0.049-0.015,0.074
		c0.704,0.266,1.408,0.532,2.113,0.797c-0.46,1.803-0.961,3.754-1.257,4.941l-3.202,6.277l2.994,1.639
		c1.137-2.302,3.053-4.627,4.126-8.256c0.314-1.131,0.6-2.162,0.828-2.998l0.997,0.091c0.063,0.022,0.125,0.048,0.185,0.071
		c0.009-0.017,0.016-0.034,0.022-0.053l2.819,0.263l-0.255,0.896l-0.95,3.276l3.22,1.037l-0.313,0.054
		c-0.252,0.042-0.415,0.282-0.37,0.53l0.19,1.073c-0.359,0.144-0.709,0.311-1.039,0.504l-0.678-0.803
		c-0.163-0.192-0.449-0.217-0.646-0.054l-1.393,1.178c-0.191,0.159-0.213,0.45-0.053,0.643l0.705,0.831
		c-0.24,0.307-0.459,0.621-0.648,0.957l-0.989-0.357c-0.24-0.082-0.504,0.04-0.585,0.276l-0.623,1.715
		c-0.085,0.235,0.038,0.498,0.276,0.582l1.026,0.371c-0.059,0.378-0.087,0.766-0.084,1.153l-1.035,0.186
		c-0.247,0.044-0.413,0.285-0.369,0.53l0.323,1.795c0.046,0.248,0.279,0.413,0.53,0.369l1.074-0.192
		c0.14,0.365,0.31,0.714,0.504,1.041l-0.804,0.679c-0.189,0.162-0.217,0.451-0.054,0.646l1.175,1.389
		c0.161,0.191,0.453,0.217,0.642,0.055l0.837-0.702c0.303,0.241,0.623,0.457,0.956,0.647l-0.355,0.991
		c-0.089,0.237,0.035,0.497,0.274,0.584l1.717,0.618c0.232,0.086,0.497-0.036,0.58-0.274l0.372-1.024
		c0.375,0.058,0.765,0.082,1.154,0.078l0.187,1.041c0.042,0.244,0.28,0.412,0.527,0.367l1.794-0.322
		c0.248-0.041,0.413-0.281,0.369-0.528L28,40.501c0.364-0.143,0.713-0.312,1.043-0.508l0.676,0.804
		c0.163,0.191,0.453,0.219,0.646,0.055l1.394-1.178c0.19-0.161,0.215-0.449,0.052-0.639l-0.701-0.839
		c0.238-0.302,0.457-0.62,0.649-0.957l0.991,0.359c0.234,0.086,0.494-0.039,0.582-0.274l0.617-1.716
		c0.085-0.235-0.036-0.497-0.271-0.583l-1.027-0.371c0.058-0.377,0.087-0.761,0.081-1.151l1.037-0.186
		c0.246-0.045,0.412-0.284,0.366-0.532l-0.32-1.791C33.768,30.743,33.533,30.577,33.286,30.623z M30.795,32.563
		c0.189,1.057,0.063,2.094-0.304,3.027l-1.924-1.323c0.091-0.419,0.107-0.861,0.024-1.311c-0.165-0.937-0.701-1.707-1.43-2.2
		l0.188-2.418C29.087,29.04,30.44,30.584,30.795,32.563z M24.179,28.043l-0.186,2.375c-1.294,0.523-2.133,1.805-2.098,3.215
		l-2.136,1.02c-0.009-0.035-0.021-0.069-0.027-0.109C19.191,31.521,21.177,28.637,24.179,28.043z M26.255,39.081
		c-1.905,0.342-3.757-0.321-5.014-1.606l2.233-1.067c0.688,0.434,1.523,0.627,2.386,0.473c0.221-0.038,0.427-0.1,0.625-0.177
		l2.054,1.408C27.879,38.585,27.107,38.931,26.255,39.081z"/>
	<path fill="#231815" d="M15.941,36.927l-1.121-0.407c-0.021-0.006-0.038-0.005-0.057-0.006c-0.006-0.185-0.017-0.369-0.05-0.557
		c-0.054-0.285-0.14-0.559-0.254-0.812l0.883-0.742c0.154-0.131,0.174-0.36,0.043-0.515l-1.006-1.19
		c-0.13-0.156-0.362-0.176-0.515-0.048l-0.911,0.767c-0.016,0.014-0.024,0.032-0.038,0.044c-0.402-0.221-0.856-0.368-1.333-0.42
		l-0.205-1.135c-0.034-0.199-0.224-0.33-0.425-0.294l-1.529,0.272c-0.2,0.034-0.335,0.228-0.297,0.427l0.207,1.173
		c0.004,0.019,0.015,0.035,0.021,0.053c-0.405,0.245-0.754,0.566-1.031,0.945l-1.083-0.392c-0.191-0.067-0.403,0.028-0.471,0.22
		l-0.53,1.465c-0.067,0.191,0.029,0.4,0.223,0.469l1.12,0.405c0.019,0.007,0.037,0.005,0.057,0.007
		c0.002,0.186,0.016,0.371,0.051,0.559c0.051,0.285,0.136,0.555,0.25,0.809l-0.883,0.742c-0.152,0.131-0.175,0.363-0.041,0.518
		l1.001,1.189c0.132,0.157,0.363,0.175,0.518,0.044l0.913-0.767c0.013-0.015,0.019-0.029,0.032-0.043
		c0.408,0.226,0.862,0.37,1.336,0.424l0.202,1.133c0.037,0.197,0.229,0.33,0.428,0.297l1.535-0.278
		c0.196-0.034,0.331-0.225,0.293-0.424l-0.207-1.175c-0.005-0.018-0.016-0.033-0.021-0.05c0.406-0.247,0.754-0.567,1.029-0.946
		l1.086,0.394c0.189,0.067,0.402-0.032,0.47-0.222l0.527-1.467C16.229,37.201,16.128,36.992,15.941,36.927z M9.523,36.887
		c-0.167-0.927,0.449-1.813,1.375-1.977c0.928-0.168,1.813,0.449,1.978,1.373c0.167,0.927-0.451,1.814-1.375,1.978
		C10.574,38.427,9.691,37.811,9.523,36.887z"/>
	<path fill="#231815" d="M40.785,27.058l-0.894-0.321c-0.019-0.007-0.035-0.005-0.051-0.007c-0.003-0.145-0.006-0.293-0.035-0.441
		c-0.039-0.226-0.114-0.439-0.203-0.642l0.705-0.595c0.122-0.104,0.14-0.289,0.035-0.412l-0.798-0.947
		c-0.106-0.125-0.289-0.141-0.414-0.034l-0.723,0.61c-0.016,0.01-0.021,0.027-0.034,0.043c-0.325-0.177-0.679-0.292-1.056-0.332
		l-0.161-0.915c-0.029-0.159-0.181-0.264-0.339-0.235l-1.22,0.219c-0.157,0.028-0.264,0.181-0.235,0.34l0.166,0.93
		c0.001,0.019,0.012,0.032,0.017,0.048c-0.32,0.194-0.599,0.45-0.817,0.751l-0.865-0.315c-0.152-0.054-0.319,0.022-0.376,0.177
		l-0.422,1.165c-0.051,0.153,0.026,0.32,0.177,0.372l0.892,0.323c0.016,0.006,0.035,0.006,0.049,0.009
		c0.008,0.146,0.011,0.294,0.038,0.443c0.04,0.226,0.113,0.437,0.203,0.639l-0.707,0.595c-0.124,0.104-0.139,0.287-0.034,0.41
		l0.801,0.945c0.103,0.127,0.287,0.141,0.408,0.038l0.727-0.613c0.016-0.01,0.023-0.028,0.034-0.042
		c0.323,0.179,0.678,0.293,1.053,0.332l0.163,0.916c0.032,0.157,0.183,0.262,0.339,0.233l1.221-0.218
		c0.157-0.027,0.265-0.181,0.238-0.335l-0.169-0.938c-0.003-0.017-0.012-0.028-0.018-0.042c0.321-0.197,0.602-0.452,0.818-0.752
		l0.867,0.313c0.153,0.056,0.318-0.023,0.373-0.175l0.422-1.166C41.015,27.28,40.934,27.113,40.785,27.058z M35.677,27.025
		c-0.131-0.735,0.36-1.441,1.099-1.572c0.734-0.132,1.438,0.359,1.571,1.094c0.133,0.739-0.356,1.441-1.095,1.574
		C36.515,28.251,35.811,27.764,35.677,27.025z"/>
</g>
</svg>
